<svg version="1.1" xmlns="http://www.w3.org/2000/svg" xmlns:xlink="http://www.w3.org/1999/xlink" width="714" height="417"><defs/><g><g transform="translate(-24,-9) scale(1,1)"><path fill="none" stroke="#000000" d="M 34 19 L 728 19 L 728 416 L 34 416 L 34 19" stroke-miterlimit="10"/></g><g transform="translate(-24,-9) scale(1,1)"><path fill="#ffffff" stroke="none" d="M 34 19 L 34 41 L 204.62890625 41 L 215.62890625 30 L 215.62890625 19 L 34 19"/></g><g transform="translate(-24,-9) scale(1,1)"><path fill="none" stroke="#000000" d="M 34 19 L 34 41 L 204.62890625 41 L 215.62890625 30 L 215.62890625 19 L 34 19 L 34 19" stroke-miterlimit="10"/></g><g transform="translate(-24,-9) scale(1,1)"><g><path fill="none" stroke="none"/><text fill="#000000" stroke="none" font-family="Arial" font-size="13px" font-style="normal" font-weight="normal" text-decoration="none" x="74.6181640625" y="35">Main ( 217Y1A05C0 )</text></g></g><g transform="translate(-24,-9) scale(1,1)"><g><path fill="none" stroke="none"/><text fill="#000000" stroke="none" font-family="Arial" font-size="13px" font-style="normal" font-weight="bold" text-decoration="none" x="37.543212890625" y="35">class</text></g></g><g transform="translate(-24,-9) scale(1,1)"><rect fill="#ffffff" stroke="none" x="64" y="220" width="153.47900390625" height="39"/></g><g transform="translate(-24,-9) scale(1,1)"><path fill="none" stroke="#000000" d="M 64 220 L 217.47900390625 220 L 217.47900390625 259 L 64 259 L 64 220 Z Z" stroke-miterlimit="10"/></g><g transform="translate(-24,-9) scale(1,1)"><rect fill="#ffffff" stroke="none" x="64" y="205" width="61.3916015625" height="15"/></g><g transform="translate(-24,-9) scale(1,1)"><path fill="none" stroke="#000000" d="M 64 205 L 125.3916015625 205 L 125.3916015625 220 L 64 220 L 64 205 Z Z" stroke-miterlimit="10"/></g><g transform="translate(-24,-9) scale(1,1)"><rect fill="#ffffff" stroke="none" x="64" y="219" width="153.47900390625" height="40"/></g><g transform="translate(-24,-9) scale(1,1)"><path fill="none" stroke="#000000" d="M 64 219 L 217.47900390625 219 L 217.47900390625 259 L 64 259 L 64 219 Z Z" stroke-miterlimit="10"/></g><g transform="translate(-24,-9) scale(1,1)"><path fill="none" stroke="#000000" d="M 116.3916015625 208 L 110.3916015625 215 L 122.3916015625 215 L 116.3916015625 208" stroke-miterlimit="10"/></g><g transform="translate(-24,-9) scale(1,1)"><g><path fill="none" stroke="none"/><text fill="#000000" stroke="none" font-family="Arial" font-size="13px" font-style="normal" font-weight="bold" text-decoration="none" x="104.634033203125" y="238">Component</text></g></g><g transform="translate(-24,-9) scale(1,1)"><g><path fill="none" stroke="none"/><text fill="#000000" stroke="none" font-family="Arial" font-size="13px" font-style="normal" font-weight="normal" text-decoration="none" x="68.5" y="253">(from Exam Registration)</text></g></g><g transform="translate(-24,-9) scale(1,1)"><rect fill="#ffffff" stroke="none" x="64" y="122" width="153.47900390625" height="39"/></g><g transform="translate(-24,-9) scale(1,1)"><path fill="none" stroke="#000000" d="M 64 122 L 217.47900390625 122 L 217.47900390625 161 L 64 161 L 64 122 Z Z" stroke-miterlimit="10"/></g><g transform="translate(-24,-9) scale(1,1)"><rect fill="#ffffff" stroke="none" x="64" y="107" width="61.3916015625" height="15"/></g><g transform="translate(-24,-9) scale(1,1)"><path fill="none" stroke="#000000" d="M 64 107 L 125.3916015625 107 L 125.3916015625 122 L 64 122 L 64 107 Z Z" stroke-miterlimit="10"/></g><g transform="translate(-24,-9) scale(1,1)"><rect fill="#ffffff" stroke="none" x="64" y="121" width="153.47900390625" height="40"/></g><g transform="translate(-24,-9) scale(1,1)"><path fill="none" stroke="#000000" d="M 64 121 L 217.47900390625 121 L 217.47900390625 161 L 64 161 L 64 121 Z Z" stroke-miterlimit="10"/></g><g transform="translate(-24,-9) scale(1,1)"><path fill="none" stroke="#000000" d="M 116.3916015625 110 L 110.3916015625 117 L 122.3916015625 117 L 116.3916015625 110" stroke-miterlimit="10"/></g><g transform="translate(-24,-9) scale(1,1)"><g><path fill="none" stroke="none"/><text fill="#000000" stroke="none" font-family="Arial" font-size="13px" font-style="normal" font-weight="bold" text-decoration="none" x="99.924072265625" y="140">Deployement</text></g></g><g transform="translate(-24,-9) scale(1,1)"><g><path fill="none" stroke="none"/><text fill="#000000" stroke="none" font-family="Arial" font-size="13px" font-style="normal" font-weight="normal" text-decoration="none" x="68.5" y="155">(from Exam Registration)</text></g></g><g transform="translate(-24,-9) scale(1,1)"><rect fill="#ffffff" stroke="none" x="64" y="318" width="153.47900390625" height="39"/></g><g transform="translate(-24,-9) scale(1,1)"><path fill="none" stroke="#000000" d="M 64 318 L 217.47900390625 318 L 217.47900390625 357 L 64 357 L 64 318 Z Z" stroke-miterlimit="10"/></g><g transform="translate(-24,-9) scale(1,1)"><rect fill="#ffffff" stroke="none" x="64" y="303" width="61.3916015625" height="15"/></g><g transform="translate(-24,-9) scale(1,1)"><path fill="none" stroke="#000000" d="M 64 303 L 125.3916015625 303 L 125.3916015625 318 L 64 318 L 64 303 Z Z" stroke-miterlimit="10"/></g><g transform="translate(-24,-9) scale(1,1)"><rect fill="#ffffff" stroke="none" x="64" y="317" width="153.47900390625" height="40"/></g><g transform="translate(-24,-9) scale(1,1)"><path fill="none" stroke="#000000" d="M 64 317 L 217.47900390625 317 L 217.47900390625 357 L 64 357 L 64 317 Z Z" stroke-miterlimit="10"/></g><g transform="translate(-24,-9) scale(1,1)"><path fill="none" stroke="#000000" d="M 116.3916015625 306 L 110.3916015625 313 L 122.3916015625 313 L 116.3916015625 306" stroke-miterlimit="10"/></g><g transform="translate(-24,-9) scale(1,1)"><g><path fill="none" stroke="none"/><text fill="#000000" stroke="none" font-family="Arial" font-size="13px" font-style="normal" font-weight="bold" text-decoration="none" x="123.39453125" y="336">Class</text></g></g><g transform="translate(-24,-9) scale(1,1)"><g><path fill="none" stroke="none"/><text fill="#000000" stroke="none" font-family="Arial" font-size="13px" font-style="normal" font-weight="normal" text-decoration="none" x="68.5" y="351">(from Exam Registration)</text></g></g><g transform="translate(-24,-9) scale(1,1)"><rect fill="#ffffff" stroke="none" x="256" y="304" width="157.2998046875" height="22"/></g><g transform="translate(-24,-9) scale(1,1)"><path fill="none" stroke="#000000" d="M 256 304 L 413.2998046875 304 L 413.2998046875 326 L 256 326 L 256 304 Z Z" stroke-miterlimit="10"/></g><g transform="translate(-24,-9) scale(1,1)"><path fill="none" stroke="#000000" d="M 288.39453125 304 L 288.39453125 326" stroke-miterlimit="10"/></g><g transform="translate(-24,-9) scale(1,1)"><g><path fill="none" stroke="none"/><text fill="#000000" stroke="none" font-family="Arial" font-size="13px" font-style="normal" font-weight="normal" text-decoration="none" x="292.89453125" y="320">SequenceDiagram1</text></g></g><g transform="translate(-24,-9) scale(1,1)"><g><path fill="none" stroke="none"/><text fill="#000000" stroke="none" font-family="Arial" font-size="13px" font-style="normal" font-weight="bold" text-decoration="none" x="261" y="320">link</text></g></g><g transform="translate(-24,-9) scale(1,1)"><path fill="#ffffff" stroke="none" d="M 266 227 C 266 212.0883104 300.35744146484376 200 342.739501953125 200 C 385.12156244140624 200 419.47900390625 212.0883104 419.47900390625 227 C 419.47900390625 241.9116896 385.12156244140624 254 342.739501953125 254 C 300.35744146484376 254 266 241.9116896 266 227 Z"/></g><g transform="translate(-24,-9) scale(1,1)"><path fill="none" stroke="#000000" d="M 266 227 C 266 212.0883104 300.35744146484376 200 342.739501953125 200 C 385.12156244140624 200 419.47900390625 212.0883104 419.47900390625 227 C 419.47900390625 241.9116896 385.12156244140624 254 342.739501953125 254 C 300.35744146484376 254 266 241.9116896 266 227 Z" stroke-miterlimit="10" stroke-dasharray="5"/></g><g transform="translate(-24,-9) scale(1,1)"><g><path fill="none" stroke="none"/><text fill="#000000" stroke="none" font-family="Arial" font-size="13px" font-style="normal" font-weight="bold" text-decoration="none" x="297.236328125" y="218">Collaboration1</text></g></g><g transform="translate(-24,-9) scale(1,1)"><g><path fill="none" stroke="none"/><text fill="#000000" stroke="none" font-family="Arial" font-size="13px" font-style="normal" font-weight="normal" text-decoration="none" x="270.5" y="233">(from Exam Registration)</text></g></g><g transform="translate(-24,-9) scale(1,1)"><rect fill="#ffffff" stroke="none" x="460" y="107" width="246.89697265625" height="22"/></g><g transform="translate(-24,-9) scale(1,1)"><path fill="none" stroke="#000000" d="M 460 107 L 706.89697265625 107 L 706.89697265625 129 L 460 129 L 460 107 Z Z" stroke-miterlimit="10"/></g><g transform="translate(-24,-9) scale(1,1)"><path fill="none" stroke="#000000" d="M 492.39453125 107 L 492.39453125 129" stroke-miterlimit="10"/></g><g transform="translate(-24,-9) scale(1,1)"><g><path fill="none" stroke="none"/><text fill="#000000" stroke="none" font-family="Arial" font-size="13px" font-style="normal" font-weight="normal" text-decoration="none" x="496.89453125" y="123">217Y1A05C0 - StatechartDiagram1</text></g></g><g transform="translate(-24,-9) scale(1,1)"><g><path fill="none" stroke="none"/><text fill="#000000" stroke="none" font-family="Arial" font-size="13px" font-style="normal" font-weight="bold" text-decoration="none" x="465" y="123">link</text></g></g><g transform="translate(-24,-9) scale(1,1)"><rect fill="#ffffff" stroke="none" x="460" y="156" width="246.89697265625" height="22"/></g><g transform="translate(-24,-9) scale(1,1)"><path fill="none" stroke="#000000" d="M 460 156 L 706.89697265625 156 L 706.89697265625 178 L 460 178 L 460 156 Z Z" stroke-miterlimit="10"/></g><g transform="translate(-24,-9) scale(1,1)"><path fill="none" stroke="#000000" d="M 492.39453125 156 L 492.39453125 178" stroke-miterlimit="10"/></g><g transform="translate(-24,-9) scale(1,1)"><g><path fill="none" stroke="none"/><text fill="#000000" stroke="none" font-family="Arial" font-size="13px" font-style="normal" font-weight="normal" text-decoration="none" x="496.89453125" y="172">217Y1A05C0 - ActivityDiagram1</text></g></g><g transform="translate(-24,-9) scale(1,1)"><g><path fill="none" stroke="none"/><text fill="#000000" stroke="none" font-family="Arial" font-size="13px" font-style="normal" font-weight="bold" text-decoration="none" x="465" y="172">link</text></g></g><g transform="translate(-24,-9) scale(1,1)"><rect fill="#ffffff" stroke="none" x="460" y="205" width="246.89697265625" height="22"/></g><g transform="translate(-24,-9) scale(1,1)"><path fill="none" stroke="#000000" d="M 460 205 L 706.89697265625 205 L 706.89697265625 227 L 460 227 L 460 205 Z Z" stroke-miterlimit="10"/></g><g transform="translate(-24,-9) scale(1,1)"><path fill="none" stroke="#000000" d="M 492.39453125 205 L 492.39453125 227" stroke-miterlimit="10"/></g><g transform="translate(-24,-9) scale(1,1)"><g><path fill="none" stroke="none"/><text fill="#000000" stroke="none" font-family="Arial" font-size="13px" font-style="normal" font-weight="normal" text-decoration="none" x="496.89453125" y="221">217Y1A05C0 - DFDDiagram0</text></g></g><g transform="translate(-24,-9) scale(1,1)"><g><path fill="none" stroke="none"/><text fill="#000000" stroke="none" font-family="Arial" font-size="13px" font-style="normal" font-weight="bold" text-decoration="none" x="465" y="221">link</text></g></g><g transform="translate(-24,-9) scale(1,1)"><rect fill="#ffffff" stroke="none" x="460" y="254" width="246.89697265625" height="22"/></g><g transform="translate(-24,-9) scale(1,1)"><path fill="none" stroke="#000000" d="M 460 254 L 706.89697265625 254 L 706.89697265625 276 L 460 276 L 460 254 Z Z" stroke-miterlimit="10"/></g><g transform="translate(-24,-9) scale(1,1)"><path fill="none" stroke="#000000" d="M 492.39453125 254 L 492.39453125 276" stroke-miterlimit="10"/></g><g transform="translate(-24,-9) scale(1,1)"><g><path fill="none" stroke="none"/><text fill="#000000" stroke="none" font-family="Arial" font-size="13px" font-style="normal" font-weight="normal" text-decoration="none" x="496.89453125" y="270">217Y1A05C0 - DFDDiagram1</text></g></g><g transform="translate(-24,-9) scale(1,1)"><g><path fill="none" stroke="none"/><text fill="#000000" stroke="none" font-family="Arial" font-size="13px" font-style="normal" font-weight="bold" text-decoration="none" x="465" y="270">link</text></g></g><g transform="translate(-24,-9) scale(1,1)"><rect fill="#ffffff" stroke="none" x="460" y="303" width="246.89697265625" height="22"/></g><g transform="translate(-24,-9) scale(1,1)"><path fill="none" stroke="#000000" d="M 460 303 L 706.89697265625 303 L 706.89697265625 325 L 460 325 L 460 303 Z Z" stroke-miterlimit="10"/></g><g transform="translate(-24,-9) scale(1,1)"><path fill="none" stroke="#000000" d="M 492.39453125 303 L 492.39453125 325" stroke-miterlimit="10"/></g><g transform="translate(-24,-9) scale(1,1)"><g><path fill="none" stroke="none"/><text fill="#000000" stroke="none" font-family="Arial" font-size="13px" font-style="normal" font-weight="normal" text-decoration="none" x="496.89453125" y="319">217Y1A05C0 - DFDDiagram2</text></g></g><g transform="translate(-24,-9) scale(1,1)"><g><path fill="none" stroke="none"/><text fill="#000000" stroke="none" font-family="Arial" font-size="13px" font-style="normal" font-weight="bold" text-decoration="none" x="465" y="319">link</text></g></g><g transform="translate(-24,-9) scale(1,1)"><rect fill="#ffffff" stroke="none" x="460" y="352" width="246.89697265625" height="22"/></g><g transform="translate(-24,-9) scale(1,1)"><path fill="none" stroke="#000000" d="M 460 352 L 706.89697265625 352 L 706.89697265625 374 L 460 374 L 460 352 Z Z" stroke-miterlimit="10"/></g><g transform="translate(-24,-9) scale(1,1)"><path fill="none" stroke="#000000" d="M 492.39453125 352 L 492.39453125 374" stroke-miterlimit="10"/></g><g transform="translate(-24,-9) scale(1,1)"><g><path fill="none" stroke="none"/><text fill="#000000" stroke="none" font-family="Arial" font-size="13px" font-style="normal" font-weight="normal" text-decoration="none" x="496.89453125" y="368">217Y1A05C0 - UseCaseDiagram1</text></g></g><g transform="translate(-24,-9) scale(1,1)"><g><path fill="none" stroke="none"/><text fill="#000000" stroke="none" font-family="Arial" font-size="13px" font-style="normal" font-weight="bold" text-decoration="none" x="465" y="368">link</text></g></g></g></svg>