<svg version="1.1" xmlns="http://www.w3.org/2000/svg" xmlns:xlink="http://www.w3.org/1999/xlink" width="908" height="532"><defs/><g><g transform="translate(-38,2) scale(1,1)"><path fill="none" stroke="#000000" d="M 48 8 L 936 8 L 936 520 L 48 520 L 48 8" stroke-miterlimit="10"/></g><g transform="translate(-38,2) scale(1,1)"><path fill="#ffffff" stroke="none" d="M 48 8 L 48 30 L 288.7578125 30 L 299.7578125 19 L 299.7578125 8 L 48 8"/></g><g transform="translate(-38,2) scale(1,1)"><path fill="none" stroke="#000000" d="M 48 8 L 48 30 L 288.7578125 30 L 299.7578125 19 L 299.7578125 8 L 48 8 L 48 8" stroke-miterlimit="10"/></g><g transform="translate(-38,2) scale(1,1)"><g><path fill="none" stroke="none"/><text fill="#000000" stroke="none" font-family="Arial" font-size="13px" font-style="normal" font-weight="normal" text-decoration="none" x="72.72998046875" y="24">SequenceDiagram1 - 2177Y1A05C0</text></g></g><g transform="translate(-38,2) scale(1,1)"><g><path fill="none" stroke="none"/><text fill="#000000" stroke="none" font-family="Arial" font-size="13px" font-style="normal" font-weight="bold" text-decoration="none" x="52.279541015625" y="24">sd</text></g></g><g transform="translate(-38,2) scale(1,1)"><path fill="#ffffff" stroke="none" d="M 114.0213485440341 47.3 C 114.0213485440341 43.82060576 116.8997502662159 41 120.450439453125 41 C 124.0011286400341 41 126.87953036221592 43.82060576 126.87953036221592 47.3 C 126.87953036221592 50.779394239999995 124.0011286400341 53.6 120.450439453125 53.6 C 116.8997502662159 53.6 114.0213485440341 50.779394239999995 114.0213485440341 47.3 Z"/></g><g transform="translate(-38,2) scale(1,1)"><path fill="none" stroke="#000000" d="M 114.0213485440341 47.3 C 114.0213485440341 43.82060576 116.8997502662159 41 120.450439453125 41 C 124.0011286400341 41 126.87953036221592 43.82060576 126.87953036221592 47.3 C 126.87953036221592 50.779394239999995 124.0011286400341 53.6 120.450439453125 53.6 C 116.8997502662159 53.6 114.0213485440341 50.779394239999995 114.0213485440341 47.3 Z" stroke-miterlimit="10"/></g><g transform="translate(-38,2) scale(1,1)"><path fill="none" stroke="#000000" d="M 120.450439453125 53.6 L 120.450439453125 66.4" stroke-miterlimit="10"/></g><g transform="translate(-38,2) scale(1,1)"><path fill="none" stroke="#000000" d="M 113.64316672585228 58.4 L 127.25771218039773 58.4" stroke-miterlimit="10"/></g><g transform="translate(-38,2) scale(1,1)"><path fill="none" stroke="#000000" d="M 120.450439453125 66.4 L 110.99589399857955 79" stroke-miterlimit="10"/></g><g transform="translate(-38,2) scale(1,1)"><path fill="none" stroke="#000000" d="M 120.450439453125 66.4 L 129.90498490767047 79" stroke-miterlimit="10"/></g><g transform="translate(-38,2) scale(1,1)"><g><path fill="none" stroke="none"/><text fill="#000000" stroke="none" font-family="Arial" font-size="13px" font-style="normal" font-weight="bold" text-decoration="none" x="60.5" y="98">Lifeline1: Applicant</text></g></g><g transform="translate(-38,2) scale(1,1)"><path fill="none" stroke="#000000" d="M 121.5 105 L 121.5 501" stroke-miterlimit="10" stroke-dasharray="3"/></g><g transform="translate(-38,2) scale(1,1)"><path fill="#ffffff" stroke="none" d="M 806.070909090909 47.3 C 806.070909090909 43.82060576 808.949310813091 41 812.5 41 C 816.050689186909 41 818.9290909090909 43.82060576 818.9290909090909 47.3 C 818.9290909090909 50.779394239999995 816.050689186909 53.6 812.5 53.6 C 808.949310813091 53.6 806.070909090909 50.779394239999995 806.070909090909 47.3 Z"/></g><g transform="translate(-38,2) scale(1,1)"><path fill="none" stroke="#000000" d="M 806.070909090909 47.3 C 806.070909090909 43.82060576 808.949310813091 41 812.5 41 C 816.050689186909 41 818.9290909090909 43.82060576 818.9290909090909 47.3 C 818.9290909090909 50.779394239999995 816.050689186909 53.6 812.5 53.6 C 808.949310813091 53.6 806.070909090909 50.779394239999995 806.070909090909 47.3 Z" stroke-miterlimit="10"/></g><g transform="translate(-38,2) scale(1,1)"><path fill="none" stroke="#000000" d="M 812.5 53.6 L 812.5 66.4" stroke-miterlimit="10"/></g><g transform="translate(-38,2) scale(1,1)"><path fill="none" stroke="#000000" d="M 805.6927272727272 58.4 L 819.3072727272727 58.4" stroke-miterlimit="10"/></g><g transform="translate(-38,2) scale(1,1)"><path fill="none" stroke="#000000" d="M 812.5 66.4 L 803.0454545454545 79" stroke-miterlimit="10"/></g><g transform="translate(-38,2) scale(1,1)"><path fill="none" stroke="#000000" d="M 812.5 66.4 L 821.9545454545454 79" stroke-miterlimit="10"/></g><g transform="translate(-38,2) scale(1,1)"><g><path fill="none" stroke="none"/><text fill="#000000" stroke="none" font-family="Arial" font-size="13px" font-style="normal" font-weight="bold" text-decoration="none" x="774.575927734375" y="98">Recruitment</text><text fill="#000000" stroke="none" font-family="Arial" font-size="13px" font-style="normal" font-weight="bold" text-decoration="none" x="765.552734375" y="111">Committee: HR</text></g></g><g transform="translate(-38,2) scale(1,1)"><path fill="none" stroke="#000000" d="M 813.5 118 L 813.5 501" stroke-miterlimit="10" stroke-dasharray="3"/></g><g transform="translate(-38,2) scale(1,1)"><rect fill="#C0C0C0" stroke="none" x="308" y="47" width="109.30810546875" height="39" opacity="0.2"/></g><g transform="translate(-38,2) scale(1,1)"><rect fill="#ffffff" stroke="none" x="301" y="40" width="109.30810546875" height="39"/></g><g transform="translate(-38,2) scale(1,1)"><path fill="none" stroke="#000000" d="M 301 40 L 410.30810546875 40 L 410.30810546875 79 L 301 79 L 301 40 Z Z" stroke-miterlimit="10"/></g><g transform="translate(-38,2) scale(1,1)"><g><path fill="none" stroke="none"/><text fill="#000000" stroke="none" font-family="Arial" font-size="13px" font-style="normal" font-weight="bold" text-decoration="none" x="310.5" y="58">Advertisement</text></g></g><g transform="translate(-38,2) scale(1,1)"><path fill="none" stroke="#000000" d="M 356.5 80 L 356.5 211" stroke-miterlimit="10" stroke-dasharray="3"/></g><g transform="translate(-38,2) scale(1,1)"><rect fill="#C0C0C0" stroke="none" x="533" y="47" width="109.30810546875" height="39" opacity="0.2"/></g><g transform="translate(-38,2) scale(1,1)"><rect fill="#ffffff" stroke="none" x="526" y="40" width="109.30810546875" height="39"/></g><g transform="translate(-38,2) scale(1,1)"><path fill="none" stroke="#000000" d="M 526 40 L 635.30810546875 40 L 635.30810546875 79 L 526 79 L 526 40 Z Z" stroke-miterlimit="10"/></g><g transform="translate(-38,2) scale(1,1)"><g><path fill="none" stroke="none"/><text fill="#000000" stroke="none" font-family="Arial" font-size="13px" font-style="normal" font-weight="bold" text-decoration="none" x="540.5654296875" y="58">Organisation</text></g></g><g transform="translate(-38,2) scale(1,1)"><path fill="none" stroke="#000000" d="M 581.5 80 L 581.5 274" stroke-miterlimit="10" stroke-dasharray="3"/></g><g transform="translate(-38,2) scale(1,1)"><path fill="none" stroke="#000000" d="M 121 169 L 349 169" stroke-miterlimit="10"/></g><g transform="translate(-38,2) scale(1,1)"><path fill="#000000" stroke="none" d="M 338.83732514237585 173.209517756016 L 349 169 L 338.83732514237585 164.790482243984"/></g><g transform="translate(-38,2) scale(1,1)"><path fill="none" stroke="#000000" d="M 338.83732514237585 173.209517756016 L 349 169 L 338.83732514237585 164.790482243984 L 338.83732514237585 173.209517756016" stroke-miterlimit="10"/></g><g transform="translate(-38,2) scale(1,1)"><g><path fill="none" stroke="none"/><text fill="#000000" stroke="none" font-family="Arial" font-size="13px" font-style="normal" font-weight="normal" text-decoration="none" x="195.982421875" y="164">1 : View Jobs</text></g></g><g transform="translate(-38,2) scale(1,1)"><rect fill="#ffffff" stroke="none" x="349" y="169" width="13" height="28"/></g><g transform="translate(-38,2) scale(1,1)"><path fill="none" stroke="#000000" d="M 349 169 L 362 169 L 362 197 L 349 197 L 349 169 Z Z" stroke-miterlimit="10"/></g><g transform="translate(-38,2) scale(1,1)"><path fill="none" stroke="#000000" d="M 121 224 L 574 224" stroke-miterlimit="10"/></g><g transform="translate(-38,2) scale(1,1)"><path fill="#000000" stroke="none" d="M 563.8373251423759 228.209517756016 L 574 224 L 563.8373251423758 219.790482243984"/></g><g transform="translate(-38,2) scale(1,1)"><path fill="none" stroke="#000000" d="M 563.8373251423759 228.209517756016 L 574 224 L 563.8373251423758 219.790482243984 L 563.8373251423759 228.209517756016" stroke-miterlimit="10"/></g><g transform="translate(-38,2) scale(1,1)"><g><path fill="none" stroke="none"/><text fill="#000000" stroke="none" font-family="Arial" font-size="13px" font-style="normal" font-weight="normal" text-decoration="none" x="296.5" y="219">2 : Apply for Jobs</text></g></g><g transform="translate(-38,2) scale(1,1)"><rect fill="#ffffff" stroke="none" x="574" y="224" width="13" height="28"/></g><g transform="translate(-38,2) scale(1,1)"><path fill="none" stroke="#000000" d="M 574 224 L 587 224 L 587 252 L 574 252 L 574 224 Z Z" stroke-miterlimit="10"/></g><g transform="translate(-38,2) scale(1,1)"><path fill="none" stroke="#000000" d="M 587 226 L 806 226" stroke-miterlimit="10"/></g><g transform="translate(-38,2) scale(1,1)"><path fill="#000000" stroke="none" d="M 795.8373251423759 230.209517756016 L 806 226 L 795.8373251423758 221.790482243984"/></g><g transform="translate(-38,2) scale(1,1)"><path fill="none" stroke="#000000" d="M 795.8373251423759 230.209517756016 L 806 226 L 795.8373251423758 221.790482243984 L 795.8373251423759 230.209517756016" stroke-miterlimit="10"/></g><g transform="translate(-38,2) scale(1,1)"><g><path fill="none" stroke="none"/><text fill="#000000" stroke="none" font-family="Arial" font-size="13px" font-style="normal" font-weight="normal" text-decoration="none" x="605.5" y="221">3 : Forward Applicants Resume</text></g></g><g transform="translate(-38,2) scale(1,1)"><rect fill="#ffffff" stroke="none" x="806" y="226" width="13" height="28"/></g><g transform="translate(-38,2) scale(1,1)"><path fill="none" stroke="#000000" d="M 806 226 L 819 226 L 819 254 L 806 254 L 806 226 Z Z" stroke-miterlimit="10"/></g><g transform="translate(-38,2) scale(1,1)"><path fill="none" stroke="#000000" d="M 819 240 L 849 240 L 849 260 L 819 260" stroke-miterlimit="10"/></g><g transform="translate(-38,2) scale(1,1)"><path fill="#000000" stroke="none" d="M 829.1626748576241 255.790482243984 L 819 260 L 829.1626748576241 264.209517756016"/></g><g transform="translate(-38,2) scale(1,1)"><path fill="none" stroke="#000000" d="M 829.1626748576241 255.790482243984 L 819 260 L 829.1626748576241 264.209517756016 L 829.1626748576241 255.790482243984" stroke-miterlimit="10"/></g><g transform="translate(-38,2) scale(1,1)"><g><path fill="none" stroke="none"/><text fill="#000000" stroke="none" font-family="Arial" font-size="13px" font-style="normal" font-weight="normal" text-decoration="none" x="878.2626953125" y="233">4 :</text><text fill="#000000" stroke="none" font-family="Arial" font-size="13px" font-style="normal" font-weight="normal" text-decoration="none" x="862.364990234375" y="246">Analyse</text><text fill="#000000" stroke="none" font-family="Arial" font-size="13px" font-style="normal" font-weight="normal" text-decoration="none" x="855.5" y="259">Applicants</text><text fill="#000000" stroke="none" font-family="Arial" font-size="13px" font-style="normal" font-weight="normal" text-decoration="none" x="861.285888671875" y="272">Resume</text></g></g><g transform="translate(-38,2) scale(1,1)"><rect fill="#ffffff" stroke="none" x="806" y="260" width="13" height="28"/></g><g transform="translate(-38,2) scale(1,1)"><path fill="none" stroke="#000000" d="M 806 260 L 819 260 L 819 288 L 806 288 L 806 260 Z Z" stroke-miterlimit="10"/></g><g transform="translate(-38,2) scale(1,1)"><path fill="none" stroke="#000000" d="M 806 280 L 127 280" stroke-miterlimit="10"/></g><g transform="translate(-38,2) scale(1,1)"><path fill="#000000" stroke="none" d="M 137.16267485762415 275.790482243984 L 127 280 L 137.16267485762415 284.209517756016"/></g><g transform="translate(-38,2) scale(1,1)"><path fill="none" stroke="#000000" d="M 137.16267485762415 275.790482243984 L 127 280 L 137.16267485762415 284.209517756016 L 137.16267485762415 275.790482243984" stroke-miterlimit="10"/></g><g transform="translate(-38,2) scale(1,1)"><g><path fill="none" stroke="none"/><text fill="#000000" stroke="none" font-family="Arial" font-size="13px" font-style="normal" font-weight="normal" text-decoration="none" x="324.66455078125" y="274">5 : Send interview call or Letter or Email</text></g></g><g transform="translate(-38,2) scale(1,1)"><rect fill="#ffffff" stroke="none" x="114" y="280" width="13" height="28"/></g><g transform="translate(-38,2) scale(1,1)"><path fill="none" stroke="#000000" d="M 114 280 L 127 280 L 127 308 L 114 308 L 114 280 Z Z" stroke-miterlimit="10"/></g><g transform="translate(-38,2) scale(1,1)"><path fill="none" stroke="#000000" d="M 121 336 L 806 336" stroke-miterlimit="10"/></g><g transform="translate(-38,2) scale(1,1)"><path fill="#000000" stroke="none" d="M 795.8373251423759 340.209517756016 L 806 336 L 795.8373251423758 331.790482243984"/></g><g transform="translate(-38,2) scale(1,1)"><path fill="none" stroke="#000000" d="M 795.8373251423759 340.209517756016 L 806 336 L 795.8373251423758 331.790482243984 L 795.8373251423759 340.209517756016" stroke-miterlimit="10"/></g><g transform="translate(-38,2) scale(1,1)"><g><path fill="none" stroke="none"/><text fill="#000000" stroke="none" font-family="Arial" font-size="13px" font-style="normal" font-weight="normal" text-decoration="none" x="421.5" y="331">6 : Attend Test</text></g></g><g transform="translate(-38,2) scale(1,1)"><rect fill="#ffffff" stroke="none" x="806" y="336" width="13" height="40"/></g><g transform="translate(-38,2) scale(1,1)"><path fill="none" stroke="#000000" d="M 806 336 L 819 336 L 819 376 L 806 376 L 806 336 Z Z" stroke-miterlimit="10"/></g><g transform="translate(-38,2) scale(1,1)"><path fill="none" stroke="#000000" d="M 813 376 L 127 376" stroke-miterlimit="10"/></g><g transform="translate(-38,2) scale(1,1)"><path fill="#000000" stroke="none" d="M 137.16267485762415 371.790482243984 L 127 376 L 137.16267485762415 380.209517756016"/></g><g transform="translate(-38,2) scale(1,1)"><path fill="none" stroke="#000000" d="M 137.16267485762415 371.790482243984 L 127 376 L 137.16267485762415 380.209517756016 L 137.16267485762415 371.790482243984" stroke-miterlimit="10"/></g><g transform="translate(-38,2) scale(1,1)"><g><path fill="none" stroke="none"/><text fill="#000000" stroke="none" font-family="Arial" font-size="13px" font-style="normal" font-weight="normal" text-decoration="none" x="362.5" y="371">7 : Selected or Not Selected Informed</text></g></g><g transform="translate(-38,2) scale(1,1)"><rect fill="#ffffff" stroke="none" x="114" y="376" width="13" height="28"/></g><g transform="translate(-38,2) scale(1,1)"><path fill="none" stroke="#000000" d="M 114 376 L 127 376 L 127 404 L 114 404 L 114 376 Z Z" stroke-miterlimit="10"/></g><g transform="translate(-38,2) scale(1,1)"><path fill="none" stroke="#000000" d="M 121 416 L 806 416" stroke-miterlimit="10"/></g><g transform="translate(-38,2) scale(1,1)"><path fill="#000000" stroke="none" d="M 795.8373251423759 420.209517756016 L 806 416 L 795.8373251423758 411.790482243984"/></g><g transform="translate(-38,2) scale(1,1)"><path fill="none" stroke="#000000" d="M 795.8373251423759 420.209517756016 L 806 416 L 795.8373251423758 411.790482243984 L 795.8373251423759 420.209517756016" stroke-miterlimit="10"/></g><g transform="translate(-38,2) scale(1,1)"><g><path fill="none" stroke="none"/><text fill="#000000" stroke="none" font-family="Arial" font-size="13px" font-style="normal" font-weight="normal" text-decoration="none" x="407.5" y="411">8 : Attend Interview</text></g></g><g transform="translate(-38,2) scale(1,1)"><rect fill="#ffffff" stroke="none" x="806" y="416" width="13" height="28"/></g><g transform="translate(-38,2) scale(1,1)"><path fill="none" stroke="#000000" d="M 806 416 L 819 416 L 819 444 L 806 444 L 806 416 Z Z" stroke-miterlimit="10"/></g><g transform="translate(-38,2) scale(1,1)"><path fill="none" stroke="#000000" d="M 806 432 L 127 432" stroke-miterlimit="10"/></g><g transform="translate(-38,2) scale(1,1)"><path fill="#000000" stroke="none" d="M 137.16267485762415 427.790482243984 L 127 432 L 137.16267485762415 436.209517756016"/></g><g transform="translate(-38,2) scale(1,1)"><path fill="none" stroke="#000000" d="M 137.16267485762415 427.790482243984 L 127 432 L 137.16267485762415 436.209517756016 L 137.16267485762415 427.790482243984" stroke-miterlimit="10"/></g><g transform="translate(-38,2) scale(1,1)"><g><path fill="none" stroke="none"/><text fill="#000000" stroke="none" font-family="Arial" font-size="13px" font-style="normal" font-weight="normal" text-decoration="none" x="331.5" y="447">9 : Applicant passed Test &amp; Interview informed</text></g></g><g transform="translate(-38,2) scale(1,1)"><rect fill="#ffffff" stroke="none" x="114" y="432" width="13" height="71"/></g><g transform="translate(-38,2) scale(1,1)"><path fill="none" stroke="#000000" d="M 114 432 L 127 432 L 127 503 L 114 503 L 114 432 Z Z" stroke-miterlimit="10"/></g><g transform="translate(-38,2) scale(1,1)"><path fill="none" stroke="#000000" d="M 813 472 L 134 472" stroke-miterlimit="10"/></g><g transform="translate(-38,2) scale(1,1)"><path fill="#000000" stroke="none" d="M 144.16267485762415 467.790482243984 L 134 472 L 144.16267485762415 476.209517756016"/></g><g transform="translate(-38,2) scale(1,1)"><path fill="none" stroke="#000000" d="M 144.16267485762415 467.790482243984 L 134 472 L 144.16267485762415 476.209517756016 L 144.16267485762415 467.790482243984" stroke-miterlimit="10"/></g><g transform="translate(-38,2) scale(1,1)"><g><path fill="none" stroke="none"/><text fill="#000000" stroke="none" font-family="Arial" font-size="13px" font-style="normal" font-weight="normal" text-decoration="none" x="386.5" y="487">10 : Salary Fixed or Recruited</text></g></g><g transform="translate(-38,2) scale(1,1)"><rect fill="#ffffff" stroke="none" x="121" y="472" width="13" height="28"/></g><g transform="translate(-38,2) scale(1,1)"><path fill="none" stroke="#000000" d="M 121 472 L 134 472 L 134 500 L 121 500 L 121 472 Z Z" stroke-miterlimit="10"/></g></g></svg>