<svg version="1.1" xmlns="http://www.w3.org/2000/svg" xmlns:xlink="http://www.w3.org/1999/xlink" width="596" height="356"><defs/><g><g transform="translate(-38,-78) scale(1,1)"><path fill="none" stroke="#000000" d="M 48 88 L 624 88 L 624 424 L 48 424 L 48 88" stroke-miterlimit="10"/></g><g transform="translate(-38,-78) scale(1,1)"><path fill="#ffffff" stroke="none" d="M 48 88 L 48 110 L 276.443359375 110 L 287.443359375 99 L 287.443359375 88 L 48 88"/></g><g transform="translate(-38,-78) scale(1,1)"><path fill="none" stroke="#000000" d="M 48 88 L 48 110 L 276.443359375 110 L 287.443359375 99 L 287.443359375 88 L 48 88 L 48 88" stroke-miterlimit="10"/></g><g transform="translate(-38,-78) scale(1,1)"><g><path fill="none" stroke="none"/><text fill="#000000" stroke="none" font-family="Arial" font-size="13px" font-style="normal" font-weight="normal" text-decoration="none" x="72.72998046875" y="104">217Y1A05C0 - UseCaseDiagram1</text></g></g><g transform="translate(-38,-78) scale(1,1)"><g><path fill="none" stroke="none"/><text fill="#000000" stroke="none" font-family="Arial" font-size="13px" font-style="normal" font-weight="bold" text-decoration="none" x="52.279541015625" y="102.5">uc</text></g></g><g transform="translate(-38,-78) scale(1,1)"><path fill="#ffffff" stroke="none" d="M 81.02751438210227 193.68 C 81.02751438210227 188.886167936 84.91335670704773 185 89.706787109375 185 C 94.50021751170227 185 98.38605983664773 188.886167936 98.38605983664773 193.68 C 98.38605983664773 198.47383206400002 94.50021751170227 202.36 89.706787109375 202.36 C 84.91335670704773 202.36 81.02751438210227 198.47383206400002 81.02751438210227 193.68 Z"/></g><g transform="translate(-38,-78) scale(1,1)"><path fill="none" stroke="#000000" d="M 81.02751438210227 193.68 C 81.02751438210227 188.886167936 84.91335670704773 185 89.706787109375 185 C 94.50021751170227 185 98.38605983664773 188.886167936 98.38605983664773 193.68 C 98.38605983664773 198.47383206400002 94.50021751170227 202.36 89.706787109375 202.36 C 84.91335670704773 202.36 81.02751438210227 198.47383206400002 81.02751438210227 193.68 Z" stroke-miterlimit="10"/></g><g transform="translate(-38,-78) scale(1,1)"><path fill="none" stroke="#000000" d="M 89.706787109375 202.36 L 89.706787109375 219.64" stroke-miterlimit="10"/></g><g transform="translate(-38,-78) scale(1,1)"><path fill="none" stroke="#000000" d="M 80.51696892755682 208.84 L 98.89660529119318 208.84" stroke-miterlimit="10"/></g><g transform="translate(-38,-78) scale(1,1)"><path fill="none" stroke="#000000" d="M 89.706787109375 219.64 L 76.94315074573863 237" stroke-miterlimit="10"/></g><g transform="translate(-38,-78) scale(1,1)"><path fill="none" stroke="#000000" d="M 89.706787109375 219.64 L 102.47042347301137 237" stroke-miterlimit="10"/></g><g transform="translate(-38,-78) scale(1,1)"><g><path fill="none" stroke="none"/><text fill="#000000" stroke="none" font-family="Arial" font-size="13px" font-style="normal" font-weight="bold" text-decoration="none" x="60.094970703125" y="256">Applicant</text></g></g><g transform="translate(-38,-78) scale(1,1)"><path fill="#ffffff" stroke="none" d="M 555.9093503196023 193.68 C 555.9093503196023 188.886167936 559.7951926445477 185 564.588623046875 185 C 569.3820534492023 185 573.2678957741477 188.886167936 573.2678957741477 193.68 C 573.2678957741477 198.47383206400002 569.3820534492023 202.36 564.588623046875 202.36 C 559.7951926445477 202.36 555.9093503196023 198.47383206400002 555.9093503196023 193.68 Z"/></g><g transform="translate(-38,-78) scale(1,1)"><path fill="none" stroke="#000000" d="M 555.9093503196023 193.68 C 555.9093503196023 188.886167936 559.7951926445477 185 564.588623046875 185 C 569.3820534492023 185 573.2678957741477 188.886167936 573.2678957741477 193.68 C 573.2678957741477 198.47383206400002 569.3820534492023 202.36 564.588623046875 202.36 C 559.7951926445477 202.36 555.9093503196023 198.47383206400002 555.9093503196023 193.68 Z" stroke-miterlimit="10"/></g><g transform="translate(-38,-78) scale(1,1)"><path fill="none" stroke="#000000" d="M 564.588623046875 202.36 L 564.588623046875 219.64" stroke-miterlimit="10"/></g><g transform="translate(-38,-78) scale(1,1)"><path fill="none" stroke="#000000" d="M 555.3988048650568 208.84 L 573.7784412286932 208.84" stroke-miterlimit="10"/></g><g transform="translate(-38,-78) scale(1,1)"><path fill="none" stroke="#000000" d="M 564.588623046875 219.64 L 551.8249866832386 237" stroke-miterlimit="10"/></g><g transform="translate(-38,-78) scale(1,1)"><path fill="none" stroke="#000000" d="M 564.588623046875 219.64 L 577.3522594105114 237" stroke-miterlimit="10"/></g><g transform="translate(-38,-78) scale(1,1)"><g><path fill="none" stroke="none"/><text fill="#000000" stroke="none" font-family="Arial" font-size="13px" font-style="normal" font-weight="bold" text-decoration="none" x="524.5" y="256">Organisation</text></g></g><g transform="translate(-38,-78) scale(1,1)"><path fill="#C0C0C0" stroke="none" d="M 290 136 C 290 126.6111584 322.90706720000003 119 363.5 119 C 404.09293279999997 119 437 126.6111584 437 136 C 437 145.3888416 404.09293279999997 153 363.5 153 C 322.90706720000003 153 290 145.3888416 290 136 Z" opacity="0.2"/></g><g transform="translate(-38,-78) scale(1,1)"><path fill="#d6ffae" stroke="none" d="M 283 129 C 283 119.6111584 315.90706720000003 112 356.5 112 C 397.09293279999997 112 430 119.6111584 430 129 C 430 138.3888416 397.09293279999997 146 356.5 146 C 315.90706720000003 146 283 138.3888416 283 129 Z"/></g><g transform="translate(-38,-78) scale(1,1)"><path fill="none" stroke="#000000" d="M 283 129 C 283 119.6111584 315.90706720000003 112 356.5 112 C 397.09293279999997 112 430 119.6111584 430 129 C 430 138.3888416 397.09293279999997 146 356.5 146 C 315.90706720000003 146 283 138.3888416 283 129 Z" stroke-miterlimit="10"/></g><g transform="translate(-38,-78) scale(1,1)"><g><path fill="none" stroke="none"/><text fill="#000000" stroke="none" font-family="Arial" font-size="13px" font-style="normal" font-weight="bold" text-decoration="none" x="314.9609375" y="134.5">Advertisment</text></g></g><g transform="translate(-38,-78) scale(1,1)"><path fill="#C0C0C0" stroke="none" d="M 278 187 C 278 177.6111584 316.055792 170 363 170 C 409.944208 170 448 177.6111584 448 187 C 448 196.3888416 409.944208 204 363 204 C 316.055792 204 278 196.3888416 278 187 Z" opacity="0.2"/></g><g transform="translate(-38,-78) scale(1,1)"><path fill="#d6ffae" stroke="none" d="M 271 180 C 271 170.6111584 309.055792 163 356 163 C 402.944208 163 441 170.6111584 441 180 C 441 189.3888416 402.944208 197 356 197 C 309.055792 197 271 189.3888416 271 180 Z"/></g><g transform="translate(-38,-78) scale(1,1)"><path fill="none" stroke="#000000" d="M 271 180 C 271 170.6111584 309.055792 163 356 163 C 402.944208 163 441 170.6111584 441 180 C 441 189.3888416 402.944208 197 356 197 C 309.055792 197 271 189.3888416 271 180 Z" stroke-miterlimit="10"/></g><g transform="translate(-38,-78) scale(1,1)"><g><path fill="none" stroke="none"/><text fill="#000000" stroke="none" font-family="Arial" font-size="13px" font-style="normal" font-weight="bold" text-decoration="none" x="314.11181640625" y="185.5">Apply for Job</text></g></g><g transform="translate(-38,-78) scale(1,1)"><path fill="#C0C0C0" stroke="none" d="M 299 289 C 299 279.6111584 327.6537728 272 363 272 C 398.3462272 272 427 279.6111584 427 289 C 427 298.3888416 398.3462272 306 363 306 C 327.6537728 306 299 298.3888416 299 289 Z" opacity="0.2"/></g><g transform="translate(-38,-78) scale(1,1)"><path fill="#d6ffae" stroke="none" d="M 292 282 C 292 272.6111584 320.6537728 265 356 265 C 391.3462272 265 420 272.6111584 420 282 C 420 291.3888416 391.3462272 299 356 299 C 320.6537728 299 292 291.3888416 292 282 Z"/></g><g transform="translate(-38,-78) scale(1,1)"><path fill="none" stroke="#000000" d="M 292 282 C 292 272.6111584 320.6537728 265 356 265 C 391.3462272 265 420 272.6111584 420 282 C 420 291.3888416 391.3462272 299 356 299 C 320.6537728 299 292 291.3888416 292 282 Z" stroke-miterlimit="10"/></g><g transform="translate(-38,-78) scale(1,1)"><g><path fill="none" stroke="none"/><text fill="#000000" stroke="none" font-family="Arial" font-size="13px" font-style="normal" font-weight="bold" text-decoration="none" x="343.117431640625" y="287.5">Test</text></g></g><g transform="translate(-38,-78) scale(1,1)"><path fill="#C0C0C0" stroke="none" d="M 273 240 C 273 230.6111584 313.294368 223 363 223 C 412.705632 223 453 230.6111584 453 240 C 453 249.3888416 412.705632 257 363 257 C 313.294368 257 273 249.3888416 273 240 Z" opacity="0.2"/></g><g transform="translate(-38,-78) scale(1,1)"><path fill="#d6ffae" stroke="none" d="M 266 233 C 266 223.6111584 306.294368 216 356 216 C 405.705632 216 446 223.6111584 446 233 C 446 242.3888416 405.705632 250 356 250 C 306.294368 250 266 242.3888416 266 233 Z"/></g><g transform="translate(-38,-78) scale(1,1)"><path fill="none" stroke="#000000" d="M 266 233 C 266 223.6111584 306.294368 216 356 216 C 405.705632 216 446 223.6111584 446 233 C 446 242.3888416 405.705632 250 356 250 C 306.294368 250 266 242.3888416 266 233 Z" stroke-miterlimit="10"/></g><g transform="translate(-38,-78) scale(1,1)"><g><path fill="none" stroke="none"/><text fill="#000000" stroke="none" font-family="Arial" font-size="13px" font-style="normal" font-weight="bold" text-decoration="none" x="298.57275390625" y="238.5">Recruit Applicants</text></g></g><g transform="translate(-38,-78) scale(1,1)"><path fill="none" stroke="#000000" d="M 132 208 L 305 147" stroke-miterlimit="10"/></g><g transform="translate(-38,-78) scale(1,1)"><g><path fill="none" stroke="none"/><text fill="#000000" stroke="none" font-family="Arial" font-size="13px" font-style="normal" font-weight="normal" text-decoration="none" x="159.5" y="162">«view Jobs»</text></g></g><g transform="translate(-38,-78) scale(1,1)"><path fill="none" stroke="#000000" d="M 132 216 L 270 194" stroke-miterlimit="10"/></g><g transform="translate(-38,-78) scale(1,1)"><path fill="none" stroke="#000000" d="M 132 233 L 291 268" stroke-miterlimit="10"/></g><g transform="translate(-38,-78) scale(1,1)"><path fill="none" stroke="#000000" d="M 519 203 L 396 147" stroke-miterlimit="10"/></g><g transform="translate(-38,-78) scale(1,1)"><path fill="#C0C0C0" stroke="none" d="M 262 340 C 262 330.6111584 307.2192352 323 363 323 C 418.7807648 323 464 330.6111584 464 340 C 464 349.3888416 418.7807648 357 363 357 C 307.2192352 357 262 349.3888416 262 340 Z" opacity="0.2"/></g><g transform="translate(-38,-78) scale(1,1)"><path fill="#d6ffae" stroke="none" d="M 255 333 C 255 323.6111584 300.2192352 316 356 316 C 411.7807648 316 457 323.6111584 457 333 C 457 342.3888416 411.7807648 350 356 350 C 300.2192352 350 255 342.3888416 255 333 Z"/></g><g transform="translate(-38,-78) scale(1,1)"><path fill="none" stroke="#000000" d="M 255 333 C 255 323.6111584 300.2192352 316 356 316 C 411.7807648 316 457 323.6111584 457 333 C 457 342.3888416 411.7807648 350 356 350 C 300.2192352 350 255 342.3888416 255 333 Z" stroke-miterlimit="10"/></g><g transform="translate(-38,-78) scale(1,1)"><g><path fill="none" stroke="none"/><text fill="#000000" stroke="none" font-family="Arial" font-size="13px" font-style="normal" font-weight="bold" text-decoration="none" x="327.82275390625" y="338.5">Interview</text></g></g><g transform="translate(-38,-78) scale(1,1)"><path fill="#C0C0C0" stroke="none" d="M 215 391 C 215 381.6111584 281.4857072 374 363.5 374 C 445.5142928 374 512 381.6111584 512 391 C 512 400.3888416 445.5142928 408 363.5 408 C 281.4857072 408 215 400.3888416 215 391 Z" opacity="0.2"/></g><g transform="translate(-38,-78) scale(1,1)"><path fill="#d6ffae" stroke="none" d="M 208 384 C 208 374.6111584 274.4857072 367 356.5 367 C 438.5142928 367 505 374.6111584 505 384 C 505 393.3888416 438.5142928 401 356.5 401 C 274.4857072 401 208 393.3888416 208 384 Z"/></g><g transform="translate(-38,-78) scale(1,1)"><path fill="none" stroke="#000000" d="M 208 384 C 208 374.6111584 274.4857072 367 356.5 367 C 438.5142928 367 505 374.6111584 505 384 C 505 393.3888416 438.5142928 401 356.5 401 C 274.4857072 401 208 393.3888416 208 384 Z" stroke-miterlimit="10"/></g><g transform="translate(-38,-78) scale(1,1)"><g><path fill="none" stroke="none"/><text fill="#000000" stroke="none" font-family="Arial" font-size="13px" font-style="normal" font-weight="bold" text-decoration="none" x="256.08642578125" y="389.5">Select Applications for Interview</text></g></g><g transform="translate(-38,-78) scale(1,1)"><path fill="#ffffff" stroke="none" d="M 565.0507077414773 329.68 C 565.0507077414773 324.886167936 568.9365500664227 321 573.72998046875 321 C 578.5234108710773 321 582.4092531960227 324.886167936 582.4092531960227 329.68 C 582.4092531960227 334.473832064 578.5234108710773 338.36 573.72998046875 338.36 C 568.9365500664227 338.36 565.0507077414773 334.473832064 565.0507077414773 329.68 Z"/></g><g transform="translate(-38,-78) scale(1,1)"><path fill="none" stroke="#000000" d="M 565.0507077414773 329.68 C 565.0507077414773 324.886167936 568.9365500664227 321 573.72998046875 321 C 578.5234108710773 321 582.4092531960227 324.886167936 582.4092531960227 329.68 C 582.4092531960227 334.473832064 578.5234108710773 338.36 573.72998046875 338.36 C 568.9365500664227 338.36 565.0507077414773 334.473832064 565.0507077414773 329.68 Z" stroke-miterlimit="10"/></g><g transform="translate(-38,-78) scale(1,1)"><path fill="none" stroke="#000000" d="M 573.72998046875 338.36 L 573.72998046875 355.64" stroke-miterlimit="10"/></g><g transform="translate(-38,-78) scale(1,1)"><path fill="none" stroke="#000000" d="M 564.5401622869318 344.84 L 582.9197986505682 344.84" stroke-miterlimit="10"/></g><g transform="translate(-38,-78) scale(1,1)"><path fill="none" stroke="#000000" d="M 573.72998046875 355.64 L 560.9663441051136 373" stroke-miterlimit="10"/></g><g transform="translate(-38,-78) scale(1,1)"><path fill="none" stroke="#000000" d="M 573.72998046875 355.64 L 586.4936168323864 373" stroke-miterlimit="10"/></g><g transform="translate(-38,-78) scale(1,1)"><g><path fill="none" stroke="none"/><text fill="#000000" stroke="none" font-family="Arial" font-size="13px" font-style="normal" font-weight="bold" text-decoration="none" x="564.341796875" y="392">HR</text></g></g><g transform="translate(-38,-78) scale(1,1)"><path fill="none" stroke="#000000" d="M 132 241 L 312 315" stroke-miterlimit="10"/></g><g transform="translate(-38,-78) scale(1,1)"><path fill="none" stroke="#000000" d="M 535 337 L 387 251" stroke-miterlimit="10"/></g><g transform="translate(-38,-78) scale(1,1)"><path fill="none" stroke="#000000" d="M 535 354 L 458 345" stroke-miterlimit="10"/></g><g transform="translate(-38,-78) scale(1,1)"><path fill="none" stroke="#000000" d="M 535 346 L 407 300" stroke-miterlimit="10"/></g><g transform="translate(-38,-78) scale(1,1)"><path fill="none" stroke="#000000" d="M 535 363 L 506 367" stroke-miterlimit="10"/></g></g></svg>