<svg version="1.1" xmlns="http://www.w3.org/2000/svg" xmlns:xlink="http://www.w3.org/1999/xlink" width="719" height="300"><defs/><g><g transform="translate(-22,-110) scale(1,1)"><path fill="none" stroke="#000000" d="M 32 120 L 731 120 L 731 400 L 32 400 L 32 120" stroke-miterlimit="10"/></g><g transform="translate(-22,-110) scale(1,1)"><path fill="#ffffff" stroke="none" d="M 32 120 L 32 142 L 273.443359375 142 L 284.443359375 131 L 284.443359375 120 L 32 120"/></g><g transform="translate(-22,-110) scale(1,1)"><path fill="none" stroke="#000000" d="M 32 120 L 32 142 L 273.443359375 142 L 284.443359375 131 L 284.443359375 120 L 32 120 L 32 120" stroke-miterlimit="10"/></g><g transform="translate(-22,-110) scale(1,1)"><g><path fill="none" stroke="none"/><text fill="#000000" stroke="none" font-family="Arial" font-size="13px" font-style="normal" font-weight="normal" text-decoration="none" x="63.94091796875" y="136">StatechartDiagram1 - 217Y1A05C0</text></g></g><g transform="translate(-22,-110) scale(1,1)"><g><path fill="none" stroke="none"/><text fill="#000000" stroke="none" font-family="Arial" font-size="13px" font-style="normal" font-weight="bold" text-decoration="none" x="35.911376953125" y="135.5">stm</text></g></g><g transform="translate(-22,-110) scale(1,1)"><path fill="#C0C0C0" stroke="none" d="M 89 171 L 197.208984375 171 Q 207.208984375 171 207.208984375 181 L 207.208984375 200 Q 207.208984375 210 197.208984375 210 L 89 210 Q 79 210 79 200 L 79 181 Q 79 171 89 171 Z" opacity="0.2"/></g><g transform="translate(-22,-110) scale(1,1)"><path fill="#ffffff" stroke="none" d="M 82 164 L 190.208984375 164 Q 200.208984375 164 200.208984375 174 L 200.208984375 193 Q 200.208984375 203 190.208984375 203 L 82 203 Q 72 203 72 193 L 72 174 Q 72 164 82 164 Z"/></g><g transform="translate(-22,-110) scale(1,1)"><path fill="none" stroke="#000000" d="M 82 164 L 190.208984375 164 Q 200.208984375 164 200.208984375 174 L 200.208984375 193 Q 200.208984375 203 190.208984375 203 L 82 203 Q 72 203 72 193 L 72 174 Q 72 164 82 164 Z" stroke-miterlimit="10"/></g><g transform="translate(-22,-110) scale(1,1)"><g><path fill="none" stroke="none"/><text fill="#000000" stroke="none" font-family="Arial" font-size="13px" font-style="normal" font-weight="bold" text-decoration="none" x="108.0478515625" y="182">View Job</text></g></g><g transform="translate(-22,-110) scale(1,1)"><path fill="#C0C0C0" stroke="none" d="M 135 280.5 C 135 275.2532944 139.2532944 271 144.5 271 C 149.7467056 271 154 275.2532944 154 280.5 C 154 285.7467056 149.7467056 290 144.5 290 C 139.2532944 290 135 285.7467056 135 280.5 Z" opacity="0.2"/></g><g transform="translate(-22,-110) scale(1,1)"><path fill="#000000" stroke="none" d="M 128 273.5 C 128 268.2532944 132.2532944 264 137.5 264 C 142.7467056 264 147 268.2532944 147 273.5 C 147 278.7467056 142.7467056 283 137.5 283 C 132.2532944 283 128 278.7467056 128 273.5 Z"/></g><g transform="translate(-22,-110) scale(1,1)"><path fill="none" stroke="#000000" d="M 137 263 L 136 204" stroke-miterlimit="10"/></g><g transform="translate(-22,-110) scale(1,1)"><path fill="none" stroke="#000000" d="M 140.38113723469542 214.0898779244729 L 136 204 L 131.9633107462228 214.23255294970124" stroke-miterlimit="10"/></g><g transform="translate(-22,-110) scale(1,1)"><path fill="#C0C0C0" stroke="none" d="M 262 171 L 370.208984375 171 Q 380.208984375 171 380.208984375 181 L 380.208984375 200 Q 380.208984375 210 370.208984375 210 L 262 210 Q 252 210 252 200 L 252 181 Q 252 171 262 171 Z" opacity="0.2"/></g><g transform="translate(-22,-110) scale(1,1)"><path fill="#ffffff" stroke="none" d="M 255 164 L 363.208984375 164 Q 373.208984375 164 373.208984375 174 L 373.208984375 193 Q 373.208984375 203 363.208984375 203 L 255 203 Q 245 203 245 193 L 245 174 Q 245 164 255 164 Z"/></g><g transform="translate(-22,-110) scale(1,1)"><path fill="none" stroke="#000000" d="M 255 164 L 363.208984375 164 Q 373.208984375 164 373.208984375 174 L 373.208984375 193 Q 373.208984375 203 363.208984375 203 L 255 203 Q 245 203 245 193 L 245 174 Q 245 164 255 164 Z" stroke-miterlimit="10"/></g><g transform="translate(-22,-110) scale(1,1)"><g><path fill="none" stroke="none"/><text fill="#000000" stroke="none" font-family="Arial" font-size="13px" font-style="normal" font-weight="bold" text-decoration="none" x="277.686767578125" y="182">Apply Job</text></g></g><g transform="translate(-22,-110) scale(1,1)"><path fill="none" stroke="#000000" d="M 201 183 L 244 183" stroke-miterlimit="10"/></g><g transform="translate(-22,-110) scale(1,1)"><path fill="none" stroke="#000000" d="M 233.83732514237585 187.209517756016 L 244 183 L 233.83732514237585 178.790482243984" stroke-miterlimit="10"/></g><g transform="translate(-22,-110) scale(1,1)"><path fill="#C0C0C0" stroke="none" d="M 435 171 L 543.208984375 171 Q 553.208984375 171 553.208984375 181 L 553.208984375 200 Q 553.208984375 210 543.208984375 210 L 435 210 Q 425 210 425 200 L 425 181 Q 425 171 435 171 Z" opacity="0.2"/></g><g transform="translate(-22,-110) scale(1,1)"><path fill="#ffffff" stroke="none" d="M 428 164 L 536.208984375 164 Q 546.208984375 164 546.208984375 174 L 546.208984375 193 Q 546.208984375 203 536.208984375 203 L 428 203 Q 418 203 418 193 L 418 174 Q 418 164 428 164 Z"/></g><g transform="translate(-22,-110) scale(1,1)"><path fill="none" stroke="#000000" d="M 428 164 L 536.208984375 164 Q 546.208984375 164 546.208984375 174 L 546.208984375 193 Q 546.208984375 203 536.208984375 203 L 428 203 Q 418 203 418 193 L 418 174 Q 418 164 428 164 Z" stroke-miterlimit="10"/></g><g transform="translate(-22,-110) scale(1,1)"><g><path fill="none" stroke="none"/><text fill="#000000" stroke="none" font-family="Arial" font-size="13px" font-style="normal" font-weight="bold" text-decoration="none" x="422.5" y="182">Select for interview</text></g></g><g transform="translate(-22,-110) scale(1,1)"><path fill="none" stroke="#000000" d="M 374 183 L 417 183" stroke-miterlimit="10"/></g><g transform="translate(-22,-110) scale(1,1)"><path fill="none" stroke="#000000" d="M 406.83732514237585 187.209517756016 L 417 183 L 406.83732514237585 178.790482243984" stroke-miterlimit="10"/></g><g transform="translate(-22,-110) scale(1,1)"><path fill="#C0C0C0" stroke="none" d="M 606 171 L 714.208984375 171 Q 724.208984375 171 724.208984375 181 L 724.208984375 200 Q 724.208984375 210 714.208984375 210 L 606 210 Q 596 210 596 200 L 596 181 Q 596 171 606 171 Z" opacity="0.2"/></g><g transform="translate(-22,-110) scale(1,1)"><path fill="#ffffff" stroke="none" d="M 599 164 L 707.208984375 164 Q 717.208984375 164 717.208984375 174 L 717.208984375 193 Q 717.208984375 203 707.208984375 203 L 599 203 Q 589 203 589 193 L 589 174 Q 589 164 599 164 Z"/></g><g transform="translate(-22,-110) scale(1,1)"><path fill="none" stroke="#000000" d="M 599 164 L 707.208984375 164 Q 717.208984375 164 717.208984375 174 L 717.208984375 193 Q 717.208984375 203 707.208984375 203 L 599 203 Q 589 203 589 193 L 589 174 Q 589 164 599 164 Z" stroke-miterlimit="10"/></g><g transform="translate(-22,-110) scale(1,1)"><g><path fill="none" stroke="none"/><text fill="#000000" stroke="none" font-family="Arial" font-size="13px" font-style="normal" font-weight="bold" text-decoration="none" x="640.221923828125" y="182">Test</text></g></g><g transform="translate(-22,-110) scale(1,1)"><path fill="none" stroke="#000000" d="M 547 183 L 588 183" stroke-miterlimit="10"/></g><g transform="translate(-22,-110) scale(1,1)"><path fill="none" stroke="#000000" d="M 577.8373251423759 187.209517756016 L 588 183 L 577.8373251423758 178.790482243984" stroke-miterlimit="10"/></g><g transform="translate(-22,-110) scale(1,1)"><path fill="#C0C0C0" stroke="none" d="M 638 267 L 683.3544921875 267 Q 693.3544921875 267 693.3544921875 277 L 693.3544921875 296 Q 693.3544921875 306 683.3544921875 306 L 638 306 Q 628 306 628 296 L 628 277 Q 628 267 638 267 Z" opacity="0.2"/></g><g transform="translate(-22,-110) scale(1,1)"><path fill="#ffffff" stroke="none" d="M 631 260 L 676.3544921875 260 Q 686.3544921875 260 686.3544921875 270 L 686.3544921875 289 Q 686.3544921875 299 676.3544921875 299 L 631 299 Q 621 299 621 289 L 621 270 Q 621 260 631 260 Z"/></g><g transform="translate(-22,-110) scale(1,1)"><path fill="none" stroke="#000000" d="M 631 260 L 676.3544921875 260 Q 686.3544921875 260 686.3544921875 270 L 686.3544921875 289 Q 686.3544921875 299 676.3544921875 299 L 631 299 Q 621 299 621 289 L 621 270 Q 621 260 631 260 Z" stroke-miterlimit="10"/></g><g transform="translate(-22,-110) scale(1,1)"><g><path fill="none" stroke="none"/><text fill="#000000" stroke="none" font-family="Arial" font-size="13px" font-style="normal" font-weight="bold" text-decoration="none" x="625.5" y="278">Interview</text></g></g><g transform="translate(-22,-110) scale(1,1)"><path fill="none" stroke="#000000" d="M 653 204 L 653 259" stroke-miterlimit="10"/></g><g transform="translate(-22,-110) scale(1,1)"><path fill="none" stroke="#000000" d="M 648.790482243984 248.83732514237585 L 653 259 L 657.209517756016 248.83732514237585" stroke-miterlimit="10"/></g><g transform="translate(-22,-110) scale(1,1)"><path fill="#C0C0C0" stroke="none" d="M 641 344 L 680 344 Q 690 344 690 354 L 690 373 Q 690 383 680 383 L 641 383 Q 631 383 631 373 L 631 354 Q 631 344 641 344 Z" opacity="0.2"/></g><g transform="translate(-22,-110) scale(1,1)"><path fill="#ffffff" stroke="none" d="M 634 337 L 673 337 Q 683 337 683 347 L 683 366 Q 683 376 673 376 L 634 376 Q 624 376 624 366 L 624 347 Q 624 337 634 337 Z"/></g><g transform="translate(-22,-110) scale(1,1)"><path fill="none" stroke="#000000" d="M 634 337 L 673 337 Q 683 337 683 347 L 683 366 Q 683 376 673 376 L 634 376 Q 624 376 624 366 L 624 347 Q 624 337 634 337 Z" stroke-miterlimit="10"/></g><g transform="translate(-22,-110) scale(1,1)"><g><path fill="none" stroke="none"/><text fill="#000000" stroke="none" font-family="Arial" font-size="13px" font-style="normal" font-weight="bold" text-decoration="none" x="633.984130859375" y="355">Salary</text></g></g><g transform="translate(-22,-110) scale(1,1)"><path fill="none" stroke="#000000" d="M 653 300 L 653 336" stroke-miterlimit="10"/></g><g transform="translate(-22,-110) scale(1,1)"><path fill="none" stroke="#000000" d="M 648.790482243984 325.83732514237585 L 653 336 L 657.209517756016 325.83732514237585" stroke-miterlimit="10"/></g><g transform="translate(-22,-110) scale(1,1)"><path fill="#C0C0C0" stroke="none" d="M 496 344 L 535 344 Q 545 344 545 354 L 545 373 Q 545 383 535 383 L 496 383 Q 486 383 486 373 L 486 354 Q 486 344 496 344 Z" opacity="0.2"/></g><g transform="translate(-22,-110) scale(1,1)"><path fill="#ffffff" stroke="none" d="M 489 337 L 528 337 Q 538 337 538 347 L 538 366 Q 538 376 528 376 L 489 376 Q 479 376 479 366 L 479 347 Q 479 337 489 337 Z"/></g><g transform="translate(-22,-110) scale(1,1)"><path fill="none" stroke="#000000" d="M 489 337 L 528 337 Q 538 337 538 347 L 538 366 Q 538 376 528 376 L 489 376 Q 479 376 479 366 L 479 347 Q 479 337 489 337 Z" stroke-miterlimit="10"/></g><g transform="translate(-22,-110) scale(1,1)"><g><path fill="none" stroke="none"/><text fill="#000000" stroke="none" font-family="Arial" font-size="13px" font-style="normal" font-weight="bold" text-decoration="none" x="486.10546875" y="355">Recruit</text></g></g><g transform="translate(-22,-110) scale(1,1)"><path fill="none" stroke="#000000" d="M 623 356 L 539 356" stroke-miterlimit="10"/></g><g transform="translate(-22,-110) scale(1,1)"><path fill="none" stroke="#000000" d="M 549.1626748576241 351.790482243984 L 539 356 L 549.1626748576241 360.209517756016" stroke-miterlimit="10"/></g><g transform="translate(-22,-110) scale(1,1)"><path fill="#C0C0C0" stroke="none" d="M 375 363.5 C 375 356.59644 380.59644 351 387.5 351 C 394.40356 351 400 356.59644 400 363.5 C 400 370.40356 394.40356 376 387.5 376 C 380.59644 376 375 370.40356 375 363.5 Z" opacity="0.2"/></g><g transform="translate(-22,-110) scale(1,1)"><path fill="none" stroke="#000000" d="M 368 356.5 C 368 349.59644 373.59644 344 380.5 344 C 387.40356 344 393 349.59644 393 356.5 C 393 363.40356 387.40356 369 380.5 369 C 373.59644 369 368 363.40356 368 356.5 Z" stroke-miterlimit="10"/></g><g transform="translate(-22,-110) scale(1,1)"><path fill="#000000" stroke="none" d="M 373 356.5 C 373 352.357864 376.357864 349 380.5 349 C 384.642136 349 388 352.357864 388 356.5 C 388 360.642136 384.642136 364 380.5 364 C 376.357864 364 373 360.642136 373 356.5 Z"/></g><g transform="translate(-22,-110) scale(1,1)"><path fill="none" stroke="#000000" d="M 478 356 L 394 356" stroke-miterlimit="10"/></g><g transform="translate(-22,-110) scale(1,1)"><path fill="none" stroke="#000000" d="M 404.16267485762415 351.790482243984 L 394 356 L 404.16267485762415 360.209517756016" stroke-miterlimit="10"/></g></g></svg>