<svg version="1.1" xmlns="http://www.w3.org/2000/svg" xmlns:xlink="http://www.w3.org/1999/xlink" width="956" height="452"><defs/><g><g transform="translate(-54,-62) scale(1,1)"><path fill="none" stroke="#000000" d="M 64 72 L 1000 72 L 1000 504 L 64 504 L 64 72" stroke-miterlimit="10"/></g><g transform="translate(-54,-62) scale(1,1)"><path fill="#ffffff" stroke="none" d="M 64 72 L 64 94 L 329.29150390625 94 L 340.29150390625 83 L 340.29150390625 72 L 64 72"/></g><g transform="translate(-54,-62) scale(1,1)"><path fill="none" stroke="#000000" d="M 64 72 L 64 94 L 329.29150390625 94 L 340.29150390625 83 L 340.29150390625 72 L 64 72 L 64 72" stroke-miterlimit="10"/></g><g transform="translate(-54,-62) scale(1,1)"><g><path fill="none" stroke="none"/><text fill="#000000" stroke="none" font-family="Arial" font-size="13px" font-style="normal" font-weight="normal" text-decoration="none" x="88.72998046875" y="88">CommunicationDiagram1 - 217Y1A05C0</text></g></g><g transform="translate(-54,-62) scale(1,1)"><g><path fill="none" stroke="none"/><text fill="#000000" stroke="none" font-family="Arial" font-size="13px" font-style="normal" font-weight="bold" text-decoration="none" x="68.279541015625" y="88">sd</text></g></g><g transform="translate(-54,-62) scale(1,1)"><rect fill="#C0C0C0" stroke="none" x="103" y="119" width="168" height="52" opacity="0.2"/></g><g transform="translate(-54,-62) scale(1,1)"><rect fill="#ffffff" stroke="none" x="96" y="112" width="168" height="52"/></g><g transform="translate(-54,-62) scale(1,1)"><path fill="none" stroke="#000000" d="M 96 112 L 264 112 L 264 164 L 96 164 L 96 112 Z Z" stroke-miterlimit="10"/></g><g transform="translate(-54,-62) scale(1,1)"><rect fill="#ffffff" stroke="none" x="96" y="112" width="168" height="52"/></g><g transform="translate(-54,-62) scale(1,1)"><path fill="none" stroke="#000000" d="M 96 112 L 264 112 L 264 164 L 96 164 L 96 112 Z Z" stroke-miterlimit="10"/></g><g transform="translate(-54,-62) scale(1,1)"><g><path fill="none" stroke="none"/><text fill="#000000" stroke="none" font-family="Arial" font-size="13px" font-style="normal" font-weight="bold" text-decoration="none" x="120.049560546875" y="130">Lifeline1: Applicant</text></g></g><g transform="translate(-54,-62) scale(1,1)"><g><path fill="none" stroke="none"/><text fill="#000000" stroke="none" font-family="Arial" font-size="13px" font-style="normal" font-weight="normal" text-decoration="none" x="126.898681640625" y="145">(from Interaction1)</text></g></g><g transform="translate(-54,-62) scale(1,1)"><rect fill="#C0C0C0" stroke="none" x="783" y="447" width="168" height="52" opacity="0.2"/></g><g transform="translate(-54,-62) scale(1,1)"><rect fill="#ffffff" stroke="none" x="776" y="440" width="168" height="52"/></g><g transform="translate(-54,-62) scale(1,1)"><path fill="none" stroke="#000000" d="M 776 440 L 944 440 L 944 492 L 776 492 L 776 440 Z Z" stroke-miterlimit="10"/></g><g transform="translate(-54,-62) scale(1,1)"><rect fill="#ffffff" stroke="none" x="776" y="440" width="168" height="52"/></g><g transform="translate(-54,-62) scale(1,1)"><path fill="none" stroke="#000000" d="M 776 440 L 944 440 L 944 492 L 776 492 L 776 440 Z Z" stroke-miterlimit="10"/></g><g transform="translate(-54,-62) scale(1,1)"><g><path fill="none" stroke="none"/><text fill="#000000" stroke="none" font-family="Arial" font-size="13px" font-style="normal" font-weight="bold" text-decoration="none" x="784.516845703125" y="458">Recruitment Committee:</text><text fill="#000000" stroke="none" font-family="Arial" font-size="13px" font-style="normal" font-weight="bold" text-decoration="none" x="850.61181640625" y="471">HR</text></g></g><g transform="translate(-54,-62) scale(1,1)"><g><path fill="none" stroke="none"/><text fill="#000000" stroke="none" font-family="Arial" font-size="13px" font-style="normal" font-weight="normal" text-decoration="none" x="806.898681640625" y="486">(from Interaction1)</text></g></g><g transform="translate(-54,-62) scale(1,1)"><rect fill="#C0C0C0" stroke="none" x="783" y="119" width="168" height="52" opacity="0.2"/></g><g transform="translate(-54,-62) scale(1,1)"><rect fill="#ffffff" stroke="none" x="776" y="112" width="168" height="52"/></g><g transform="translate(-54,-62) scale(1,1)"><path fill="none" stroke="#000000" d="M 776 112 L 944 112 L 944 164 L 776 164 L 776 112 Z Z" stroke-miterlimit="10"/></g><g transform="translate(-54,-62) scale(1,1)"><rect fill="#ffffff" stroke="none" x="776" y="112" width="168" height="52"/></g><g transform="translate(-54,-62) scale(1,1)"><path fill="none" stroke="#000000" d="M 776 112 L 944 112 L 944 164 L 776 164 L 776 112 Z Z" stroke-miterlimit="10"/></g><g transform="translate(-54,-62) scale(1,1)"><g><path fill="none" stroke="none"/><text fill="#000000" stroke="none" font-family="Arial" font-size="13px" font-style="normal" font-weight="bold" text-decoration="none" x="814.845947265625" y="130">Advertisement</text></g></g><g transform="translate(-54,-62) scale(1,1)"><g><path fill="none" stroke="none"/><text fill="#000000" stroke="none" font-family="Arial" font-size="13px" font-style="normal" font-weight="normal" text-decoration="none" x="806.898681640625" y="145">(from Interaction1)</text></g></g><g transform="translate(-54,-62) scale(1,1)"><rect fill="#C0C0C0" stroke="none" x="103" y="447" width="168" height="52" opacity="0.2"/></g><g transform="translate(-54,-62) scale(1,1)"><rect fill="#ffffff" stroke="none" x="96" y="440" width="168" height="52"/></g><g transform="translate(-54,-62) scale(1,1)"><path fill="none" stroke="#000000" d="M 96 440 L 264 440 L 264 492 L 96 492 L 96 440 Z Z" stroke-miterlimit="10"/></g><g transform="translate(-54,-62) scale(1,1)"><rect fill="#ffffff" stroke="none" x="96" y="440" width="168" height="52"/></g><g transform="translate(-54,-62) scale(1,1)"><path fill="none" stroke="#000000" d="M 96 440 L 264 440 L 264 492 L 96 492 L 96 440 Z Z" stroke-miterlimit="10"/></g><g transform="translate(-54,-62) scale(1,1)"><g><path fill="none" stroke="none"/><text fill="#000000" stroke="none" font-family="Arial" font-size="13px" font-style="normal" font-weight="bold" text-decoration="none" x="139.911376953125" y="458">Organisation</text></g></g><g transform="translate(-54,-62) scale(1,1)"><g><path fill="none" stroke="none"/><text fill="#000000" stroke="none" font-family="Arial" font-size="13px" font-style="normal" font-weight="normal" text-decoration="none" x="126.898681640625" y="473">(from Interaction1)</text></g></g><g transform="translate(-54,-62) scale(1,1)"><path fill="none" stroke="#000000" d="M 265 138 L 775 138" stroke-miterlimit="10"/></g><g transform="translate(-54,-62) scale(1,1)"><path fill="none" stroke="#000000" d="M 540 128 L 500 128" stroke-miterlimit="10"/></g><g transform="translate(-54,-62) scale(1,1)"><path fill="#000000" stroke="none" d="M 528 132 L 540 128 L 528 123"/></g><g transform="translate(-54,-62) scale(1,1)"><g><path fill="none" stroke="none"/><text fill="#000000" stroke="none" font-family="Arial" font-size="13px" font-style="normal" font-weight="normal" text-decoration="none" x="480.460205078125" y="122">1 : View Jobs</text></g></g><g transform="translate(-54,-62) scale(1,1)"><path fill="none" stroke="#000000" d="M 180 165 L 180 439" stroke-miterlimit="10"/></g><g transform="translate(-54,-62) scale(1,1)"><path fill="none" stroke="#000000" d="M 190 321 L 190 281" stroke-miterlimit="10"/></g><g transform="translate(-54,-62) scale(1,1)"><path fill="#000000" stroke="none" d="M 185 309 L 190 321 L 194 309"/></g><g transform="translate(-54,-62) scale(1,1)"><g><path fill="none" stroke="none"/><text fill="#000000" stroke="none" font-family="Arial" font-size="13px" font-style="normal" font-weight="normal" text-decoration="none" x="102.31640625" y="298.5">2 : Apply for</text><text fill="#000000" stroke="none" font-family="Arial" font-size="13px" font-style="normal" font-weight="normal" text-decoration="none" x="123.27001953125" y="311.5">Jobs</text></g></g><g transform="translate(-54,-62) scale(1,1)"><path fill="none" stroke="#000000" d="M 265 466 L 775 466" stroke-miterlimit="10"/></g><g transform="translate(-54,-62) scale(1,1)"><path fill="none" stroke="#000000" d="M 540 456 L 500 456" stroke-miterlimit="10"/></g><g transform="translate(-54,-62) scale(1,1)"><path fill="#000000" stroke="none" d="M 528 460 L 540 456 L 528 451"/></g><g transform="translate(-54,-62) scale(1,1)"><g><path fill="none" stroke="none"/><text fill="#000000" stroke="none" font-family="Arial" font-size="13px" font-style="normal" font-weight="normal" text-decoration="none" x="428.32373046875" y="450">3 : Forward Applicants Resume</text></g></g><g transform="translate(-54,-62) scale(1,1)"><path fill="none" stroke="#000000" d="M 860 440 L 860 420 L 974 420 L 974 466 L 944 466" stroke-miterlimit="10"/></g><g transform="translate(-54,-62) scale(1,1)"><path fill="none" stroke="#000000" d="M 983 439 L 983 399" stroke-miterlimit="10"/></g><g transform="translate(-54,-62) scale(1,1)"><path fill="#000000" stroke="none" d="M 978 427 L 983 439 L 987 427"/></g><g transform="translate(-54,-62) scale(1,1)"><g><path fill="none" stroke="none"/><text fill="#000000" stroke="none" font-family="Arial" font-size="13px" font-style="normal" font-weight="normal" text-decoration="none" x="817.04736328125" y="393.5">4 : Analyse Applicants</text><text fill="#000000" stroke="none" font-family="Arial" font-size="13px" font-style="normal" font-weight="normal" text-decoration="none" x="856.79638671875" y="406.5">Resume</text></g></g><g transform="translate(-54,-62) scale(1,1)"><path fill="none" stroke="#000000" d="M 804 439 L 236 165" stroke-miterlimit="10"/></g><g transform="translate(-54,-62) scale(1,1)"><path fill="none" stroke="#000000" d="M 496 303 L 533 320" stroke-miterlimit="10"/></g><g transform="translate(-54,-62) scale(1,1)"><path fill="#000000" stroke="none" d="M 507 303 L 496 303 L 504 311"/></g><g transform="translate(-54,-62) scale(1,1)"><g><path fill="none" stroke="none"/><text fill="#000000" stroke="none" font-family="Arial" font-size="13px" font-style="normal" font-weight="normal" text-decoration="none" x="323.688720703125" y="289">5 : Send interview call or</text><text fill="#000000" stroke="none" font-family="Arial" font-size="13px" font-style="normal" font-weight="normal" text-decoration="none" x="352.234130859375" y="302">Letter or Email</text></g></g><g transform="translate(-54,-62) scale(1,1)"><path fill="none" stroke="#000000" d="M 236 165 L 804 439" stroke-miterlimit="10"/></g><g transform="translate(-54,-62) scale(1,1)"><path fill="none" stroke="#000000" d="M 542 301 L 505 284" stroke-miterlimit="10"/></g><g transform="translate(-54,-62) scale(1,1)"><path fill="#000000" stroke="none" d="M 530 300 L 542 301 L 533 292"/></g><g transform="translate(-54,-62) scale(1,1)"><g><path fill="none" stroke="none"/><text fill="#000000" stroke="none" font-family="Arial" font-size="13px" font-style="normal" font-weight="normal" text-decoration="none" x="535.9482421875" y="274.5">6 : Attend Test</text></g></g><g transform="translate(-54,-62) scale(1,1)"><path fill="none" stroke="#000000" d="M 804 439 L 236 165" stroke-miterlimit="10"/></g><g transform="translate(-54,-62) scale(1,1)"><path fill="none" stroke="#000000" d="M 496 303 L 533 320" stroke-miterlimit="10"/></g><g transform="translate(-54,-62) scale(1,1)"><path fill="#000000" stroke="none" d="M 507 303 L 496 303 L 504 311"/></g><g transform="translate(-54,-62) scale(1,1)"><g><path fill="none" stroke="none"/><text fill="#000000" stroke="none" font-family="Arial" font-size="13px" font-style="normal" font-weight="normal" text-decoration="none" x="350.564208984375" y="330">7 : Selected or Not Selected</text><text fill="#000000" stroke="none" font-family="Arial" font-size="13px" font-style="normal" font-weight="normal" text-decoration="none" x="405.84912109375" y="343">Informed</text></g></g><g transform="translate(-54,-62) scale(1,1)"><path fill="none" stroke="#000000" d="M 236 165 L 804 439" stroke-miterlimit="10"/></g><g transform="translate(-54,-62) scale(1,1)"><path fill="none" stroke="#000000" d="M 542 301 L 505 284" stroke-miterlimit="10"/></g><g transform="translate(-54,-62) scale(1,1)"><path fill="#000000" stroke="none" d="M 530 300 L 542 301 L 533 292"/></g><g transform="translate(-54,-62) scale(1,1)"><g><path fill="none" stroke="none"/><text fill="#000000" stroke="none" font-family="Arial" font-size="13px" font-style="normal" font-weight="normal" text-decoration="none" x="463.859619140625" y="249.5">8 : Attend Interview</text></g></g><g transform="translate(-54,-62) scale(1,1)"><path fill="none" stroke="#000000" d="M 804 439 L 236 165" stroke-miterlimit="10"/></g><g transform="translate(-54,-62) scale(1,1)"><path fill="none" stroke="#000000" d="M 496 303 L 533 320" stroke-miterlimit="10"/></g><g transform="translate(-54,-62) scale(1,1)"><path fill="#000000" stroke="none" d="M 507 303 L 496 303 L 504 311"/></g><g transform="translate(-54,-62) scale(1,1)"><g><path fill="none" stroke="none"/><text fill="#000000" stroke="none" font-family="Arial" font-size="13px" font-style="normal" font-weight="normal" text-decoration="none" x="420.235107421875" y="362">9 : Applicant passed Test</text><text fill="#000000" stroke="none" font-family="Arial" font-size="13px" font-style="normal" font-weight="normal" text-decoration="none" x="433.254150390625" y="375">&amp; Interview informed</text></g></g><g transform="translate(-54,-62) scale(1,1)"><path fill="none" stroke="#000000" d="M 804 439 L 236 165" stroke-miterlimit="10"/></g><g transform="translate(-54,-62) scale(1,1)"><path fill="none" stroke="#000000" d="M 496 303 L 533 320" stroke-miterlimit="10"/></g><g transform="translate(-54,-62) scale(1,1)"><path fill="#000000" stroke="none" d="M 507 303 L 496 303 L 504 311"/></g><g transform="translate(-54,-62) scale(1,1)"><g><path fill="none" stroke="none"/><text fill="#000000" stroke="none" font-family="Arial" font-size="13px" font-style="normal" font-weight="normal" text-decoration="none" x="583.727783203125" y="298">10 : Salary Fixed</text><text fill="#000000" stroke="none" font-family="Arial" font-size="13px" font-style="normal" font-weight="normal" text-decoration="none" x="597.095947265625" y="311">or Recruited</text></g></g></g></svg>