<svg version="1.1" xmlns="http://www.w3.org/2000/svg" xmlns:xlink="http://www.w3.org/1999/xlink" width="796" height="620"><defs/><g><g transform="translate(-102,-30) scale(1,1)"><path fill="none" stroke="#000000" d="M 112 40 L 888 40 L 888 640 L 112 640 L 112 40" stroke-miterlimit="10"/></g><g transform="translate(-102,-30) scale(1,1)"><path fill="#ffffff" stroke="none" d="M 112 40 L 112 62 L 335.37158203125 62 L 346.37158203125 51 L 346.37158203125 40 L 112 40"/></g><g transform="translate(-102,-30) scale(1,1)"><path fill="none" stroke="#000000" d="M 112 40 L 112 62 L 335.37158203125 62 L 346.37158203125 51 L 346.37158203125 40 L 112 40 L 112 40" stroke-miterlimit="10"/></g><g transform="translate(-102,-30) scale(1,1)"><g><path fill="none" stroke="none"/><text fill="#000000" stroke="none" font-family="Arial" font-size="13px" font-style="normal" font-weight="normal" text-decoration="none" x="152.6181640625" y="56">ClassDiagram1 - 217Y1A05C0</text></g></g><g transform="translate(-102,-30) scale(1,1)"><g><path fill="none" stroke="none"/><text fill="#000000" stroke="none" font-family="Arial" font-size="13px" font-style="normal" font-weight="bold" text-decoration="none" x="115.543212890625" y="56">class</text></g></g><g transform="translate(-102,-30) scale(1,1)"><rect fill="#C0C0C0" stroke="none" x="143" y="239" width="160.3916015625" height="190" opacity="0.2"/></g><g transform="translate(-102,-30) scale(1,1)"><rect fill="#d8e1f8" stroke="none" x="136" y="232" width="160.3916015625" height="190"/></g><g transform="translate(-102,-30) scale(1,1)"><path fill="none" stroke="#000000" d="M 136 232 L 296.3916015625 232 L 296.3916015625 422 L 136 422 L 136 232 Z Z" stroke-miterlimit="10"/></g><g transform="translate(-102,-30) scale(1,1)"><path fill="none" stroke="#000000" d="M 136 257 L 296.3916015625 257" stroke-miterlimit="10"/></g><g transform="translate(-102,-30) scale(1,1)"><path fill="none" stroke="#000000" d="M 136 385 L 296.3916015625 385" stroke-miterlimit="10"/></g><g transform="translate(-102,-30) scale(1,1)"><g><path fill="none" stroke="none"/><text fill="#000000" stroke="none" font-family="Arial" font-size="13px" font-style="normal" font-weight="bold" text-decoration="none" x="186.583984375" y="250">Applicant</text></g></g><g transform="translate(-102,-30) scale(1,1)"><g><path fill="none" stroke="none"/><text fill="#000000" stroke="none" font-family="Arial" font-size="13px" font-style="normal" font-weight="normal" text-decoration="none" x="141" y="273">+Appl_id: int</text></g></g><g transform="translate(-102,-30) scale(1,1)"><g><path fill="none" stroke="none"/><text fill="#000000" stroke="none" font-family="Arial" font-size="13px" font-style="normal" font-weight="normal" text-decoration="none" x="141" y="288">+Appl_name: string</text></g></g><g transform="translate(-102,-30) scale(1,1)"><g><path fill="none" stroke="none"/><text fill="#000000" stroke="none" font-family="Arial" font-size="13px" font-style="normal" font-weight="normal" text-decoration="none" x="141" y="303">+Appl_DOB: int</text></g></g><g transform="translate(-102,-30) scale(1,1)"><g><path fill="none" stroke="none"/><text fill="#000000" stroke="none" font-family="Arial" font-size="13px" font-style="normal" font-weight="normal" text-decoration="none" x="141" y="318">+Appl_Gender: string</text></g></g><g transform="translate(-102,-30) scale(1,1)"><g><path fill="none" stroke="none"/><text fill="#000000" stroke="none" font-family="Arial" font-size="13px" font-style="normal" font-weight="normal" text-decoration="none" x="141" y="333">+Appl_Qualification: string</text></g></g><g transform="translate(-102,-30) scale(1,1)"><g><path fill="none" stroke="none"/><text fill="#000000" stroke="none" font-family="Arial" font-size="13px" font-style="normal" font-weight="normal" text-decoration="none" x="141" y="348">-Appl_phone: int</text></g></g><g transform="translate(-102,-30) scale(1,1)"><g><path fill="none" stroke="none"/><text fill="#000000" stroke="none" font-family="Arial" font-size="13px" font-style="normal" font-weight="normal" text-decoration="none" x="141" y="363">+Appl_email: string</text></g></g><g transform="translate(-102,-30) scale(1,1)"><g><path fill="none" stroke="none"/><text fill="#000000" stroke="none" font-family="Arial" font-size="13px" font-style="normal" font-weight="normal" text-decoration="none" x="141" y="378">+Appl_addr: string</text></g></g><g transform="translate(-102,-30) scale(1,1)"><g><path fill="none" stroke="none"/><text fill="#000000" stroke="none" font-family="Arial" font-size="13px" font-style="normal" font-weight="normal" text-decoration="none" x="141" y="401">+viewjobs()</text></g></g><g transform="translate(-102,-30) scale(1,1)"><g><path fill="none" stroke="none"/><text fill="#000000" stroke="none" font-family="Arial" font-size="13px" font-style="normal" font-weight="normal" text-decoration="none" x="141" y="416">+Apply()</text></g></g><g transform="translate(-102,-30) scale(1,1)"><rect fill="#C0C0C0" stroke="none" x="719" y="399" width="160.3916015625" height="190" opacity="0.2"/></g><g transform="translate(-102,-30) scale(1,1)"><rect fill="#d8e1f8" stroke="none" x="712" y="392" width="160.3916015625" height="190"/></g><g transform="translate(-102,-30) scale(1,1)"><path fill="none" stroke="#000000" d="M 712 392 L 872.3916015625 392 L 872.3916015625 582 L 712 582 L 712 392 Z Z" stroke-miterlimit="10"/></g><g transform="translate(-102,-30) scale(1,1)"><path fill="none" stroke="#000000" d="M 712 417 L 872.3916015625 417" stroke-miterlimit="10"/></g><g transform="translate(-102,-30) scale(1,1)"><path fill="none" stroke="#000000" d="M 712 530 L 872.3916015625 530" stroke-miterlimit="10"/></g><g transform="translate(-102,-30) scale(1,1)"><g><path fill="none" stroke="none"/><text fill="#000000" stroke="none" font-family="Arial" font-size="13px" font-style="normal" font-weight="bold" text-decoration="none" x="744.883544921875" y="410">HR Department</text></g></g><g transform="translate(-102,-30) scale(1,1)"><g><path fill="none" stroke="none"/><text fill="#000000" stroke="none" font-family="Arial" font-size="13px" font-style="normal" font-weight="normal" text-decoration="none" x="717" y="433">+Emp_id: int</text></g></g><g transform="translate(-102,-30) scale(1,1)"><g><path fill="none" stroke="none"/><text fill="#000000" stroke="none" font-family="Arial" font-size="13px" font-style="normal" font-weight="normal" text-decoration="none" x="717" y="448">+Emp_name: string</text></g></g><g transform="translate(-102,-30) scale(1,1)"><g><path fill="none" stroke="none"/><text fill="#000000" stroke="none" font-family="Arial" font-size="13px" font-style="normal" font-weight="normal" text-decoration="none" x="717" y="463">+Emp_DOB: int</text></g></g><g transform="translate(-102,-30) scale(1,1)"><g><path fill="none" stroke="none"/><text fill="#000000" stroke="none" font-family="Arial" font-size="13px" font-style="normal" font-weight="normal" text-decoration="none" x="717" y="478">+Emp_Gender: string</text></g></g><g transform="translate(-102,-30) scale(1,1)"><g><path fill="none" stroke="none"/><text fill="#000000" stroke="none" font-family="Arial" font-size="13px" font-style="normal" font-weight="normal" text-decoration="none" x="717" y="493">+Emp_phone: int</text></g></g><g transform="translate(-102,-30) scale(1,1)"><g><path fill="none" stroke="none"/><text fill="#000000" stroke="none" font-family="Arial" font-size="13px" font-style="normal" font-weight="normal" text-decoration="none" x="717" y="508">+Emp_email: string</text></g></g><g transform="translate(-102,-30) scale(1,1)"><g><path fill="none" stroke="none"/><text fill="#000000" stroke="none" font-family="Arial" font-size="13px" font-style="normal" font-weight="normal" text-decoration="none" x="717" y="523">+Emp_addr: string</text></g></g><g transform="translate(-102,-30) scale(1,1)"><g><path fill="none" stroke="none"/><text fill="#000000" stroke="none" font-family="Arial" font-size="13px" font-style="normal" font-weight="normal" text-decoration="none" x="717" y="546">+Planing()</text></g></g><g transform="translate(-102,-30) scale(1,1)"><g><path fill="none" stroke="none"/><text fill="#000000" stroke="none" font-family="Arial" font-size="13px" font-style="normal" font-weight="normal" text-decoration="none" x="717" y="561">+Strategies()</text></g></g><g transform="translate(-102,-30) scale(1,1)"><g><path fill="none" stroke="none"/><text fill="#000000" stroke="none" font-family="Arial" font-size="13px" font-style="normal" font-weight="normal" text-decoration="none" x="717" y="576">+Policies()</text></g></g><g transform="translate(-102,-30) scale(1,1)"><rect fill="#C0C0C0" stroke="none" x="719" y="127" width="160.3916015625" height="115" opacity="0.2"/></g><g transform="translate(-102,-30) scale(1,1)"><rect fill="#d8e1f8" stroke="none" x="712" y="120" width="160.3916015625" height="115"/></g><g transform="translate(-102,-30) scale(1,1)"><path fill="none" stroke="#000000" d="M 712 120 L 872.3916015625 120 L 872.3916015625 235 L 712 235 L 712 120 Z Z" stroke-miterlimit="10"/></g><g transform="translate(-102,-30) scale(1,1)"><path fill="none" stroke="#000000" d="M 712 145 L 872.3916015625 145" stroke-miterlimit="10"/></g><g transform="translate(-102,-30) scale(1,1)"><path fill="none" stroke="#000000" d="M 712 198 L 872.3916015625 198" stroke-miterlimit="10"/></g><g transform="translate(-102,-30) scale(1,1)"><g><path fill="none" stroke="none"/><text fill="#000000" stroke="none" font-family="Arial" font-size="13px" font-style="normal" font-weight="bold" text-decoration="none" x="752.47216796875" y="138">Organization</text></g></g><g transform="translate(-102,-30) scale(1,1)"><g><path fill="none" stroke="none"/><text fill="#000000" stroke="none" font-family="Arial" font-size="13px" font-style="normal" font-weight="normal" text-decoration="none" x="717" y="161">+Org_Name: string</text></g></g><g transform="translate(-102,-30) scale(1,1)"><g><path fill="none" stroke="none"/><text fill="#000000" stroke="none" font-family="Arial" font-size="13px" font-style="normal" font-weight="normal" text-decoration="none" x="717" y="176">+Org_phno: int</text></g></g><g transform="translate(-102,-30) scale(1,1)"><g><path fill="none" stroke="none"/><text fill="#000000" stroke="none" font-family="Arial" font-size="13px" font-style="normal" font-weight="normal" text-decoration="none" x="717" y="191">+Org_Addr: string</text></g></g><g transform="translate(-102,-30) scale(1,1)"><g><path fill="none" stroke="none"/><text fill="#000000" stroke="none" font-family="Arial" font-size="13px" font-style="normal" font-weight="normal" text-decoration="none" x="717" y="214">+HR_Dept()</text></g></g><g transform="translate(-102,-30) scale(1,1)"><g><path fill="none" stroke="none"/><text fill="#000000" stroke="none" font-family="Arial" font-size="13px" font-style="normal" font-weight="normal" text-decoration="none" x="717" y="229">+count_Dept()</text></g></g><g transform="translate(-102,-30) scale(1,1)"><rect fill="#C0C0C0" stroke="none" x="398" y="63" width="160.3916015625" height="100" opacity="0.2"/></g><g transform="translate(-102,-30) scale(1,1)"><rect fill="#d8e1f8" stroke="none" x="391" y="56" width="160.3916015625" height="100"/></g><g transform="translate(-102,-30) scale(1,1)"><path fill="none" stroke="#000000" d="M 391 56 L 551.3916015625 56 L 551.3916015625 156 L 391 156 L 391 56 Z Z" stroke-miterlimit="10"/></g><g transform="translate(-102,-30) scale(1,1)"><path fill="none" stroke="#000000" d="M 391 81 L 551.3916015625 81" stroke-miterlimit="10"/></g><g transform="translate(-102,-30) scale(1,1)"><path fill="none" stroke="#000000" d="M 391 134 L 551.3916015625 134" stroke-miterlimit="10"/></g><g transform="translate(-102,-30) scale(1,1)"><g><path fill="none" stroke="none"/><text fill="#000000" stroke="none" font-family="Arial" font-size="13px" font-style="normal" font-weight="bold" text-decoration="none" x="433.627197265625" y="74">Advertisemt</text></g></g><g transform="translate(-102,-30) scale(1,1)"><g><path fill="none" stroke="none"/><text fill="#000000" stroke="none" font-family="Arial" font-size="13px" font-style="normal" font-weight="normal" text-decoration="none" x="396" y="97">+Adu_No: int</text></g></g><g transform="translate(-102,-30) scale(1,1)"><g><path fill="none" stroke="none"/><text fill="#000000" stroke="none" font-family="Arial" font-size="13px" font-style="normal" font-weight="normal" text-decoration="none" x="396" y="112">+Adu_Name: sring</text></g></g><g transform="translate(-102,-30) scale(1,1)"><g><path fill="none" stroke="none"/><text fill="#000000" stroke="none" font-family="Arial" font-size="13px" font-style="normal" font-weight="normal" text-decoration="none" x="396" y="127">+Adu_description: string</text></g></g><g transform="translate(-102,-30) scale(1,1)"><g><path fill="none" stroke="none"/><text fill="#000000" stroke="none" font-family="Arial" font-size="13px" font-style="normal" font-weight="normal" text-decoration="none" x="396" y="150">+display()</text></g></g><g transform="translate(-102,-30) scale(1,1)"><rect fill="#C0C0C0" stroke="none" x="398" y="543" width="160.3916015625" height="85" opacity="0.2"/></g><g transform="translate(-102,-30) scale(1,1)"><rect fill="#d8e1f8" stroke="none" x="391" y="536" width="160.3916015625" height="85"/></g><g transform="translate(-102,-30) scale(1,1)"><path fill="none" stroke="#000000" d="M 391 536 L 551.3916015625 536 L 551.3916015625 621 L 391 621 L 391 536 Z Z" stroke-miterlimit="10"/></g><g transform="translate(-102,-30) scale(1,1)"><path fill="none" stroke="#000000" d="M 391 561 L 551.3916015625 561" stroke-miterlimit="10"/></g><g transform="translate(-102,-30) scale(1,1)"><path fill="none" stroke="#000000" d="M 391 599 L 551.3916015625 599" stroke-miterlimit="10"/></g><g transform="translate(-102,-30) scale(1,1)"><g><path fill="none" stroke="none"/><text fill="#000000" stroke="none" font-family="Arial" font-size="13px" font-style="normal" font-weight="bold" text-decoration="none" x="433.271728515625" y="554">Recruitment</text></g></g><g transform="translate(-102,-30) scale(1,1)"><g><path fill="none" stroke="none"/><text fill="#000000" stroke="none" font-family="Arial" font-size="13px" font-style="normal" font-weight="normal" text-decoration="none" x="396" y="577">+Reo_Designation: string</text></g></g><g transform="translate(-102,-30) scale(1,1)"><g><path fill="none" stroke="none"/><text fill="#000000" stroke="none" font-family="Arial" font-size="13px" font-style="normal" font-weight="normal" text-decoration="none" x="396" y="592">+Attribute1</text></g></g><g transform="translate(-102,-30) scale(1,1)"><path fill="none" stroke="#000000" d="M 208 232 L 208 120 L 391 120" stroke-miterlimit="10"/></g><g transform="translate(-102,-30) scale(1,1)"><g><path fill="none" stroke="none"/><text fill="#000000" stroke="none" font-family="Arial" font-size="13px" font-style="normal" font-weight="normal" text-decoration="none" x="190.2958984375" y="211">*</text></g></g><g transform="translate(-102,-30) scale(1,1)"><g><path fill="none" stroke="none"/><text fill="#000000" stroke="none" font-family="Arial" font-size="13px" font-style="normal" font-weight="normal" text-decoration="none" x="362.2958984375" y="110">*</text></g></g><g transform="translate(-102,-30) scale(1,1)"><path fill="none" stroke="#000000" d="M 208 422 L 208 578 L 391 578" stroke-miterlimit="10"/></g><g transform="translate(-102,-30) scale(1,1)"><g><path fill="none" stroke="none"/><text fill="#000000" stroke="none" font-family="Arial" font-size="13px" font-style="normal" font-weight="normal" text-decoration="none" x="219.2958984375" y="452">1</text></g></g><g transform="translate(-102,-30) scale(1,1)"><g><path fill="none" stroke="none"/><text fill="#000000" stroke="none" font-family="Arial" font-size="13px" font-style="normal" font-weight="normal" text-decoration="none" x="361.2958984375" y="568">1</text></g></g><g transform="translate(-102,-30) scale(1,1)"><path fill="none" stroke="#000000" d="M 297 306 L 711 198" stroke-miterlimit="10"/></g><g transform="translate(-102,-30) scale(1,1)"><g><path fill="none" stroke="none"/><text fill="#000000" stroke="none" font-family="Arial" font-size="13px" font-style="normal" font-weight="normal" text-decoration="none" x="315.38134765625" y="289">*</text></g></g><g transform="translate(-102,-30) scale(1,1)"><g><path fill="none" stroke="none"/><text fill="#000000" stroke="none" font-family="Arial" font-size="13px" font-style="normal" font-weight="normal" text-decoration="none" x="678.2958984375" y="195">1</text></g></g><g transform="translate(-102,-30) scale(1,1)"><path fill="none" stroke="#000000" d="M 792 236 L 792 391" stroke-miterlimit="10"/></g><g transform="translate(-102,-30) scale(1,1)"><g><path fill="none" stroke="none"/><text fill="#000000" stroke="none" font-family="Arial" font-size="13px" font-style="normal" font-weight="normal" text-decoration="none" x="803.2958984375" y="266">1</text></g></g><g transform="translate(-102,-30) scale(1,1)"><g><path fill="none" stroke="none"/><text fill="#000000" stroke="none" font-family="Arial" font-size="13px" font-style="normal" font-weight="normal" text-decoration="none" x="803.2958984375" y="370">1</text></g></g><g transform="translate(-102,-30) scale(1,1)"><path fill="none" stroke="#000000" d="M 297 350 L 711 465" stroke-miterlimit="10"/></g><g transform="translate(-102,-30) scale(1,1)"><g><path fill="none" stroke="none"/><text fill="#000000" stroke="none" font-family="Arial" font-size="13px" font-style="normal" font-weight="normal" text-decoration="none" x="323.2958984375" y="347">*</text></g></g><g transform="translate(-102,-30) scale(1,1)"><g><path fill="none" stroke="none"/><text fill="#000000" stroke="none" font-family="Arial" font-size="13px" font-style="normal" font-weight="normal" text-decoration="none" x="685.2958984375" y="448">1</text></g></g><g transform="translate(-102,-30) scale(1,1)"><path fill="none" stroke="#000000" d="M 552 124 L 711 159" stroke-miterlimit="10"/></g><g transform="translate(-102,-30) scale(1,1)"><g><path fill="none" stroke="none"/><text fill="#000000" stroke="none" font-family="Arial" font-size="13px" font-style="normal" font-weight="normal" text-decoration="none" x="577.2958984375" y="119">*</text></g></g><g transform="translate(-102,-30) scale(1,1)"><g><path fill="none" stroke="none"/><text fill="#000000" stroke="none" font-family="Arial" font-size="13px" font-style="normal" font-weight="normal" text-decoration="none" x="684.2958984375" y="143">1</text></g></g><g transform="translate(-102,-30) scale(1,1)"><path fill="none" stroke="#000000" d="M 711 510 L 552 555" stroke-miterlimit="10"/></g><g transform="translate(-102,-30) scale(1,1)"><g><path fill="none" stroke="none"/><text fill="#000000" stroke="none" font-family="Arial" font-size="13px" font-style="normal" font-weight="normal" text-decoration="none" x="686.2958984375" y="536">1</text></g></g><g transform="translate(-102,-30) scale(1,1)"><g><path fill="none" stroke="none"/><text fill="#000000" stroke="none" font-family="Arial" font-size="13px" font-style="normal" font-weight="normal" text-decoration="none" x="578.2958984375" y="567">*</text></g></g></g></svg>