<svg version="1.1" xmlns="http://www.w3.org/2000/svg" xmlns:xlink="http://www.w3.org/1999/xlink" width="628" height="604"><defs/><g><g transform="translate(-174,-22) scale(1,1)"><path fill="none" stroke="#000000" d="M 184 32 L 792 32 L 792 616 L 184 616 L 184 32" stroke-miterlimit="10"/></g><g transform="translate(-174,-22) scale(1,1)"><path fill="#ffffff" stroke="none" d="M 184 32 L 184 54 L 392.22607421875 54 L 403.22607421875 43 L 403.22607421875 32 L 184 32"/></g><g transform="translate(-174,-22) scale(1,1)"><path fill="none" stroke="#000000" d="M 184 32 L 184 54 L 392.22607421875 54 L 403.22607421875 43 L 403.22607421875 32 L 184 32 L 184 32" stroke-miterlimit="10"/></g><g transform="translate(-174,-22) scale(1,1)"><g><path fill="none" stroke="none"/><text fill="#000000" stroke="none" font-family="Arial" font-size="13px" font-style="normal" font-weight="normal" text-decoration="none" x="216.68994140625" y="48">DeploymentDi - 217Y1A05C0</text></g></g><g transform="translate(-174,-22) scale(1,1)"><g><path fill="none" stroke="none"/><text fill="#000000" stroke="none" font-family="Arial" font-size="13px" font-style="normal" font-weight="bold" text-decoration="none" x="188.2890625" y="48">dep</text></g></g><g transform="translate(-174,-22) scale(1,1)"><path fill="#C0C0C0" stroke="none" d="M 455 145 L 568.49169921875 145 L 568.49169921875 183 L 455 183" opacity="0.2"/></g><g transform="translate(-174,-22) scale(1,1)"><path fill="#C0C0C0" stroke="none" d="M 455 145 L 465 135 L 578.49169921875 135 L 568.49169921875 145" opacity="0.2"/></g><g transform="translate(-174,-22) scale(1,1)"><path fill="#C0C0C0" stroke="none" d="M 578.49169921875 135 L 568.49169921875 145 L 568.49169921875 183 L 578.49169921875 173" opacity="0.2"/></g><g transform="translate(-174,-22) scale(1,1)"><path fill="#f1d9c2" stroke="none" d="M 448 138 L 561.49169921875 138 L 561.49169921875 176 L 448 176"/></g><g transform="translate(-174,-22) scale(1,1)"><path fill="#f1d9c2" stroke="none" d="M 448 138 L 458 128 L 571.49169921875 128 L 561.49169921875 138"/></g><g transform="translate(-174,-22) scale(1,1)"><path fill="#f1d9c2" stroke="none" d="M 571.49169921875 128 L 561.49169921875 138 L 561.49169921875 176 L 571.49169921875 166"/></g><g transform="translate(-174,-22) scale(1,1)"><path fill="none" stroke="#000000" d="M 448 138 L 561.49169921875 138 L 561.49169921875 176 L 448 176 L 448 138" stroke-miterlimit="10"/></g><g transform="translate(-174,-22) scale(1,1)"><path fill="none" stroke="#000000" d="M 448 138 L 458 128 L 571.49169921875 128 L 561.49169921875 138 L 448 138" stroke-miterlimit="10"/></g><g transform="translate(-174,-22) scale(1,1)"><path fill="none" stroke="#000000" d="M 571.49169921875 128 L 561.49169921875 138 L 561.49169921875 176 L 571.49169921875 166 L 571.49169921875 128" stroke-miterlimit="10"/></g><g transform="translate(-174,-22) scale(1,1)"><g><path fill="none" stroke="none"/><text fill="#000000" stroke="none" font-family="Arial" font-size="13px" font-style="normal" font-weight="bold" text-decoration="none" x="452.5" y="156">Library Database</text></g></g><g transform="translate(-174,-22) scale(1,1)"><path fill="#C0C0C0" stroke="none" d="M 255 345 L 343.9072265625 345 L 343.9072265625 383 L 255 383" opacity="0.2"/></g><g transform="translate(-174,-22) scale(1,1)"><path fill="#C0C0C0" stroke="none" d="M 255 345 L 265 335 L 353.9072265625 335 L 343.9072265625 345" opacity="0.2"/></g><g transform="translate(-174,-22) scale(1,1)"><path fill="#C0C0C0" stroke="none" d="M 353.9072265625 335 L 343.9072265625 345 L 343.9072265625 383 L 353.9072265625 373" opacity="0.2"/></g><g transform="translate(-174,-22) scale(1,1)"><path fill="#f1d9c2" stroke="none" d="M 248 338 L 336.9072265625 338 L 336.9072265625 376 L 248 376"/></g><g transform="translate(-174,-22) scale(1,1)"><path fill="#f1d9c2" stroke="none" d="M 248 338 L 258 328 L 346.9072265625 328 L 336.9072265625 338"/></g><g transform="translate(-174,-22) scale(1,1)"><path fill="#f1d9c2" stroke="none" d="M 346.9072265625 328 L 336.9072265625 338 L 336.9072265625 376 L 346.9072265625 366"/></g><g transform="translate(-174,-22) scale(1,1)"><path fill="none" stroke="#000000" d="M 248 338 L 336.9072265625 338 L 336.9072265625 376 L 248 376 L 248 338" stroke-miterlimit="10"/></g><g transform="translate(-174,-22) scale(1,1)"><path fill="none" stroke="#000000" d="M 248 338 L 258 328 L 346.9072265625 328 L 336.9072265625 338 L 248 338" stroke-miterlimit="10"/></g><g transform="translate(-174,-22) scale(1,1)"><path fill="none" stroke="#000000" d="M 346.9072265625 328 L 336.9072265625 338 L 336.9072265625 376 L 346.9072265625 366 L 346.9072265625 328" stroke-miterlimit="10"/></g><g transform="translate(-174,-22) scale(1,1)"><g><path fill="none" stroke="none"/><text fill="#000000" stroke="none" font-family="Arial" font-size="13px" font-style="normal" font-weight="bold" text-decoration="none" x="270.917724609375" y="356">Library</text></g></g><g transform="translate(-174,-22) scale(1,1)"><path fill="#C0C0C0" stroke="none" d="M 447 345 L 573.4599609375 345 L 573.4599609375 383 L 447 383" opacity="0.2"/></g><g transform="translate(-174,-22) scale(1,1)"><path fill="#C0C0C0" stroke="none" d="M 447 345 L 457 335 L 583.4599609375 335 L 573.4599609375 345" opacity="0.2"/></g><g transform="translate(-174,-22) scale(1,1)"><path fill="#C0C0C0" stroke="none" d="M 583.4599609375 335 L 573.4599609375 345 L 573.4599609375 383 L 583.4599609375 373" opacity="0.2"/></g><g transform="translate(-174,-22) scale(1,1)"><path fill="#f1d9c2" stroke="none" d="M 440 338 L 566.4599609375 338 L 566.4599609375 376 L 440 376"/></g><g transform="translate(-174,-22) scale(1,1)"><path fill="#f1d9c2" stroke="none" d="M 440 338 L 450 328 L 576.4599609375 328 L 566.4599609375 338"/></g><g transform="translate(-174,-22) scale(1,1)"><path fill="#f1d9c2" stroke="none" d="M 576.4599609375 328 L 566.4599609375 338 L 566.4599609375 376 L 576.4599609375 366"/></g><g transform="translate(-174,-22) scale(1,1)"><path fill="none" stroke="#000000" d="M 440 338 L 566.4599609375 338 L 566.4599609375 376 L 440 376 L 440 338" stroke-miterlimit="10"/></g><g transform="translate(-174,-22) scale(1,1)"><path fill="none" stroke="#000000" d="M 440 338 L 450 328 L 576.4599609375 328 L 566.4599609375 338 L 440 338" stroke-miterlimit="10"/></g><g transform="translate(-174,-22) scale(1,1)"><path fill="none" stroke="#000000" d="M 576.4599609375 328 L 566.4599609375 338 L 566.4599609375 376 L 576.4599609375 366 L 576.4599609375 328" stroke-miterlimit="10"/></g><g transform="translate(-174,-22) scale(1,1)"><g><path fill="none" stroke="none"/><text fill="#000000" stroke="none" font-family="Arial" font-size="13px" font-style="normal" font-weight="bold" text-decoration="none" x="444.5" y="356">Library Application</text></g></g><g transform="translate(-174,-22) scale(1,1)"><path fill="none" stroke="#000000" d="M 508 327 L 510 178" stroke-miterlimit="10"/></g><g transform="translate(-174,-22) scale(1,1)"><g><path fill="none" stroke="none"/><text fill="#aaaaaa" stroke="none" font-family="Arial" font-size="13px" font-style="normal" font-weight="normal" text-decoration="none" x="526.29541015625" y="233">Requests and</text><text fill="#aaaaaa" stroke="none" font-family="Arial" font-size="13px" font-style="normal" font-weight="normal" text-decoration="none" x="536.416748046875" y="244.5">responces</text></g></g><g transform="translate(-174,-22) scale(1,1)"><path fill="none" stroke="#000000" d="M 349 352 L 439 352" stroke-miterlimit="10"/></g><g transform="translate(-174,-22) scale(1,1)"><g><path fill="none" stroke="none"/><text fill="#c6c6c6" stroke="none" font-family="Arial" font-size="13px" font-style="normal" font-weight="normal" text-decoration="none" x="380.562255859375" y="291">Gets</text><text fill="#c6c6c6" stroke="none" font-family="Arial" font-size="13px" font-style="normal" font-weight="normal" text-decoration="none" x="388.509521484375" y="302.5">or</text><text fill="#c6c6c6" stroke="none" font-family="Arial" font-size="13px" font-style="normal" font-weight="normal" text-decoration="none" x="376.944091796875" y="317">sends</text><text fill="#c6c6c6" stroke="none" font-family="Arial" font-size="13px" font-style="normal" font-weight="normal" text-decoration="none" x="380.200439453125" y="330">Hard</text><text fill="#c6c6c6" stroke="none" font-family="Arial" font-size="13px" font-style="normal" font-weight="normal" text-decoration="none" x="375.5" y="343">copies</text></g></g><g transform="translate(-174,-22) scale(1,1)"><rect fill="#C0C0C0" stroke="none" x="657" y="143" width="107.16259765625" height="44" opacity="0.2"/></g><g transform="translate(-174,-22) scale(1,1)"><rect fill="#e1e5fa" stroke="none" x="650" y="136" width="107.16259765625" height="44"/></g><g transform="translate(-174,-22) scale(1,1)"><path fill="none" stroke="#000000" d="M 650 136 L 757.16259765625 136 L 757.16259765625 180 L 650 180 L 650 136 Z Z" stroke-miterlimit="10"/></g><g transform="translate(-174,-22) scale(1,1)"><rect fill="#e1e5fa" stroke="none" x="640" y="143" width="20" height="10"/></g><g transform="translate(-174,-22) scale(1,1)"><path fill="none" stroke="#000000" d="M 640 143 L 660 143 L 660 153 L 640 153 L 640 143 Z Z" stroke-miterlimit="10"/></g><g transform="translate(-174,-22) scale(1,1)"><rect fill="#e1e5fa" stroke="none" x="640" y="163" width="20" height="10"/></g><g transform="translate(-174,-22) scale(1,1)"><path fill="none" stroke="#000000" d="M 640 163 L 660 163 L 660 173 L 640 173 L 640 163 Z Z" stroke-miterlimit="10"/></g><g transform="translate(-174,-22) scale(1,1)"><g><path fill="none" stroke="none"/><text fill="#000000" stroke="none" font-family="Arial" font-size="13px" font-style="normal" font-weight="bold" text-decoration="none" x="664.5" y="154">Library Server</text></g></g><g transform="translate(-174,-22) scale(1,1)"><path fill="none" stroke="#000000" d="M 704 180 L 704 344 M 704 344 A 8 8 0 0 1 696 352 L 577 352" stroke-miterlimit="10" stroke-dasharray="3"/></g><g transform="translate(-174,-22) scale(1,1)"><path fill="none" stroke="#000000" d="M 587.1626748576241 347.790482243984 L 577 352 L 587.1626748576241 356.209517756016" stroke-miterlimit="10"/></g><g transform="translate(-174,-22) scale(1,1)"><g><path fill="none" stroke="none"/><text fill="#000000" stroke="none" font-family="Arial" font-size="13px" font-style="normal" font-weight="normal" text-decoration="none" x="606.5" y="344">«deploy»</text></g></g><g transform="translate(-174,-22) scale(1,1)"><path fill="none" stroke="#000000" d="M 639 156 L 573 154" stroke-miterlimit="10" stroke-dasharray="3"/></g><g transform="translate(-174,-22) scale(1,1)"><path fill="none" stroke="#000000" d="M 583.2855146268693 150.1002322042899 L 573 154 L 583.0305093940523 158.51540488725317" stroke-miterlimit="10"/></g><g transform="translate(-174,-22) scale(1,1)"><g><path fill="none" stroke="none"/><text fill="#000000" stroke="none" font-family="Arial" font-size="13px" font-style="normal" font-weight="normal" text-decoration="none" x="582.5" y="178">«deploy»</text></g></g><g transform="translate(-174,-22) scale(1,1)"><rect fill="#C0C0C0" stroke="none" x="465" y="63" width="116.49365234375" height="44" opacity="0.2"/></g><g transform="translate(-174,-22) scale(1,1)"><rect fill="#e1e5fa" stroke="none" x="458" y="56" width="116.49365234375" height="44"/></g><g transform="translate(-174,-22) scale(1,1)"><path fill="none" stroke="#000000" d="M 458 56 L 574.49365234375 56 L 574.49365234375 100 L 458 100 L 458 56 Z Z" stroke-miterlimit="10"/></g><g transform="translate(-174,-22) scale(1,1)"><rect fill="#e1e5fa" stroke="none" x="448" y="63" width="20" height="10"/></g><g transform="translate(-174,-22) scale(1,1)"><path fill="none" stroke="#000000" d="M 448 63 L 468 63 L 468 73 L 448 73 L 448 63 Z Z" stroke-miterlimit="10"/></g><g transform="translate(-174,-22) scale(1,1)"><rect fill="#e1e5fa" stroke="none" x="448" y="83" width="20" height="10"/></g><g transform="translate(-174,-22) scale(1,1)"><path fill="none" stroke="#000000" d="M 448 83 L 468 83 L 468 93 L 448 93 L 448 83 Z Z" stroke-miterlimit="10"/></g><g transform="translate(-174,-22) scale(1,1)"><g><path fill="none" stroke="none"/><text fill="#000000" stroke="none" font-family="Arial" font-size="13px" font-style="normal" font-weight="bold" text-decoration="none" x="472.5" y="74">Admin Controls</text></g></g><g transform="translate(-174,-22) scale(1,1)"><path fill="none" stroke="#000000" d="M 511 101 L 510 127" stroke-miterlimit="10" stroke-dasharray="3"/></g><g transform="translate(-174,-22) scale(1,1)"><path fill="none" stroke="#000000" d="M 506.18417566617 116.68304867447021 L 510 127 L 514.5969909811859 117.00661849427851" stroke-miterlimit="10"/></g><g transform="translate(-174,-22) scale(1,1)"><g><path fill="none" stroke="none"/><text fill="#000000" stroke="none" font-family="Arial" font-size="13px" font-style="normal" font-weight="normal" text-decoration="none" x="518.5" y="118">«deploy»</text></g></g><g transform="translate(-174,-22) scale(1,1)"><path fill="#C0C0C0" stroke="none" d="M 215 145 L 380.498046875 145 L 380.498046875 183 L 215 183" opacity="0.2"/></g><g transform="translate(-174,-22) scale(1,1)"><path fill="#C0C0C0" stroke="none" d="M 215 145 L 225 135 L 390.498046875 135 L 380.498046875 145" opacity="0.2"/></g><g transform="translate(-174,-22) scale(1,1)"><path fill="#C0C0C0" stroke="none" d="M 390.498046875 135 L 380.498046875 145 L 380.498046875 183 L 390.498046875 173" opacity="0.2"/></g><g transform="translate(-174,-22) scale(1,1)"><path fill="#f1d9c2" stroke="none" d="M 208 138 L 373.498046875 138 L 373.498046875 176 L 208 176"/></g><g transform="translate(-174,-22) scale(1,1)"><path fill="#f1d9c2" stroke="none" d="M 208 138 L 218 128 L 383.498046875 128 L 373.498046875 138"/></g><g transform="translate(-174,-22) scale(1,1)"><path fill="#f1d9c2" stroke="none" d="M 383.498046875 128 L 373.498046875 138 L 373.498046875 176 L 383.498046875 166"/></g><g transform="translate(-174,-22) scale(1,1)"><path fill="none" stroke="#000000" d="M 208 138 L 373.498046875 138 L 373.498046875 176 L 208 176 L 208 138" stroke-miterlimit="10"/></g><g transform="translate(-174,-22) scale(1,1)"><path fill="none" stroke="#000000" d="M 208 138 L 218 128 L 383.498046875 128 L 373.498046875 138 L 208 138" stroke-miterlimit="10"/></g><g transform="translate(-174,-22) scale(1,1)"><path fill="none" stroke="#000000" d="M 383.498046875 128 L 373.498046875 138 L 373.498046875 176 L 383.498046875 166 L 383.498046875 128" stroke-miterlimit="10"/></g><g transform="translate(-174,-22) scale(1,1)"><g><path fill="none" stroke="none"/><text fill="#000000" stroke="none" font-family="Arial" font-size="13px" font-style="normal" font-weight="bold" text-decoration="none" x="212.5" y="156">Library System controller</text></g></g><g transform="translate(-174,-22) scale(1,1)"><path fill="none" stroke="#000000" d="M 296 178 L 297 327" stroke-miterlimit="10" stroke-dasharray="3"/></g><g transform="translate(-174,-22) scale(1,1)"><path fill="none" stroke="#000000" d="M 292.7223727099889 316.8658051741763 L 297 327 L 301.1412186190501 316.80930285263895" stroke-miterlimit="10"/></g><g transform="translate(-174,-22) scale(1,1)"><rect fill="#C0C0C0" stroke="none" x="301" y="551" width="89.9072265625" height="39" opacity="0.2"/></g><g transform="translate(-174,-22) scale(1,1)"><rect fill="#ffffff" stroke="none" x="294" y="544" width="89.9072265625" height="39"/></g><g transform="translate(-174,-22) scale(1,1)"><path fill="none" stroke="#000000" d="M 294 544 L 383.9072265625 544 L 383.9072265625 583 L 294 583 L 294 544 Z Z" stroke-miterlimit="10"/></g><g transform="translate(-174,-22) scale(1,1)"><rect fill="#ffffff" stroke="none" x="294" y="544" width="89.9072265625" height="39"/></g><g transform="translate(-174,-22) scale(1,1)"><path fill="none" stroke="#000000" d="M 294 544 L 383.9072265625 544 L 383.9072265625 583 L 294 583 L 294 544 Z Z" stroke-miterlimit="10"/></g><g transform="translate(-174,-22) scale(1,1)"><g><path fill="none" stroke="none"/><text fill="#000000" stroke="none" font-family="Arial" font-size="13px" font-style="normal" font-weight="bold" text-decoration="none" x="314.7626953125" y="562">Student</text><path fill="none" stroke="#000000" d="M 363.14453125 563.5 L 314.7626953125 563.5" stroke-miterlimit="10"/></g></g><g transform="translate(-174,-22) scale(1,1)"><path fill="none" stroke="#000000" d="M 360 544 L 360 456 M 360 456 A 8 8 0 0 1 368 448 L 448 448 M 448 448 A 8 8 0 0 0 456 440 L 456 377" stroke-miterlimit="10" stroke-dasharray="3"/></g><g transform="translate(-174,-22) scale(1,1)"><path fill="none" stroke="#000000" d="M 460.209517756016 387.16267485762415 L 456 377 L 451.790482243984 387.16267485762415" stroke-miterlimit="10"/></g><g transform="translate(-174,-22) scale(1,1)"><rect fill="#C0C0C0" stroke="none" x="411" y="551" width="89.9072265625" height="39" opacity="0.2"/></g><g transform="translate(-174,-22) scale(1,1)"><rect fill="#ffffff" stroke="none" x="404" y="544" width="89.9072265625" height="39"/></g><g transform="translate(-174,-22) scale(1,1)"><path fill="none" stroke="#000000" d="M 404 544 L 493.9072265625 544 L 493.9072265625 583 L 404 583 L 404 544 Z Z" stroke-miterlimit="10"/></g><g transform="translate(-174,-22) scale(1,1)"><rect fill="#ffffff" stroke="none" x="404" y="544" width="89.9072265625" height="39"/></g><g transform="translate(-174,-22) scale(1,1)"><path fill="none" stroke="#000000" d="M 404 544 L 493.9072265625 544 L 493.9072265625 583 L 404 583 L 404 544 Z Z" stroke-miterlimit="10"/></g><g transform="translate(-174,-22) scale(1,1)"><g><path fill="none" stroke="none"/><text fill="#000000" stroke="none" font-family="Arial" font-size="13px" font-style="normal" font-weight="bold" text-decoration="none" x="424.7626953125" y="562">Student</text><path fill="none" stroke="#000000" d="M 473.14453125 563.5 L 424.7626953125 563.5" stroke-miterlimit="10"/></g></g><g transform="translate(-174,-22) scale(1,1)"><path fill="none" stroke="#000000" d="M 448 544 L 448 480 M 448 480 A 8 8 0 0 1 456 472 L 480 472 M 480 472 A 8 8 0 0 0 488 464 L 488 377" stroke-miterlimit="10" stroke-dasharray="3"/></g><g transform="translate(-174,-22) scale(1,1)"><path fill="none" stroke="#000000" d="M 492.209517756016 387.16267485762415 L 488 377 L 483.790482243984 387.16267485762415" stroke-miterlimit="10"/></g><g transform="translate(-174,-22) scale(1,1)"><rect fill="#C0C0C0" stroke="none" x="631" y="551" width="89.9072265625" height="39" opacity="0.2"/></g><g transform="translate(-174,-22) scale(1,1)"><rect fill="#ffffff" stroke="none" x="624" y="544" width="89.9072265625" height="39"/></g><g transform="translate(-174,-22) scale(1,1)"><path fill="none" stroke="#000000" d="M 624 544 L 713.9072265625 544 L 713.9072265625 583 L 624 583 L 624 544 Z Z" stroke-miterlimit="10"/></g><g transform="translate(-174,-22) scale(1,1)"><rect fill="#ffffff" stroke="none" x="624" y="544" width="89.9072265625" height="39"/></g><g transform="translate(-174,-22) scale(1,1)"><path fill="none" stroke="#000000" d="M 624 544 L 713.9072265625 544 L 713.9072265625 583 L 624 583 L 624 544 Z Z" stroke-miterlimit="10"/></g><g transform="translate(-174,-22) scale(1,1)"><g><path fill="none" stroke="none"/><text fill="#000000" stroke="none" font-family="Arial" font-size="13px" font-style="normal" font-weight="bold" text-decoration="none" x="644.7626953125" y="562">Student</text><path fill="none" stroke="#000000" d="M 693.14453125 563.5 L 644.7626953125 563.5" stroke-miterlimit="10"/></g></g><g transform="translate(-174,-22) scale(1,1)"><path fill="none" stroke="#000000" d="M 636 544 L 636 456 M 636 456 A 8 8 0 0 0 628 448 L 552 448 M 552 448 A 8 8 0 0 1 544 440 L 544 377" stroke-miterlimit="10" stroke-dasharray="3"/></g><g transform="translate(-174,-22) scale(1,1)"><path fill="none" stroke="#000000" d="M 548.209517756016 387.16267485762415 L 544 377 L 539.790482243984 387.16267485762415" stroke-miterlimit="10"/></g><g transform="translate(-174,-22) scale(1,1)"><rect fill="#C0C0C0" stroke="none" x="521" y="551" width="89.9072265625" height="39" opacity="0.2"/></g><g transform="translate(-174,-22) scale(1,1)"><rect fill="#ffffff" stroke="none" x="514" y="544" width="89.9072265625" height="39"/></g><g transform="translate(-174,-22) scale(1,1)"><path fill="none" stroke="#000000" d="M 514 544 L 603.9072265625 544 L 603.9072265625 583 L 514 583 L 514 544 Z Z" stroke-miterlimit="10"/></g><g transform="translate(-174,-22) scale(1,1)"><rect fill="#ffffff" stroke="none" x="514" y="544" width="89.9072265625" height="39"/></g><g transform="translate(-174,-22) scale(1,1)"><path fill="none" stroke="#000000" d="M 514 544 L 603.9072265625 544 L 603.9072265625 583 L 514 583 L 514 544 Z Z" stroke-miterlimit="10"/></g><g transform="translate(-174,-22) scale(1,1)"><g><path fill="none" stroke="none"/><text fill="#000000" stroke="none" font-family="Arial" font-size="13px" font-style="normal" font-weight="bold" text-decoration="none" x="534.7626953125" y="562">Student</text><path fill="none" stroke="#000000" d="M 583.14453125 563.5 L 534.7626953125 563.5" stroke-miterlimit="10"/></g></g><g transform="translate(-174,-22) scale(1,1)"><path fill="none" stroke="#000000" d="M 552 544 L 552 480 M 552 480 A 8 8 0 0 0 544 472 L 520 472 M 520 472 A 8 8 0 0 1 512 464 L 512 377" stroke-miterlimit="10" stroke-dasharray="3"/></g><g transform="translate(-174,-22) scale(1,1)"><path fill="none" stroke="#000000" d="M 516.209517756016 387.16267485762415 L 512 377 L 507.790482243984 387.16267485762415" stroke-miterlimit="10"/></g></g></svg>