<svg version="1.1" xmlns="http://www.w3.org/2000/svg" xmlns:xlink="http://www.w3.org/1999/xlink" width="572" height="492"><defs/><g><g transform="translate(-166,-70) scale(1,1)"><path fill="none" stroke="#000000" d="M 176 80 L 728 80 L 728 552 L 176 552 L 176 80" stroke-miterlimit="10"/></g><g transform="translate(-166,-70) scale(1,1)"><path fill="#ffffff" stroke="none" d="M 176 80 L 176 102 L 395.759765625 102 L 406.759765625 91 L 406.759765625 80 L 176 80"/></g><g transform="translate(-166,-70) scale(1,1)"><path fill="none" stroke="#000000" d="M 176 80 L 176 102 L 395.759765625 102 L 406.759765625 91 L 406.759765625 80 L 176 80 L 176 80" stroke-miterlimit="10"/></g><g transform="translate(-166,-70) scale(1,1)"><g><path fill="none" stroke="none"/><text fill="#000000" stroke="none" font-family="Arial" font-size="13px" font-style="normal" font-weight="normal" text-decoration="none" x="204.341796875" y="96">ActivityDiagram1 - 217Y1A05C0</text></g></g><g transform="translate(-166,-70) scale(1,1)"><g><path fill="none" stroke="none"/><text fill="#000000" stroke="none" font-family="Arial" font-size="13px" font-style="normal" font-weight="bold" text-decoration="none" x="180.2763671875" y="95.5">act</text></g></g><g transform="translate(-166,-70) scale(1,1)"><path fill="#C0C0C0" stroke="none" d="M 221 127 L 346 127 Q 356 127 356 137 L 356 170 Q 356 180 346 180 L 221 180 Q 211 180 211 170 L 211 137 Q 211 127 221 127 Z" opacity="0.2"/></g><g transform="translate(-166,-70) scale(1,1)"><path fill="#d8e1f8" stroke="none" d="M 214 120 L 339 120 Q 349 120 349 130 L 349 163 Q 349 173 339 173 L 214 173 Q 204 173 204 163 L 204 130 Q 204 120 214 120 Z"/></g><g transform="translate(-166,-70) scale(1,1)"><path fill="none" stroke="#000000" d="M 214 120 L 339 120 Q 349 120 349 130 L 349 163 Q 349 173 339 173 L 214 173 Q 204 173 204 163 L 204 130 Q 204 120 214 120 Z" stroke-miterlimit="10"/></g><g transform="translate(-166,-70) scale(1,1)"><g><path fill="none" stroke="none"/><text fill="#000000" stroke="none" font-family="Arial" font-size="13px" font-style="normal" font-weight="bold" text-decoration="none" x="213.65185546875" y="138">Admin is Registered</text></g></g><g transform="translate(-166,-70) scale(1,1)"><path fill="#C0C0C0" stroke="none" d="M 392 191 L 517 191 Q 527 191 527 201 L 527 234 Q 527 244 517 244 L 392 244 Q 382 244 382 234 L 382 201 Q 382 191 392 191 Z" opacity="0.2"/></g><g transform="translate(-166,-70) scale(1,1)"><path fill="#d8e1f8" stroke="none" d="M 385 184 L 510 184 Q 520 184 520 194 L 520 227 Q 520 237 510 237 L 385 237 Q 375 237 375 227 L 375 194 Q 375 184 385 184 Z"/></g><g transform="translate(-166,-70) scale(1,1)"><path fill="none" stroke="#000000" d="M 385 184 L 510 184 Q 520 184 520 194 L 520 227 Q 520 237 510 237 L 385 237 Q 375 237 375 227 L 375 194 Q 375 184 385 184 Z" stroke-miterlimit="10"/></g><g transform="translate(-166,-70) scale(1,1)"><g><path fill="none" stroke="none"/><text fill="#000000" stroke="none" font-family="Arial" font-size="13px" font-style="normal" font-weight="bold" text-decoration="none" x="386.1181640625" y="202">Admin Login ID and</text><text fill="#000000" stroke="none" font-family="Arial" font-size="13px" font-style="normal" font-weight="bold" text-decoration="none" x="416.793212890625" y="215">Password</text></g></g><g transform="translate(-166,-70) scale(1,1)"><path fill="#C0C0C0" stroke="none" d="M 443 152.5 C 443 147.2532944 447.2532944 143 452.5 143 C 457.7467056 143 462 147.2532944 462 152.5 C 462 157.7467056 457.7467056 162 452.5 162 C 447.2532944 162 443 157.7467056 443 152.5 Z" opacity="0.2"/></g><g transform="translate(-166,-70) scale(1,1)"><path fill="#000000" stroke="none" d="M 436 145.5 C 436 140.2532944 440.2532944 136 445.5 136 C 450.7467056 136 455 140.2532944 455 145.5 C 455 150.7467056 450.7467056 155 445.5 155 C 440.2532944 155 436 150.7467056 436 145.5 Z"/></g><g transform="translate(-166,-70) scale(1,1)"><path fill="none" stroke="#000000" d="M 445 156 L 446 183" stroke-miterlimit="10"/></g><g transform="translate(-166,-70) scale(1,1)"><path fill="none" stroke="#000000" d="M 441.41722899170594 173.0000895061236 L 446 183 L 449.8304960648887 172.68848702193162" stroke-miterlimit="10"/></g><g transform="translate(-166,-70) scale(1,1)"><path fill="none" stroke="#000000" d="M 350 146 L 435 145" stroke-miterlimit="10"/></g><g transform="translate(-166,-70) scale(1,1)"><path fill="none" stroke="#000000" d="M 424.887548680089 149.3287790775726 L 435 145 L 424.78850805726205 140.9103261372821" stroke-miterlimit="10"/></g><g transform="translate(-166,-70) scale(1,1)"><path fill="#ffffff" stroke="none" d="M 436 337 L 447 328 L 458 337 L 447 346 L 436 337"/></g><g transform="translate(-166,-70) scale(1,1)"><path fill="none" stroke="#000000" d="M 436 337 L 447 328 L 458 337 L 447 346 L 436 337 L 436 337" stroke-miterlimit="10"/></g><g transform="translate(-166,-70) scale(1,1)"><path fill="none" stroke="#000000" d="M 447 238 L 447 327" stroke-miterlimit="10"/></g><g transform="translate(-166,-70) scale(1,1)"><path fill="none" stroke="#000000" d="M 442.790482243984 316.83732514237585 L 447 327 L 451.209517756016 316.83732514237585" stroke-miterlimit="10"/></g><g transform="translate(-166,-70) scale(1,1)"><g><path fill="none" stroke="none"/><text fill="#000000" stroke="none" font-family="Arial" font-size="13px" font-style="normal" font-weight="normal" text-decoration="none" x="351.56005859375" y="273">Check Login ID</text><text fill="#000000" stroke="none" font-family="Arial" font-size="13px" font-style="normal" font-weight="normal" text-decoration="none" x="367.4609375" y="286">Password</text></g></g><g transform="translate(-166,-70) scale(1,1)"><path fill="#C0C0C0" stroke="none" d="M 221 319 L 346 319 Q 356 319 356 329 L 356 362 Q 356 372 346 372 L 221 372 Q 211 372 211 362 L 211 329 Q 211 319 221 319 Z" opacity="0.2"/></g><g transform="translate(-166,-70) scale(1,1)"><path fill="#d8e1f8" stroke="none" d="M 214 312 L 339 312 Q 349 312 349 322 L 349 355 Q 349 365 339 365 L 214 365 Q 204 365 204 355 L 204 322 Q 204 312 214 312 Z"/></g><g transform="translate(-166,-70) scale(1,1)"><path fill="none" stroke="#000000" d="M 214 312 L 339 312 Q 349 312 349 322 L 349 355 Q 349 365 339 365 L 214 365 Q 204 365 204 355 L 204 322 Q 204 312 214 312 Z" stroke-miterlimit="10"/></g><g transform="translate(-166,-70) scale(1,1)"><g><path fill="none" stroke="none"/><text fill="#000000" stroke="none" font-family="Arial" font-size="13px" font-style="normal" font-weight="bold" text-decoration="none" x="214.385009765625" y="330">Login to the System</text><text fill="#000000" stroke="none" font-family="Arial" font-size="13px" font-style="normal" font-weight="bold" text-decoration="none" x="236.75732421875" y="343">Successfully</text></g></g><g transform="translate(-166,-70) scale(1,1)"><path fill="none" stroke="#000000" d="M 435 337 L 350 338" stroke-miterlimit="10"/></g><g transform="translate(-166,-70) scale(1,1)"><path fill="none" stroke="#000000" d="M 360.11245131991103 333.67122092242744 L 350 338 L 360.21149194273795 342.0896738627179" stroke-miterlimit="10"/></g><g transform="translate(-166,-70) scale(1,1)"><path fill="#C0C0C0" stroke="none" d="M 576 319 L 701 319 Q 711 319 711 329 L 711 362 Q 711 372 701 372 L 576 372 Q 566 372 566 362 L 566 329 Q 566 319 576 319 Z" opacity="0.2"/></g><g transform="translate(-166,-70) scale(1,1)"><path fill="#d8e1f8" stroke="none" d="M 569 312 L 694 312 Q 704 312 704 322 L 704 355 Q 704 365 694 365 L 569 365 Q 559 365 559 355 L 559 322 Q 559 312 569 312 Z"/></g><g transform="translate(-166,-70) scale(1,1)"><path fill="none" stroke="#000000" d="M 569 312 L 694 312 Q 704 312 704 322 L 704 355 Q 704 365 694 365 L 569 365 Q 559 365 559 355 L 559 322 Q 559 312 569 312 Z" stroke-miterlimit="10"/></g><g transform="translate(-166,-70) scale(1,1)"><g><path fill="none" stroke="none"/><text fill="#000000" stroke="none" font-family="Arial" font-size="13px" font-style="normal" font-weight="bold" text-decoration="none" x="610.911376953125" y="330">Invalid</text><text fill="#000000" stroke="none" font-family="Arial" font-size="13px" font-style="normal" font-weight="bold" text-decoration="none" x="581.299560546875" y="343">Login/Password</text></g></g><g transform="translate(-166,-70) scale(1,1)"><path fill="none" stroke="#000000" d="M 459 337 L 558 338" stroke-miterlimit="10"/></g><g transform="translate(-166,-70) scale(1,1)"><path fill="none" stroke="#000000" d="M 547.795325341268 342.10665497813403 L 558 338 L 547.880361765976 333.68804893204015" stroke-miterlimit="10"/></g><g transform="translate(-166,-70) scale(1,1)"><path fill="#C0C0C0" stroke="none" d="M 221 431 L 346 431 Q 356 431 356 441 L 356 474 Q 356 484 346 484 L 221 484 Q 211 484 211 474 L 211 441 Q 211 431 221 431 Z" opacity="0.2"/></g><g transform="translate(-166,-70) scale(1,1)"><path fill="#d8e1f8" stroke="none" d="M 214 424 L 339 424 Q 349 424 349 434 L 349 467 Q 349 477 339 477 L 214 477 Q 204 477 204 467 L 204 434 Q 204 424 214 424 Z"/></g><g transform="translate(-166,-70) scale(1,1)"><path fill="none" stroke="#000000" d="M 214 424 L 339 424 Q 349 424 349 434 L 349 467 Q 349 477 339 477 L 214 477 Q 204 477 204 467 L 204 434 Q 204 424 214 424 Z" stroke-miterlimit="10"/></g><g transform="translate(-166,-70) scale(1,1)"><g><path fill="none" stroke="none"/><text fill="#000000" stroke="none" font-family="Arial" font-size="13px" font-style="normal" font-weight="bold" text-decoration="none" x="222.306884765625" y="442">Set Userlevel and</text><text fill="#000000" stroke="none" font-family="Arial" font-size="13px" font-style="normal" font-weight="bold" text-decoration="none" x="237.8427734375" y="455">Permissions</text></g></g><g transform="translate(-166,-70) scale(1,1)"><path fill="none" stroke="#000000" d="M 276 366 L 276 423" stroke-miterlimit="10"/></g><g transform="translate(-166,-70) scale(1,1)"><path fill="none" stroke="#000000" d="M 271.790482243984 412.83732514237585 L 276 423 L 280.209517756016 412.83732514237585" stroke-miterlimit="10"/></g><g transform="translate(-166,-70) scale(1,1)"><path fill="#C0C0C0" stroke="none" d="M 271 523.5 C 271 516.59644 276.59644 511 283.5 511 C 290.40356 511 296 516.59644 296 523.5 C 296 530.40356 290.40356 536 283.5 536 C 276.59644 536 271 530.40356 271 523.5 Z" opacity="0.2"/></g><g transform="translate(-166,-70) scale(1,1)"><path fill="none" stroke="#000000" d="M 264 516.5 C 264 509.59644 269.59644 504 276.5 504 C 283.40356 504 289 509.59644 289 516.5 C 289 523.40356 283.40356 529 276.5 529 C 269.59644 529 264 523.40356 264 516.5 Z" stroke-miterlimit="10"/></g><g transform="translate(-166,-70) scale(1,1)"><path fill="#000000" stroke="none" d="M 269 516.5 C 269 512.357864 272.357864 509 276.5 509 C 280.642136 509 284 512.357864 284 516.5 C 284 520.642136 280.642136 524 276.5 524 C 272.357864 524 269 520.642136 269 516.5 Z"/></g><g transform="translate(-166,-70) scale(1,1)"><path fill="none" stroke="#000000" d="M 276 478 L 276 503" stroke-miterlimit="10"/></g><g transform="translate(-166,-70) scale(1,1)"><path fill="none" stroke="#000000" d="M 271.790482243984 492.83732514237585 L 276 503 L 280.209517756016 492.83732514237585" stroke-miterlimit="10"/></g><g transform="translate(-166,-70) scale(1,1)"><path fill="#C0C0C0" stroke="none" d="M 576 423 L 701 423 Q 711 423 711 433 L 711 492 Q 711 502 701 502 L 576 502 Q 566 502 566 492 L 566 433 Q 566 423 576 423 Z" opacity="0.2"/></g><g transform="translate(-166,-70) scale(1,1)"><path fill="#d8e1f8" stroke="none" d="M 569 416 L 694 416 Q 704 416 704 426 L 704 485 Q 704 495 694 495 L 569 495 Q 559 495 559 485 L 559 426 Q 559 416 569 416 Z"/></g><g transform="translate(-166,-70) scale(1,1)"><path fill="none" stroke="#000000" d="M 569 416 L 694 416 Q 704 416 704 426 L 704 485 Q 704 495 694 495 L 569 495 Q 559 495 559 485 L 559 426 Q 559 416 569 416 Z" stroke-miterlimit="10"/></g><g transform="translate(-166,-70) scale(1,1)"><g><path fill="none" stroke="none"/><text fill="#000000" stroke="none" font-family="Arial" font-size="13px" font-style="normal" font-weight="bold" text-decoration="none" x="571.892333984375" y="434">Access the internal</text><text fill="#000000" stroke="none" font-family="Arial" font-size="13px" font-style="normal" font-weight="bold" text-decoration="none" x="587.44091796875" y="447">functionalities</text><text fill="#000000" stroke="none" font-family="Arial" font-size="13px" font-style="normal" font-weight="bold" text-decoration="none" x="594.302734375" y="460">accordng to</text><text fill="#000000" stroke="none" font-family="Arial" font-size="13px" font-style="normal" font-weight="bold" text-decoration="none" x="593.207763671875" y="473">permissions</text></g></g><g transform="translate(-166,-70) scale(1,1)"><path fill="none" stroke="#000000" d="M 350 451 L 558 454" stroke-miterlimit="10"/></g><g transform="translate(-166,-70) scale(1,1)"><path fill="none" stroke="#000000" d="M 547.7776741391065 458.0625181838003 L 558 454 L 547.8990899078048 449.64435822072244" stroke-miterlimit="10"/></g><g transform="translate(-166,-70) scale(1,1)"><path fill="none" stroke="#000000" d="M 631 495 L 631 508 M 631 508 A 8 8 0 0 1 623 516 L 289 516" stroke-miterlimit="10"/></g><g transform="translate(-166,-70) scale(1,1)"><path fill="none" stroke="#000000" d="M 299.16267485762415 511.790482243984 L 289 516 L 299.16267485762415 520.209517756016" stroke-miterlimit="10"/></g><g transform="translate(-166,-70) scale(1,1)"><path fill="none" stroke="#000000" d="M 632 312 L 632 224 M 632 224 A 8 8 0 0 0 624 216 L 520 216" stroke-miterlimit="10"/></g><g transform="translate(-166,-70) scale(1,1)"><path fill="none" stroke="#000000" d="M 530.1626748576241 211.790482243984 L 520 216 L 530.1626748576241 220.209517756016" stroke-miterlimit="10"/></g></g></svg>