<svg version="1.1" xmlns="http://www.w3.org/2000/svg" xmlns:xlink="http://www.w3.org/1999/xlink" width="576" height="284"><defs/><g><g transform="translate(-2,-78) scale(1,1)"><path fill="none" stroke="#000000" d="M 12 88 L 568 88 L 568 352 L 12 352 L 12 88" stroke-miterlimit="10"/></g><g transform="translate(-2,-78) scale(1,1)"><path fill="#ffffff" stroke="none" d="M 12 88 L 12 110 L 235.37158203125 110 L 246.37158203125 99 L 246.37158203125 88 L 12 88"/></g><g transform="translate(-2,-78) scale(1,1)"><path fill="none" stroke="#000000" d="M 12 88 L 12 110 L 235.37158203125 110 L 246.37158203125 99 L 246.37158203125 88 L 12 88 L 12 88" stroke-miterlimit="10"/></g><g transform="translate(-2,-78) scale(1,1)"><g><path fill="none" stroke="none"/><text fill="#000000" stroke="none" font-family="Arial" font-size="13px" font-style="normal" font-weight="normal" text-decoration="none" x="52.6181640625" y="104">217Y1A05C0 - ClassDiagram1</text></g></g><g transform="translate(-2,-78) scale(1,1)"><g><path fill="none" stroke="none"/><text fill="#000000" stroke="none" font-family="Arial" font-size="13px" font-style="normal" font-weight="bold" text-decoration="none" x="15.543212890625" y="104">class</text></g></g><g transform="translate(-2,-78) scale(1,1)"><rect fill="#C0C0C0" stroke="none" x="230" y="132" width="132" height="208" opacity="0.2"/></g><g transform="translate(-2,-78) scale(1,1)"><rect fill="#d8e1f8" stroke="none" x="223" y="125" width="132" height="208"/></g><g transform="translate(-2,-78) scale(1,1)"><path fill="none" stroke="#000000" d="M 223 125 L 355 125 L 355 333 L 223 333 L 223 125 Z Z" stroke-miterlimit="10"/></g><g transform="translate(-2,-78) scale(1,1)"><path fill="none" stroke="#000000" d="M 223 150 L 355 150" stroke-miterlimit="10"/></g><g transform="translate(-2,-78) scale(1,1)"><path fill="none" stroke="#000000" d="M 223 248 L 355 248" stroke-miterlimit="10"/></g><g transform="translate(-2,-78) scale(1,1)"><g><path fill="none" stroke="none"/><text fill="#000000" stroke="none" font-family="Arial" font-size="13px" font-style="normal" font-weight="bold" text-decoration="none" x="238.78369140625" y="143">purchaseDetails</text></g></g><g transform="translate(-2,-78) scale(1,1)"><g><path fill="none" stroke="none"/><text fill="#000000" stroke="none" font-family="Arial" font-size="13px" font-style="normal" font-weight="normal" text-decoration="none" x="228" y="166">+prucCode: integer</text></g></g><g transform="translate(-2,-78) scale(1,1)"><g><path fill="none" stroke="none"/><text fill="#000000" stroke="none" font-family="Arial" font-size="13px" font-style="normal" font-weight="normal" text-decoration="none" x="228" y="181">+prucDate: integer</text></g></g><g transform="translate(-2,-78) scale(1,1)"><g><path fill="none" stroke="none"/><text fill="#000000" stroke="none" font-family="Arial" font-size="13px" font-style="normal" font-weight="normal" text-decoration="none" x="228" y="196">+subID: integer</text></g></g><g transform="translate(-2,-78) scale(1,1)"><g><path fill="none" stroke="none"/><text fill="#000000" stroke="none" font-family="Arial" font-size="13px" font-style="normal" font-weight="normal" text-decoration="none" x="228" y="211">+subName: integer</text></g></g><g transform="translate(-2,-78) scale(1,1)"><g><path fill="none" stroke="none"/><text fill="#000000" stroke="none" font-family="Arial" font-size="13px" font-style="normal" font-weight="normal" text-decoration="none" x="228" y="226">+prucQty: integer</text></g></g><g transform="translate(-2,-78) scale(1,1)"><g><path fill="none" stroke="none"/><text fill="#000000" stroke="none" font-family="Arial" font-size="13px" font-style="normal" font-weight="normal" text-decoration="none" x="228" y="241">+prucPrice: float</text></g></g><g transform="translate(-2,-78) scale(1,1)"><g><path fill="none" stroke="none"/><text fill="#000000" stroke="none" font-family="Arial" font-size="13px" font-style="normal" font-weight="normal" text-decoration="none" x="228" y="264">+save()</text></g></g><g transform="translate(-2,-78) scale(1,1)"><g><path fill="none" stroke="none"/><text fill="#000000" stroke="none" font-family="Arial" font-size="13px" font-style="normal" font-weight="normal" text-decoration="none" x="228" y="279">+delete()</text></g></g><g transform="translate(-2,-78) scale(1,1)"><g><path fill="none" stroke="none"/><text fill="#000000" stroke="none" font-family="Arial" font-size="13px" font-style="normal" font-weight="normal" text-decoration="none" x="228" y="294">+purcEdit()</text></g></g><g transform="translate(-2,-78) scale(1,1)"><g><path fill="none" stroke="none"/><text fill="#000000" stroke="none" font-family="Arial" font-size="13px" font-style="normal" font-weight="normal" text-decoration="none" x="228" y="309">+purcDetails()</text></g></g><g transform="translate(-2,-78) scale(1,1)"><rect fill="#C0C0C0" stroke="none" x="31" y="132" width="132" height="208" opacity="0.2"/></g><g transform="translate(-2,-78) scale(1,1)"><rect fill="#d8e1f8" stroke="none" x="24" y="125" width="132" height="208"/></g><g transform="translate(-2,-78) scale(1,1)"><path fill="none" stroke="#000000" d="M 24 125 L 156 125 L 156 333 L 24 333 L 24 125 Z Z" stroke-miterlimit="10"/></g><g transform="translate(-2,-78) scale(1,1)"><path fill="none" stroke="#000000" d="M 24 150 L 156 150" stroke-miterlimit="10"/></g><g transform="translate(-2,-78) scale(1,1)"><path fill="none" stroke="#000000" d="M 24 218 L 156 218" stroke-miterlimit="10"/></g><g transform="translate(-2,-78) scale(1,1)"><g><path fill="none" stroke="none"/><text fill="#000000" stroke="none" font-family="Arial" font-size="13px" font-style="normal" font-weight="bold" text-decoration="none" x="44.49365234375" y="143">productDetails</text></g></g><g transform="translate(-2,-78) scale(1,1)"><g><path fill="none" stroke="none"/><text fill="#000000" stroke="none" font-family="Arial" font-size="13px" font-style="normal" font-weight="normal" text-decoration="none" x="29" y="166">+prodCode: integer</text></g></g><g transform="translate(-2,-78) scale(1,1)"><g><path fill="none" stroke="none"/><text fill="#000000" stroke="none" font-family="Arial" font-size="13px" font-style="normal" font-weight="normal" text-decoration="none" x="29" y="181">+prodName: String</text></g></g><g transform="translate(-2,-78) scale(1,1)"><g><path fill="none" stroke="none"/><text fill="#000000" stroke="none" font-family="Arial" font-size="13px" font-style="normal" font-weight="normal" text-decoration="none" x="29" y="196">+prodQuality: integer</text></g></g><g transform="translate(-2,-78) scale(1,1)"><g><path fill="none" stroke="none"/><text fill="#000000" stroke="none" font-family="Arial" font-size="13px" font-style="normal" font-weight="normal" text-decoration="none" x="29" y="211">+prodPrice: float</text></g></g><g transform="translate(-2,-78) scale(1,1)"><g><path fill="none" stroke="none"/><text fill="#000000" stroke="none" font-family="Arial" font-size="13px" font-style="normal" font-weight="normal" text-decoration="none" x="29" y="234">+prodAdd()</text></g></g><g transform="translate(-2,-78) scale(1,1)"><g><path fill="none" stroke="none"/><text fill="#000000" stroke="none" font-family="Arial" font-size="13px" font-style="normal" font-weight="normal" text-decoration="none" x="29" y="249">+prodDelete()</text></g></g><g transform="translate(-2,-78) scale(1,1)"><g><path fill="none" stroke="none"/><text fill="#000000" stroke="none" font-family="Arial" font-size="13px" font-style="normal" font-weight="normal" text-decoration="none" x="29" y="264">+prodUpdate()</text></g></g><g transform="translate(-2,-78) scale(1,1)"><g><path fill="none" stroke="none"/><text fill="#000000" stroke="none" font-family="Arial" font-size="13px" font-style="normal" font-weight="normal" text-decoration="none" x="29" y="279">+prodDetails()</text></g></g><g transform="translate(-2,-78) scale(1,1)"><path fill="none" stroke="#000000" d="M 222 229 L 157 229" stroke-miterlimit="10"/></g><g transform="translate(-2,-78) scale(1,1)"><rect fill="#C0C0C0" stroke="none" x="429" y="132" width="132" height="208" opacity="0.2"/></g><g transform="translate(-2,-78) scale(1,1)"><rect fill="#d8e1f8" stroke="none" x="422" y="125" width="132" height="208"/></g><g transform="translate(-2,-78) scale(1,1)"><path fill="none" stroke="#000000" d="M 422 125 L 554 125 L 554 333 L 422 333 L 422 125 Z Z" stroke-miterlimit="10"/></g><g transform="translate(-2,-78) scale(1,1)"><path fill="none" stroke="#000000" d="M 422 150 L 554 150" stroke-miterlimit="10"/></g><g transform="translate(-2,-78) scale(1,1)"><path fill="none" stroke="#000000" d="M 422 263 L 554 263" stroke-miterlimit="10"/></g><g transform="translate(-2,-78) scale(1,1)"><g><path fill="none" stroke="none"/><text fill="#000000" stroke="none" font-family="Arial" font-size="13px" font-style="normal" font-weight="bold" text-decoration="none" x="450.418701171875" y="143">salesDetails</text></g></g><g transform="translate(-2,-78) scale(1,1)"><g><path fill="none" stroke="none"/><text fill="#000000" stroke="none" font-family="Arial" font-size="13px" font-style="normal" font-weight="normal" text-decoration="none" x="427" y="166">+ID: integer</text></g></g><g transform="translate(-2,-78) scale(1,1)"><g><path fill="none" stroke="none"/><text fill="#000000" stroke="none" font-family="Arial" font-size="13px" font-style="normal" font-weight="normal" text-decoration="none" x="427" y="181">+Date: date</text></g></g><g transform="translate(-2,-78) scale(1,1)"><g><path fill="none" stroke="none"/><text fill="#000000" stroke="none" font-family="Arial" font-size="13px" font-style="normal" font-weight="normal" text-decoration="none" x="427" y="196">+Code: integer</text></g></g><g transform="translate(-2,-78) scale(1,1)"><g><path fill="none" stroke="none"/><text fill="#000000" stroke="none" font-family="Arial" font-size="13px" font-style="normal" font-weight="normal" text-decoration="none" x="427" y="211">+Name: string</text></g></g><g transform="translate(-2,-78) scale(1,1)"><g><path fill="none" stroke="none"/><text fill="#000000" stroke="none" font-family="Arial" font-size="13px" font-style="normal" font-weight="normal" text-decoration="none" x="427" y="226">+Price: integer</text></g></g><g transform="translate(-2,-78) scale(1,1)"><g><path fill="none" stroke="none"/><text fill="#000000" stroke="none" font-family="Arial" font-size="13px" font-style="normal" font-weight="normal" text-decoration="none" x="427" y="241">+Qty: integer</text></g></g><g transform="translate(-2,-78) scale(1,1)"><g><path fill="none" stroke="none"/><text fill="#000000" stroke="none" font-family="Arial" font-size="13px" font-style="normal" font-weight="normal" text-decoration="none" x="427" y="256">+prucCode: integer</text></g></g><g transform="translate(-2,-78) scale(1,1)"><g><path fill="none" stroke="none"/><text fill="#000000" stroke="none" font-family="Arial" font-size="13px" font-style="normal" font-weight="normal" text-decoration="none" x="427" y="279">+sale()</text></g></g><g transform="translate(-2,-78) scale(1,1)"><g><path fill="none" stroke="none"/><text fill="#000000" stroke="none" font-family="Arial" font-size="13px" font-style="normal" font-weight="normal" text-decoration="none" x="427" y="294">+salesDetails()</text></g></g><g transform="translate(-2,-78) scale(1,1)"><path fill="none" stroke="#000000" d="M 421 229 L 356 229" stroke-miterlimit="10"/></g></g></svg>