<svg version="1.1" xmlns="http://www.w3.org/2000/svg" xmlns:xlink="http://www.w3.org/1999/xlink" width="539" height="715"><defs/><g><g transform="translate(-342,-14) scale(1,1)"><path fill="none" stroke="#000000" d="M 352 24 L 871 24 L 871 719 L 352 719 L 352 24" stroke-miterlimit="10"/></g><g transform="translate(-342,-14) scale(1,1)"><path fill="#ffffff" stroke="none" d="M 352 24 L 352 46 L 482.8671875 46 L 493.8671875 35 L 493.8671875 24 L 352 24"/></g><g transform="translate(-342,-14) scale(1,1)"><path fill="none" stroke="#000000" d="M 352 24 L 352 46 L 482.8671875 46 L 493.8671875 35 L 493.8671875 24 L 352 24 L 352 24" stroke-miterlimit="10"/></g><g transform="translate(-342,-14) scale(1,1)"><g><path fill="none" stroke="none"/><text fill="#000000" stroke="none" font-family="Arial" font-size="13px" font-style="normal" font-weight="normal" text-decoration="none" x="380.341796875" y="40">ActivityDiagram1</text></g></g><g transform="translate(-342,-14) scale(1,1)"><g><path fill="none" stroke="none"/><text fill="#000000" stroke="none" font-family="Arial" font-size="13px" font-style="normal" font-weight="bold" text-decoration="none" x="356.2763671875" y="39.5">act</text></g></g><g transform="translate(-342,-14) scale(1,1)"><path fill="#C0C0C0" stroke="none" d="M 403 109 L 442 109 Q 452 109 452 119 L 452 139 Q 452 149 442 149 L 403 149 Q 393 149 393 139 L 393 119 Q 393 109 403 109 Z" opacity="0.2"/></g><g transform="translate(-342,-14) scale(1,1)"><path fill="#d8e1f8" stroke="none" d="M 396 102 L 435 102 Q 445 102 445 112 L 445 132 Q 445 142 435 142 L 396 142 Q 386 142 386 132 L 386 112 Q 386 102 396 102 Z"/></g><g transform="translate(-342,-14) scale(1,1)"><path fill="none" stroke="#000000" d="M 396 102 L 435 102 Q 445 102 445 112 L 445 132 Q 445 142 435 142 L 396 142 Q 386 142 386 132 L 386 112 Q 386 102 396 102 Z" stroke-miterlimit="10"/></g><g transform="translate(-342,-14) scale(1,1)"><g><path fill="none" stroke="none"/><text fill="#000000" stroke="none" font-family="Arial" font-size="13px" font-style="normal" font-weight="bold" text-decoration="none" x="399.976806640625" y="120">login</text></g></g><g transform="translate(-342,-14) scale(1,1)"><path fill="#C0C0C0" stroke="none" d="M 385 176 L 459.2236328125 176 Q 469.2236328125 176 469.2236328125 186 L 469.2236328125 206 Q 469.2236328125 216 459.2236328125 216 L 385 216 Q 375 216 375 206 L 375 186 Q 375 176 385 176 Z" opacity="0.2"/></g><g transform="translate(-342,-14) scale(1,1)"><path fill="#d8e1f8" stroke="none" d="M 378 169 L 452.2236328125 169 Q 462.2236328125 169 462.2236328125 179 L 462.2236328125 199 Q 462.2236328125 209 452.2236328125 209 L 378 209 Q 368 209 368 199 L 368 179 Q 368 169 378 169 Z"/></g><g transform="translate(-342,-14) scale(1,1)"><path fill="none" stroke="#000000" d="M 378 169 L 452.2236328125 169 Q 462.2236328125 169 462.2236328125 179 L 462.2236328125 199 Q 462.2236328125 209 452.2236328125 209 L 378 209 Q 368 209 368 199 L 368 179 Q 368 169 378 169 Z" stroke-miterlimit="10"/></g><g transform="translate(-342,-14) scale(1,1)"><g><path fill="none" stroke="none"/><text fill="#000000" stroke="none" font-family="Arial" font-size="13px" font-style="normal" font-weight="bold" text-decoration="none" x="372.5" y="187">order product</text></g></g><g transform="translate(-342,-14) scale(1,1)"><path fill="#C0C0C0" stroke="none" d="M 761 176 L 849.7216796875 176 Q 859.7216796875 176 859.7216796875 186 L 859.7216796875 206 Q 859.7216796875 216 849.7216796875 216 L 761 216 Q 751 216 751 206 L 751 186 Q 751 176 761 176 Z" opacity="0.2"/></g><g transform="translate(-342,-14) scale(1,1)"><path fill="#d8e1f8" stroke="none" d="M 754 169 L 842.7216796875 169 Q 852.7216796875 169 852.7216796875 179 L 852.7216796875 199 Q 852.7216796875 209 842.7216796875 209 L 754 209 Q 744 209 744 199 L 744 179 Q 744 169 754 169 Z"/></g><g transform="translate(-342,-14) scale(1,1)"><path fill="none" stroke="#000000" d="M 754 169 L 842.7216796875 169 Q 852.7216796875 169 852.7216796875 179 L 852.7216796875 199 Q 852.7216796875 209 842.7216796875 209 L 754 209 Q 744 209 744 199 L 744 179 Q 744 169 754 169 Z" stroke-miterlimit="10"/></g><g transform="translate(-342,-14) scale(1,1)"><g><path fill="none" stroke="none"/><text fill="#000000" stroke="none" font-family="Arial" font-size="13px" font-style="normal" font-weight="bold" text-decoration="none" x="748.5" y="187">check avilability</text></g></g><g transform="translate(-342,-14) scale(1,1)"><path fill="#C0C0C0" stroke="none" d="M 541 247 L 642 247 Q 652 247 652 257 L 652 290 Q 652 300 642 300 L 541 300 Q 531 300 531 290 L 531 257 Q 531 247 541 247 Z" opacity="0.2"/></g><g transform="translate(-342,-14) scale(1,1)"><path fill="#d8e1f8" stroke="none" d="M 534 240 L 635 240 Q 645 240 645 250 L 645 283 Q 645 293 635 293 L 534 293 Q 524 293 524 283 L 524 250 Q 524 240 534 240 Z"/></g><g transform="translate(-342,-14) scale(1,1)"><path fill="none" stroke="#000000" d="M 534 240 L 635 240 Q 645 240 645 250 L 645 283 Q 645 293 635 293 L 534 293 Q 524 293 524 283 L 524 250 Q 524 240 534 240 Z" stroke-miterlimit="10"/></g><g transform="translate(-342,-14) scale(1,1)"><g><path fill="none" stroke="none"/><text fill="#000000" stroke="none" font-family="Arial" font-size="13px" font-style="normal" font-weight="bold" text-decoration="none" x="541.523193359375" y="258">product stock</text><text fill="#000000" stroke="none" font-family="Arial" font-size="13px" font-style="normal" font-weight="bold" text-decoration="none" x="563.908203125" y="271">details</text></g></g><g transform="translate(-342,-14) scale(1,1)"><path fill="#C0C0C0" stroke="none" d="M 413 72.5 C 413 67.2532944 417.2532944 63 422.5 63 C 427.7467056 63 432 67.2532944 432 72.5 C 432 77.7467056 427.7467056 82 422.5 82 C 417.2532944 82 413 77.7467056 413 72.5 Z" opacity="0.2"/></g><g transform="translate(-342,-14) scale(1,1)"><path fill="#000000" stroke="none" d="M 406 65.5 C 406 60.2532944 410.2532944 56 415.5 56 C 420.7467056 56 425 60.2532944 425 65.5 C 425 70.7467056 420.7467056 75 415.5 75 C 410.2532944 75 406 70.7467056 406 65.5 Z"/></g><g transform="translate(-342,-14) scale(1,1)"><path fill="none" stroke="#ff2b95" d="M 415 76 L 415 101" stroke-miterlimit="10"/></g><g transform="translate(-342,-14) scale(1,1)"><path fill="none" stroke="#ff2b95" d="M 410.790482243984 90.83732514237585 L 415 101 L 419.209517756016 90.83732514237585" stroke-miterlimit="10"/></g><g transform="translate(-342,-14) scale(1,1)"><path fill="none" stroke="#ff2b95" d="M 415 143 L 415 168" stroke-miterlimit="10"/></g><g transform="translate(-342,-14) scale(1,1)"><path fill="none" stroke="#ff2b95" d="M 410.790482243984 157.83732514237585 L 415 168 L 419.209517756016 157.83732514237585" stroke-miterlimit="10"/></g><g transform="translate(-342,-14) scale(1,1)"><path fill="none" stroke="#ff2b95" d="M 463 189 L 743 189" stroke-miterlimit="10"/></g><g transform="translate(-342,-14) scale(1,1)"><path fill="none" stroke="#ff2b95" d="M 732.8373251423759 193.209517756016 L 743 189 L 732.8373251423758 184.790482243984" stroke-miterlimit="10"/></g><g transform="translate(-342,-14) scale(1,1)"><path fill="none" stroke="#ff2b95" d="M 798 209 L 798 252 M 798 252 A 8 8 0 0 1 790 260 L 645 260" stroke-miterlimit="10"/></g><g transform="translate(-342,-14) scale(1,1)"><path fill="none" stroke="#ff2b95" d="M 655.1626748576241 255.790482243984 L 645 260 L 655.1626748576241 264.209517756016" stroke-miterlimit="10"/></g><g transform="translate(-342,-14) scale(1,1)"><path fill="#C0C0C0" stroke="none" d="M 580 344.5 L 591.5 335 L 602 344.5 L 591.5 353 L 580 344.5" opacity="0.2"/></g><g transform="translate(-342,-14) scale(1,1)"><path fill="#cce18d" stroke="none" d="M 573 337 L 584 328 L 595 337 L 584 346 L 573 337"/></g><g transform="translate(-342,-14) scale(1,1)"><path fill="none" stroke="#000000" d="M 573 337 L 584 328 L 595 337 L 584 346 L 573 337 L 573 337" stroke-miterlimit="10"/></g><g transform="translate(-342,-14) scale(1,1)"><path fill="none" stroke="#ff2b95" d="M 584 294 L 584 327" stroke-miterlimit="10"/></g><g transform="translate(-342,-14) scale(1,1)"><path fill="none" stroke="#ff2b95" d="M 579.790482243984 316.83732514237585 L 584 327 L 588.209517756016 316.83732514237585" stroke-miterlimit="10"/></g><g transform="translate(-342,-14) scale(1,1)"><path fill="#C0C0C0" stroke="none" d="M 448 389 L 514.314453125 389 Q 524.314453125 389 524.314453125 399 L 524.314453125 419 Q 524.314453125 429 514.314453125 429 L 448 429 Q 438 429 438 419 L 438 399 Q 438 389 448 389 Z" opacity="0.2"/></g><g transform="translate(-342,-14) scale(1,1)"><path fill="#d8e1f8" stroke="none" d="M 441 382 L 507.314453125 382 Q 517.314453125 382 517.314453125 392 L 517.314453125 412 Q 517.314453125 422 507.314453125 422 L 441 422 Q 431 422 431 412 L 431 392 Q 431 382 441 382 Z"/></g><g transform="translate(-342,-14) scale(1,1)"><path fill="none" stroke="#000000" d="M 441 382 L 507.314453125 382 Q 517.314453125 382 517.314453125 392 L 517.314453125 412 Q 517.314453125 422 507.314453125 422 L 441 422 Q 431 422 431 412 L 431 392 Q 431 382 441 382 Z" stroke-miterlimit="10"/></g><g transform="translate(-342,-14) scale(1,1)"><g><path fill="none" stroke="none"/><text fill="#000000" stroke="none" font-family="Arial" font-size="13px" font-style="normal" font-weight="bold" text-decoration="none" x="437.680419921875" y="400">do payment</text></g></g><g transform="translate(-342,-14) scale(1,1)"><path fill="none" stroke="#ff2b95" d="M 573 336 L 480 336 L 480 382" stroke-miterlimit="10"/></g><g transform="translate(-342,-14) scale(1,1)"><path fill="none" stroke="#ff2b95" d="M 475.790482243984 371.83732514237585 L 480 382 L 484.209517756016 371.83732514237585" stroke-miterlimit="10"/></g><g transform="translate(-342,-14) scale(1,1)"><g><path fill="none" stroke="none"/><text fill="#000000" stroke="none" font-family="Arial" font-size="13px" font-style="normal" font-weight="normal" text-decoration="none" x="471.5" y="323">if avilable</text></g></g><g transform="translate(-342,-14) scale(1,1)"><path fill="#C0C0C0" stroke="none" d="M 658 391 L 724.314453125 391 Q 734.314453125 391 734.314453125 401 L 734.314453125 421 Q 734.314453125 431 724.314453125 431 L 658 431 Q 648 431 648 421 L 648 401 Q 648 391 658 391 Z" opacity="0.2"/></g><g transform="translate(-342,-14) scale(1,1)"><path fill="#d8e1f8" stroke="none" d="M 651 384 L 717.314453125 384 Q 727.314453125 384 727.314453125 394 L 727.314453125 414 Q 727.314453125 424 717.314453125 424 L 651 424 Q 641 424 641 414 L 641 394 Q 641 384 651 384 Z"/></g><g transform="translate(-342,-14) scale(1,1)"><path fill="none" stroke="#000000" d="M 651 384 L 717.314453125 384 Q 727.314453125 384 727.314453125 394 L 727.314453125 414 Q 727.314453125 424 717.314453125 424 L 651 424 Q 641 424 641 414 L 641 394 Q 641 384 651 384 Z" stroke-miterlimit="10"/></g><g transform="translate(-342,-14) scale(1,1)"><g><path fill="none" stroke="none"/><text fill="#000000" stroke="none" font-family="Arial" font-size="13px" font-style="normal" font-weight="bold" text-decoration="none" x="645.5" y="402">cancel order</text></g></g><g transform="translate(-342,-14) scale(1,1)"><path fill="none" stroke="#ff2b95" d="M 595 336 L 680 336 L 680 384" stroke-miterlimit="10"/></g><g transform="translate(-342,-14) scale(1,1)"><path fill="none" stroke="#ff2b95" d="M 675.790482243984 373.83732514237585 L 680 384 L 684.209517756016 373.83732514237585" stroke-miterlimit="10"/></g><g transform="translate(-342,-14) scale(1,1)"><g><path fill="none" stroke="none"/><text fill="#000000" stroke="none" font-family="Arial" font-size="13px" font-style="normal" font-weight="normal" text-decoration="none" x="623.5" y="322">if not avilable</text></g></g><g transform="translate(-342,-14) scale(1,1)"><path fill="#C0C0C0" stroke="none" d="M 447 464 L 516.18359375 464 Q 526.18359375 464 526.18359375 474 L 526.18359375 494 Q 526.18359375 504 516.18359375 504 L 447 504 Q 437 504 437 494 L 437 474 Q 437 464 447 464 Z" opacity="0.2"/></g><g transform="translate(-342,-14) scale(1,1)"><path fill="#d8e1f8" stroke="none" d="M 440 457 L 509.18359375 457 Q 519.18359375 457 519.18359375 467 L 519.18359375 487 Q 519.18359375 497 509.18359375 497 L 440 497 Q 430 497 430 487 L 430 467 Q 430 457 440 457 Z"/></g><g transform="translate(-342,-14) scale(1,1)"><path fill="none" stroke="#000000" d="M 440 457 L 509.18359375 457 Q 519.18359375 457 519.18359375 467 L 519.18359375 487 Q 519.18359375 497 509.18359375 497 L 440 497 Q 430 497 430 487 L 430 467 Q 430 457 440 457 Z" stroke-miterlimit="10"/></g><g transform="translate(-342,-14) scale(1,1)"><g><path fill="none" stroke="none"/><text fill="#000000" stroke="none" font-family="Arial" font-size="13px" font-style="normal" font-weight="bold" text-decoration="none" x="436.305908203125" y="474.5">get payment</text></g></g><g transform="translate(-342,-14) scale(1,1)"><path fill="none" stroke="#ff2b95" d="M 474 423 L 474 456" stroke-miterlimit="10"/></g><g transform="translate(-342,-14) scale(1,1)"><path fill="none" stroke="#ff2b95" d="M 469.790482243984 445.83732514237585 L 474 456 L 478.209517756016 445.83732514237585" stroke-miterlimit="10"/></g><g transform="translate(-342,-14) scale(1,1)"><path fill="#C0C0C0" stroke="none" d="M 434 539 L 528.50439453125 539 Q 538.50439453125 539 538.50439453125 549 L 538.50439453125 569 Q 538.50439453125 579 528.50439453125 579 L 434 579 Q 424 579 424 569 L 424 549 Q 424 539 434 539 Z" opacity="0.2"/></g><g transform="translate(-342,-14) scale(1,1)"><path fill="#d8e1f8" stroke="none" d="M 427 532 L 521.50439453125 532 Q 531.50439453125 532 531.50439453125 542 L 531.50439453125 562 Q 531.50439453125 572 521.50439453125 572 L 427 572 Q 417 572 417 562 L 417 542 Q 417 532 427 532 Z"/></g><g transform="translate(-342,-14) scale(1,1)"><path fill="none" stroke="#000000" d="M 427 532 L 521.50439453125 532 Q 531.50439453125 532 531.50439453125 542 L 531.50439453125 562 Q 531.50439453125 572 521.50439453125 572 L 427 572 Q 417 572 417 562 L 417 542 Q 417 532 427 532 Z" stroke-miterlimit="10"/></g><g transform="translate(-342,-14) scale(1,1)"><g><path fill="none" stroke="none"/><text fill="#000000" stroke="none" font-family="Arial" font-size="13px" font-style="normal" font-weight="bold" text-decoration="none" x="421.5" y="550">recieve the stock</text></g></g><g transform="translate(-342,-14) scale(1,1)"><path fill="none" stroke="#ff2b95" d="M 474 498 L 474 531" stroke-miterlimit="10"/></g><g transform="translate(-342,-14) scale(1,1)"><path fill="none" stroke="#ff2b95" d="M 469.790482243984 520.8373251423759 L 474 531 L 478.209517756016 520.8373251423759" stroke-miterlimit="10"/></g><g transform="translate(-342,-14) scale(1,1)"><path fill="#C0C0C0" stroke="none" d="M 462 614 L 501 614 Q 511 614 511 624 L 511 644 Q 511 654 501 654 L 462 654 Q 452 654 452 644 L 452 624 Q 452 614 462 614 Z" opacity="0.2"/></g><g transform="translate(-342,-14) scale(1,1)"><path fill="#d8e1f8" stroke="none" d="M 455 607 L 494 607 Q 504 607 504 617 L 504 637 Q 504 647 494 647 L 455 647 Q 445 647 445 637 L 445 617 Q 445 607 455 607 Z"/></g><g transform="translate(-342,-14) scale(1,1)"><path fill="none" stroke="#000000" d="M 455 607 L 494 607 Q 504 607 504 617 L 504 637 Q 504 647 494 647 L 455 647 Q 445 647 445 637 L 445 617 Q 445 607 455 607 Z" stroke-miterlimit="10"/></g><g transform="translate(-342,-14) scale(1,1)"><g><path fill="none" stroke="none"/><text fill="#000000" stroke="none" font-family="Arial" font-size="13px" font-style="normal" font-weight="bold" text-decoration="none" x="458.6181640625" y="625">logut</text></g></g><g transform="translate(-342,-14) scale(1,1)"><path fill="none" stroke="#ff2b95" d="M 474 573 L 474 606" stroke-miterlimit="10"/></g><g transform="translate(-342,-14) scale(1,1)"><path fill="none" stroke="#ff2b95" d="M 469.790482243984 595.8373251423759 L 474 606 L 478.209517756016 595.8373251423759" stroke-miterlimit="10"/></g><g transform="translate(-342,-14) scale(1,1)"><path fill="#C0C0C0" stroke="none" d="M 469 701.5 C 469 694.59644 474.59644 689 481.5 689 C 488.40356 689 494 694.59644 494 701.5 C 494 708.40356 488.40356 714 481.5 714 C 474.59644 714 469 708.40356 469 701.5 Z" opacity="0.2"/></g><g transform="translate(-342,-14) scale(1,1)"><path fill="none" stroke="#000000" d="M 462 694.5 C 462 687.59644 467.59644 682 474.5 682 C 481.40356 682 487 687.59644 487 694.5 C 487 701.40356 481.40356 707 474.5 707 C 467.59644 707 462 701.40356 462 694.5 Z" stroke-miterlimit="10"/></g><g transform="translate(-342,-14) scale(1,1)"><path fill="#000000" stroke="none" d="M 467 694.5 C 467 690.357864 470.357864 687 474.5 687 C 478.642136 687 482 690.357864 482 694.5 C 482 698.642136 478.642136 702 474.5 702 C 470.357864 702 467 698.642136 467 694.5 Z"/></g><g transform="translate(-342,-14) scale(1,1)"><path fill="none" stroke="#ff2b95" d="M 474 648 L 474 681" stroke-miterlimit="10"/></g><g transform="translate(-342,-14) scale(1,1)"><path fill="none" stroke="#ff2b95" d="M 469.790482243984 670.8373251423759 L 474 681 L 478.209517756016 670.8373251423759" stroke-miterlimit="10"/></g><g transform="translate(-342,-14) scale(1,1)"><path fill="none" stroke="#ff2b95" d="M 680 424 L 680 686 M 680 686 A 8 8 0 0 1 672 694 L 487 694" stroke-miterlimit="10"/></g><g transform="translate(-342,-14) scale(1,1)"><path fill="none" stroke="#ff2b95" d="M 497.16267485762415 689.790482243984 L 487 694 L 497.16267485762415 698.209517756016" stroke-miterlimit="10"/></g></g></svg>