<svg version="1.1" xmlns="http://www.w3.org/2000/svg" xmlns:xlink="http://www.w3.org/1999/xlink" width="934.447265625" height="349"><defs/><g><g transform="translate(-56,-30) scale(1,1)"><rect fill="#C0C0C0" stroke="none" x="247" y="47" width="143.96630859375" height="39" opacity="0.2"/></g><g transform="translate(-56,-30) scale(1,1)"><rect fill="#ffffff" stroke="none" x="240" y="40" width="143.96630859375" height="39"/></g><g transform="translate(-56,-30) scale(1,1)"><path fill="none" stroke="#000000" d="M 240 40 L 383.96630859375 40 L 383.96630859375 79 L 240 79 L 240 40 Z Z" stroke-miterlimit="10"/></g><g transform="translate(-56,-30) scale(1,1)"><g><path fill="none" stroke="none"/><text fill="#000000" stroke="none" font-family="Arial" font-size="13px" font-style="normal" font-weight="bold" text-decoration="none" x="249.5" y="58">UI: Internet Explorer</text></g></g><g transform="translate(-56,-30) scale(1,1)"><path fill="none" stroke="#000000" d="M 312.5 80 L 312.5 369" stroke-miterlimit="10" stroke-dasharray="3"/></g><g transform="translate(-56,-30) scale(1,1)"><path fill="#ffffff" stroke="none" d="M 118.6004501065341 47.3 C 118.6004501065341 43.82060576 121.4788518287159 41 125.029541015625 41 C 128.5802302025341 41 131.45863192471592 43.82060576 131.45863192471592 47.3 C 131.45863192471592 50.779394239999995 128.5802302025341 53.6 125.029541015625 53.6 C 121.4788518287159 53.6 118.6004501065341 50.779394239999995 118.6004501065341 47.3 Z"/></g><g transform="translate(-56,-30) scale(1,1)"><path fill="none" stroke="#000000" d="M 118.6004501065341 47.3 C 118.6004501065341 43.82060576 121.4788518287159 41 125.029541015625 41 C 128.5802302025341 41 131.45863192471592 43.82060576 131.45863192471592 47.3 C 131.45863192471592 50.779394239999995 128.5802302025341 53.6 125.029541015625 53.6 C 121.4788518287159 53.6 118.6004501065341 50.779394239999995 118.6004501065341 47.3 Z" stroke-miterlimit="10"/></g><g transform="translate(-56,-30) scale(1,1)"><path fill="none" stroke="#000000" d="M 125.029541015625 53.6 L 125.029541015625 66.4" stroke-miterlimit="10"/></g><g transform="translate(-56,-30) scale(1,1)"><path fill="none" stroke="#000000" d="M 118.22226828835228 58.4 L 131.83681374289773 58.4" stroke-miterlimit="10"/></g><g transform="translate(-56,-30) scale(1,1)"><path fill="none" stroke="#000000" d="M 125.029541015625 66.4 L 115.57499556107955 79" stroke-miterlimit="10"/></g><g transform="translate(-56,-30) scale(1,1)"><path fill="none" stroke="#000000" d="M 125.029541015625 66.4 L 134.48408647017047 79" stroke-miterlimit="10"/></g><g transform="translate(-56,-30) scale(1,1)"><g><path fill="none" stroke="none"/><text fill="#000000" stroke="none" font-family="Arial" font-size="13px" font-style="normal" font-weight="bold" text-decoration="none" x="70.5" y="98">Lifeline1: Student</text></g></g><g transform="translate(-56,-30) scale(1,1)"><path fill="none" stroke="#000000" d="M 126.5 105 L 126.5 350" stroke-miterlimit="10" stroke-dasharray="3"/></g><g transform="translate(-56,-30) scale(1,1)"><path fill="#ffffff" stroke="none" d="M 903.794541903409 47.3 C 903.794541903409 43.82060576 906.672943625591 41 910.2236328125 41 C 913.774321999409 41 916.6527237215909 43.82060576 916.6527237215909 47.3 C 916.6527237215909 50.779394239999995 913.774321999409 53.6 910.2236328125 53.6 C 906.672943625591 53.6 903.794541903409 50.779394239999995 903.794541903409 47.3 Z"/></g><g transform="translate(-56,-30) scale(1,1)"><path fill="none" stroke="#000000" d="M 903.794541903409 47.3 C 903.794541903409 43.82060576 906.672943625591 41 910.2236328125 41 C 913.774321999409 41 916.6527237215909 43.82060576 916.6527237215909 47.3 C 916.6527237215909 50.779394239999995 913.774321999409 53.6 910.2236328125 53.6 C 906.672943625591 53.6 903.794541903409 50.779394239999995 903.794541903409 47.3 Z" stroke-miterlimit="10"/></g><g transform="translate(-56,-30) scale(1,1)"><path fill="none" stroke="#000000" d="M 910.2236328125 53.6 L 910.2236328125 66.4" stroke-miterlimit="10"/></g><g transform="translate(-56,-30) scale(1,1)"><path fill="none" stroke="#000000" d="M 903.4163600852272 58.4 L 917.0309055397727 58.4" stroke-miterlimit="10"/></g><g transform="translate(-56,-30) scale(1,1)"><path fill="none" stroke="#000000" d="M 910.2236328125 66.4 L 900.7690873579545 79" stroke-miterlimit="10"/></g><g transform="translate(-56,-30) scale(1,1)"><path fill="none" stroke="#000000" d="M 910.2236328125 66.4 L 919.6781782670454 79" stroke-miterlimit="10"/></g><g transform="translate(-56,-30) scale(1,1)"><g><path fill="none" stroke="none"/><text fill="#000000" stroke="none" font-family="Arial" font-size="13px" font-style="normal" font-weight="bold" text-decoration="none" x="844.5" y="98">Lifeline2: Student DB</text></g></g><g transform="translate(-56,-30) scale(1,1)"><path fill="none" stroke="#000000" d="M 911.5 105 L 911.5 138" stroke-miterlimit="10" stroke-dasharray="3"/></g><g transform="translate(-56,-30) scale(1,1)"><rect fill="#C0C0C0" stroke="none" x="447" y="47" width="131.6962890625" height="39" opacity="0.2"/></g><g transform="translate(-56,-30) scale(1,1)"><rect fill="#ffffff" stroke="none" x="440" y="40" width="131.6962890625" height="39"/></g><g transform="translate(-56,-30) scale(1,1)"><path fill="none" stroke="#000000" d="M 440 40 L 571.6962890625 40 L 571.6962890625 79 L 440 79 L 440 40 Z Z" stroke-miterlimit="10"/></g><g transform="translate(-56,-30) scale(1,1)"><g><path fill="none" stroke="none"/><text fill="#000000" stroke="none" font-family="Arial" font-size="13px" font-style="normal" font-weight="bold" text-decoration="none" x="449.5" y="58">Lifeline3: Register</text></g></g><g transform="translate(-56,-30) scale(1,1)"><path fill="none" stroke="#000000" d="M 506.5 80 L 506.5 138" stroke-miterlimit="10" stroke-dasharray="3"/></g><g transform="translate(-56,-30) scale(1,1)"><rect fill="#C0C0C0" stroke="none" x="634" y="47" width="156.998046875" height="39" opacity="0.2"/></g><g transform="translate(-56,-30) scale(1,1)"><rect fill="#ffffff" stroke="none" x="627" y="40" width="156.998046875" height="39"/></g><g transform="translate(-56,-30) scale(1,1)"><path fill="none" stroke="#000000" d="M 627 40 L 783.998046875 40 L 783.998046875 79 L 627 79 L 627 40 Z Z" stroke-miterlimit="10"/></g><g transform="translate(-56,-30) scale(1,1)"><g><path fill="none" stroke="none"/><text fill="#000000" stroke="none" font-family="Arial" font-size="13px" font-style="normal" font-weight="bold" text-decoration="none" x="636.5" y="58">Lifeline4: ExamDetails</text></g></g><g transform="translate(-56,-30) scale(1,1)"><path fill="none" stroke="#000000" d="M 706.5 80 L 706.5 138" stroke-miterlimit="10" stroke-dasharray="3"/></g><g transform="translate(-56,-30) scale(1,1)"><rect fill="#ffffff" stroke="none" x="120" y="112" width="13" height="32"/></g><g transform="translate(-56,-30) scale(1,1)"><path fill="none" stroke="#000000" d="M 120 112 L 133 112 L 133 144 L 120 144 L 120 112 Z Z" stroke-miterlimit="10"/></g><g transform="translate(-56,-30) scale(1,1)"><path fill="none" stroke="#000000" d="M 126 145 L 305 145" stroke-miterlimit="10"/></g><g transform="translate(-56,-30) scale(1,1)"><path fill="none" stroke="#000000" d="M 294.83732514237585 149.209517756016 L 305 145 L 294.83732514237585 140.790482243984" stroke-miterlimit="10"/></g><g transform="translate(-56,-30) scale(1,1)"><g><path fill="none" stroke="none"/><text fill="#000000" stroke="none" font-family="Arial" font-size="13px" font-style="normal" font-weight="normal" text-decoration="none" x="150.5" y="140">1 : enter(id, password)</text></g></g><g transform="translate(-56,-30) scale(1,1)"><rect fill="#ffffff" stroke="none" x="305" y="145" width="13" height="28"/></g><g transform="translate(-56,-30) scale(1,1)"><path fill="none" stroke="#000000" d="M 305 145 L 318 145 L 318 173 L 305 173 L 305 145 Z Z" stroke-miterlimit="10"/></g><g transform="translate(-56,-30) scale(1,1)"><path fill="none" stroke="#000000" d="M 312 176 L 342 176 L 342 196 L 318 196" stroke-miterlimit="10"/></g><g transform="translate(-56,-30) scale(1,1)"><path fill="#000000" stroke="none" d="M 328.16267485762415 191.790482243984 L 318 196 L 328.16267485762415 200.209517756016"/></g><g transform="translate(-56,-30) scale(1,1)"><path fill="none" stroke="#000000" d="M 328.16267485762415 191.790482243984 L 318 196 L 328.16267485762415 200.209517756016 L 328.16267485762415 191.790482243984" stroke-miterlimit="10"/></g><g transform="translate(-56,-30) scale(1,1)"><g><path fill="none" stroke="none"/><text fill="#000000" stroke="none" font-family="Arial" font-size="13px" font-style="normal" font-weight="normal" text-decoration="none" x="293.5" y="190">2 : Check Validation</text></g></g><g transform="translate(-56,-30) scale(1,1)"><rect fill="#ffffff" stroke="none" x="305" y="196" width="13" height="88"/></g><g transform="translate(-56,-30) scale(1,1)"><path fill="none" stroke="#000000" d="M 305 196 L 318 196 L 318 284 L 305 284 L 305 196 Z Z" stroke-miterlimit="10"/></g><g transform="translate(-56,-30) scale(1,1)"><path fill="none" stroke="#000000" d="M 305 283 L 132 283" stroke-miterlimit="10"/></g><g transform="translate(-56,-30) scale(1,1)"><path fill="#000000" stroke="none" d="M 142.16267485762415 278.790482243984 L 132 283 L 142.16267485762415 287.209517756016"/></g><g transform="translate(-56,-30) scale(1,1)"><path fill="none" stroke="#000000" d="M 142.16267485762415 278.790482243984 L 132 283 L 142.16267485762415 287.209517756016 L 142.16267485762415 278.790482243984" stroke-miterlimit="10"/></g><g transform="translate(-56,-30) scale(1,1)"><g><path fill="none" stroke="none"/><text fill="#000000" stroke="none" font-family="Arial" font-size="13px" font-style="normal" font-weight="normal" text-decoration="none" x="155.5" y="298">3 : View exam details</text></g></g><g transform="translate(-56,-30) scale(1,1)"><rect fill="#ffffff" stroke="none" x="119" y="283" width="13" height="28"/></g><g transform="translate(-56,-30) scale(1,1)"><path fill="none" stroke="#000000" d="M 119 283 L 132 283 L 132 311 L 119 311 L 119 283 Z Z" stroke-miterlimit="10"/></g></g></svg>