<svg version="1.1" xmlns="http://www.w3.org/2000/svg" xmlns:xlink="http://www.w3.org/1999/xlink" width="644" height="412"><defs/><g><g transform="translate(-54,-86) scale(1,1)"><path fill="none" stroke="#000000" d="M 64 96 L 688 96 L 688 488 L 64 488 L 64 96" stroke-miterlimit="10"/></g><g transform="translate(-54,-86) scale(1,1)"><path fill="#ffffff" stroke="none" d="M 64 96 L 64 118 L 251.96435546875 118 L 262.96435546875 107 L 262.96435546875 96 L 64 96"/></g><g transform="translate(-54,-86) scale(1,1)"><path fill="none" stroke="#000000" d="M 64 96 L 64 118 L 251.96435546875 118 L 262.96435546875 107 L 262.96435546875 96 L 64 96 L 64 96" stroke-miterlimit="10"/></g><g transform="translate(-54,-86) scale(1,1)"><g><path fill="none" stroke="none"/><text fill="#000000" stroke="none" font-family="Arial" font-size="13px" font-style="normal" font-weight="normal" text-decoration="none" x="75" y="112">217Y1A05C0 - DFDDiagram1</text></g></g><g transform="translate(-54,-86) scale(1,1)"><g><path fill="none" stroke="none"/><text fill="#000000" stroke="none" font-family="Arial" font-size="13px" font-style="normal" font-weight="bold" text-decoration="none" x="69" y="107"></text></g></g><g transform="translate(-54,-86) scale(1,1)"><rect fill="#C0C0C0" stroke="none" x="87" y="143" width="94.8798828125" height="45" opacity="0.2"/></g><g transform="translate(-54,-86) scale(1,1)"><rect fill="#ffd8ff" stroke="none" x="80" y="136" width="94.8798828125" height="45"/></g><g transform="translate(-54,-86) scale(1,1)"><path fill="none" stroke="#000000" d="M 80 136 L 174.8798828125 136 L 174.8798828125 181 L 80 181 L 80 136 Z Z" stroke-miterlimit="10"/></g><g transform="translate(-54,-86) scale(1,1)"><g><path fill="none" stroke="none"/><text fill="#000000" stroke="none" font-family="Arial" font-size="13px" font-style="normal" font-weight="normal" text-decoration="none" x="127.43994140625" y="147"></text></g></g><g transform="translate(-54,-86) scale(1,1)"><g><path fill="none" stroke="none"/><text fill="#000000" stroke="none" font-family="Arial" font-size="13px" font-style="normal" font-weight="normal" text-decoration="none" x="127.43994140625" y="147"></text></g></g><g transform="translate(-54,-86) scale(1,1)"><g><path fill="none" stroke="none"/><text fill="#000000" stroke="none" font-family="Arial" font-size="13px" font-style="normal" font-weight="normal" text-decoration="none" x="-0.5" y="6"></text></g></g><g transform="translate(-54,-86) scale(1,1)"><g><path fill="none" stroke="none"/><text fill="#000000" stroke="none" font-family="Arial" font-size="13px" font-style="normal" font-weight="normal" text-decoration="none" x="127.43994140625" y="147"></text></g></g><g transform="translate(-54,-86) scale(1,1)"><g><path fill="none" stroke="none"/><text fill="#000000" stroke="none" font-family="Arial" font-size="13px" font-style="normal" font-weight="normal" text-decoration="none" x="127.43994140625" y="147"></text></g></g><g transform="translate(-54,-86) scale(1,1)"><g><path fill="none" stroke="none"/><text fill="#000000" stroke="none" font-family="Arial" font-size="13px" font-style="normal" font-weight="normal" text-decoration="none" x="127.43994140625" y="147"></text></g></g><g transform="translate(-54,-86) scale(1,1)"><g><path fill="none" stroke="none"/><text fill="#000000" stroke="none" font-family="Arial" font-size="13px" font-style="normal" font-weight="normal" text-decoration="none" x="127.43994140625" y="147"></text></g></g><g transform="translate(-54,-86) scale(1,1)"><g><path fill="none" stroke="none"/><text fill="#000000" stroke="none" font-family="Arial" font-size="13px" font-style="normal" font-weight="normal" text-decoration="none" x="223.5" y="-10"></text></g></g><g transform="translate(-54,-86) scale(1,1)"><g><path fill="none" stroke="none"/><text fill="#000000" stroke="none" font-family="Arial" font-size="13px" font-style="normal" font-weight="normal" text-decoration="none" x="287.43994140625" y="177"></text></g></g><g transform="translate(-54,-86) scale(1,1)"><g><path fill="none" stroke="none"/><text fill="#000000" stroke="none" font-family="Arial" font-size="13px" font-style="normal" font-weight="normal" text-decoration="none" x="109.377685546875" y="157">Stock </text><text fill="#000000" stroke="none" font-family="Arial" font-size="13px" font-style="normal" font-weight="normal" text-decoration="none" x="89.5" y="170">Management</text></g></g><g transform="translate(-54,-86) scale(1,1)"><g><path fill="none" stroke="none"/><text fill="#000000" stroke="none" font-family="Arial" font-size="13px" font-style="normal" font-weight="normal" text-decoration="none" x="191.5" y="222"></text></g></g><g transform="translate(-54,-86) scale(1,1)"><rect fill="#C0C0C0" stroke="none" x="87" y="315" width="94.8798828125" height="45" opacity="0.2"/></g><g transform="translate(-54,-86) scale(1,1)"><rect fill="#ffd8ff" stroke="none" x="80" y="308" width="94.8798828125" height="45"/></g><g transform="translate(-54,-86) scale(1,1)"><path fill="none" stroke="#000000" d="M 80 308 L 174.8798828125 308 L 174.8798828125 353 L 80 353 L 80 308 Z Z" stroke-miterlimit="10"/></g><g transform="translate(-54,-86) scale(1,1)"><g><path fill="none" stroke="none"/><text fill="#000000" stroke="none" font-family="Arial" font-size="13px" font-style="normal" font-weight="normal" text-decoration="none" x="127.43994140625" y="319"></text></g></g><g transform="translate(-54,-86) scale(1,1)"><g><path fill="none" stroke="none"/><text fill="#000000" stroke="none" font-family="Arial" font-size="13px" font-style="normal" font-weight="normal" text-decoration="none" x="127.43994140625" y="319"></text></g></g><g transform="translate(-54,-86) scale(1,1)"><g><path fill="none" stroke="none"/><text fill="#000000" stroke="none" font-family="Arial" font-size="13px" font-style="normal" font-weight="normal" text-decoration="none" x="-0.5" y="6"></text></g></g><g transform="translate(-54,-86) scale(1,1)"><g><path fill="none" stroke="none"/><text fill="#000000" stroke="none" font-family="Arial" font-size="13px" font-style="normal" font-weight="normal" text-decoration="none" x="127.43994140625" y="315"></text></g></g><g transform="translate(-54,-86) scale(1,1)"><g><path fill="none" stroke="none"/><text fill="#000000" stroke="none" font-family="Arial" font-size="13px" font-style="normal" font-weight="normal" text-decoration="none" x="127.43994140625" y="315"></text></g></g><g transform="translate(-54,-86) scale(1,1)"><g><path fill="none" stroke="none"/><text fill="#000000" stroke="none" font-family="Arial" font-size="13px" font-style="normal" font-weight="normal" text-decoration="none" x="127.43994140625" y="315"></text></g></g><g transform="translate(-54,-86) scale(1,1)"><g><path fill="none" stroke="none"/><text fill="#000000" stroke="none" font-family="Arial" font-size="13px" font-style="normal" font-weight="normal" text-decoration="none" x="127.43994140625" y="315"></text></g></g><g transform="translate(-54,-86) scale(1,1)"><g><path fill="none" stroke="none"/><text fill="#000000" stroke="none" font-family="Arial" font-size="13px" font-style="normal" font-weight="normal" text-decoration="none" x="95.5" y="166"></text></g></g><g transform="translate(-54,-86) scale(1,1)"><g><path fill="none" stroke="none"/><text fill="#000000" stroke="none" font-family="Arial" font-size="13px" font-style="normal" font-weight="normal" text-decoration="none" x="374.43994140625" y="259"></text></g></g><g transform="translate(-54,-86) scale(1,1)"><g><path fill="none" stroke="none"/><text fill="#000000" stroke="none" font-family="Arial" font-size="13px" font-style="normal" font-weight="normal" text-decoration="none" x="118.772216796875" y="329">Bill</text><text fill="#000000" stroke="none" font-family="Arial" font-size="13px" font-style="normal" font-weight="normal" text-decoration="none" x="89.5" y="342">Management</text></g></g><g transform="translate(-54,-86) scale(1,1)"><g><path fill="none" stroke="none"/><text fill="#000000" stroke="none" font-family="Arial" font-size="13px" font-style="normal" font-weight="normal" text-decoration="none" x="71.5" y="126"></text></g></g><g transform="translate(-54,-86) scale(1,1)"><rect fill="#C0C0C0" stroke="none" x="87" y="249" width="94.8798828125" height="58" opacity="0.2"/></g><g transform="translate(-54,-86) scale(1,1)"><rect fill="#ffd8ff" stroke="none" x="80" y="242" width="94.8798828125" height="58"/></g><g transform="translate(-54,-86) scale(1,1)"><path fill="none" stroke="#000000" d="M 80 242 L 174.8798828125 242 L 174.8798828125 300 L 80 300 L 80 242 Z Z" stroke-miterlimit="10"/></g><g transform="translate(-54,-86) scale(1,1)"><g><path fill="none" stroke="none"/><text fill="#000000" stroke="none" font-family="Arial" font-size="13px" font-style="normal" font-weight="normal" text-decoration="none" x="127.43994140625" y="253"></text></g></g><g transform="translate(-54,-86) scale(1,1)"><g><path fill="none" stroke="none"/><text fill="#000000" stroke="none" font-family="Arial" font-size="13px" font-style="normal" font-weight="normal" text-decoration="none" x="127.43994140625" y="253"></text></g></g><g transform="translate(-54,-86) scale(1,1)"><g><path fill="none" stroke="none"/><text fill="#000000" stroke="none" font-family="Arial" font-size="13px" font-style="normal" font-weight="normal" text-decoration="none" x="-0.5" y="6"></text></g></g><g transform="translate(-54,-86) scale(1,1)"><g><path fill="none" stroke="none"/><text fill="#000000" stroke="none" font-family="Arial" font-size="13px" font-style="normal" font-weight="normal" text-decoration="none" x="127.43994140625" y="259"></text></g></g><g transform="translate(-54,-86) scale(1,1)"><g><path fill="none" stroke="none"/><text fill="#000000" stroke="none" font-family="Arial" font-size="13px" font-style="normal" font-weight="normal" text-decoration="none" x="127.43994140625" y="259"></text></g></g><g transform="translate(-54,-86) scale(1,1)"><g><path fill="none" stroke="none"/><text fill="#000000" stroke="none" font-family="Arial" font-size="13px" font-style="normal" font-weight="normal" text-decoration="none" x="127.43994140625" y="259"></text></g></g><g transform="translate(-54,-86) scale(1,1)"><g><path fill="none" stroke="none"/><text fill="#000000" stroke="none" font-family="Arial" font-size="13px" font-style="normal" font-weight="normal" text-decoration="none" x="127.43994140625" y="259"></text></g></g><g transform="translate(-54,-86) scale(1,1)"><g><path fill="none" stroke="none"/><text fill="#000000" stroke="none" font-family="Arial" font-size="13px" font-style="normal" font-weight="normal" text-decoration="none" x="175.5" y="86"></text></g></g><g transform="translate(-54,-86) scale(1,1)"><g><path fill="none" stroke="none"/><text fill="#000000" stroke="none" font-family="Arial" font-size="13px" font-style="normal" font-weight="normal" text-decoration="none" x="669.43994140625" y="273"></text></g></g><g transform="translate(-54,-86) scale(1,1)"><g><path fill="none" stroke="none"/><text fill="#000000" stroke="none" font-family="Arial" font-size="13px" font-style="normal" font-weight="normal" text-decoration="none" x="105.0390625" y="263">Product</text><text fill="#000000" stroke="none" font-family="Arial" font-size="13px" font-style="normal" font-weight="normal" text-decoration="none" x="107.2099609375" y="276">Quality</text><text fill="#000000" stroke="none" font-family="Arial" font-size="13px" font-style="normal" font-weight="normal" text-decoration="none" x="89.5" y="289">Management</text></g></g><g transform="translate(-54,-86) scale(1,1)"><g><path fill="none" stroke="none"/><text fill="#000000" stroke="none" font-family="Arial" font-size="13px" font-style="normal" font-weight="normal" text-decoration="none" x="447.5" y="6"></text></g></g><g transform="translate(-54,-86) scale(1,1)"><rect fill="#C0C0C0" stroke="none" x="87" y="421" width="94.8798828125" height="45" opacity="0.2"/></g><g transform="translate(-54,-86) scale(1,1)"><rect fill="#ffd8ff" stroke="none" x="80" y="414" width="94.8798828125" height="45"/></g><g transform="translate(-54,-86) scale(1,1)"><path fill="none" stroke="#000000" d="M 80 414 L 174.8798828125 414 L 174.8798828125 459 L 80 459 L 80 414 Z Z" stroke-miterlimit="10"/></g><g transform="translate(-54,-86) scale(1,1)"><g><path fill="none" stroke="none"/><text fill="#000000" stroke="none" font-family="Arial" font-size="13px" font-style="normal" font-weight="normal" text-decoration="none" x="127.43994140625" y="425"></text></g></g><g transform="translate(-54,-86) scale(1,1)"><g><path fill="none" stroke="none"/><text fill="#000000" stroke="none" font-family="Arial" font-size="13px" font-style="normal" font-weight="normal" text-decoration="none" x="127.43994140625" y="425"></text></g></g><g transform="translate(-54,-86) scale(1,1)"><g><path fill="none" stroke="none"/><text fill="#000000" stroke="none" font-family="Arial" font-size="13px" font-style="normal" font-weight="normal" text-decoration="none" x="-0.5" y="6"></text></g></g><g transform="translate(-54,-86) scale(1,1)"><g><path fill="none" stroke="none"/><text fill="#000000" stroke="none" font-family="Arial" font-size="13px" font-style="normal" font-weight="normal" text-decoration="none" x="127.43994140625" y="427"></text></g></g><g transform="translate(-54,-86) scale(1,1)"><g><path fill="none" stroke="none"/><text fill="#000000" stroke="none" font-family="Arial" font-size="13px" font-style="normal" font-weight="normal" text-decoration="none" x="127.43994140625" y="427"></text></g></g><g transform="translate(-54,-86) scale(1,1)"><g><path fill="none" stroke="none"/><text fill="#000000" stroke="none" font-family="Arial" font-size="13px" font-style="normal" font-weight="normal" text-decoration="none" x="127.43994140625" y="427"></text></g></g><g transform="translate(-54,-86) scale(1,1)"><g><path fill="none" stroke="none"/><text fill="#000000" stroke="none" font-family="Arial" font-size="13px" font-style="normal" font-weight="normal" text-decoration="none" x="127.43994140625" y="427"></text></g></g><g transform="translate(-54,-86) scale(1,1)"><g><path fill="none" stroke="none"/><text fill="#000000" stroke="none" font-family="Arial" font-size="13px" font-style="normal" font-weight="normal" text-decoration="none" x="255.5" y="134"></text></g></g><g transform="translate(-54,-86) scale(1,1)"><g><path fill="none" stroke="none"/><text fill="#000000" stroke="none" font-family="Arial" font-size="13px" font-style="normal" font-weight="normal" text-decoration="none" x="749.43994140625" y="415"></text></g></g><g transform="translate(-54,-86) scale(1,1)"><g><path fill="none" stroke="none"/><text fill="#000000" stroke="none" font-family="Arial" font-size="13px" font-style="normal" font-weight="normal" text-decoration="none" x="111.904052734375" y="435">Store</text><text fill="#000000" stroke="none" font-family="Arial" font-size="13px" font-style="normal" font-weight="normal" text-decoration="none" x="89.5" y="448">Management</text></g></g><g transform="translate(-54,-86) scale(1,1)"><g><path fill="none" stroke="none"/><text fill="#000000" stroke="none" font-family="Arial" font-size="13px" font-style="normal" font-weight="normal" text-decoration="none" x="575.5" y="78"></text></g></g><g transform="translate(-54,-86) scale(1,1)"><rect fill="#C0C0C0" stroke="none" x="87" y="368" width="94.8798828125" height="45" opacity="0.2"/></g><g transform="translate(-54,-86) scale(1,1)"><rect fill="#ffd8ff" stroke="none" x="80" y="361" width="94.8798828125" height="45"/></g><g transform="translate(-54,-86) scale(1,1)"><path fill="none" stroke="#000000" d="M 80 361 L 174.8798828125 361 L 174.8798828125 406 L 80 406 L 80 361 Z Z" stroke-miterlimit="10"/></g><g transform="translate(-54,-86) scale(1,1)"><g><path fill="none" stroke="none"/><text fill="#000000" stroke="none" font-family="Arial" font-size="13px" font-style="normal" font-weight="normal" text-decoration="none" x="127.43994140625" y="372"></text></g></g><g transform="translate(-54,-86) scale(1,1)"><g><path fill="none" stroke="none"/><text fill="#000000" stroke="none" font-family="Arial" font-size="13px" font-style="normal" font-weight="normal" text-decoration="none" x="127.43994140625" y="372"></text></g></g><g transform="translate(-54,-86) scale(1,1)"><g><path fill="none" stroke="none"/><text fill="#000000" stroke="none" font-family="Arial" font-size="13px" font-style="normal" font-weight="normal" text-decoration="none" x="-0.5" y="6"></text></g></g><g transform="translate(-54,-86) scale(1,1)"><g><path fill="none" stroke="none"/><text fill="#000000" stroke="none" font-family="Arial" font-size="13px" font-style="normal" font-weight="normal" text-decoration="none" x="127.43994140625" y="371"></text></g></g><g transform="translate(-54,-86) scale(1,1)"><g><path fill="none" stroke="none"/><text fill="#000000" stroke="none" font-family="Arial" font-size="13px" font-style="normal" font-weight="normal" text-decoration="none" x="127.43994140625" y="371"></text></g></g><g transform="translate(-54,-86) scale(1,1)"><g><path fill="none" stroke="none"/><text fill="#000000" stroke="none" font-family="Arial" font-size="13px" font-style="normal" font-weight="normal" text-decoration="none" x="127.43994140625" y="371"></text></g></g><g transform="translate(-54,-86) scale(1,1)"><g><path fill="none" stroke="none"/><text fill="#000000" stroke="none" font-family="Arial" font-size="13px" font-style="normal" font-weight="normal" text-decoration="none" x="127.43994140625" y="371"></text></g></g><g transform="translate(-54,-86) scale(1,1)"><g><path fill="none" stroke="none"/><text fill="#000000" stroke="none" font-family="Arial" font-size="13px" font-style="normal" font-weight="normal" text-decoration="none" x="79.5" y="-2"></text></g></g><g transform="translate(-54,-86) scale(1,1)"><g><path fill="none" stroke="none"/><text fill="#000000" stroke="none" font-family="Arial" font-size="13px" font-style="normal" font-weight="normal" text-decoration="none" x="358.43994140625" y="373"></text></g></g><g transform="translate(-54,-86) scale(1,1)"><g><path fill="none" stroke="none"/><text fill="#000000" stroke="none" font-family="Arial" font-size="13px" font-style="normal" font-weight="normal" text-decoration="none" x="99.265869140625" y="382">Customer</text><text fill="#000000" stroke="none" font-family="Arial" font-size="13px" font-style="normal" font-weight="normal" text-decoration="none" x="89.5" y="395">Management</text></g></g><g transform="translate(-54,-86) scale(1,1)"><g><path fill="none" stroke="none"/><text fill="#000000" stroke="none" font-family="Arial" font-size="13px" font-style="normal" font-weight="normal" text-decoration="none" x="39.5" y="14"></text></g></g><g transform="translate(-54,-86) scale(1,1)"><rect fill="#C0C0C0" stroke="none" x="87" y="196" width="94.8798828125" height="45" opacity="0.2"/></g><g transform="translate(-54,-86) scale(1,1)"><rect fill="#ffd8ff" stroke="none" x="80" y="189" width="94.8798828125" height="45"/></g><g transform="translate(-54,-86) scale(1,1)"><path fill="none" stroke="#000000" d="M 80 189 L 174.8798828125 189 L 174.8798828125 234 L 80 234 L 80 189 Z Z" stroke-miterlimit="10"/></g><g transform="translate(-54,-86) scale(1,1)"><g><path fill="none" stroke="none"/><text fill="#000000" stroke="none" font-family="Arial" font-size="13px" font-style="normal" font-weight="normal" text-decoration="none" x="127.43994140625" y="200"></text></g></g><g transform="translate(-54,-86) scale(1,1)"><g><path fill="none" stroke="none"/><text fill="#000000" stroke="none" font-family="Arial" font-size="13px" font-style="normal" font-weight="normal" text-decoration="none" x="127.43994140625" y="200"></text></g></g><g transform="translate(-54,-86) scale(1,1)"><g><path fill="none" stroke="none"/><text fill="#000000" stroke="none" font-family="Arial" font-size="13px" font-style="normal" font-weight="normal" text-decoration="none" x="-0.5" y="6"></text></g></g><g transform="translate(-54,-86) scale(1,1)"><g><path fill="none" stroke="none"/><text fill="#000000" stroke="none" font-family="Arial" font-size="13px" font-style="normal" font-weight="normal" text-decoration="none" x="127.43994140625" y="203"></text></g></g><g transform="translate(-54,-86) scale(1,1)"><g><path fill="none" stroke="none"/><text fill="#000000" stroke="none" font-family="Arial" font-size="13px" font-style="normal" font-weight="normal" text-decoration="none" x="127.43994140625" y="203"></text></g></g><g transform="translate(-54,-86) scale(1,1)"><g><path fill="none" stroke="none"/><text fill="#000000" stroke="none" font-family="Arial" font-size="13px" font-style="normal" font-weight="normal" text-decoration="none" x="127.43994140625" y="203"></text></g></g><g transform="translate(-54,-86) scale(1,1)"><g><path fill="none" stroke="none"/><text fill="#000000" stroke="none" font-family="Arial" font-size="13px" font-style="normal" font-weight="normal" text-decoration="none" x="127.43994140625" y="203"></text></g></g><g transform="translate(-54,-86) scale(1,1)"><g><path fill="none" stroke="none"/><text fill="#000000" stroke="none" font-family="Arial" font-size="13px" font-style="normal" font-weight="normal" text-decoration="none" x="223.5" y="-138"></text></g></g><g transform="translate(-54,-86) scale(1,1)"><g><path fill="none" stroke="none"/><text fill="#000000" stroke="none" font-family="Arial" font-size="13px" font-style="normal" font-weight="normal" text-decoration="none" x="287.43994140625" y="143"></text></g></g><g transform="translate(-54,-86) scale(1,1)"><g><path fill="none" stroke="none"/><text fill="#000000" stroke="none" font-family="Arial" font-size="13px" font-style="normal" font-weight="normal" text-decoration="none" x="105.03271484375" y="210">Student</text><text fill="#000000" stroke="none" font-family="Arial" font-size="13px" font-style="normal" font-weight="normal" text-decoration="none" x="89.5" y="223">Management</text></g></g><g transform="translate(-54,-86) scale(1,1)"><g><path fill="none" stroke="none"/><text fill="#000000" stroke="none" font-family="Arial" font-size="13px" font-style="normal" font-weight="normal" text-decoration="none" x="127.5" y="-178"></text></g></g><g transform="translate(-54,-86) scale(1,1)"><path fill="#C0C0C0" stroke="none" d="M 306 263 L 397 263 Q 407 263 407 273 L 407 340 Q 407 350 397 350 L 306 350 Q 296 350 296 340 L 296 273 Q 296 263 306 263 Z" opacity="0.2"/></g><g transform="translate(-54,-86) scale(1,1)"><path fill="#f1d9c2" stroke="none" d="M 299 256 L 390 256 Q 400 256 400 266 L 400 333 Q 400 343 390 343 L 299 343 Q 289 343 289 333 L 289 266 Q 289 256 299 256 Z"/></g><g transform="translate(-54,-86) scale(1,1)"><path fill="none" stroke="#000000" d="M 299 256 L 390 256 Q 400 256 400 266 L 400 333 Q 400 343 390 343 L 299 343 Q 289 343 289 333 L 289 266 Q 289 256 299 256 Z" stroke-miterlimit="10"/></g><g transform="translate(-54,-86) scale(1,1)"><path fill="none" stroke="#000000" d="M 289 279 L 400 279" stroke-miterlimit="10"/></g><g transform="translate(-54,-86) scale(1,1)"><g><path fill="none" stroke="none"/><text fill="#000000" stroke="none" font-family="Arial" font-size="13px" font-style="normal" font-weight="normal" text-decoration="none" x="327.885009765625" y="299">Exam</text><text fill="#000000" stroke="none" font-family="Arial" font-size="13px" font-style="normal" font-weight="normal" text-decoration="none" x="306.56005859375" y="312">Management</text><text fill="#000000" stroke="none" font-family="Arial" font-size="13px" font-style="normal" font-weight="normal" text-decoration="none" x="322.8291015625" y="325">System</text></g></g><g transform="translate(-54,-86) scale(1,1)"><g><path fill="none" stroke="none"/><text fill="#000000" stroke="none" font-family="Arial" font-size="13px" font-style="normal" font-weight="normal" text-decoration="none" x="344.5" y="267"></text></g></g><g transform="translate(-54,-86) scale(1,1)"><rect fill="#C0C0C0" stroke="none" x="523.09912109375" y="143" width="147.90087890625" height="45" opacity="0.2"/></g><g transform="translate(-54,-86) scale(1,1)"><rect fill="#ffd8ff" stroke="none" x="516.09912109375" y="136" width="147.90087890625" height="45"/></g><g transform="translate(-54,-86) scale(1,1)"><path fill="none" stroke="#000000" d="M 516.09912109375 136 L 664 136 L 664 181 L 516.09912109375 181 L 516.09912109375 136 Z Z" stroke-miterlimit="10"/></g><g transform="translate(-54,-86) scale(1,1)"><g><path fill="none" stroke="none"/><text fill="#000000" stroke="none" font-family="Arial" font-size="13px" font-style="normal" font-weight="normal" text-decoration="none" x="590.049560546875" y="147"></text></g></g><g transform="translate(-54,-86) scale(1,1)"><g><path fill="none" stroke="none"/><text fill="#000000" stroke="none" font-family="Arial" font-size="13px" font-style="normal" font-weight="normal" text-decoration="none" x="590.049560546875" y="147"></text></g></g><g transform="translate(-54,-86) scale(1,1)"><g><path fill="none" stroke="none"/><text fill="#000000" stroke="none" font-family="Arial" font-size="13px" font-style="normal" font-weight="normal" text-decoration="none" x="-0.5" y="6"></text></g></g><g transform="translate(-54,-86) scale(1,1)"><g><path fill="none" stroke="none"/><text fill="#000000" stroke="none" font-family="Arial" font-size="13px" font-style="normal" font-weight="normal" text-decoration="none" x="590.049560546875" y="147"></text></g></g><g transform="translate(-54,-86) scale(1,1)"><g><path fill="none" stroke="none"/><text fill="#000000" stroke="none" font-family="Arial" font-size="13px" font-style="normal" font-weight="normal" text-decoration="none" x="590.049560546875" y="147"></text></g></g><g transform="translate(-54,-86) scale(1,1)"><g><path fill="none" stroke="none"/><text fill="#000000" stroke="none" font-family="Arial" font-size="13px" font-style="normal" font-weight="normal" text-decoration="none" x="590.049560546875" y="147"></text></g></g><g transform="translate(-54,-86) scale(1,1)"><g><path fill="none" stroke="none"/><text fill="#000000" stroke="none" font-family="Arial" font-size="13px" font-style="normal" font-weight="normal" text-decoration="none" x="590.049560546875" y="147"></text></g></g><g transform="translate(-54,-86) scale(1,1)"><g><path fill="none" stroke="none"/><text fill="#000000" stroke="none" font-family="Arial" font-size="13px" font-style="normal" font-weight="normal" text-decoration="none" x="544.885986328125" y="157">Generate Stock</text><text fill="#000000" stroke="none" font-family="Arial" font-size="13px" font-style="normal" font-weight="normal" text-decoration="none" x="570.5400390625" y="170">Report</text></g></g><g transform="translate(-54,-86) scale(1,1)"><g><path fill="none" stroke="none"/><text fill="#000000" stroke="none" font-family="Arial" font-size="13px" font-style="normal" font-weight="normal" text-decoration="none" x="-108.59912109375" y="118"></text></g></g><g transform="translate(-54,-86) scale(1,1)"><rect fill="#C0C0C0" stroke="none" x="523.09912109375" y="311" width="147.90087890625" height="45" opacity="0.2"/></g><g transform="translate(-54,-86) scale(1,1)"><rect fill="#ffd8ff" stroke="none" x="516.09912109375" y="304" width="147.90087890625" height="45"/></g><g transform="translate(-54,-86) scale(1,1)"><path fill="none" stroke="#000000" d="M 516.09912109375 304 L 664 304 L 664 349 L 516.09912109375 349 L 516.09912109375 304 Z Z" stroke-miterlimit="10"/></g><g transform="translate(-54,-86) scale(1,1)"><g><path fill="none" stroke="none"/><text fill="#000000" stroke="none" font-family="Arial" font-size="13px" font-style="normal" font-weight="normal" text-decoration="none" x="590.049560546875" y="315"></text></g></g><g transform="translate(-54,-86) scale(1,1)"><g><path fill="none" stroke="none"/><text fill="#000000" stroke="none" font-family="Arial" font-size="13px" font-style="normal" font-weight="normal" text-decoration="none" x="590.049560546875" y="315"></text></g></g><g transform="translate(-54,-86) scale(1,1)"><g><path fill="none" stroke="none"/><text fill="#000000" stroke="none" font-family="Arial" font-size="13px" font-style="normal" font-weight="normal" text-decoration="none" x="-0.5" y="6"></text></g></g><g transform="translate(-54,-86) scale(1,1)"><g><path fill="none" stroke="none"/><text fill="#000000" stroke="none" font-family="Arial" font-size="13px" font-style="normal" font-weight="normal" text-decoration="none" x="590.049560546875" y="315"></text></g></g><g transform="translate(-54,-86) scale(1,1)"><g><path fill="none" stroke="none"/><text fill="#000000" stroke="none" font-family="Arial" font-size="13px" font-style="normal" font-weight="normal" text-decoration="none" x="590.049560546875" y="315"></text></g></g><g transform="translate(-54,-86) scale(1,1)"><g><path fill="none" stroke="none"/><text fill="#000000" stroke="none" font-family="Arial" font-size="13px" font-style="normal" font-weight="normal" text-decoration="none" x="590.049560546875" y="315"></text></g></g><g transform="translate(-54,-86) scale(1,1)"><g><path fill="none" stroke="none"/><text fill="#000000" stroke="none" font-family="Arial" font-size="13px" font-style="normal" font-weight="normal" text-decoration="none" x="590.049560546875" y="315"></text></g></g><g transform="translate(-54,-86) scale(1,1)"><g><path fill="none" stroke="none"/><text fill="#000000" stroke="none" font-family="Arial" font-size="13px" font-style="normal" font-weight="normal" text-decoration="none" x="538.741455078125" y="325">Generate Product</text><text fill="#000000" stroke="none" font-family="Arial" font-size="13px" font-style="normal" font-weight="normal" text-decoration="none" x="570.5400390625" y="338">Report</text></g></g><g transform="translate(-54,-86) scale(1,1)"><g><path fill="none" stroke="none"/><text fill="#000000" stroke="none" font-family="Arial" font-size="13px" font-style="normal" font-weight="normal" text-decoration="none" x="39.5" y="62"></text></g></g><g transform="translate(-54,-86) scale(1,1)"><rect fill="#C0C0C0" stroke="none" x="523.09912109375" y="367" width="147.90087890625" height="45" opacity="0.2"/></g><g transform="translate(-54,-86) scale(1,1)"><rect fill="#ffd8ff" stroke="none" x="516.09912109375" y="360" width="147.90087890625" height="45"/></g><g transform="translate(-54,-86) scale(1,1)"><path fill="none" stroke="#000000" d="M 516.09912109375 360 L 664 360 L 664 405 L 516.09912109375 405 L 516.09912109375 360 Z Z" stroke-miterlimit="10"/></g><g transform="translate(-54,-86) scale(1,1)"><g><path fill="none" stroke="none"/><text fill="#000000" stroke="none" font-family="Arial" font-size="13px" font-style="normal" font-weight="normal" text-decoration="none" x="590.049560546875" y="371"></text></g></g><g transform="translate(-54,-86) scale(1,1)"><g><path fill="none" stroke="none"/><text fill="#000000" stroke="none" font-family="Arial" font-size="13px" font-style="normal" font-weight="normal" text-decoration="none" x="590.049560546875" y="371"></text></g></g><g transform="translate(-54,-86) scale(1,1)"><g><path fill="none" stroke="none"/><text fill="#000000" stroke="none" font-family="Arial" font-size="13px" font-style="normal" font-weight="normal" text-decoration="none" x="-0.5" y="6"></text></g></g><g transform="translate(-54,-86) scale(1,1)"><g><path fill="none" stroke="none"/><text fill="#000000" stroke="none" font-family="Arial" font-size="13px" font-style="normal" font-weight="normal" text-decoration="none" x="590.049560546875" y="371"></text></g></g><g transform="translate(-54,-86) scale(1,1)"><g><path fill="none" stroke="none"/><text fill="#000000" stroke="none" font-family="Arial" font-size="13px" font-style="normal" font-weight="normal" text-decoration="none" x="590.049560546875" y="371"></text></g></g><g transform="translate(-54,-86) scale(1,1)"><g><path fill="none" stroke="none"/><text fill="#000000" stroke="none" font-family="Arial" font-size="13px" font-style="normal" font-weight="normal" text-decoration="none" x="590.049560546875" y="371"></text></g></g><g transform="translate(-54,-86) scale(1,1)"><g><path fill="none" stroke="none"/><text fill="#000000" stroke="none" font-family="Arial" font-size="13px" font-style="normal" font-weight="normal" text-decoration="none" x="590.049560546875" y="371"></text></g></g><g transform="translate(-54,-86) scale(1,1)"><g><path fill="none" stroke="none"/><text fill="#000000" stroke="none" font-family="Arial" font-size="13px" font-style="normal" font-weight="normal" text-decoration="none" x="538.741455078125" y="381">Generate Product</text><text fill="#000000" stroke="none" font-family="Arial" font-size="13px" font-style="normal" font-weight="normal" text-decoration="none" x="548.504150390625" y="394">Quality Report</text></g></g><g transform="translate(-54,-86) scale(1,1)"><g><path fill="none" stroke="none"/><text fill="#000000" stroke="none" font-family="Arial" font-size="13px" font-style="normal" font-weight="normal" text-decoration="none" x="22.5" y="0"></text></g></g><g transform="translate(-54,-86) scale(1,1)"><rect fill="#C0C0C0" stroke="none" x="523.09912109375" y="255" width="147.90087890625" height="45" opacity="0.2"/></g><g transform="translate(-54,-86) scale(1,1)"><rect fill="#ffd8ff" stroke="none" x="516.09912109375" y="248" width="147.90087890625" height="45"/></g><g transform="translate(-54,-86) scale(1,1)"><path fill="none" stroke="#000000" d="M 516.09912109375 248 L 664 248 L 664 293 L 516.09912109375 293 L 516.09912109375 248 Z Z" stroke-miterlimit="10"/></g><g transform="translate(-54,-86) scale(1,1)"><g><path fill="none" stroke="none"/><text fill="#000000" stroke="none" font-family="Arial" font-size="13px" font-style="normal" font-weight="normal" text-decoration="none" x="590.049560546875" y="259"></text></g></g><g transform="translate(-54,-86) scale(1,1)"><g><path fill="none" stroke="none"/><text fill="#000000" stroke="none" font-family="Arial" font-size="13px" font-style="normal" font-weight="normal" text-decoration="none" x="590.049560546875" y="259"></text></g></g><g transform="translate(-54,-86) scale(1,1)"><g><path fill="none" stroke="none"/><text fill="#000000" stroke="none" font-family="Arial" font-size="13px" font-style="normal" font-weight="normal" text-decoration="none" x="-0.5" y="6"></text></g></g><g transform="translate(-54,-86) scale(1,1)"><g><path fill="none" stroke="none"/><text fill="#000000" stroke="none" font-family="Arial" font-size="13px" font-style="normal" font-weight="normal" text-decoration="none" x="590.049560546875" y="259"></text></g></g><g transform="translate(-54,-86) scale(1,1)"><g><path fill="none" stroke="none"/><text fill="#000000" stroke="none" font-family="Arial" font-size="13px" font-style="normal" font-weight="normal" text-decoration="none" x="590.049560546875" y="259"></text></g></g><g transform="translate(-54,-86) scale(1,1)"><g><path fill="none" stroke="none"/><text fill="#000000" stroke="none" font-family="Arial" font-size="13px" font-style="normal" font-weight="normal" text-decoration="none" x="590.049560546875" y="259"></text></g></g><g transform="translate(-54,-86) scale(1,1)"><g><path fill="none" stroke="none"/><text fill="#000000" stroke="none" font-family="Arial" font-size="13px" font-style="normal" font-weight="normal" text-decoration="none" x="590.049560546875" y="259"></text></g></g><g transform="translate(-54,-86) scale(1,1)"><g><path fill="none" stroke="none"/><text fill="#000000" stroke="none" font-family="Arial" font-size="13px" font-style="normal" font-weight="normal" text-decoration="none" x="531.1591796875" y="269">Generate Bill Report</text></g></g><g transform="translate(-54,-86) scale(1,1)"><g><path fill="none" stroke="none"/><text fill="#000000" stroke="none" font-family="Arial" font-size="13px" font-style="normal" font-weight="normal" text-decoration="none" x="27.5" y="-102"></text></g></g><g transform="translate(-54,-86) scale(1,1)"><rect fill="#C0C0C0" stroke="none" x="523.09912109375" y="423" width="147.90087890625" height="45" opacity="0.2"/></g><g transform="translate(-54,-86) scale(1,1)"><rect fill="#ffd8ff" stroke="none" x="516.09912109375" y="416" width="147.90087890625" height="45"/></g><g transform="translate(-54,-86) scale(1,1)"><path fill="none" stroke="#000000" d="M 516.09912109375 416 L 664 416 L 664 461 L 516.09912109375 461 L 516.09912109375 416 Z Z" stroke-miterlimit="10"/></g><g transform="translate(-54,-86) scale(1,1)"><g><path fill="none" stroke="none"/><text fill="#000000" stroke="none" font-family="Arial" font-size="13px" font-style="normal" font-weight="normal" text-decoration="none" x="590.049560546875" y="427"></text></g></g><g transform="translate(-54,-86) scale(1,1)"><g><path fill="none" stroke="none"/><text fill="#000000" stroke="none" font-family="Arial" font-size="13px" font-style="normal" font-weight="normal" text-decoration="none" x="590.049560546875" y="427"></text></g></g><g transform="translate(-54,-86) scale(1,1)"><g><path fill="none" stroke="none"/><text fill="#000000" stroke="none" font-family="Arial" font-size="13px" font-style="normal" font-weight="normal" text-decoration="none" x="-0.5" y="6"></text></g></g><g transform="translate(-54,-86) scale(1,1)"><g><path fill="none" stroke="none"/><text fill="#000000" stroke="none" font-family="Arial" font-size="13px" font-style="normal" font-weight="normal" text-decoration="none" x="590.049560546875" y="427"></text></g></g><g transform="translate(-54,-86) scale(1,1)"><g><path fill="none" stroke="none"/><text fill="#000000" stroke="none" font-family="Arial" font-size="13px" font-style="normal" font-weight="normal" text-decoration="none" x="590.049560546875" y="427"></text></g></g><g transform="translate(-54,-86) scale(1,1)"><g><path fill="none" stroke="none"/><text fill="#000000" stroke="none" font-family="Arial" font-size="13px" font-style="normal" font-weight="normal" text-decoration="none" x="590.049560546875" y="427"></text></g></g><g transform="translate(-54,-86) scale(1,1)"><g><path fill="none" stroke="none"/><text fill="#000000" stroke="none" font-family="Arial" font-size="13px" font-style="normal" font-weight="normal" text-decoration="none" x="590.049560546875" y="427"></text></g></g><g transform="translate(-54,-86) scale(1,1)"><g><path fill="none" stroke="none"/><text fill="#000000" stroke="none" font-family="Arial" font-size="13px" font-style="normal" font-weight="normal" text-decoration="none" x="545.6064453125" y="437">Generate Store</text><text fill="#000000" stroke="none" font-family="Arial" font-size="13px" font-style="normal" font-weight="normal" text-decoration="none" x="570.5400390625" y="450">Report</text></g></g><g transform="translate(-54,-86) scale(1,1)"><g><path fill="none" stroke="none"/><text fill="#000000" stroke="none" font-family="Arial" font-size="13px" font-style="normal" font-weight="normal" text-decoration="none" x="-123.59912109375" y="-28"></text></g></g><g transform="translate(-54,-86) scale(1,1)"><rect fill="#C0C0C0" stroke="none" x="523.09912109375" y="199" width="147.90087890625" height="45" opacity="0.2"/></g><g transform="translate(-54,-86) scale(1,1)"><rect fill="#ffd8ff" stroke="none" x="516.09912109375" y="192" width="147.90087890625" height="45"/></g><g transform="translate(-54,-86) scale(1,1)"><path fill="none" stroke="#000000" d="M 516.09912109375 192 L 664 192 L 664 237 L 516.09912109375 237 L 516.09912109375 192 Z Z" stroke-miterlimit="10"/></g><g transform="translate(-54,-86) scale(1,1)"><g><path fill="none" stroke="none"/><text fill="#000000" stroke="none" font-family="Arial" font-size="13px" font-style="normal" font-weight="normal" text-decoration="none" x="590.049560546875" y="203"></text></g></g><g transform="translate(-54,-86) scale(1,1)"><g><path fill="none" stroke="none"/><text fill="#000000" stroke="none" font-family="Arial" font-size="13px" font-style="normal" font-weight="normal" text-decoration="none" x="590.049560546875" y="203"></text></g></g><g transform="translate(-54,-86) scale(1,1)"><g><path fill="none" stroke="none"/><text fill="#000000" stroke="none" font-family="Arial" font-size="13px" font-style="normal" font-weight="normal" text-decoration="none" x="-0.5" y="6"></text></g></g><g transform="translate(-54,-86) scale(1,1)"><g><path fill="none" stroke="none"/><text fill="#000000" stroke="none" font-family="Arial" font-size="13px" font-style="normal" font-weight="normal" text-decoration="none" x="590.049560546875" y="203"></text></g></g><g transform="translate(-54,-86) scale(1,1)"><g><path fill="none" stroke="none"/><text fill="#000000" stroke="none" font-family="Arial" font-size="13px" font-style="normal" font-weight="normal" text-decoration="none" x="590.049560546875" y="203"></text></g></g><g transform="translate(-54,-86) scale(1,1)"><g><path fill="none" stroke="none"/><text fill="#000000" stroke="none" font-family="Arial" font-size="13px" font-style="normal" font-weight="normal" text-decoration="none" x="590.049560546875" y="203"></text></g></g><g transform="translate(-54,-86) scale(1,1)"><g><path fill="none" stroke="none"/><text fill="#000000" stroke="none" font-family="Arial" font-size="13px" font-style="normal" font-weight="normal" text-decoration="none" x="590.049560546875" y="203"></text></g></g><g transform="translate(-54,-86) scale(1,1)"><g><path fill="none" stroke="none"/><text fill="#000000" stroke="none" font-family="Arial" font-size="13px" font-style="normal" font-weight="normal" text-decoration="none" x="541.6455078125" y="213">Check Customer</text><text fill="#000000" stroke="none" font-family="Arial" font-size="13px" font-style="normal" font-weight="normal" text-decoration="none" x="570.181396484375" y="226">Details</text></g></g><g transform="translate(-54,-86) scale(1,1)"><g><path fill="none" stroke="none"/><text fill="#000000" stroke="none" font-family="Arial" font-size="13px" font-style="normal" font-weight="normal" text-decoration="none" x="63.5" y="54"></text></g></g><g transform="translate(-54,-86) scale(1,1)"><path fill="none" stroke="#000000" d="M 401 266 L 548 182" stroke-miterlimit="10"/></g><g transform="translate(-54,-86) scale(1,1)"><path fill="#000000" stroke="none" d="M 541.2648329196912 190.69698363803937 L 548 182 L 537.0878215787632 183.38721379141532"/></g><g transform="translate(-54,-86) scale(1,1)"><path fill="none" stroke="#000000" d="M 541.2648329196912 190.69698363803937 L 548 182 L 537.0878215787632 183.38721379141532 L 541.2648329196912 190.69698363803937" stroke-miterlimit="10"/></g><g transform="translate(-54,-86) scale(1,1)"><path fill="none" stroke="#000000" d="M 401 305 L 515 318" stroke-miterlimit="10"/></g><g transform="translate(-54,-86) scale(1,1)"><path fill="#000000" stroke="none" d="M 504.4258236416032 321.0309725075497 L 515 318 L 505.3797069778368 312.6661494051935"/></g><g transform="translate(-54,-86) scale(1,1)"><path fill="none" stroke="#000000" d="M 504.4258236416032 321.0309725075497 L 515 318 L 505.3797069778368 312.6661494051935 L 504.4258236416032 321.0309725075497" stroke-miterlimit="10"/></g><g transform="translate(-54,-86) scale(1,1)"><path fill="none" stroke="#000000" d="M 401 318 L 522 359" stroke-miterlimit="10"/></g><g transform="translate(-54,-86) scale(1,1)"><path fill="#000000" stroke="none" d="M 511.02394790631996 359.7254518845672 L 522 359 L 513.7257871869 351.75173108090405"/></g><g transform="translate(-54,-86) scale(1,1)"><path fill="none" stroke="#000000" d="M 511.02394790631996 359.7254518845672 L 522 359 L 513.7257871869 351.75173108090405 L 511.02394790631996 359.7254518845672" stroke-miterlimit="10"/></g><g transform="translate(-54,-86) scale(1,1)"><path fill="none" stroke="#000000" d="M 401 292 L 515 279" stroke-miterlimit="10"/></g><g transform="translate(-54,-86) scale(1,1)"><path fill="#000000" stroke="none" d="M 505.3797069778368 284.3338505948065 L 515 279 L 504.4258236416032 275.9690274924503"/></g><g transform="translate(-54,-86) scale(1,1)"><path fill="none" stroke="#000000" d="M 505.3797069778368 284.3338505948065 L 515 279 L 504.4258236416032 275.9690274924503 L 505.3797069778368 284.3338505948065" stroke-miterlimit="10"/></g><g transform="translate(-54,-86) scale(1,1)"><path fill="none" stroke="#000000" d="M 401 331 L 549 415" stroke-miterlimit="10"/></g><g transform="translate(-54,-86) scale(1,1)"><path fill="#000000" stroke="none" d="M 538.0838236165717 413.6446059001596 L 549 415 L 542.2395060138268 406.322689295472"/></g><g transform="translate(-54,-86) scale(1,1)"><path fill="none" stroke="#000000" d="M 538.0838236165717 413.6446059001596 L 549 415 L 542.2395060138268 406.322689295472 L 538.0838236165717 413.6446059001596" stroke-miterlimit="10"/></g><g transform="translate(-54,-86) scale(1,1)"><path fill="none" stroke="#000000" d="M 401 279 L 521 238" stroke-miterlimit="10"/></g><g transform="translate(-54,-86) scale(1,1)"><path fill="#000000" stroke="none" d="M 512.7441568760626 245.26918525784944 L 521 238 L 510.02214715312493 237.30232753217817"/></g><g transform="translate(-54,-86) scale(1,1)"><path fill="none" stroke="#000000" d="M 512.7441568760626 245.26918525784944 L 521 238 L 510.02214715312493 237.30232753217817 L 512.7441568760626 245.26918525784944" stroke-miterlimit="10"/></g><g transform="translate(-54,-86) scale(1,1)"><path fill="none" stroke="#000000" d="M 164 182 L 288 263" stroke-miterlimit="10"/></g><g transform="translate(-54,-86) scale(1,1)"><path fill="#000000" stroke="none" d="M 277.1896090427622 260.96642006508955 L 288 263 L 281.7938574089195 253.9179410847993"/></g><g transform="translate(-54,-86) scale(1,1)"><path fill="none" stroke="#000000" d="M 277.1896090427622 260.96642006508955 L 288 263 L 281.7938574089195 253.9179410847993 L 277.1896090427622 260.96642006508955" stroke-miterlimit="10"/></g><g transform="translate(-54,-86) scale(1,1)"><path fill="none" stroke="#000000" d="M 176 323 L 288 307" stroke-miterlimit="10"/></g><g transform="translate(-54,-86) scale(1,1)"><path fill="#000000" stroke="none" d="M 278.53478088061274 312.60442923248974 L 288 307 L 277.3441494602911 304.2700092902383"/></g><g transform="translate(-54,-86) scale(1,1)"><path fill="none" stroke="#000000" d="M 278.53478088061274 312.60442923248974 L 288 307 L 277.3441494602911 304.2700092902383 L 278.53478088061274 312.60442923248974" stroke-miterlimit="10"/></g><g transform="translate(-54,-86) scale(1,1)"><path fill="none" stroke="#000000" d="M 176 364 L 288 321" stroke-miterlimit="10"/></g><g transform="translate(-54,-86) scale(1,1)"><path fill="#000000" stroke="none" d="M 280.02130782759934 328.5723491215126 L 288 321 L 277.0037532465619 320.71267207322904"/></g><g transform="translate(-54,-86) scale(1,1)"><path fill="none" stroke="#000000" d="M 280.02130782759934 328.5723491215126 L 288 321 L 277.0037532465619 320.71267207322904 L 280.02130782759934 328.5723491215126" stroke-miterlimit="10"/></g><g transform="translate(-54,-86) scale(1,1)"><path fill="none" stroke="#000000" d="M 176 231 L 288 276" stroke-miterlimit="10"/></g><g transform="translate(-54,-86) scale(1,1)"><path fill="#000000" stroke="none" d="M 277.00062431515863 276.11719446966794 L 288 276 L 280.13939786021047 268.30513586865004"/></g><g transform="translate(-54,-86) scale(1,1)"><path fill="none" stroke="#000000" d="M 277.00062431515863 276.11719446966794 L 288 276 L 280.13939786021047 268.30513586865004 L 277.00062431515863 276.11719446966794" stroke-miterlimit="10"/></g><g transform="translate(-54,-86) scale(1,1)"><path fill="none" stroke="#000000" d="M 163 413 L 288 334" stroke-miterlimit="10"/></g><g transform="translate(-54,-86) scale(1,1)"><path fill="#000000" stroke="none" d="M 281.6581286009456 342.9878065821342 L 288 334 L 277.1602807460954 335.87095871053583"/></g><g transform="translate(-54,-86) scale(1,1)"><path fill="none" stroke="#000000" d="M 281.6581286009456 342.9878065821342 L 288 334 L 277.1602807460954 335.87095871053583 L 281.6581286009456 342.9878065821342" stroke-miterlimit="10"/></g><g transform="translate(-54,-86) scale(1,1)"><path fill="none" stroke="#000000" d="M 176 277 L 288 292" stroke-miterlimit="10"/></g><g transform="translate(-54,-86) scale(1,1)"><path fill="#000000" stroke="none" d="M 277.36847477527306 294.8232377505259 L 288 292 L 278.48604586094103 286.4787069775385"/></g><g transform="translate(-54,-86) scale(1,1)"><path fill="none" stroke="#000000" d="M 277.36847477527306 294.8232377505259 L 288 292 L 278.48604586094103 286.4787069775385 L 277.36847477527306 294.8232377505259" stroke-miterlimit="10"/></g></g></svg>