<svg version="1.1" xmlns="http://www.w3.org/2000/svg" xmlns:xlink="http://www.w3.org/1999/xlink" width="580" height="324"><defs/><g><g transform="translate(-6,-54) scale(1,1)"><path fill="none" stroke="#000000" d="M 16 64 L 576 64 L 576 368 L 16 368 L 16 64" stroke-miterlimit="10"/></g><g transform="translate(-6,-54) scale(1,1)"><path fill="#ffffff" stroke="none" d="M 16 64 L 16 86 L 269.01513671875 86 L 280.01513671875 75 L 280.01513671875 64 L 16 64"/></g><g transform="translate(-6,-54) scale(1,1)"><path fill="none" stroke="#000000" d="M 16 64 L 16 86 L 269.01513671875 86 L 280.01513671875 75 L 280.01513671875 64 L 16 64 L 16 64" stroke-miterlimit="10"/></g><g transform="translate(-6,-54) scale(1,1)"><g><path fill="none" stroke="none"/><text fill="#000000" stroke="none" font-family="Arial" font-size="13px" font-style="normal" font-weight="normal" text-decoration="none" x="51.55908203125" y="80">217Y1A05C0 - ComponentDiagram1</text></g></g><g transform="translate(-6,-54) scale(1,1)"><g><path fill="none" stroke="none"/><text fill="#000000" stroke="none" font-family="Arial" font-size="13px" font-style="normal" font-weight="bold" text-decoration="none" x="19.91455078125" y="78.5">cmp</text></g></g><g transform="translate(-6,-54) scale(1,1)"><path fill="#C0C0C0" stroke="none" d="M 37 113 L 218 113 L 218 200 L 37 200" opacity="0.2"/></g><g transform="translate(-6,-54) scale(1,1)"><path fill="#C0C0C0" stroke="none" d="M 37 113 L 47 103 L 228 103 L 218 113" opacity="0.2"/></g><g transform="translate(-6,-54) scale(1,1)"><path fill="#C0C0C0" stroke="none" d="M 228 103 L 218 113 L 218 200 L 228 190" opacity="0.2"/></g><g transform="translate(-6,-54) scale(1,1)"><path fill="#f1d9c2" stroke="none" d="M 30 106 L 211 106 L 211 193 L 30 193"/></g><g transform="translate(-6,-54) scale(1,1)"><path fill="#f1d9c2" stroke="none" d="M 30 106 L 40 96 L 221 96 L 211 106"/></g><g transform="translate(-6,-54) scale(1,1)"><path fill="#f1d9c2" stroke="none" d="M 221 96 L 211 106 L 211 193 L 221 183"/></g><g transform="translate(-6,-54) scale(1,1)"><path fill="none" stroke="#000000" d="M 30 106 L 211 106 L 211 193 L 30 193 L 30 106" stroke-miterlimit="10"/></g><g transform="translate(-6,-54) scale(1,1)"><path fill="none" stroke="#000000" d="M 30 106 L 40 96 L 221 96 L 211 106 L 30 106" stroke-miterlimit="10"/></g><g transform="translate(-6,-54) scale(1,1)"><path fill="none" stroke="#000000" d="M 221 96 L 211 106 L 211 193 L 221 183 L 221 96" stroke-miterlimit="10"/></g><g transform="translate(-6,-54) scale(1,1)"><g><path fill="none" stroke="none"/><text fill="#000000" stroke="none" font-family="Arial" font-size="13px" font-style="normal" font-weight="bold" text-decoration="none" x="70.050537109375" y="124">Database Server</text></g></g><g transform="translate(-6,-54) scale(1,1)"><rect fill="#e1e5fa" stroke="none" x="48" y="136" width="154.82080078125" height="44"/></g><g transform="translate(-6,-54) scale(1,1)"><path fill="none" stroke="#000000" d="M 48 136 L 202.82080078125 136 L 202.82080078125 180 L 48 180 L 48 136 Z Z" stroke-miterlimit="10"/></g><g transform="translate(-6,-54) scale(1,1)"><rect fill="#e1e5fa" stroke="none" x="38" y="143" width="20" height="10"/></g><g transform="translate(-6,-54) scale(1,1)"><path fill="none" stroke="#000000" d="M 38 143 L 58 143 L 58 153 L 38 153 L 38 143 Z Z" stroke-miterlimit="10"/></g><g transform="translate(-6,-54) scale(1,1)"><rect fill="#e1e5fa" stroke="none" x="38" y="163" width="20" height="10"/></g><g transform="translate(-6,-54) scale(1,1)"><path fill="none" stroke="#000000" d="M 38 163 L 58 163 L 58 173 L 38 173 L 38 163 Z Z" stroke-miterlimit="10"/></g><g transform="translate(-6,-54) scale(1,1)"><g><path fill="none" stroke="none"/><text fill="#000000" stroke="none" font-family="Arial" font-size="13px" font-style="normal" font-weight="bold" text-decoration="none" x="121.022216796875" y="154">DB</text></g></g><g transform="translate(-6,-54) scale(1,1)"><g><path fill="none" stroke="none"/><text fill="#000000" stroke="none" font-family="Arial" font-size="13px" font-style="normal" font-weight="normal" text-decoration="none" x="62.5" y="169">(from Database Server)</text></g></g><g transform="translate(-6,-54) scale(1,1)"><path fill="#C0C0C0" stroke="none" d="M 37 256 L 218 256 L 218 343 L 37 343" opacity="0.2"/></g><g transform="translate(-6,-54) scale(1,1)"><path fill="#C0C0C0" stroke="none" d="M 37 256 L 47 246 L 228 246 L 218 256" opacity="0.2"/></g><g transform="translate(-6,-54) scale(1,1)"><path fill="#C0C0C0" stroke="none" d="M 228 246 L 218 256 L 218 343 L 228 333" opacity="0.2"/></g><g transform="translate(-6,-54) scale(1,1)"><path fill="#f1d9c2" stroke="none" d="M 30 249 L 211 249 L 211 336 L 30 336"/></g><g transform="translate(-6,-54) scale(1,1)"><path fill="#f1d9c2" stroke="none" d="M 30 249 L 40 239 L 221 239 L 211 249"/></g><g transform="translate(-6,-54) scale(1,1)"><path fill="#f1d9c2" stroke="none" d="M 221 239 L 211 249 L 211 336 L 221 326"/></g><g transform="translate(-6,-54) scale(1,1)"><path fill="none" stroke="#000000" d="M 30 249 L 211 249 L 211 336 L 30 336 L 30 249" stroke-miterlimit="10"/></g><g transform="translate(-6,-54) scale(1,1)"><path fill="none" stroke="#000000" d="M 30 249 L 40 239 L 221 239 L 211 249 L 30 249" stroke-miterlimit="10"/></g><g transform="translate(-6,-54) scale(1,1)"><path fill="none" stroke="#000000" d="M 221 239 L 211 249 L 211 336 L 221 326 L 221 239" stroke-miterlimit="10"/></g><g transform="translate(-6,-54) scale(1,1)"><g><path fill="none" stroke="none"/><text fill="#000000" stroke="none" font-family="Arial" font-size="13px" font-style="normal" font-weight="bold" text-decoration="none" x="85.3515625" y="267">Web Server</text></g></g><g transform="translate(-6,-54) scale(1,1)"><rect fill="#C0C0C0" stroke="none" x="55" y="285" width="154.82080078125" height="44" opacity="0.2"/></g><g transform="translate(-6,-54) scale(1,1)"><rect fill="#e1e5fa" stroke="none" x="48" y="278" width="154.82080078125" height="44"/></g><g transform="translate(-6,-54) scale(1,1)"><path fill="none" stroke="#000000" d="M 48 278 L 202.82080078125 278 L 202.82080078125 322 L 48 322 L 48 278 Z Z" stroke-miterlimit="10"/></g><g transform="translate(-6,-54) scale(1,1)"><rect fill="#e1e5fa" stroke="none" x="38" y="285" width="20" height="10"/></g><g transform="translate(-6,-54) scale(1,1)"><path fill="none" stroke="#000000" d="M 38 285 L 58 285 L 58 295 L 38 295 L 38 285 Z Z" stroke-miterlimit="10"/></g><g transform="translate(-6,-54) scale(1,1)"><rect fill="#e1e5fa" stroke="none" x="38" y="305" width="20" height="10"/></g><g transform="translate(-6,-54) scale(1,1)"><path fill="none" stroke="#000000" d="M 38 305 L 58 305 L 58 315 L 38 315 L 38 305 Z Z" stroke-miterlimit="10"/></g><g transform="translate(-6,-54) scale(1,1)"><g><path fill="none" stroke="none"/><text fill="#000000" stroke="none" font-family="Arial" font-size="13px" font-style="normal" font-weight="bold" text-decoration="none" x="93.911376953125" y="296">IIS Services</text></g></g><g transform="translate(-6,-54) scale(1,1)"><g><path fill="none" stroke="none"/><text fill="#000000" stroke="none" font-family="Arial" font-size="13px" font-style="normal" font-weight="normal" text-decoration="none" x="77.077392578125" y="311">(from Web Server)</text></g></g><g transform="translate(-6,-54) scale(1,1)"><path fill="none" stroke="#000000" d="M 80 278 L 80 180" stroke-miterlimit="10" stroke-dasharray="3"/></g><g transform="translate(-6,-54) scale(1,1)"><path fill="none" stroke="#000000" d="M 84.20951775601598 190.16267485762415 L 80 180 L 75.79048224398402 190.16267485762415" stroke-miterlimit="10"/></g><g transform="translate(-6,-54) scale(1,1)"><g><path fill="none" stroke="none"/><text fill="#000000" stroke="none" font-family="Arial" font-size="13px" font-style="normal" font-weight="normal" text-decoration="none" x="29.5" y="226">ADOCB</text></g></g><g transform="translate(-6,-54) scale(1,1)"><path fill="none" stroke="#000000" d="M 80 180 L 80 278" stroke-miterlimit="10" stroke-dasharray="3"/></g><g transform="translate(-6,-54) scale(1,1)"><path fill="none" stroke="#000000" d="M 75.79048224398402 267.83732514237585 L 80 278 L 84.20951775601598 267.83732514237585" stroke-miterlimit="10"/></g><g transform="translate(-6,-54) scale(1,1)"><path fill="#C0C0C0" stroke="none" d="M 357 256 L 538 256 L 538 343 L 357 343" opacity="0.2"/></g><g transform="translate(-6,-54) scale(1,1)"><path fill="#C0C0C0" stroke="none" d="M 357 256 L 367 246 L 548 246 L 538 256" opacity="0.2"/></g><g transform="translate(-6,-54) scale(1,1)"><path fill="#C0C0C0" stroke="none" d="M 548 246 L 538 256 L 538 343 L 548 333" opacity="0.2"/></g><g transform="translate(-6,-54) scale(1,1)"><path fill="#f1d9c2" stroke="none" d="M 350 249 L 531 249 L 531 336 L 350 336"/></g><g transform="translate(-6,-54) scale(1,1)"><path fill="#f1d9c2" stroke="none" d="M 350 249 L 360 239 L 541 239 L 531 249"/></g><g transform="translate(-6,-54) scale(1,1)"><path fill="#f1d9c2" stroke="none" d="M 541 239 L 531 249 L 531 336 L 541 326"/></g><g transform="translate(-6,-54) scale(1,1)"><path fill="none" stroke="#000000" d="M 350 249 L 531 249 L 531 336 L 350 336 L 350 249" stroke-miterlimit="10"/></g><g transform="translate(-6,-54) scale(1,1)"><path fill="none" stroke="#000000" d="M 350 249 L 360 239 L 541 239 L 531 249 L 350 249" stroke-miterlimit="10"/></g><g transform="translate(-6,-54) scale(1,1)"><path fill="none" stroke="#000000" d="M 541 239 L 531 249 L 531 336 L 541 326 L 541 239" stroke-miterlimit="10"/></g><g transform="translate(-6,-54) scale(1,1)"><g><path fill="none" stroke="none"/><text fill="#000000" stroke="none" font-family="Arial" font-size="13px" font-style="normal" font-weight="bold" text-decoration="none" x="395.1318359375" y="267">Client Machine</text></g></g><g transform="translate(-6,-54) scale(1,1)"><rect fill="#C0C0C0" stroke="none" x="377" y="285" width="154.82080078125" height="44" opacity="0.2"/></g><g transform="translate(-6,-54) scale(1,1)"><rect fill="#e1e5fa" stroke="none" x="370" y="278" width="154.82080078125" height="44"/></g><g transform="translate(-6,-54) scale(1,1)"><path fill="none" stroke="#000000" d="M 370 278 L 524.82080078125 278 L 524.82080078125 322 L 370 322 L 370 278 Z Z" stroke-miterlimit="10"/></g><g transform="translate(-6,-54) scale(1,1)"><rect fill="#e1e5fa" stroke="none" x="360" y="285" width="20" height="10"/></g><g transform="translate(-6,-54) scale(1,1)"><path fill="none" stroke="#000000" d="M 360 285 L 380 285 L 380 295 L 360 295 L 360 285 Z Z" stroke-miterlimit="10"/></g><g transform="translate(-6,-54) scale(1,1)"><rect fill="#e1e5fa" stroke="none" x="360" y="305" width="20" height="10"/></g><g transform="translate(-6,-54) scale(1,1)"><path fill="none" stroke="#000000" d="M 360 305 L 380 305 L 380 315 L 360 315 L 360 305 Z Z" stroke-miterlimit="10"/></g><g transform="translate(-6,-54) scale(1,1)"><g><path fill="none" stroke="none"/><text fill="#000000" stroke="none" font-family="Arial" font-size="13px" font-style="normal" font-weight="bold" text-decoration="none" x="410.991943359375" y="296">Web Browser</text></g></g><g transform="translate(-6,-54) scale(1,1)"><g><path fill="none" stroke="none"/><text fill="#000000" stroke="none" font-family="Arial" font-size="13px" font-style="normal" font-weight="normal" text-decoration="none" x="390.28271484375" y="311">(from Client Machine)</text></g></g><g transform="translate(-6,-54) scale(1,1)"><path fill="none" stroke="#000000" d="M 204 300 L 359 300" stroke-miterlimit="10" stroke-dasharray="3"/></g><g transform="translate(-6,-54) scale(1,1)"><path fill="none" stroke="#000000" d="M 348.83732514237585 304.209517756016 L 359 300 L 348.83732514237585 295.790482243984" stroke-miterlimit="10"/></g><g transform="translate(-6,-54) scale(1,1)"><path fill="none" stroke="#000000" d="M 359 300 L 204 300" stroke-miterlimit="10" stroke-dasharray="3"/></g><g transform="translate(-6,-54) scale(1,1)"><path fill="none" stroke="#000000" d="M 214.16267485762415 295.790482243984 L 204 300 L 214.16267485762415 304.209517756016" stroke-miterlimit="10"/></g><g transform="translate(-6,-54) scale(1,1)"><path fill="none" stroke="#000000" d="M 222 272 L 350 272" stroke-miterlimit="10"/></g><g transform="translate(-6,-54) scale(1,1)"><g><path fill="none" stroke="none"/><text fill="#000000" stroke="none" font-family="Arial" font-size="13px" font-style="normal" font-weight="normal" text-decoration="none" x="265.2958984375" y="262">TCP/IP</text></g></g></g></svg>