<svg version="1.1" xmlns="http://www.w3.org/2000/svg" xmlns:xlink="http://www.w3.org/1999/xlink" width="532" height="269"><defs/><g><g transform="translate(-132,-78) scale(1,1)"><path fill="#C0C0C0" stroke="none" d="M 149 105 L 330 105 L 330 192 L 149 192" opacity="0.2"/></g><g transform="translate(-132,-78) scale(1,1)"><path fill="#C0C0C0" stroke="none" d="M 149 105 L 159 95 L 340 95 L 330 105" opacity="0.2"/></g><g transform="translate(-132,-78) scale(1,1)"><path fill="#C0C0C0" stroke="none" d="M 340 95 L 330 105 L 330 192 L 340 182" opacity="0.2"/></g><g transform="translate(-132,-78) scale(1,1)"><path fill="#f1d9c2" stroke="none" d="M 142 98 L 323 98 L 323 185 L 142 185"/></g><g transform="translate(-132,-78) scale(1,1)"><path fill="#f1d9c2" stroke="none" d="M 142 98 L 152 88 L 333 88 L 323 98"/></g><g transform="translate(-132,-78) scale(1,1)"><path fill="#f1d9c2" stroke="none" d="M 333 88 L 323 98 L 323 185 L 333 175"/></g><g transform="translate(-132,-78) scale(1,1)"><path fill="none" stroke="#000000" d="M 142 98 L 323 98 L 323 185 L 142 185 L 142 98" stroke-miterlimit="10"/></g><g transform="translate(-132,-78) scale(1,1)"><path fill="none" stroke="#000000" d="M 142 98 L 152 88 L 333 88 L 323 98 L 142 98" stroke-miterlimit="10"/></g><g transform="translate(-132,-78) scale(1,1)"><path fill="none" stroke="#000000" d="M 333 88 L 323 98 L 323 185 L 333 175 L 333 88" stroke-miterlimit="10"/></g><g transform="translate(-132,-78) scale(1,1)"><g><path fill="none" stroke="none"/><text fill="#000000" stroke="none" font-family="Arial" font-size="13px" font-style="normal" font-weight="bold" text-decoration="none" x="182.050537109375" y="116">Database Server</text></g></g><g transform="translate(-132,-78) scale(1,1)"><rect fill="#e1e5fa" stroke="none" x="160" y="128" width="154.82080078125" height="44"/></g><g transform="translate(-132,-78) scale(1,1)"><path fill="none" stroke="#000000" d="M 160 128 L 314.82080078125 128 L 314.82080078125 172 L 160 172 L 160 128 Z Z" stroke-miterlimit="10"/></g><g transform="translate(-132,-78) scale(1,1)"><rect fill="#e1e5fa" stroke="none" x="150" y="135" width="20" height="10"/></g><g transform="translate(-132,-78) scale(1,1)"><path fill="none" stroke="#000000" d="M 150 135 L 170 135 L 170 145 L 150 145 L 150 135 Z Z" stroke-miterlimit="10"/></g><g transform="translate(-132,-78) scale(1,1)"><rect fill="#e1e5fa" stroke="none" x="150" y="155" width="20" height="10"/></g><g transform="translate(-132,-78) scale(1,1)"><path fill="none" stroke="#000000" d="M 150 155 L 170 155 L 170 165 L 150 165 L 150 155 Z Z" stroke-miterlimit="10"/></g><g transform="translate(-132,-78) scale(1,1)"><g><path fill="none" stroke="none"/><text fill="#000000" stroke="none" font-family="Arial" font-size="13px" font-style="normal" font-weight="bold" text-decoration="none" x="233.022216796875" y="146">DB</text></g></g><g transform="translate(-132,-78) scale(1,1)"><g><path fill="none" stroke="none"/><text fill="#000000" stroke="none" font-family="Arial" font-size="13px" font-style="normal" font-weight="normal" text-decoration="none" x="174.5" y="161">(from Database Server)</text></g></g><g transform="translate(-132,-78) scale(1,1)"><path fill="#C0C0C0" stroke="none" d="M 149 256 L 330 256 L 330 343 L 149 343" opacity="0.2"/></g><g transform="translate(-132,-78) scale(1,1)"><path fill="#C0C0C0" stroke="none" d="M 149 256 L 159 246 L 340 246 L 330 256" opacity="0.2"/></g><g transform="translate(-132,-78) scale(1,1)"><path fill="#C0C0C0" stroke="none" d="M 340 246 L 330 256 L 330 343 L 340 333" opacity="0.2"/></g><g transform="translate(-132,-78) scale(1,1)"><path fill="#f1d9c2" stroke="none" d="M 142 249 L 323 249 L 323 336 L 142 336"/></g><g transform="translate(-132,-78) scale(1,1)"><path fill="#f1d9c2" stroke="none" d="M 142 249 L 152 239 L 333 239 L 323 249"/></g><g transform="translate(-132,-78) scale(1,1)"><path fill="#f1d9c2" stroke="none" d="M 333 239 L 323 249 L 323 336 L 333 326"/></g><g transform="translate(-132,-78) scale(1,1)"><path fill="none" stroke="#000000" d="M 142 249 L 323 249 L 323 336 L 142 336 L 142 249" stroke-miterlimit="10"/></g><g transform="translate(-132,-78) scale(1,1)"><path fill="none" stroke="#000000" d="M 142 249 L 152 239 L 333 239 L 323 249 L 142 249" stroke-miterlimit="10"/></g><g transform="translate(-132,-78) scale(1,1)"><path fill="none" stroke="#000000" d="M 333 239 L 323 249 L 323 336 L 333 326 L 333 239" stroke-miterlimit="10"/></g><g transform="translate(-132,-78) scale(1,1)"><g><path fill="none" stroke="none"/><text fill="#000000" stroke="none" font-family="Arial" font-size="13px" font-style="normal" font-weight="bold" text-decoration="none" x="197.3515625" y="267">Web Server</text></g></g><g transform="translate(-132,-78) scale(1,1)"><rect fill="#C0C0C0" stroke="none" x="167" y="285" width="154.82080078125" height="44" opacity="0.2"/></g><g transform="translate(-132,-78) scale(1,1)"><rect fill="#e1e5fa" stroke="none" x="160" y="278" width="154.82080078125" height="44"/></g><g transform="translate(-132,-78) scale(1,1)"><path fill="none" stroke="#000000" d="M 160 278 L 314.82080078125 278 L 314.82080078125 322 L 160 322 L 160 278 Z Z" stroke-miterlimit="10"/></g><g transform="translate(-132,-78) scale(1,1)"><rect fill="#e1e5fa" stroke="none" x="150" y="285" width="20" height="10"/></g><g transform="translate(-132,-78) scale(1,1)"><path fill="none" stroke="#000000" d="M 150 285 L 170 285 L 170 295 L 150 295 L 150 285 Z Z" stroke-miterlimit="10"/></g><g transform="translate(-132,-78) scale(1,1)"><rect fill="#e1e5fa" stroke="none" x="150" y="305" width="20" height="10"/></g><g transform="translate(-132,-78) scale(1,1)"><path fill="none" stroke="#000000" d="M 150 305 L 170 305 L 170 315 L 150 315 L 150 305 Z Z" stroke-miterlimit="10"/></g><g transform="translate(-132,-78) scale(1,1)"><g><path fill="none" stroke="none"/><text fill="#000000" stroke="none" font-family="Arial" font-size="13px" font-style="normal" font-weight="bold" text-decoration="none" x="205.911376953125" y="296">IIS Services</text></g></g><g transform="translate(-132,-78) scale(1,1)"><g><path fill="none" stroke="none"/><text fill="#000000" stroke="none" font-family="Arial" font-size="13px" font-style="normal" font-weight="normal" text-decoration="none" x="189.077392578125" y="311">(from Web Server)</text></g></g><g transform="translate(-132,-78) scale(1,1)"><path fill="none" stroke="#000000" d="M 192 278 L 192 172" stroke-miterlimit="10" stroke-dasharray="3"/></g><g transform="translate(-132,-78) scale(1,1)"><path fill="none" stroke="#000000" d="M 196.209517756016 182.16267485762415 L 192 172 L 187.790482243984 182.16267485762415" stroke-miterlimit="10"/></g><g transform="translate(-132,-78) scale(1,1)"><g><path fill="none" stroke="none"/><text fill="#000000" stroke="none" font-family="Arial" font-size="13px" font-style="normal" font-weight="normal" text-decoration="none" x="141.5" y="222">ADOCB</text></g></g><g transform="translate(-132,-78) scale(1,1)"><path fill="none" stroke="#000000" d="M 192 172 L 192 278" stroke-miterlimit="10" stroke-dasharray="3"/></g><g transform="translate(-132,-78) scale(1,1)"><path fill="none" stroke="#000000" d="M 187.790482243984 267.83732514237585 L 192 278 L 196.209517756016 267.83732514237585" stroke-miterlimit="10"/></g><g transform="translate(-132,-78) scale(1,1)"><path fill="#C0C0C0" stroke="none" d="M 469 256 L 650 256 L 650 343 L 469 343" opacity="0.2"/></g><g transform="translate(-132,-78) scale(1,1)"><path fill="#C0C0C0" stroke="none" d="M 469 256 L 479 246 L 660 246 L 650 256" opacity="0.2"/></g><g transform="translate(-132,-78) scale(1,1)"><path fill="#C0C0C0" stroke="none" d="M 660 246 L 650 256 L 650 343 L 660 333" opacity="0.2"/></g><g transform="translate(-132,-78) scale(1,1)"><path fill="#f1d9c2" stroke="none" d="M 462 249 L 643 249 L 643 336 L 462 336"/></g><g transform="translate(-132,-78) scale(1,1)"><path fill="#f1d9c2" stroke="none" d="M 462 249 L 472 239 L 653 239 L 643 249"/></g><g transform="translate(-132,-78) scale(1,1)"><path fill="#f1d9c2" stroke="none" d="M 653 239 L 643 249 L 643 336 L 653 326"/></g><g transform="translate(-132,-78) scale(1,1)"><path fill="none" stroke="#000000" d="M 462 249 L 643 249 L 643 336 L 462 336 L 462 249" stroke-miterlimit="10"/></g><g transform="translate(-132,-78) scale(1,1)"><path fill="none" stroke="#000000" d="M 462 249 L 472 239 L 653 239 L 643 249 L 462 249" stroke-miterlimit="10"/></g><g transform="translate(-132,-78) scale(1,1)"><path fill="none" stroke="#000000" d="M 653 239 L 643 249 L 643 336 L 653 326 L 653 239" stroke-miterlimit="10"/></g><g transform="translate(-132,-78) scale(1,1)"><g><path fill="none" stroke="none"/><text fill="#000000" stroke="none" font-family="Arial" font-size="13px" font-style="normal" font-weight="bold" text-decoration="none" x="507.1318359375" y="267">Client Machine</text></g></g><g transform="translate(-132,-78) scale(1,1)"><rect fill="#C0C0C0" stroke="none" x="489" y="285" width="154.82080078125" height="44" opacity="0.2"/></g><g transform="translate(-132,-78) scale(1,1)"><rect fill="#e1e5fa" stroke="none" x="482" y="278" width="154.82080078125" height="44"/></g><g transform="translate(-132,-78) scale(1,1)"><path fill="none" stroke="#000000" d="M 482 278 L 636.82080078125 278 L 636.82080078125 322 L 482 322 L 482 278 Z Z" stroke-miterlimit="10"/></g><g transform="translate(-132,-78) scale(1,1)"><rect fill="#e1e5fa" stroke="none" x="472" y="285" width="20" height="10"/></g><g transform="translate(-132,-78) scale(1,1)"><path fill="none" stroke="#000000" d="M 472 285 L 492 285 L 492 295 L 472 295 L 472 285 Z Z" stroke-miterlimit="10"/></g><g transform="translate(-132,-78) scale(1,1)"><rect fill="#e1e5fa" stroke="none" x="472" y="305" width="20" height="10"/></g><g transform="translate(-132,-78) scale(1,1)"><path fill="none" stroke="#000000" d="M 472 305 L 492 305 L 492 315 L 472 315 L 472 305 Z Z" stroke-miterlimit="10"/></g><g transform="translate(-132,-78) scale(1,1)"><g><path fill="none" stroke="none"/><text fill="#000000" stroke="none" font-family="Arial" font-size="13px" font-style="normal" font-weight="bold" text-decoration="none" x="522.991943359375" y="296">Web Browser</text></g></g><g transform="translate(-132,-78) scale(1,1)"><g><path fill="none" stroke="none"/><text fill="#000000" stroke="none" font-family="Arial" font-size="13px" font-style="normal" font-weight="normal" text-decoration="none" x="502.28271484375" y="311">(from Client Machine)</text></g></g><g transform="translate(-132,-78) scale(1,1)"><path fill="none" stroke="#000000" d="M 316 300 L 471 300" stroke-miterlimit="10" stroke-dasharray="3"/></g><g transform="translate(-132,-78) scale(1,1)"><path fill="none" stroke="#000000" d="M 460.83732514237585 304.209517756016 L 471 300 L 460.83732514237585 295.790482243984" stroke-miterlimit="10"/></g><g transform="translate(-132,-78) scale(1,1)"><path fill="none" stroke="#000000" d="M 471 300 L 316 300" stroke-miterlimit="10" stroke-dasharray="3"/></g><g transform="translate(-132,-78) scale(1,1)"><path fill="none" stroke="#000000" d="M 326.16267485762415 295.790482243984 L 316 300 L 326.16267485762415 304.209517756016" stroke-miterlimit="10"/></g><g transform="translate(-132,-78) scale(1,1)"><path fill="none" stroke="#000000" d="M 334 272 L 462 272" stroke-miterlimit="10"/></g><g transform="translate(-132,-78) scale(1,1)"><g><path fill="none" stroke="none"/><text fill="#000000" stroke="none" font-family="Arial" font-size="13px" font-style="normal" font-weight="normal" text-decoration="none" x="377.2958984375" y="262">TCP/IP</text></g></g></g></svg>