<svg version="1.1" xmlns="http://www.w3.org/2000/svg" xmlns:xlink="http://www.w3.org/1999/xlink" width="735.04443359375" height="508"><defs/><g><g transform="translate(-22,2) scale(1,1)"><path fill="none" stroke="#000000" d="M 32 8 L 736 8 L 736 496 L 32 496 L 32 8" stroke-miterlimit="10"/></g><g transform="translate(-22,2) scale(1,1)"><path fill="#ffffff" stroke="none" d="M 32 8 L 32 30 L 176.63525390625 30 L 187.63525390625 19 L 187.63525390625 8 L 32 8"/></g><g transform="translate(-22,2) scale(1,1)"><path fill="none" stroke="#000000" d="M 32 8 L 32 30 L 176.63525390625 30 L 187.63525390625 19 L 187.63525390625 8 L 32 8 L 32 8" stroke-miterlimit="10"/></g><g transform="translate(-22,2) scale(1,1)"><g><path fill="none" stroke="none"/><text fill="#000000" stroke="none" font-family="Arial" font-size="13px" font-style="normal" font-weight="normal" text-decoration="none" x="56.72998046875" y="24">SequenceDiagram1</text></g></g><g transform="translate(-22,2) scale(1,1)"><g><path fill="none" stroke="none"/><text fill="#000000" stroke="none" font-family="Arial" font-size="13px" font-style="normal" font-weight="bold" text-decoration="none" x="36.279541015625" y="24">sd</text></g></g><g transform="translate(-22,2) scale(1,1)"><path fill="#ffffff" stroke="none" d="M 268.2776962002841 47.3 C 268.2776962002841 43.82060576 271.1560979224659 41 274.706787109375 41 C 278.2574762962841 41 281.135878018466 43.82060576 281.135878018466 47.3 C 281.135878018466 50.779394239999995 278.2574762962841 53.6 274.706787109375 53.6 C 271.1560979224659 53.6 268.2776962002841 50.779394239999995 268.2776962002841 47.3 Z"/></g><g transform="translate(-22,2) scale(1,1)"><path fill="none" stroke="#000000" d="M 268.2776962002841 47.3 C 268.2776962002841 43.82060576 271.1560979224659 41 274.706787109375 41 C 278.2574762962841 41 281.135878018466 43.82060576 281.135878018466 47.3 C 281.135878018466 50.779394239999995 278.2574762962841 53.6 274.706787109375 53.6 C 271.1560979224659 53.6 268.2776962002841 50.779394239999995 268.2776962002841 47.3 Z" stroke-miterlimit="10"/></g><g transform="translate(-22,2) scale(1,1)"><path fill="none" stroke="#000000" d="M 274.706787109375 53.6 L 274.706787109375 66.4" stroke-miterlimit="10"/></g><g transform="translate(-22,2) scale(1,1)"><path fill="none" stroke="#000000" d="M 267.89951438210227 58.4 L 281.5140598366478 58.4" stroke-miterlimit="10"/></g><g transform="translate(-22,2) scale(1,1)"><path fill="none" stroke="#000000" d="M 274.706787109375 66.4 L 265.25224165482956 79" stroke-miterlimit="10"/></g><g transform="translate(-22,2) scale(1,1)"><path fill="none" stroke="#000000" d="M 274.706787109375 66.4 L 284.1613325639205 79" stroke-miterlimit="10"/></g><g transform="translate(-22,2) scale(1,1)"><g><path fill="none" stroke="none"/><text fill="#000000" stroke="none" font-family="Arial" font-size="13px" font-style="normal" font-weight="bold" text-decoration="none" x="237.5" y="98">Shopkeeper</text></g></g><g transform="translate(-22,2) scale(1,1)"><path fill="none" stroke="#000000" d="M 275.5 105 L 275.5 476" stroke-miterlimit="10" stroke-dasharray="3"/></g><g transform="translate(-22,2) scale(1,1)"><path fill="#ffffff" stroke="none" d="M 80.4095321377841 47.3 C 80.4095321377841 43.82060576 83.28793385996592 41 86.838623046875 41 C 90.38931223378408 41 93.2677139559659 43.82060576 93.2677139559659 47.3 C 93.2677139559659 50.779394239999995 90.38931223378408 53.6 86.838623046875 53.6 C 83.28793385996592 53.6 80.4095321377841 50.779394239999995 80.4095321377841 47.3 Z"/></g><g transform="translate(-22,2) scale(1,1)"><path fill="none" stroke="#000000" d="M 80.4095321377841 47.3 C 80.4095321377841 43.82060576 83.28793385996592 41 86.838623046875 41 C 90.38931223378408 41 93.2677139559659 43.82060576 93.2677139559659 47.3 C 93.2677139559659 50.779394239999995 90.38931223378408 53.6 86.838623046875 53.6 C 83.28793385996592 53.6 80.4095321377841 50.779394239999995 80.4095321377841 47.3 Z" stroke-miterlimit="10"/></g><g transform="translate(-22,2) scale(1,1)"><path fill="none" stroke="#000000" d="M 86.838623046875 53.6 L 86.838623046875 66.4" stroke-miterlimit="10"/></g><g transform="translate(-22,2) scale(1,1)"><path fill="none" stroke="#000000" d="M 80.03135031960227 58.4 L 93.64589577414773 58.4" stroke-miterlimit="10"/></g><g transform="translate(-22,2) scale(1,1)"><path fill="none" stroke="#000000" d="M 86.838623046875 66.4 L 77.38407759232955 79" stroke-miterlimit="10"/></g><g transform="translate(-22,2) scale(1,1)"><path fill="none" stroke="#000000" d="M 86.838623046875 66.4 L 96.29316850142045 79" stroke-miterlimit="10"/></g><g transform="translate(-22,2) scale(1,1)"><g><path fill="none" stroke="none"/><text fill="#000000" stroke="none" font-family="Arial" font-size="13px" font-style="normal" font-weight="bold" text-decoration="none" x="56.5" y="98">Customer</text></g></g><g transform="translate(-22,2) scale(1,1)"><path fill="none" stroke="#000000" d="M 87.5 105 L 87.5 476" stroke-miterlimit="10" stroke-dasharray="3"/></g><g transform="translate(-22,2) scale(1,1)"><rect fill="#C0C0C0" stroke="none" x="435" y="47" width="83.41357421875" height="39" opacity="0.2"/></g><g transform="translate(-22,2) scale(1,1)"><rect fill="#ffffff" stroke="none" x="428" y="40" width="83.41357421875" height="39"/></g><g transform="translate(-22,2) scale(1,1)"><path fill="none" stroke="#000000" d="M 428 40 L 511.41357421875 40 L 511.41357421875 79 L 428 79 L 428 40 Z Z" stroke-miterlimit="10"/></g><g transform="translate(-22,2) scale(1,1)"><g><path fill="none" stroke="none"/><text fill="#000000" stroke="none" font-family="Arial" font-size="13px" font-style="normal" font-weight="bold" text-decoration="none" x="450.555908203125" y="58">dealer</text></g></g><g transform="translate(-22,2) scale(1,1)"><path fill="none" stroke="#000000" d="M 470.5 80 L 470.5 394" stroke-miterlimit="10" stroke-dasharray="3"/></g><g transform="translate(-22,2) scale(1,1)"><path fill="#f1d9c2" stroke="none" d="M 644.706787109375 50 L 673.706787109375 50 L 673.706787109375 79 L 644.706787109375 79"/></g><g transform="translate(-22,2) scale(1,1)"><path fill="#f1d9c2" stroke="none" d="M 644.706787109375 50 L 654.706787109375 40 L 683.706787109375 40 L 673.706787109375 50"/></g><g transform="translate(-22,2) scale(1,1)"><path fill="#f1d9c2" stroke="none" d="M 683.706787109375 40 L 673.706787109375 50 L 673.706787109375 79 L 683.706787109375 69"/></g><g transform="translate(-22,2) scale(1,1)"><path fill="none" stroke="#000000" d="M 644.706787109375 50 L 673.706787109375 50 L 673.706787109375 79 L 644.706787109375 79 L 644.706787109375 50" stroke-miterlimit="10"/></g><g transform="translate(-22,2) scale(1,1)"><path fill="none" stroke="#000000" d="M 644.706787109375 50 L 654.706787109375 40 L 683.706787109375 40 L 673.706787109375 50 L 644.706787109375 50" stroke-miterlimit="10"/></g><g transform="translate(-22,2) scale(1,1)"><path fill="none" stroke="#000000" d="M 683.706787109375 40 L 673.706787109375 50 L 673.706787109375 79 L 683.706787109375 69 L 683.706787109375 40" stroke-miterlimit="10"/></g><g transform="translate(-22,2) scale(1,1)"><g><path fill="none" stroke="none"/><text fill="#000000" stroke="none" font-family="Arial" font-size="13px" font-style="normal" font-weight="bold" text-decoration="none" x="635.802734375" y="98">Database</text></g></g><g transform="translate(-22,2) scale(1,1)"><path fill="none" stroke="#000000" d="M 665.5 105 L 665.5 450" stroke-miterlimit="10" stroke-dasharray="3"/></g><g transform="translate(-22,2) scale(1,1)"><path fill="none" stroke="#000000" d="M 87 136 L 268 136" stroke-miterlimit="10"/></g><g transform="translate(-22,2) scale(1,1)"><path fill="#000000" stroke="none" d="M 257.83732514237585 140.209517756016 L 268 136 L 257.83732514237585 131.790482243984"/></g><g transform="translate(-22,2) scale(1,1)"><path fill="none" stroke="#000000" d="M 257.83732514237585 140.209517756016 L 268 136 L 257.83732514237585 131.790482243984 L 257.83732514237585 140.209517756016" stroke-miterlimit="10"/></g><g transform="translate(-22,2) scale(1,1)"><g><path fill="none" stroke="none"/><text fill="#000000" stroke="none" font-family="Arial" font-size="13px" font-style="normal" font-weight="normal" text-decoration="none" x="122.5" y="131">1 : request for item</text></g></g><g transform="translate(-22,2) scale(1,1)"><rect fill="#ffffff" stroke="none" x="268" y="136" width="13" height="40"/></g><g transform="translate(-22,2) scale(1,1)"><path fill="none" stroke="#000000" d="M 268 136 L 281 136 L 281 176 L 268 176 L 268 136 Z Z" stroke-miterlimit="10"/></g><g transform="translate(-22,2) scale(1,1)"><path fill="none" stroke="#000000" d="M 268 160 L 93 160" stroke-miterlimit="10"/></g><g transform="translate(-22,2) scale(1,1)"><path fill="#000000" stroke="none" d="M 103.16267485762415 155.790482243984 L 93 160 L 103.16267485762415 164.209517756016"/></g><g transform="translate(-22,2) scale(1,1)"><path fill="none" stroke="#000000" d="M 103.16267485762415 155.790482243984 L 93 160 L 103.16267485762415 164.209517756016 L 103.16267485762415 155.790482243984" stroke-miterlimit="10"/></g><g transform="translate(-22,2) scale(1,1)"><g><path fill="none" stroke="none"/><text fill="#000000" stroke="none" font-family="Arial" font-size="13px" font-style="normal" font-weight="normal" text-decoration="none" x="123.5" y="175">2 : enter the details</text></g></g><g transform="translate(-22,2) scale(1,1)"><rect fill="#ffffff" stroke="none" x="80" y="160" width="13" height="28"/></g><g transform="translate(-22,2) scale(1,1)"><path fill="none" stroke="#000000" d="M 80 160 L 93 160 L 93 188 L 80 188 L 80 160 Z Z" stroke-miterlimit="10"/></g><g transform="translate(-22,2) scale(1,1)"><path fill="none" stroke="#000000" d="M 275 184 L 463 184" stroke-miterlimit="10"/></g><g transform="translate(-22,2) scale(1,1)"><path fill="#000000" stroke="none" d="M 452.83732514237585 188.209517756016 L 463 184 L 452.83732514237585 179.790482243984"/></g><g transform="translate(-22,2) scale(1,1)"><path fill="none" stroke="#000000" d="M 452.83732514237585 188.209517756016 L 463 184 L 452.83732514237585 179.790482243984 L 452.83732514237585 188.209517756016" stroke-miterlimit="10"/></g><g transform="translate(-22,2) scale(1,1)"><g><path fill="none" stroke="none"/><text fill="#000000" stroke="none" font-family="Arial" font-size="13px" font-style="normal" font-weight="normal" text-decoration="none" x="322.5" y="179">3 : send for item</text></g></g><g transform="translate(-22,2) scale(1,1)"><rect fill="#ffffff" stroke="none" x="463" y="184" width="13" height="28"/></g><g transform="translate(-22,2) scale(1,1)"><path fill="none" stroke="#000000" d="M 463 184 L 476 184 L 476 212 L 463 212 L 463 184 Z Z" stroke-miterlimit="10"/></g><g transform="translate(-22,2) scale(1,1)"><path fill="none" stroke="#000000" d="M 470 216 L 658 216" stroke-miterlimit="10"/></g><g transform="translate(-22,2) scale(1,1)"><path fill="#000000" stroke="none" d="M 647.8373251423759 220.209517756016 L 658 216 L 647.8373251423758 211.790482243984"/></g><g transform="translate(-22,2) scale(1,1)"><path fill="none" stroke="#000000" d="M 647.8373251423759 220.209517756016 L 658 216 L 647.8373251423758 211.790482243984 L 647.8373251423759 220.209517756016" stroke-miterlimit="10"/></g><g transform="translate(-22,2) scale(1,1)"><g><path fill="none" stroke="none"/><text fill="#000000" stroke="none" font-family="Arial" font-size="13px" font-style="normal" font-weight="normal" text-decoration="none" x="479.5" y="195">4 : check for product availability</text></g></g><g transform="translate(-22,2) scale(1,1)"><rect fill="#ffffff" stroke="none" x="658" y="216" width="13" height="28"/></g><g transform="translate(-22,2) scale(1,1)"><path fill="none" stroke="#000000" d="M 658 216 L 671 216 L 671 244 L 658 244 L 658 216 Z Z" stroke-miterlimit="10"/></g><g transform="translate(-22,2) scale(1,1)"><path fill="none" stroke="#000000" d="M 671 224 L 701 224 L 701 244 L 678 244" stroke-miterlimit="10"/></g><g transform="translate(-22,2) scale(1,1)"><path fill="#000000" stroke="none" d="M 688.1626748576241 239.790482243984 L 678 244 L 688.1626748576241 248.209517756016"/></g><g transform="translate(-22,2) scale(1,1)"><path fill="none" stroke="#000000" d="M 688.1626748576241 239.790482243984 L 678 244 L 688.1626748576241 248.209517756016 L 688.1626748576241 239.790482243984" stroke-miterlimit="10"/></g><g transform="translate(-22,2) scale(1,1)"><g><path fill="none" stroke="none"/><text fill="#000000" stroke="none" font-family="Arial" font-size="13px" font-style="normal" font-weight="normal" text-decoration="none" x="688.64453125" y="219">5 : upd</text></g></g><g transform="translate(-22,2) scale(1,1)"><rect fill="#ffffff" stroke="none" x="665" y="244" width="13" height="28"/></g><g transform="translate(-22,2) scale(1,1)"><path fill="none" stroke="#000000" d="M 665 244 L 678 244 L 678 272 L 665 272 L 665 244 Z Z" stroke-miterlimit="10"/></g><g transform="translate(-22,2) scale(1,1)"><path fill="none" stroke="#000000" d="M 665 264 L 476 264" stroke-miterlimit="10"/></g><g transform="translate(-22,2) scale(1,1)"><path fill="#000000" stroke="none" d="M 486.16267485762415 259.790482243984 L 476 264 L 486.16267485762415 268.209517756016"/></g><g transform="translate(-22,2) scale(1,1)"><path fill="none" stroke="#000000" d="M 486.16267485762415 259.790482243984 L 476 264 L 486.16267485762415 268.209517756016 L 486.16267485762415 259.790482243984" stroke-miterlimit="10"/></g><g transform="translate(-22,2) scale(1,1)"><g><path fill="none" stroke="none"/><text fill="#000000" stroke="none" font-family="Arial" font-size="13px" font-style="normal" font-weight="normal" text-decoration="none" x="514.5" y="258">6 : product avilable</text></g></g><g transform="translate(-22,2) scale(1,1)"><rect fill="#ffffff" stroke="none" x="463" y="264" width="13" height="28"/></g><g transform="translate(-22,2) scale(1,1)"><path fill="none" stroke="#000000" d="M 463 264 L 476 264 L 476 292 L 463 292 L 463 264 Z Z" stroke-miterlimit="10"/></g><g transform="translate(-22,2) scale(1,1)"><path fill="none" stroke="#000000" d="M 463 272 L 281 272" stroke-miterlimit="10"/></g><g transform="translate(-22,2) scale(1,1)"><path fill="#000000" stroke="none" d="M 291.16267485762415 267.790482243984 L 281 272 L 291.16267485762415 276.209517756016"/></g><g transform="translate(-22,2) scale(1,1)"><path fill="none" stroke="#000000" d="M 291.16267485762415 267.790482243984 L 281 272 L 291.16267485762415 276.209517756016 L 291.16267485762415 267.790482243984" stroke-miterlimit="10"/></g><g transform="translate(-22,2) scale(1,1)"><g><path fill="none" stroke="none"/><text fill="#000000" stroke="none" font-family="Arial" font-size="13px" font-style="normal" font-weight="normal" text-decoration="none" x="315.5" y="287">7 : send for quation</text></g></g><g transform="translate(-22,2) scale(1,1)"><rect fill="#ffffff" stroke="none" x="268" y="272" width="13" height="28"/></g><g transform="translate(-22,2) scale(1,1)"><path fill="none" stroke="#000000" d="M 268 272 L 281 272 L 281 300 L 268 300 L 268 272 Z Z" stroke-miterlimit="10"/></g><g transform="translate(-22,2) scale(1,1)"><path fill="none" stroke="#000000" d="M 87 304 L 268 304" stroke-miterlimit="10"/></g><g transform="translate(-22,2) scale(1,1)"><path fill="#000000" stroke="none" d="M 257.83732514237585 308.209517756016 L 268 304 L 257.83732514237585 299.790482243984"/></g><g transform="translate(-22,2) scale(1,1)"><path fill="none" stroke="#000000" d="M 257.83732514237585 308.209517756016 L 268 304 L 257.83732514237585 299.790482243984 L 257.83732514237585 308.209517756016" stroke-miterlimit="10"/></g><g transform="translate(-22,2) scale(1,1)"><g><path fill="none" stroke="none"/><text fill="#000000" stroke="none" font-family="Arial" font-size="13px" font-style="normal" font-weight="normal" text-decoration="none" x="112.5" y="299">8 : request for delivary</text></g></g><g transform="translate(-22,2) scale(1,1)"><rect fill="#ffffff" stroke="none" x="268" y="304" width="13" height="28"/></g><g transform="translate(-22,2) scale(1,1)"><path fill="none" stroke="#000000" d="M 268 304 L 281 304 L 281 332 L 268 332 L 268 304 Z Z" stroke-miterlimit="10"/></g><g transform="translate(-22,2) scale(1,1)"><path fill="none" stroke="#000000" d="M 281 312 L 658 312" stroke-miterlimit="10"/></g><g transform="translate(-22,2) scale(1,1)"><path fill="#000000" stroke="none" d="M 647.8373251423759 316.209517756016 L 658 312 L 647.8373251423758 307.790482243984"/></g><g transform="translate(-22,2) scale(1,1)"><path fill="none" stroke="#000000" d="M 647.8373251423759 316.209517756016 L 658 312 L 647.8373251423758 307.790482243984 L 647.8373251423759 316.209517756016" stroke-miterlimit="10"/></g><g transform="translate(-22,2) scale(1,1)"><g><path fill="none" stroke="none"/><text fill="#000000" stroke="none" font-family="Arial" font-size="13px" font-style="normal" font-weight="normal" text-decoration="none" x="491.114990234375" y="307">9 : order item</text></g></g><g transform="translate(-22,2) scale(1,1)"><rect fill="#ffffff" stroke="none" x="658" y="312" width="13" height="28"/></g><g transform="translate(-22,2) scale(1,1)"><path fill="none" stroke="#000000" d="M 658 312 L 671 312 L 671 340 L 658 340 L 658 312 Z Z" stroke-miterlimit="10"/></g><g transform="translate(-22,2) scale(1,1)"><path fill="none" stroke="#000000" d="M 665 344 L 281 344" stroke-miterlimit="10"/></g><g transform="translate(-22,2) scale(1,1)"><path fill="#000000" stroke="none" d="M 291.16267485762415 339.790482243984 L 281 344 L 291.16267485762415 348.209517756016"/></g><g transform="translate(-22,2) scale(1,1)"><path fill="none" stroke="#000000" d="M 291.16267485762415 339.790482243984 L 281 344 L 291.16267485762415 348.209517756016 L 291.16267485762415 339.790482243984" stroke-miterlimit="10"/></g><g transform="translate(-22,2) scale(1,1)"><g><path fill="none" stroke="none"/><text fill="#000000" stroke="none" font-family="Arial" font-size="13px" font-style="normal" font-weight="normal" text-decoration="none" x="394.5" y="359">10 : update delivery details</text></g></g><g transform="translate(-22,2) scale(1,1)"><rect fill="#ffffff" stroke="none" x="268" y="344" width="13" height="28"/></g><g transform="translate(-22,2) scale(1,1)"><path fill="none" stroke="#000000" d="M 268 344 L 281 344 L 281 372 L 268 372 L 268 344 Z Z" stroke-miterlimit="10"/></g><g transform="translate(-22,2) scale(1,1)"><path fill="none" stroke="#000000" d="M 268 370 L 93 370" stroke-miterlimit="10"/></g><g transform="translate(-22,2) scale(1,1)"><path fill="#000000" stroke="none" d="M 103.16267485762415 365.790482243984 L 93 370 L 103.16267485762415 374.209517756016"/></g><g transform="translate(-22,2) scale(1,1)"><path fill="none" stroke="#000000" d="M 103.16267485762415 365.790482243984 L 93 370 L 103.16267485762415 374.209517756016 L 103.16267485762415 365.790482243984" stroke-miterlimit="10"/></g><g transform="translate(-22,2) scale(1,1)"><g><path fill="none" stroke="none"/><text fill="#000000" stroke="none" font-family="Arial" font-size="13px" font-style="normal" font-weight="normal" text-decoration="none" x="120.982421875" y="385">11 : product delivery</text></g></g><g transform="translate(-22,2) scale(1,1)"><rect fill="#ffffff" stroke="none" x="80" y="370" width="13" height="28"/></g><g transform="translate(-22,2) scale(1,1)"><path fill="none" stroke="#000000" d="M 80 370 L 93 370 L 93 398 L 80 398 L 80 370 Z Z" stroke-miterlimit="10"/></g></g></svg>