<svg version="1.1" xmlns="http://www.w3.org/2000/svg" xmlns:xlink="http://www.w3.org/1999/xlink" width="821" height="532"><defs/><g><g transform="translate(-77,-102) scale(1,1)"><path fill="none" stroke="#000000" d="M 87 112 L 888 112 L 888 624 L 87 624 L 87 112" stroke-miterlimit="10"/></g><g transform="translate(-77,-102) scale(1,1)"><path fill="#ffffff" stroke="none" d="M 87 112 L 87 134 L 274.96435546875 134 L 285.96435546875 123 L 285.96435546875 112 L 87 112"/></g><g transform="translate(-77,-102) scale(1,1)"><path fill="none" stroke="#000000" d="M 87 112 L 87 134 L 274.96435546875 134 L 285.96435546875 123 L 285.96435546875 112 L 87 112 L 87 112" stroke-miterlimit="10"/></g><g transform="translate(-77,-102) scale(1,1)"><g><path fill="none" stroke="none"/><text fill="#000000" stroke="none" font-family="Arial" font-size="13px" font-style="normal" font-weight="normal" text-decoration="none" x="98" y="128">217Y1A05C0 - DFDDiagram2</text></g></g><g transform="translate(-77,-102) scale(1,1)"><g><path fill="none" stroke="none"/><text fill="#000000" stroke="none" font-family="Arial" font-size="13px" font-style="normal" font-weight="bold" text-decoration="none" x="92" y="123"></text></g></g><g transform="translate(-77,-102) scale(1,1)"><rect fill="#C0C0C0" stroke="none" x="109" y="167" width="106.4326171875" height="32" opacity="0.2"/></g><g transform="translate(-77,-102) scale(1,1)"><rect fill="#ffd8ff" stroke="none" x="102" y="160" width="106.4326171875" height="32"/></g><g transform="translate(-77,-102) scale(1,1)"><path fill="none" stroke="#000000" d="M 102 160 L 208.4326171875 160 L 208.4326171875 192 L 102 192 L 102 160 Z Z" stroke-miterlimit="10"/></g><g transform="translate(-77,-102) scale(1,1)"><g><path fill="none" stroke="none"/><text fill="#000000" stroke="none" font-family="Arial" font-size="13px" font-style="normal" font-weight="normal" text-decoration="none" x="155.21630859375" y="171"></text></g></g><g transform="translate(-77,-102) scale(1,1)"><g><path fill="none" stroke="none"/><text fill="#000000" stroke="none" font-family="Arial" font-size="13px" font-style="normal" font-weight="normal" text-decoration="none" x="155.21630859375" y="171"></text></g></g><g transform="translate(-77,-102) scale(1,1)"><g><path fill="none" stroke="none"/><text fill="#000000" stroke="none" font-family="Arial" font-size="13px" font-style="normal" font-weight="normal" text-decoration="none" x="136.792236328125" y="181">Admin</text></g></g><g transform="translate(-77,-102) scale(1,1)"><g><path fill="none" stroke="none"/><text fill="#000000" stroke="none" font-family="Arial" font-size="13px" font-style="normal" font-weight="normal" text-decoration="none" x="55.5" y="158"></text></g></g><g transform="translate(-77,-102) scale(1,1)"><path fill="#C0C0C0" stroke="none" d="M 119 295 L 205.4326171875 295 Q 215.4326171875 295 215.4326171875 305 L 215.4326171875 353 Q 215.4326171875 363 205.4326171875 363 L 119 363 Q 109 363 109 353 L 109 305 Q 109 295 119 295 Z" opacity="0.2"/></g><g transform="translate(-77,-102) scale(1,1)"><path fill="#f1d9c2" stroke="none" d="M 112 288 L 198.4326171875 288 Q 208.4326171875 288 208.4326171875 298 L 208.4326171875 346 Q 208.4326171875 356 198.4326171875 356 L 112 356 Q 102 356 102 346 L 102 298 Q 102 288 112 288 Z"/></g><g transform="translate(-77,-102) scale(1,1)"><path fill="none" stroke="#000000" d="M 112 288 L 198.4326171875 288 Q 208.4326171875 288 208.4326171875 298 L 208.4326171875 346 Q 208.4326171875 356 198.4326171875 356 L 112 356 Q 102 356 102 346 L 102 298 Q 102 288 112 288 Z" stroke-miterlimit="10"/></g><g transform="translate(-77,-102) scale(1,1)"><path fill="none" stroke="#000000" d="M 102 311 L 208.4326171875 311" stroke-miterlimit="10"/></g><g transform="translate(-77,-102) scale(1,1)"><g><path fill="none" stroke="none"/><text fill="#000000" stroke="none" font-family="Arial" font-size="13px" font-style="normal" font-weight="normal" text-decoration="none" x="136.430419921875" y="331">Forgot</text><text fill="#000000" stroke="none" font-family="Arial" font-size="13px" font-style="normal" font-weight="normal" text-decoration="none" x="126.67724609375" y="344">Password</text></g></g><g transform="translate(-77,-102) scale(1,1)"><g><path fill="none" stroke="none"/><text fill="#000000" stroke="none" font-family="Arial" font-size="13px" font-style="normal" font-weight="normal" text-decoration="none" x="155.21630859375" y="299"></text></g></g><g transform="translate(-77,-102) scale(1,1)"><path fill="#C0C0C0" stroke="none" d="M 119 399 L 205.4326171875 399 Q 215.4326171875 399 215.4326171875 409 L 215.4326171875 457 Q 215.4326171875 467 205.4326171875 467 L 119 467 Q 109 467 109 457 L 109 409 Q 109 399 119 399 Z" opacity="0.2"/></g><g transform="translate(-77,-102) scale(1,1)"><path fill="#f1d9c2" stroke="none" d="M 112 392 L 198.4326171875 392 Q 208.4326171875 392 208.4326171875 402 L 208.4326171875 450 Q 208.4326171875 460 198.4326171875 460 L 112 460 Q 102 460 102 450 L 102 402 Q 102 392 112 392 Z"/></g><g transform="translate(-77,-102) scale(1,1)"><path fill="none" stroke="#000000" d="M 112 392 L 198.4326171875 392 Q 208.4326171875 392 208.4326171875 402 L 208.4326171875 450 Q 208.4326171875 460 198.4326171875 460 L 112 460 Q 102 460 102 450 L 102 402 Q 102 392 112 392 Z" stroke-miterlimit="10"/></g><g transform="translate(-77,-102) scale(1,1)"><path fill="none" stroke="#000000" d="M 102 415 L 208.4326171875 415" stroke-miterlimit="10"/></g><g transform="translate(-77,-102) scale(1,1)"><g><path fill="none" stroke="none"/><text fill="#000000" stroke="none" font-family="Arial" font-size="13px" font-style="normal" font-weight="normal" text-decoration="none" x="112.944091796875" y="435">Send  Email to</text><text fill="#000000" stroke="none" font-family="Arial" font-size="13px" font-style="normal" font-weight="normal" text-decoration="none" x="141.49267578125" y="448">User</text></g></g><g transform="translate(-77,-102) scale(1,1)"><g><path fill="none" stroke="none"/><text fill="#000000" stroke="none" font-family="Arial" font-size="13px" font-style="normal" font-weight="normal" text-decoration="none" x="155.21630859375" y="403"></text></g></g><g transform="translate(-77,-102) scale(1,1)"><path fill="#C0C0C0" stroke="none" d="M 273 151 L 359.4326171875 151 Q 369.4326171875 151 369.4326171875 161 L 369.4326171875 209 Q 369.4326171875 219 359.4326171875 219 L 273 219 Q 263 219 263 209 L 263 161 Q 263 151 273 151 Z" opacity="0.2"/></g><g transform="translate(-77,-102) scale(1,1)"><path fill="#f1d9c2" stroke="none" d="M 266 144 L 352.4326171875 144 Q 362.4326171875 144 362.4326171875 154 L 362.4326171875 202 Q 362.4326171875 212 352.4326171875 212 L 266 212 Q 256 212 256 202 L 256 154 Q 256 144 266 144 Z"/></g><g transform="translate(-77,-102) scale(1,1)"><path fill="none" stroke="#000000" d="M 266 144 L 352.4326171875 144 Q 362.4326171875 144 362.4326171875 154 L 362.4326171875 202 Q 362.4326171875 212 352.4326171875 212 L 266 212 Q 256 212 256 202 L 256 154 Q 256 144 266 144 Z" stroke-miterlimit="10"/></g><g transform="translate(-77,-102) scale(1,1)"><path fill="none" stroke="#000000" d="M 256 167 L 362.4326171875 167" stroke-miterlimit="10"/></g><g transform="translate(-77,-102) scale(1,1)"><g><path fill="none" stroke="none"/><text fill="#000000" stroke="none" font-family="Arial" font-size="13px" font-style="normal" font-weight="normal" text-decoration="none" x="286.08544921875" y="187">Login to</text><text fill="#000000" stroke="none" font-family="Arial" font-size="13px" font-style="normal" font-weight="normal" text-decoration="none" x="287.54541015625" y="200">System</text></g></g><g transform="translate(-77,-102) scale(1,1)"><g><path fill="none" stroke="none"/><text fill="#000000" stroke="none" font-family="Arial" font-size="13px" font-style="normal" font-weight="normal" text-decoration="none" x="309.21630859375" y="155"></text></g></g><g transform="translate(-77,-102) scale(1,1)"><path fill="#C0C0C0" stroke="none" d="M 273 295 L 359.4326171875 295 Q 369.4326171875 295 369.4326171875 305 L 369.4326171875 353 Q 369.4326171875 363 359.4326171875 363 L 273 363 Q 263 363 263 353 L 263 305 Q 263 295 273 295 Z" opacity="0.2"/></g><g transform="translate(-77,-102) scale(1,1)"><path fill="#f1d9c2" stroke="none" d="M 266 288 L 352.4326171875 288 Q 362.4326171875 288 362.4326171875 298 L 362.4326171875 346 Q 362.4326171875 356 352.4326171875 356 L 266 356 Q 256 356 256 346 L 256 298 Q 256 288 266 288 Z"/></g><g transform="translate(-77,-102) scale(1,1)"><path fill="none" stroke="#000000" d="M 266 288 L 352.4326171875 288 Q 362.4326171875 288 362.4326171875 298 L 362.4326171875 346 Q 362.4326171875 356 352.4326171875 356 L 266 356 Q 256 356 256 346 L 256 298 Q 256 288 266 288 Z" stroke-miterlimit="10"/></g><g transform="translate(-77,-102) scale(1,1)"><path fill="none" stroke="#000000" d="M 256 311 L 362.4326171875 311" stroke-miterlimit="10"/></g><g transform="translate(-77,-102) scale(1,1)"><g><path fill="none" stroke="none"/><text fill="#000000" stroke="none" font-family="Arial" font-size="13px" font-style="normal" font-weight="normal" text-decoration="none" x="290.792236328125" y="331">Check</text><text fill="#000000" stroke="none" font-family="Arial" font-size="13px" font-style="normal" font-weight="normal" text-decoration="none" x="276.338623046875" y="344">Credentials</text></g></g><g transform="translate(-77,-102) scale(1,1)"><g><path fill="none" stroke="none"/><text fill="#000000" stroke="none" font-family="Arial" font-size="13px" font-style="normal" font-weight="normal" text-decoration="none" x="309.21630859375" y="299"></text></g></g><g transform="translate(-77,-102) scale(1,1)"><path fill="#C0C0C0" stroke="none" d="M 440 151 L 526.4326171875 151 Q 536.4326171875 151 536.4326171875 161 L 536.4326171875 209 Q 536.4326171875 219 526.4326171875 219 L 440 219 Q 430 219 430 209 L 430 161 Q 430 151 440 151 Z" opacity="0.2"/></g><g transform="translate(-77,-102) scale(1,1)"><path fill="#f1d9c2" stroke="none" d="M 433 144 L 519.4326171875 144 Q 529.4326171875 144 529.4326171875 154 L 529.4326171875 202 Q 529.4326171875 212 519.4326171875 212 L 433 212 Q 423 212 423 202 L 423 154 Q 423 144 433 144 Z"/></g><g transform="translate(-77,-102) scale(1,1)"><path fill="none" stroke="#000000" d="M 433 144 L 519.4326171875 144 Q 529.4326171875 144 529.4326171875 154 L 529.4326171875 202 Q 529.4326171875 212 519.4326171875 212 L 433 212 Q 423 212 423 202 L 423 154 Q 423 144 433 144 Z" stroke-miterlimit="10"/></g><g transform="translate(-77,-102) scale(1,1)"><path fill="none" stroke="#000000" d="M 423 167 L 529.4326171875 167" stroke-miterlimit="10"/></g><g transform="translate(-77,-102) scale(1,1)"><g><path fill="none" stroke="none"/><text fill="#000000" stroke="none" font-family="Arial" font-size="13px" font-style="normal" font-weight="normal" text-decoration="none" x="439.3681640625" y="187">Check Roles</text><text fill="#000000" stroke="none" font-family="Arial" font-size="13px" font-style="normal" font-weight="normal" text-decoration="none" x="448.0390625" y="200">of Access</text></g></g><g transform="translate(-77,-102) scale(1,1)"><g><path fill="none" stroke="none"/><text fill="#000000" stroke="none" font-family="Arial" font-size="13px" font-style="normal" font-weight="normal" text-decoration="none" x="476.21630859375" y="155"></text></g></g><g transform="translate(-77,-102) scale(1,1)"><path fill="#C0C0C0" stroke="none" d="M 440 295 L 526.4326171875 295 Q 536.4326171875 295 536.4326171875 305 L 536.4326171875 353 Q 536.4326171875 363 526.4326171875 363 L 440 363 Q 430 363 430 353 L 430 305 Q 430 295 440 295 Z" opacity="0.2"/></g><g transform="translate(-77,-102) scale(1,1)"><path fill="#f1d9c2" stroke="none" d="M 433 288 L 519.4326171875 288 Q 529.4326171875 288 529.4326171875 298 L 529.4326171875 346 Q 529.4326171875 356 519.4326171875 356 L 433 356 Q 423 356 423 346 L 423 298 Q 423 288 433 288 Z"/></g><g transform="translate(-77,-102) scale(1,1)"><path fill="none" stroke="#000000" d="M 433 288 L 519.4326171875 288 Q 529.4326171875 288 529.4326171875 298 L 529.4326171875 346 Q 529.4326171875 356 519.4326171875 356 L 433 356 Q 423 356 423 346 L 423 298 Q 423 288 433 288 Z" stroke-miterlimit="10"/></g><g transform="translate(-77,-102) scale(1,1)"><path fill="none" stroke="#000000" d="M 423 311 L 529.4326171875 311" stroke-miterlimit="10"/></g><g transform="translate(-77,-102) scale(1,1)"><g><path fill="none" stroke="none"/><text fill="#000000" stroke="none" font-family="Arial" font-size="13px" font-style="normal" font-weight="normal" text-decoration="none" x="452.726806640625" y="331">Manage</text><text fill="#000000" stroke="none" font-family="Arial" font-size="13px" font-style="normal" font-weight="normal" text-decoration="none" x="451.647705078125" y="344">Modules</text></g></g><g transform="translate(-77,-102) scale(1,1)"><g><path fill="none" stroke="none"/><text fill="#000000" stroke="none" font-family="Arial" font-size="13px" font-style="normal" font-weight="normal" text-decoration="none" x="476.21630859375" y="299"></text></g></g><g transform="translate(-77,-102) scale(1,1)"><path fill="none" stroke="#000000" d="M 155 193 L 155 287" stroke-miterlimit="10"/></g><g transform="translate(-77,-102) scale(1,1)"><path fill="#000000" stroke="none" d="M 150.790482243984 276.83732514237585 L 155 287 L 159.209517756016 276.83732514237585"/></g><g transform="translate(-77,-102) scale(1,1)"><path fill="none" stroke="#000000" d="M 150.790482243984 276.83732514237585 L 155 287 L 159.209517756016 276.83732514237585 L 150.790482243984 276.83732514237585" stroke-miterlimit="10"/></g><g transform="translate(-77,-102) scale(1,1)"><path fill="none" stroke="#000000" d="M 155 357 L 155 391" stroke-miterlimit="10"/></g><g transform="translate(-77,-102) scale(1,1)"><path fill="#000000" stroke="none" d="M 150.790482243984 380.83732514237585 L 155 391 L 159.209517756016 380.83732514237585"/></g><g transform="translate(-77,-102) scale(1,1)"><path fill="none" stroke="#000000" d="M 150.790482243984 380.83732514237585 L 155 391 L 159.209517756016 380.83732514237585 L 150.790482243984 380.83732514237585" stroke-miterlimit="10"/></g><g transform="translate(-77,-102) scale(1,1)"><path fill="none" stroke="#000000" d="M 209 177 L 255 177" stroke-miterlimit="10"/></g><g transform="translate(-77,-102) scale(1,1)"><path fill="#000000" stroke="none" d="M 244.83732514237585 181.209517756016 L 255 177 L 244.83732514237585 172.790482243984"/></g><g transform="translate(-77,-102) scale(1,1)"><path fill="none" stroke="#000000" d="M 244.83732514237585 181.209517756016 L 255 177 L 244.83732514237585 172.790482243984 L 244.83732514237585 181.209517756016" stroke-miterlimit="10"/></g><g transform="translate(-77,-102) scale(1,1)"><path fill="none" stroke="#000000" d="M 309 213 L 309 287" stroke-miterlimit="10"/></g><g transform="translate(-77,-102) scale(1,1)"><path fill="#000000" stroke="none" d="M 304.790482243984 276.83732514237585 L 309 287 L 313.209517756016 276.83732514237585"/></g><g transform="translate(-77,-102) scale(1,1)"><path fill="none" stroke="#000000" d="M 304.790482243984 276.83732514237585 L 309 287 L 313.209517756016 276.83732514237585 L 304.790482243984 276.83732514237585" stroke-miterlimit="10"/></g><g transform="translate(-77,-102) scale(1,1)"><path fill="none" stroke="#000000" d="M 350 287 L 435 213" stroke-miterlimit="10"/></g><g transform="translate(-77,-102) scale(1,1)"><path fill="#000000" stroke="none" d="M 430.09911841640695 222.84791143865533 L 435 213 L 424.57102843965134 216.49807835724687"/></g><g transform="translate(-77,-102) scale(1,1)"><path fill="none" stroke="#000000" d="M 430.09911841640695 222.84791143865533 L 435 213 L 424.57102843965134 216.49807835724687 L 430.09911841640695 222.84791143865533" stroke-miterlimit="10"/></g><g transform="translate(-77,-102) scale(1,1)"><path fill="none" stroke="#000000" d="M 476 213 L 476 287" stroke-miterlimit="10"/></g><g transform="translate(-77,-102) scale(1,1)"><path fill="#000000" stroke="none" d="M 471.790482243984 276.83732514237585 L 476 287 L 480.209517756016 276.83732514237585"/></g><g transform="translate(-77,-102) scale(1,1)"><path fill="none" stroke="#000000" d="M 471.790482243984 276.83732514237585 L 476 287 L 480.209517756016 276.83732514237585 L 471.790482243984 276.83732514237585" stroke-miterlimit="10"/></g><g transform="translate(-77,-102) scale(1,1)"><rect fill="#C0C0C0" stroke="none" x="109" y="562" width="153" height="45" opacity="0.2"/></g><g transform="translate(-77,-102) scale(1,1)"><rect fill="#ffd8ff" stroke="none" x="102" y="555" width="153" height="45"/></g><g transform="translate(-77,-102) scale(1,1)"><path fill="none" stroke="#000000" d="M 102 555 L 255 555 L 255 600 L 102 600 L 102 555 Z Z" stroke-miterlimit="10"/></g><g transform="translate(-77,-102) scale(1,1)"><g><path fill="none" stroke="none"/><text fill="#000000" stroke="none" font-family="Arial" font-size="13px" font-style="normal" font-weight="normal" text-decoration="none" x="178.5" y="566"></text></g></g><g transform="translate(-77,-102) scale(1,1)"><g><path fill="none" stroke="none"/><text fill="#000000" stroke="none" font-family="Arial" font-size="13px" font-style="normal" font-weight="normal" text-decoration="none" x="178.5" y="566"></text></g></g><g transform="translate(-77,-102) scale(1,1)"><g><path fill="none" stroke="none"/><text fill="#000000" stroke="none" font-family="Arial" font-size="13px" font-style="normal" font-weight="normal" text-decoration="none" x="131.53369140625" y="576">Manage System</text><text fill="#000000" stroke="none" font-family="Arial" font-size="13px" font-style="normal" font-weight="normal" text-decoration="none" x="156.825927734375" y="589">Admins</text></g></g><g transform="translate(-77,-102) scale(1,1)"><g><path fill="none" stroke="none"/><text fill="#000000" stroke="none" font-family="Arial" font-size="13px" font-style="normal" font-weight="normal" text-decoration="none" x="47.5" y="174"></text></g></g><g transform="translate(-77,-102) scale(1,1)"><rect fill="#C0C0C0" stroke="none" x="301" y="562" width="153" height="45" opacity="0.2"/></g><g transform="translate(-77,-102) scale(1,1)"><rect fill="#ffd8ff" stroke="none" x="294" y="555" width="153" height="45"/></g><g transform="translate(-77,-102) scale(1,1)"><path fill="none" stroke="#000000" d="M 294 555 L 447 555 L 447 600 L 294 600 L 294 555 Z Z" stroke-miterlimit="10"/></g><g transform="translate(-77,-102) scale(1,1)"><g><path fill="none" stroke="none"/><text fill="#000000" stroke="none" font-family="Arial" font-size="13px" font-style="normal" font-weight="normal" text-decoration="none" x="370.5" y="566"></text></g></g><g transform="translate(-77,-102) scale(1,1)"><g><path fill="none" stroke="none"/><text fill="#000000" stroke="none" font-family="Arial" font-size="13px" font-style="normal" font-weight="normal" text-decoration="none" x="370.5" y="566"></text></g></g><g transform="translate(-77,-102) scale(1,1)"><g><path fill="none" stroke="none"/><text fill="#000000" stroke="none" font-family="Arial" font-size="13px" font-style="normal" font-weight="normal" text-decoration="none" x="321.359619140625" y="576">Manage Roles of</text><text fill="#000000" stroke="none" font-family="Arial" font-size="13px" font-style="normal" font-weight="normal" text-decoration="none" x="353.5263671875" y="589">Users</text></g></g><g transform="translate(-77,-102) scale(1,1)"><g><path fill="none" stroke="none"/><text fill="#000000" stroke="none" font-family="Arial" font-size="13px" font-style="normal" font-weight="normal" text-decoration="none" x="107.5" y="284"></text></g></g><g transform="translate(-77,-102) scale(1,1)"><rect fill="#C0C0C0" stroke="none" x="493" y="562" width="153" height="45" opacity="0.2"/></g><g transform="translate(-77,-102) scale(1,1)"><rect fill="#ffd8ff" stroke="none" x="486" y="555" width="153" height="45"/></g><g transform="translate(-77,-102) scale(1,1)"><path fill="none" stroke="#000000" d="M 486 555 L 639 555 L 639 600 L 486 600 L 486 555 Z Z" stroke-miterlimit="10"/></g><g transform="translate(-77,-102) scale(1,1)"><g><path fill="none" stroke="none"/><text fill="#000000" stroke="none" font-family="Arial" font-size="13px" font-style="normal" font-weight="normal" text-decoration="none" x="562.5" y="566"></text></g></g><g transform="translate(-77,-102) scale(1,1)"><g><path fill="none" stroke="none"/><text fill="#000000" stroke="none" font-family="Arial" font-size="13px" font-style="normal" font-weight="normal" text-decoration="none" x="562.5" y="566"></text></g></g><g transform="translate(-77,-102) scale(1,1)"><g><path fill="none" stroke="none"/><text fill="#000000" stroke="none" font-family="Arial" font-size="13px" font-style="normal" font-weight="normal" text-decoration="none" x="523.48095703125" y="576">Manage User</text><text fill="#000000" stroke="none" font-family="Arial" font-size="13px" font-style="normal" font-weight="normal" text-decoration="none" x="530.352294921875" y="589">Permission</text></g></g><g transform="translate(-77,-102) scale(1,1)"><g><path fill="none" stroke="none"/><text fill="#000000" stroke="none" font-family="Arial" font-size="13px" font-style="normal" font-weight="normal" text-decoration="none" x="204.5" y="169"></text></g></g><g transform="translate(-77,-102) scale(1,1)"><rect fill="#C0C0C0" stroke="none" x="687" y="147" width="197" height="32" opacity="0.2"/></g><g transform="translate(-77,-102) scale(1,1)"><rect fill="#ffd8ff" stroke="none" x="680" y="140" width="197" height="32"/></g><g transform="translate(-77,-102) scale(1,1)"><path fill="none" stroke="#000000" d="M 680 140 L 877 140 L 877 172 L 680 172 L 680 140 Z Z" stroke-miterlimit="10"/></g><g transform="translate(-77,-102) scale(1,1)"><g><path fill="none" stroke="none"/><text fill="#000000" stroke="none" font-family="Arial" font-size="13px" font-style="normal" font-weight="normal" text-decoration="none" x="778.5" y="151"></text></g></g><g transform="translate(-77,-102) scale(1,1)"><g><path fill="none" stroke="none"/><text fill="#000000" stroke="none" font-family="Arial" font-size="13px" font-style="normal" font-weight="normal" text-decoration="none" x="778.5" y="151"></text></g></g><g transform="translate(-77,-102) scale(1,1)"><g><path fill="none" stroke="none"/><text fill="#000000" stroke="none" font-family="Arial" font-size="13px" font-style="normal" font-weight="normal" text-decoration="none" x="704.311767578125" y="161">Manage Timetable details</text></g></g><g transform="translate(-77,-102) scale(1,1)"><g><path fill="none" stroke="none"/><text fill="#000000" stroke="none" font-family="Arial" font-size="13px" font-style="normal" font-weight="normal" text-decoration="none" x="111.5" y="134"></text></g></g><g transform="translate(-77,-102) scale(1,1)"><rect fill="#C0C0C0" stroke="none" x="687" y="218" width="197" height="32" opacity="0.2"/></g><g transform="translate(-77,-102) scale(1,1)"><rect fill="#ffd8ff" stroke="none" x="680" y="211" width="197" height="32"/></g><g transform="translate(-77,-102) scale(1,1)"><path fill="none" stroke="#000000" d="M 680 211 L 877 211 L 877 243 L 680 243 L 680 211 Z Z" stroke-miterlimit="10"/></g><g transform="translate(-77,-102) scale(1,1)"><g><path fill="none" stroke="none"/><text fill="#000000" stroke="none" font-family="Arial" font-size="13px" font-style="normal" font-weight="normal" text-decoration="none" x="778.5" y="222"></text></g></g><g transform="translate(-77,-102) scale(1,1)"><g><path fill="none" stroke="none"/><text fill="#000000" stroke="none" font-family="Arial" font-size="13px" font-style="normal" font-weight="normal" text-decoration="none" x="778.5" y="222"></text></g></g><g transform="translate(-77,-102) scale(1,1)"><g><path fill="none" stroke="none"/><text fill="#000000" stroke="none" font-family="Arial" font-size="13px" font-style="normal" font-weight="normal" text-decoration="none" x="714.91552734375" y="232">Manage Exam Details</text></g></g><g transform="translate(-77,-102) scale(1,1)"><g><path fill="none" stroke="none"/><text fill="#000000" stroke="none" font-family="Arial" font-size="13px" font-style="normal" font-weight="normal" text-decoration="none" x="134.5" y="98"></text></g></g><g transform="translate(-77,-102) scale(1,1)"><rect fill="#C0C0C0" stroke="none" x="687" y="289" width="197" height="32" opacity="0.2"/></g><g transform="translate(-77,-102) scale(1,1)"><rect fill="#ffd8ff" stroke="none" x="680" y="282" width="197" height="32"/></g><g transform="translate(-77,-102) scale(1,1)"><path fill="none" stroke="#000000" d="M 680 282 L 877 282 L 877 314 L 680 314 L 680 282 Z Z" stroke-miterlimit="10"/></g><g transform="translate(-77,-102) scale(1,1)"><g><path fill="none" stroke="none"/><text fill="#000000" stroke="none" font-family="Arial" font-size="13px" font-style="normal" font-weight="normal" text-decoration="none" x="778.5" y="293"></text></g></g><g transform="translate(-77,-102) scale(1,1)"><g><path fill="none" stroke="none"/><text fill="#000000" stroke="none" font-family="Arial" font-size="13px" font-style="normal" font-weight="normal" text-decoration="none" x="778.5" y="293"></text></g></g><g transform="translate(-77,-102) scale(1,1)"><g><path fill="none" stroke="none"/><text fill="#000000" stroke="none" font-family="Arial" font-size="13px" font-style="normal" font-weight="normal" text-decoration="none" x="715.27734375" y="303">Manage Class Details</text></g></g><g transform="translate(-77,-102) scale(1,1)"><g><path fill="none" stroke="none"/><text fill="#000000" stroke="none" font-family="Arial" font-size="13px" font-style="normal" font-weight="normal" text-decoration="none" x="48.5" y="118"></text></g></g><g transform="translate(-77,-102) scale(1,1)"><rect fill="#C0C0C0" stroke="none" x="687" y="360" width="197" height="32" opacity="0.2"/></g><g transform="translate(-77,-102) scale(1,1)"><rect fill="#ffd8ff" stroke="none" x="680" y="353" width="197" height="32"/></g><g transform="translate(-77,-102) scale(1,1)"><path fill="none" stroke="#000000" d="M 680 353 L 877 353 L 877 385 L 680 385 L 680 353 Z Z" stroke-miterlimit="10"/></g><g transform="translate(-77,-102) scale(1,1)"><g><path fill="none" stroke="none"/><text fill="#000000" stroke="none" font-family="Arial" font-size="13px" font-style="normal" font-weight="normal" text-decoration="none" x="778.5" y="364"></text></g></g><g transform="translate(-77,-102) scale(1,1)"><g><path fill="none" stroke="none"/><text fill="#000000" stroke="none" font-family="Arial" font-size="13px" font-style="normal" font-weight="normal" text-decoration="none" x="778.5" y="364"></text></g></g><g transform="translate(-77,-102) scale(1,1)"><g><path fill="none" stroke="none"/><text fill="#000000" stroke="none" font-family="Arial" font-size="13px" font-style="normal" font-weight="normal" text-decoration="none" x="709.123291015625" y="374">Manage Student Details</text></g></g><g transform="translate(-77,-102) scale(1,1)"><g><path fill="none" stroke="none"/><text fill="#000000" stroke="none" font-family="Arial" font-size="13px" font-style="normal" font-weight="normal" text-decoration="none" x="145.5" y="110"></text></g></g><g transform="translate(-77,-102) scale(1,1)"><rect fill="#C0C0C0" stroke="none" x="687" y="431" width="197" height="32" opacity="0.2"/></g><g transform="translate(-77,-102) scale(1,1)"><rect fill="#ffd8ff" stroke="none" x="680" y="424" width="197" height="32"/></g><g transform="translate(-77,-102) scale(1,1)"><path fill="none" stroke="#000000" d="M 680 424 L 877 424 L 877 456 L 680 456 L 680 424 Z Z" stroke-miterlimit="10"/></g><g transform="translate(-77,-102) scale(1,1)"><g><path fill="none" stroke="none"/><text fill="#000000" stroke="none" font-family="Arial" font-size="13px" font-style="normal" font-weight="normal" text-decoration="none" x="778.5" y="435"></text></g></g><g transform="translate(-77,-102) scale(1,1)"><g><path fill="none" stroke="none"/><text fill="#000000" stroke="none" font-family="Arial" font-size="13px" font-style="normal" font-weight="normal" text-decoration="none" x="778.5" y="435"></text></g></g><g transform="translate(-77,-102) scale(1,1)"><g><path fill="none" stroke="none"/><text fill="#000000" stroke="none" font-family="Arial" font-size="13px" font-style="normal" font-weight="normal" text-decoration="none" x="710.935546875" y="445">Manage Branch Details</text></g></g><g transform="translate(-77,-102) scale(1,1)"><g><path fill="none" stroke="none"/><text fill="#000000" stroke="none" font-family="Arial" font-size="13px" font-style="normal" font-weight="normal" text-decoration="none" x="147.5" y="62"></text></g></g><g transform="translate(-77,-102) scale(1,1)"><rect fill="#C0C0C0" stroke="none" x="687" y="502" width="197" height="32" opacity="0.2"/></g><g transform="translate(-77,-102) scale(1,1)"><rect fill="#ffd8ff" stroke="none" x="680" y="495" width="197" height="32"/></g><g transform="translate(-77,-102) scale(1,1)"><path fill="none" stroke="#000000" d="M 680 495 L 877 495 L 877 527 L 680 527 L 680 495 Z Z" stroke-miterlimit="10"/></g><g transform="translate(-77,-102) scale(1,1)"><g><path fill="none" stroke="none"/><text fill="#000000" stroke="none" font-family="Arial" font-size="13px" font-style="normal" font-weight="normal" text-decoration="none" x="778.5" y="506"></text></g></g><g transform="translate(-77,-102) scale(1,1)"><g><path fill="none" stroke="none"/><text fill="#000000" stroke="none" font-family="Arial" font-size="13px" font-style="normal" font-weight="normal" text-decoration="none" x="778.5" y="506"></text></g></g><g transform="translate(-77,-102) scale(1,1)"><g><path fill="none" stroke="none"/><text fill="#000000" stroke="none" font-family="Arial" font-size="13px" font-style="normal" font-weight="normal" text-decoration="none" x="710.576904296875" y="516">Manage Course Details</text></g></g><g transform="translate(-77,-102) scale(1,1)"><g><path fill="none" stroke="none"/><text fill="#000000" stroke="none" font-family="Arial" font-size="13px" font-style="normal" font-weight="normal" text-decoration="none" x="275.5" y="12"></text></g></g><g transform="translate(-77,-102) scale(1,1)"><rect fill="#C0C0C0" stroke="none" x="685" y="573" width="197" height="32" opacity="0.2"/></g><g transform="translate(-77,-102) scale(1,1)"><rect fill="#ffd8ff" stroke="none" x="678" y="566" width="197" height="32"/></g><g transform="translate(-77,-102) scale(1,1)"><path fill="none" stroke="#000000" d="M 678 566 L 875 566 L 875 598 L 678 598 L 678 566 Z Z" stroke-miterlimit="10"/></g><g transform="translate(-77,-102) scale(1,1)"><g><path fill="none" stroke="none"/><text fill="#000000" stroke="none" font-family="Arial" font-size="13px" font-style="normal" font-weight="normal" text-decoration="none" x="776.5" y="577"></text></g></g><g transform="translate(-77,-102) scale(1,1)"><g><path fill="none" stroke="none"/><text fill="#000000" stroke="none" font-family="Arial" font-size="13px" font-style="normal" font-weight="normal" text-decoration="none" x="776.5" y="577"></text></g></g><g transform="translate(-77,-102) scale(1,1)"><g><path fill="none" stroke="none"/><text fill="#000000" stroke="none" font-family="Arial" font-size="13px" font-style="normal" font-weight="normal" text-decoration="none" x="731.695068359375" y="587">Manage Report</text></g></g><g transform="translate(-77,-102) scale(1,1)"><g><path fill="none" stroke="none"/><text fill="#000000" stroke="none" font-family="Arial" font-size="13px" font-style="normal" font-weight="normal" text-decoration="none" x="174.5" y="-16"></text></g></g><g transform="translate(-77,-102) scale(1,1)"><path fill="none" stroke="#000000" d="M 530 292 L 747 173" stroke-miterlimit="10"/></g><g transform="translate(-77,-102) scale(1,1)"><path fill="#000000" stroke="none" d="M 740.1133139940899 181.5775028916347 L 747 173 L 736.0651671649963 174.1955880856406"/></g><g transform="translate(-77,-102) scale(1,1)"><path fill="none" stroke="#000000" d="M 740.1133139940899 181.5775028916347 L 747 173 L 736.0651671649963 174.1955880856406 L 740.1133139940899 181.5775028916347" stroke-miterlimit="10"/></g><g transform="translate(-77,-102) scale(1,1)"><path fill="none" stroke="#000000" d="M 530 318 L 679 306" stroke-miterlimit="10"/></g><g transform="translate(-77,-102) scale(1,1)"><path fill="#000000" stroke="none" d="M 669.2080516186248 311.01176085787057 L 679 306 L 668.5321968102154 302.61989698678656"/></g><g transform="translate(-77,-102) scale(1,1)"><path fill="none" stroke="#000000" d="M 669.2080516186248 311.01176085787057 L 679 306 L 668.5321968102154 302.61989698678656 L 669.2080516186248 311.01176085787057" stroke-miterlimit="10"/></g><g transform="translate(-77,-102) scale(1,1)"><path fill="none" stroke="#000000" d="M 530 305 L 724 244" stroke-miterlimit="10"/></g><g transform="translate(-77,-102) scale(1,1)"><path fill="#000000" stroke="none" d="M 715.5679441390557 251.06402392110294 L 724 244 L 713.0426169043067 243.0326553384584"/></g><g transform="translate(-77,-102) scale(1,1)"><path fill="none" stroke="#000000" d="M 715.5679441390557 251.06402392110294 L 724 244 L 713.0426169043067 243.0326553384584 L 715.5679441390557 251.06402392110294" stroke-miterlimit="10"/></g><g transform="translate(-77,-102) scale(1,1)"><path fill="none" stroke="#000000" d="M 530 330 L 679 354" stroke-miterlimit="10"/></g><g transform="translate(-77,-102) scale(1,1)"><path fill="#000000" stroke="none" d="M 668.2972334115576 356.5398400251434 L 679 354 L 669.6360630629476 348.2279392727635"/></g><g transform="translate(-77,-102) scale(1,1)"><path fill="none" stroke="#000000" d="M 668.2972334115576 356.5398400251434 L 679 354 L 669.6360630629476 348.2279392727635 L 668.2972334115576 356.5398400251434" stroke-miterlimit="10"/></g><g transform="translate(-77,-102) scale(1,1)"><path fill="none" stroke="#000000" d="M 530 343 L 734 423" stroke-miterlimit="10"/></g><g transform="translate(-77,-102) scale(1,1)"><path fill="#000000" stroke="none" d="M 723.0019796475523 423.20868235945085 L 734 423 L 726.0756645176749 415.37078594063826"/></g><g transform="translate(-77,-102) scale(1,1)"><path fill="none" stroke="#000000" d="M 723.0019796475523 423.20868235945085 L 734 423 L 726.0756645176749 415.37078594063826 L 723.0019796475523 423.20868235945085" stroke-miterlimit="10"/></g><g transform="translate(-77,-102) scale(1,1)"><path fill="none" stroke="#000000" d="M 530 356 L 751 494" stroke-miterlimit="10"/></g><g transform="translate(-77,-102) scale(1,1)"><path fill="#000000" stroke="none" d="M 740.1502908729117 492.1878709048256 L 751 494 L 744.6094658739175 485.0467283307511"/></g><g transform="translate(-77,-102) scale(1,1)"><path fill="none" stroke="#000000" d="M 740.1502908729117 492.1878709048256 L 751 494 L 744.6094658739175 485.0467283307511 L 740.1502908729117 492.1878709048256" stroke-miterlimit="10"/></g><g transform="translate(-77,-102) scale(1,1)"><path fill="none" stroke="#000000" d="M 516 357 L 756 565" stroke-miterlimit="10"/></g><g transform="translate(-77,-102) scale(1,1)"><path fill="#000000" stroke="none" d="M 745.5632358277238 561.525240495762 L 756 565 L 751.0771192885778 555.1630672716996"/></g><g transform="translate(-77,-102) scale(1,1)"><path fill="none" stroke="#000000" d="M 745.5632358277238 561.525240495762 L 756 565 L 751.0771192885778 555.1630672716996 L 745.5632358277238 561.525240495762" stroke-miterlimit="10"/></g><g transform="translate(-77,-102) scale(1,1)"><path fill="none" stroke="#000000" d="M 435 357 L 205 554" stroke-miterlimit="10"/></g><g transform="translate(-77,-102) scale(1,1)"><path fill="#000000" stroke="none" d="M 209.9800733911141 544.1918977870785 L 205 554 L 215.4568192509911 550.5860680803358"/></g><g transform="translate(-77,-102) scale(1,1)"><path fill="none" stroke="#000000" d="M 209.9800733911141 544.1918977870785 L 205 554 L 215.4568192509911 550.5860680803358 L 209.9800733911141 544.1918977870785" stroke-miterlimit="10"/></g><g transform="translate(-77,-102) scale(1,1)"><path fill="none" stroke="#000000" d="M 461 357 L 380 554" stroke-miterlimit="10"/></g><g transform="translate(-77,-102) scale(1,1)"><path fill="#000000" stroke="none" d="M 379.97136963727445 543.0000372590481 L 380 554 L 387.7579035232954 546.2016070294425"/></g><g transform="translate(-77,-102) scale(1,1)"><path fill="none" stroke="#000000" d="M 379.97136963727445 543.0000372590481 L 380 554 L 387.7579035232954 546.2016070294425 L 379.97136963727445 543.0000372590481" stroke-miterlimit="10"/></g><g transform="translate(-77,-102) scale(1,1)"><path fill="none" stroke="#000000" d="M 488 357 L 554 554" stroke-miterlimit="10"/></g><g transform="translate(-77,-102) scale(1,1)"><path fill="#000000" stroke="none" d="M 546.7801408162067 545.7009860003615 L 554 554 L 554.7630776882343 543.0264995356213"/></g><g transform="translate(-77,-102) scale(1,1)"><path fill="none" stroke="#000000" d="M 546.7801408162067 545.7009860003615 L 554 554 L 554.7630776882343 543.0264995356213 L 546.7801408162067 545.7009860003615" stroke-miterlimit="10"/></g></g></svg>