<svg version="1.1" xmlns="http://www.w3.org/2000/svg" xmlns:xlink="http://www.w3.org/1999/xlink" width="421" height="348"><defs/><g><g transform="translate(-85,-70) scale(1,1)"><path fill="none" stroke="#000000" d="M 95 80 L 496 80 L 496 408 L 95 408 L 95 80" stroke-miterlimit="10"/></g><g transform="translate(-85,-70) scale(1,1)"><path fill="#ffffff" stroke="none" d="M 95 80 L 95 102 L 347.30419921875 102 L 358.30419921875 91 L 358.30419921875 80 L 95 80"/></g><g transform="translate(-85,-70) scale(1,1)"><path fill="none" stroke="#000000" d="M 95 80 L 95 102 L 347.30419921875 102 L 358.30419921875 91 L 358.30419921875 80 L 95 80 L 95 80" stroke-miterlimit="10"/></g><g transform="translate(-85,-70) scale(1,1)"><g><path fill="none" stroke="none"/><text fill="#000000" stroke="none" font-family="Arial" font-size="13px" font-style="normal" font-weight="normal" text-decoration="none" x="127.68994140625" y="96">217Y1A05C0 - DeploymentDiagram1</text></g></g><g transform="translate(-85,-70) scale(1,1)"><g><path fill="none" stroke="none"/><text fill="#000000" stroke="none" font-family="Arial" font-size="13px" font-style="normal" font-weight="bold" text-decoration="none" x="99.2890625" y="96">dep</text></g></g><g transform="translate(-85,-70) scale(1,1)"><path fill="#C0C0C0" stroke="none" d="M 247 137 L 356.89892578125 137 L 356.89892578125 170 L 247 170" opacity="0.2"/></g><g transform="translate(-85,-70) scale(1,1)"><path fill="#C0C0C0" stroke="none" d="M 247 137 L 257 127 L 366.89892578125 127 L 356.89892578125 137" opacity="0.2"/></g><g transform="translate(-85,-70) scale(1,1)"><path fill="#C0C0C0" stroke="none" d="M 366.89892578125 127 L 356.89892578125 137 L 356.89892578125 170 L 366.89892578125 160" opacity="0.2"/></g><g transform="translate(-85,-70) scale(1,1)"><path fill="#f1d9c2" stroke="none" d="M 240 130 L 349.89892578125 130 L 349.89892578125 163 L 240 163"/></g><g transform="translate(-85,-70) scale(1,1)"><path fill="#f1d9c2" stroke="none" d="M 240 130 L 250 120 L 359.89892578125 120 L 349.89892578125 130"/></g><g transform="translate(-85,-70) scale(1,1)"><path fill="#f1d9c2" stroke="none" d="M 359.89892578125 120 L 349.89892578125 130 L 349.89892578125 163 L 359.89892578125 153"/></g><g transform="translate(-85,-70) scale(1,1)"><path fill="none" stroke="#000000" d="M 240 130 L 349.89892578125 130 L 349.89892578125 163 L 240 163 L 240 130" stroke-miterlimit="10"/></g><g transform="translate(-85,-70) scale(1,1)"><path fill="none" stroke="#000000" d="M 240 130 L 250 120 L 359.89892578125 120 L 349.89892578125 130 L 240 130" stroke-miterlimit="10"/></g><g transform="translate(-85,-70) scale(1,1)"><path fill="none" stroke="#000000" d="M 359.89892578125 120 L 349.89892578125 130 L 349.89892578125 163 L 359.89892578125 153 L 359.89892578125 120" stroke-miterlimit="10"/></g><g transform="translate(-85,-70) scale(1,1)"><g><path fill="none" stroke="none"/><text fill="#000000" stroke="none" font-family="Arial" font-size="13px" font-style="normal" font-weight="bold" text-decoration="none" x="244.5" y="148">Database Server</text></g></g><g transform="translate(-85,-70) scale(1,1)"><path fill="#C0C0C0" stroke="none" d="M 247 206 L 356.89892578125 206 L 356.89892578125 239 L 247 239" opacity="0.2"/></g><g transform="translate(-85,-70) scale(1,1)"><path fill="#C0C0C0" stroke="none" d="M 247 206 L 257 196 L 366.89892578125 196 L 356.89892578125 206" opacity="0.2"/></g><g transform="translate(-85,-70) scale(1,1)"><path fill="#C0C0C0" stroke="none" d="M 366.89892578125 196 L 356.89892578125 206 L 356.89892578125 239 L 366.89892578125 229" opacity="0.2"/></g><g transform="translate(-85,-70) scale(1,1)"><path fill="#f1d9c2" stroke="none" d="M 240 199 L 349.89892578125 199 L 349.89892578125 232 L 240 232"/></g><g transform="translate(-85,-70) scale(1,1)"><path fill="#f1d9c2" stroke="none" d="M 240 199 L 250 189 L 359.89892578125 189 L 349.89892578125 199"/></g><g transform="translate(-85,-70) scale(1,1)"><path fill="#f1d9c2" stroke="none" d="M 359.89892578125 189 L 349.89892578125 199 L 349.89892578125 232 L 359.89892578125 222"/></g><g transform="translate(-85,-70) scale(1,1)"><path fill="none" stroke="#000000" d="M 240 199 L 349.89892578125 199 L 349.89892578125 232 L 240 232 L 240 199" stroke-miterlimit="10"/></g><g transform="translate(-85,-70) scale(1,1)"><path fill="none" stroke="#000000" d="M 240 199 L 250 189 L 359.89892578125 189 L 349.89892578125 199 L 240 199" stroke-miterlimit="10"/></g><g transform="translate(-85,-70) scale(1,1)"><path fill="none" stroke="#000000" d="M 359.89892578125 189 L 349.89892578125 199 L 349.89892578125 232 L 359.89892578125 222 L 359.89892578125 189" stroke-miterlimit="10"/></g><g transform="translate(-85,-70) scale(1,1)"><g><path fill="none" stroke="none"/><text fill="#000000" stroke="none" font-family="Arial" font-size="13px" font-style="normal" font-weight="bold" text-decoration="none" x="259.801025390625" y="217">Web Server</text></g></g><g transform="translate(-85,-70) scale(1,1)"><path fill="#C0C0C0" stroke="none" d="M 159 345 L 221.18359375 345 L 221.18359375 378 L 159 378" opacity="0.2"/></g><g transform="translate(-85,-70) scale(1,1)"><path fill="#C0C0C0" stroke="none" d="M 159 345 L 169 335 L 231.18359375 335 L 221.18359375 345" opacity="0.2"/></g><g transform="translate(-85,-70) scale(1,1)"><path fill="#C0C0C0" stroke="none" d="M 231.18359375 335 L 221.18359375 345 L 221.18359375 378 L 231.18359375 368" opacity="0.2"/></g><g transform="translate(-85,-70) scale(1,1)"><path fill="#f1d9c2" stroke="none" d="M 152 338 L 214.18359375 338 L 214.18359375 371 L 152 371"/></g><g transform="translate(-85,-70) scale(1,1)"><path fill="#f1d9c2" stroke="none" d="M 152 338 L 162 328 L 224.18359375 328 L 214.18359375 338"/></g><g transform="translate(-85,-70) scale(1,1)"><path fill="#f1d9c2" stroke="none" d="M 224.18359375 328 L 214.18359375 338 L 214.18359375 371 L 224.18359375 361"/></g><g transform="translate(-85,-70) scale(1,1)"><path fill="none" stroke="#000000" d="M 152 338 L 214.18359375 338 L 214.18359375 371 L 152 371 L 152 338" stroke-miterlimit="10"/></g><g transform="translate(-85,-70) scale(1,1)"><path fill="none" stroke="#000000" d="M 152 338 L 162 328 L 224.18359375 328 L 214.18359375 338 L 152 338" stroke-miterlimit="10"/></g><g transform="translate(-85,-70) scale(1,1)"><path fill="none" stroke="#000000" d="M 224.18359375 328 L 214.18359375 338 L 214.18359375 371 L 224.18359375 361 L 224.18359375 328" stroke-miterlimit="10"/></g><g transform="translate(-85,-70) scale(1,1)"><g><path fill="none" stroke="none"/><text fill="#000000" stroke="none" font-family="Arial" font-size="13px" font-style="normal" font-weight="bold" text-decoration="none" x="160.114990234375" y="356">Client 1</text></g></g><g transform="translate(-85,-70) scale(1,1)"><path fill="none" stroke="#000000" d="M 296 233 L 296 272 L 180 272 L 180 328" stroke-miterlimit="10"/></g><g transform="translate(-85,-70) scale(1,1)"><path fill="#C0C0C0" stroke="none" d="M 271 345 L 333.18359375 345 L 333.18359375 378 L 271 378" opacity="0.2"/></g><g transform="translate(-85,-70) scale(1,1)"><path fill="#C0C0C0" stroke="none" d="M 271 345 L 281 335 L 343.18359375 335 L 333.18359375 345" opacity="0.2"/></g><g transform="translate(-85,-70) scale(1,1)"><path fill="#C0C0C0" stroke="none" d="M 343.18359375 335 L 333.18359375 345 L 333.18359375 378 L 343.18359375 368" opacity="0.2"/></g><g transform="translate(-85,-70) scale(1,1)"><path fill="#f1d9c2" stroke="none" d="M 264 338 L 326.18359375 338 L 326.18359375 371 L 264 371"/></g><g transform="translate(-85,-70) scale(1,1)"><path fill="#f1d9c2" stroke="none" d="M 264 338 L 274 328 L 336.18359375 328 L 326.18359375 338"/></g><g transform="translate(-85,-70) scale(1,1)"><path fill="#f1d9c2" stroke="none" d="M 336.18359375 328 L 326.18359375 338 L 326.18359375 371 L 336.18359375 361"/></g><g transform="translate(-85,-70) scale(1,1)"><path fill="none" stroke="#000000" d="M 264 338 L 326.18359375 338 L 326.18359375 371 L 264 371 L 264 338" stroke-miterlimit="10"/></g><g transform="translate(-85,-70) scale(1,1)"><path fill="none" stroke="#000000" d="M 264 338 L 274 328 L 336.18359375 328 L 326.18359375 338 L 264 338" stroke-miterlimit="10"/></g><g transform="translate(-85,-70) scale(1,1)"><path fill="none" stroke="#000000" d="M 336.18359375 328 L 326.18359375 338 L 326.18359375 371 L 336.18359375 361 L 336.18359375 328" stroke-miterlimit="10"/></g><g transform="translate(-85,-70) scale(1,1)"><g><path fill="none" stroke="none"/><text fill="#000000" stroke="none" font-family="Arial" font-size="13px" font-style="normal" font-weight="bold" text-decoration="none" x="272.114990234375" y="356">Client 2</text></g></g><g transform="translate(-85,-70) scale(1,1)"><path fill="none" stroke="#000000" d="M 296 233 L 296 328" stroke-miterlimit="10"/></g><g transform="translate(-85,-70) scale(1,1)"><path fill="#C0C0C0" stroke="none" d="M 383 345 L 445.18359375 345 L 445.18359375 378 L 383 378" opacity="0.2"/></g><g transform="translate(-85,-70) scale(1,1)"><path fill="#C0C0C0" stroke="none" d="M 383 345 L 393 335 L 455.18359375 335 L 445.18359375 345" opacity="0.2"/></g><g transform="translate(-85,-70) scale(1,1)"><path fill="#C0C0C0" stroke="none" d="M 455.18359375 335 L 445.18359375 345 L 445.18359375 378 L 455.18359375 368" opacity="0.2"/></g><g transform="translate(-85,-70) scale(1,1)"><path fill="#f1d9c2" stroke="none" d="M 376 338 L 438.18359375 338 L 438.18359375 371 L 376 371"/></g><g transform="translate(-85,-70) scale(1,1)"><path fill="#f1d9c2" stroke="none" d="M 376 338 L 386 328 L 448.18359375 328 L 438.18359375 338"/></g><g transform="translate(-85,-70) scale(1,1)"><path fill="#f1d9c2" stroke="none" d="M 448.18359375 328 L 438.18359375 338 L 438.18359375 371 L 448.18359375 361"/></g><g transform="translate(-85,-70) scale(1,1)"><path fill="none" stroke="#000000" d="M 376 338 L 438.18359375 338 L 438.18359375 371 L 376 371 L 376 338" stroke-miterlimit="10"/></g><g transform="translate(-85,-70) scale(1,1)"><path fill="none" stroke="#000000" d="M 376 338 L 386 328 L 448.18359375 328 L 438.18359375 338 L 376 338" stroke-miterlimit="10"/></g><g transform="translate(-85,-70) scale(1,1)"><path fill="none" stroke="#000000" d="M 448.18359375 328 L 438.18359375 338 L 438.18359375 371 L 448.18359375 361 L 448.18359375 328" stroke-miterlimit="10"/></g><g transform="translate(-85,-70) scale(1,1)"><g><path fill="none" stroke="none"/><text fill="#000000" stroke="none" font-family="Arial" font-size="13px" font-style="normal" font-weight="bold" text-decoration="none" x="383.759521484375" y="356">Client n</text></g></g><g transform="translate(-85,-70) scale(1,1)"><path fill="none" stroke="#000000" d="M 296 233 L 296 272 L 404 272 L 404 328" stroke-miterlimit="10"/></g><g transform="translate(-85,-70) scale(1,1)"><path fill="none" stroke="#000000" d="M 296 164 L 296 189" stroke-miterlimit="10"/></g></g></svg>