<svg version="1.1" xmlns="http://www.w3.org/2000/svg" xmlns:xlink="http://www.w3.org/1999/xlink" width="436" height="619"><defs/><g><g transform="translate(-246,-14) scale(1,1)"><path fill="none" stroke="#000000" d="M 256 24 L 672 24 L 672 623 L 256 623 L 256 24" stroke-miterlimit="10"/></g><g transform="translate(-246,-14) scale(1,1)"><path fill="#ffffff" stroke="none" d="M 256 24 L 256 46 L 475.759765625 46 L 486.759765625 35 L 486.759765625 24 L 256 24"/></g><g transform="translate(-246,-14) scale(1,1)"><path fill="none" stroke="#000000" d="M 256 24 L 256 46 L 475.759765625 46 L 486.759765625 35 L 486.759765625 24 L 256 24 L 256 24" stroke-miterlimit="10"/></g><g transform="translate(-246,-14) scale(1,1)"><g><path fill="none" stroke="none"/><text fill="#000000" stroke="none" font-family="Arial" font-size="13px" font-style="normal" font-weight="normal" text-decoration="none" x="284.341796875" y="40">ActivityDiagram1 - 217Y1A05C0</text></g></g><g transform="translate(-246,-14) scale(1,1)"><g><path fill="none" stroke="none"/><text fill="#000000" stroke="none" font-family="Arial" font-size="13px" font-style="normal" font-weight="bold" text-decoration="none" x="260.2763671875" y="39.5">act</text></g></g><g transform="translate(-246,-14) scale(1,1)"><path fill="#C0C0C0" stroke="none" d="M 305 124 L 373 124 Q 383 124 383 134 L 383 162 Q 383 172 373 172 L 305 172 Q 295 172 295 162 L 295 134 Q 295 124 305 124 Z" opacity="0.2"/></g><g transform="translate(-246,-14) scale(1,1)"><path fill="#d8e1f8" stroke="none" d="M 298 117 L 366 117 Q 376 117 376 127 L 376 155 Q 376 165 366 165 L 298 165 Q 288 165 288 155 L 288 127 Q 288 117 298 117 Z"/></g><g transform="translate(-246,-14) scale(1,1)"><path fill="none" stroke="#000000" d="M 298 117 L 366 117 Q 376 117 376 127 L 376 155 Q 376 165 366 165 L 298 165 Q 288 165 288 155 L 288 127 Q 288 117 298 117 Z" stroke-miterlimit="10"/></g><g transform="translate(-246,-14) scale(1,1)"><g><path fill="none" stroke="none"/><text fill="#000000" stroke="none" font-family="Arial" font-size="13px" font-style="normal" font-weight="bold" text-decoration="none" x="314.312255859375" y="135">Login</text></g></g><g transform="translate(-246,-14) scale(1,1)"><path fill="#C0C0C0" stroke="none" d="M 367 88.5 C 367 83.2532944 371.2532944 79 376.5 79 C 381.7467056 79 386 83.2532944 386 88.5 C 386 93.7467056 381.7467056 98 376.5 98 C 371.2532944 98 367 93.7467056 367 88.5 Z" opacity="0.2"/></g><g transform="translate(-246,-14) scale(1,1)"><path fill="#000000" stroke="none" d="M 360 81.5 C 360 76.2532944 364.2532944 72 369.5 72 C 374.7467056 72 379 76.2532944 379 81.5 C 379 86.7467056 374.7467056 91 369.5 91 C 364.2532944 91 360 86.7467056 360 81.5 Z"/></g><g transform="translate(-246,-14) scale(1,1)"><path fill="none" stroke="#000000" d="M 362 92 L 347 116" stroke-miterlimit="10"/></g><g transform="translate(-246,-14) scale(1,1)"><path fill="none" stroke="#000000" d="M 348.8165429843569 105.15102900796653 L 347 116 L 355.95587081991863 109.6131089051926" stroke-miterlimit="10"/></g><g transform="translate(-246,-14) scale(1,1)"><path fill="#C0C0C0" stroke="none" d="M 488 122 L 585.341796875 122 Q 595.341796875 122 595.341796875 132 L 595.341796875 165 Q 595.341796875 175 585.341796875 175 L 488 175 Q 478 175 478 165 L 478 132 Q 478 122 488 122 Z" opacity="0.2"/></g><g transform="translate(-246,-14) scale(1,1)"><path fill="#d8e1f8" stroke="none" d="M 481 115 L 578.341796875 115 Q 588.341796875 115 588.341796875 125 L 588.341796875 158 Q 588.341796875 168 578.341796875 168 L 481 168 Q 471 168 471 158 L 471 125 Q 471 115 481 115 Z"/></g><g transform="translate(-246,-14) scale(1,1)"><path fill="none" stroke="#000000" d="M 481 115 L 578.341796875 115 Q 588.341796875 115 588.341796875 125 L 588.341796875 158 Q 588.341796875 168 578.341796875 168 L 481 168 Q 471 168 471 158 L 471 125 Q 471 115 481 115 Z" stroke-miterlimit="10"/></g><g transform="translate(-246,-14) scale(1,1)"><g><path fill="none" stroke="none"/><text fill="#000000" stroke="none" font-family="Arial" font-size="13px" font-style="normal" font-weight="bold" text-decoration="none" x="494.635009765625" y="133">Verify login</text></g></g><g transform="translate(-246,-14) scale(1,1)"><path fill="none" stroke="#000000" d="M 377 141 L 470 141" stroke-miterlimit="10"/></g><g transform="translate(-246,-14) scale(1,1)"><path fill="none" stroke="#000000" d="M 459.83732514237585 145.209517756016 L 470 141 L 459.83732514237585 136.790482243984" stroke-miterlimit="10"/></g><g transform="translate(-246,-14) scale(1,1)"><path fill="#C0C0C0" stroke="none" d="M 488 223 L 585.341796875 223 Q 595.341796875 223 595.341796875 233 L 595.341796875 266 Q 595.341796875 276 585.341796875 276 L 488 276 Q 478 276 478 266 L 478 233 Q 478 223 488 223 Z" opacity="0.2"/></g><g transform="translate(-246,-14) scale(1,1)"><path fill="#d8e1f8" stroke="none" d="M 481 216 L 578.341796875 216 Q 588.341796875 216 588.341796875 226 L 588.341796875 259 Q 588.341796875 269 578.341796875 269 L 481 269 Q 471 269 471 259 L 471 226 Q 471 216 481 216 Z"/></g><g transform="translate(-246,-14) scale(1,1)"><path fill="none" stroke="#000000" d="M 481 216 L 578.341796875 216 Q 588.341796875 216 588.341796875 226 L 588.341796875 259 Q 588.341796875 269 578.341796875 269 L 481 269 Q 471 269 471 259 L 471 226 Q 471 216 481 216 Z" stroke-miterlimit="10"/></g><g transform="translate(-246,-14) scale(1,1)"><g><path fill="none" stroke="none"/><text fill="#000000" stroke="none" font-family="Arial" font-size="13px" font-style="normal" font-weight="bold" text-decoration="none" x="475.5" y="234">Request for Book</text></g></g><g transform="translate(-246,-14) scale(1,1)"><path fill="none" stroke="#000000" d="M 529 169 L 529 215" stroke-miterlimit="10"/></g><g transform="translate(-246,-14) scale(1,1)"><path fill="none" stroke="#000000" d="M 524.790482243984 204.83732514237585 L 529 215 L 533.209517756016 204.83732514237585" stroke-miterlimit="10"/></g><g transform="translate(-246,-14) scale(1,1)"><path fill="#C0C0C0" stroke="none" d="M 305 225 L 373 225 Q 383 225 383 235 L 383 263 Q 383 273 373 273 L 305 273 Q 295 273 295 263 L 295 235 Q 295 225 305 225 Z" opacity="0.2"/></g><g transform="translate(-246,-14) scale(1,1)"><path fill="#d8e1f8" stroke="none" d="M 298 218 L 366 218 Q 376 218 376 228 L 376 256 Q 376 266 366 266 L 298 266 Q 288 266 288 256 L 288 228 Q 288 218 298 218 Z"/></g><g transform="translate(-246,-14) scale(1,1)"><path fill="none" stroke="#000000" d="M 298 218 L 366 218 Q 376 218 376 228 L 376 256 Q 376 266 366 266 L 298 266 Q 288 266 288 256 L 288 228 Q 288 218 298 218 Z" stroke-miterlimit="10"/></g><g transform="translate(-246,-14) scale(1,1)"><g><path fill="none" stroke="none"/><text fill="#000000" stroke="none" font-family="Arial" font-size="13px" font-style="normal" font-weight="bold" text-decoration="none" x="293.352294921875" y="236">Book issued</text></g></g><g transform="translate(-246,-14) scale(1,1)"><path fill="none" stroke="#000000" d="M 470 242 L 377 242" stroke-miterlimit="10"/></g><g transform="translate(-246,-14) scale(1,1)"><path fill="none" stroke="#000000" d="M 387.16267485762415 237.790482243984 L 377 242 L 387.16267485762415 246.209517756016" stroke-miterlimit="10"/></g><g transform="translate(-246,-14) scale(1,1)"><path fill="#C0C0C0" stroke="none" d="M 287 363.5 L 340 327 L 392 363.5 L 340 399 L 287 363.5" opacity="0.2"/></g><g transform="translate(-246,-14) scale(1,1)"><path fill="#ffffff" stroke="none" d="M 280 356 L 332.5 320 L 385 356 L 332.5 392 L 280 356"/></g><g transform="translate(-246,-14) scale(1,1)"><path fill="none" stroke="#000000" d="M 280 356 L 332.5 320 L 385 356 L 332.5 392 L 280 356 L 280 356" stroke-miterlimit="10"/></g><g transform="translate(-246,-14) scale(1,1)"><path fill="none" stroke="#000000" d="M 332 267 L 332 319" stroke-miterlimit="10"/></g><g transform="translate(-246,-14) scale(1,1)"><path fill="none" stroke="#000000" d="M 327.790482243984 308.83732514237585 L 332 319 L 336.209517756016 308.83732514237585" stroke-miterlimit="10"/></g><g transform="translate(-246,-14) scale(1,1)"><path fill="#C0C0C0" stroke="none" d="M 305 439 L 373 439 Q 383 439 383 449 L 383 477 Q 383 487 373 487 L 305 487 Q 295 487 295 477 L 295 449 Q 295 439 305 439 Z" opacity="0.2"/></g><g transform="translate(-246,-14) scale(1,1)"><path fill="#d8e1f8" stroke="none" d="M 298 432 L 366 432 Q 376 432 376 442 L 376 470 Q 376 480 366 480 L 298 480 Q 288 480 288 470 L 288 442 Q 288 432 298 432 Z"/></g><g transform="translate(-246,-14) scale(1,1)"><path fill="none" stroke="#000000" d="M 298 432 L 366 432 Q 376 432 376 442 L 376 470 Q 376 480 366 480 L 298 480 Q 288 480 288 470 L 288 442 Q 288 432 298 432 Z" stroke-miterlimit="10"/></g><g transform="translate(-246,-14) scale(1,1)"><g><path fill="none" stroke="none"/><text fill="#000000" stroke="none" font-family="Arial" font-size="13px" font-style="normal" font-weight="bold" text-decoration="none" x="309.602294921875" y="450">Invoice</text></g></g><g transform="translate(-246,-14) scale(1,1)"><path fill="none" stroke="#000000" d="M 332 393 L 332 431" stroke-miterlimit="10"/></g><g transform="translate(-246,-14) scale(1,1)"><path fill="none" stroke="#000000" d="M 327.790482243984 420.83732514237585 L 332 431 L 336.209517756016 420.83732514237585" stroke-miterlimit="10"/></g><g transform="translate(-246,-14) scale(1,1)"><g><path fill="none" stroke="none"/><text fill="#000000" stroke="none" font-family="Arial" font-size="13px" font-style="normal" font-weight="normal" text-decoration="none" x="351.5" y="416">Fine</text></g></g><g transform="translate(-246,-14) scale(1,1)"><path fill="#C0C0C0" stroke="none" d="M 488 327 L 612 327 Q 622 327 622 337 L 622 370 Q 622 380 612 380 L 488 380 Q 478 380 478 370 L 478 337 Q 478 327 488 327 Z" opacity="0.2"/></g><g transform="translate(-246,-14) scale(1,1)"><path fill="#d8e1f8" stroke="none" d="M 481 320 L 605 320 Q 615 320 615 330 L 615 363 Q 615 373 605 373 L 481 373 Q 471 373 471 363 L 471 330 Q 471 320 481 320 Z"/></g><g transform="translate(-246,-14) scale(1,1)"><path fill="none" stroke="#000000" d="M 481 320 L 605 320 Q 615 320 615 330 L 615 363 Q 615 373 605 373 L 481 373 Q 471 373 471 363 L 471 330 Q 471 320 481 320 Z" stroke-miterlimit="10"/></g><g transform="translate(-246,-14) scale(1,1)"><g><path fill="none" stroke="none"/><text fill="#000000" stroke="none" font-family="Arial" font-size="13px" font-style="normal" font-weight="bold" text-decoration="none" x="479.799560546875" y="338">Return &amp; request for</text><text fill="#000000" stroke="none" font-family="Arial" font-size="13px" font-style="normal" font-weight="bold" text-decoration="none" x="506.161376953125" y="351">Digital copy</text></g></g><g transform="translate(-246,-14) scale(1,1)"><path fill="none" stroke="#000000" d="M 386 353 L 470 349" stroke-miterlimit="10"/></g><g transform="translate(-246,-14) scale(1,1)"><path fill="none" stroke="#000000" d="M 460.0490542316979 353.68814230973317 L 470 349 L 459.6486015496341 345.2786359863939" stroke-miterlimit="10"/></g><g transform="translate(-246,-14) scale(1,1)"><g><path fill="none" stroke="none"/><text fill="#000000" stroke="none" font-family="Arial" font-size="13px" font-style="normal" font-weight="normal" text-decoration="none" x="393.5" y="341">Bad Quality</text></g></g><g transform="translate(-246,-14) scale(1,1)"><g><path fill="none" stroke="none"/><text fill="#000000" stroke="none" font-family="Arial" font-size="13px" font-style="normal" font-weight="normal" text-decoration="none" x="309" y="351">Book</text><text fill="#000000" stroke="none" font-family="Arial" font-size="13px" font-style="normal" font-weight="normal" text-decoration="none" x="309" y="364">Quality</text></g></g><g transform="translate(-246,-14) scale(1,1)"><path fill="none" stroke="#000000" d="M 544 373 L 544 448 M 544 448 A 8 8 0 0 1 536 456 L 376 456" stroke-miterlimit="10"/></g><g transform="translate(-246,-14) scale(1,1)"><path fill="none" stroke="#000000" d="M 386.16267485762415 451.790482243984 L 376 456 L 386.16267485762415 460.209517756016" stroke-miterlimit="10"/></g><g transform="translate(-246,-14) scale(1,1)"><path fill="#C0C0C0" stroke="none" d="M 305 519 L 373 519 Q 383 519 383 529 L 383 557 Q 383 567 373 567 L 305 567 Q 295 567 295 557 L 295 529 Q 295 519 305 519 Z" opacity="0.2"/></g><g transform="translate(-246,-14) scale(1,1)"><path fill="#d8e1f8" stroke="none" d="M 298 512 L 366 512 Q 376 512 376 522 L 376 550 Q 376 560 366 560 L 298 560 Q 288 560 288 550 L 288 522 Q 288 512 298 512 Z"/></g><g transform="translate(-246,-14) scale(1,1)"><path fill="none" stroke="#000000" d="M 298 512 L 366 512 Q 376 512 376 522 L 376 550 Q 376 560 366 560 L 298 560 Q 288 560 288 550 L 288 522 Q 288 512 298 512 Z" stroke-miterlimit="10"/></g><g transform="translate(-246,-14) scale(1,1)"><g><path fill="none" stroke="none"/><text fill="#000000" stroke="none" font-family="Arial" font-size="13px" font-style="normal" font-weight="bold" text-decoration="none" x="309.983154296875" y="530">Logout</text></g></g><g transform="translate(-246,-14) scale(1,1)"><path fill="none" stroke="#000000" d="M 332 481 L 332 511" stroke-miterlimit="10"/></g><g transform="translate(-246,-14) scale(1,1)"><path fill="none" stroke="#000000" d="M 327.790482243984 500.83732514237585 L 332 511 L 336.209517756016 500.83732514237585" stroke-miterlimit="10"/></g><g transform="translate(-246,-14) scale(1,1)"><path fill="#C0C0C0" stroke="none" d="M 479 555.5 C 479 548.59644 484.59644 543 491.5 543 C 498.40356 543 504 548.59644 504 555.5 C 504 562.40356 498.40356 568 491.5 568 C 484.59644 568 479 562.40356 479 555.5 Z" opacity="0.2"/></g><g transform="translate(-246,-14) scale(1,1)"><path fill="none" stroke="#000000" d="M 472 548.5 C 472 541.59644 477.59644 536 484.5 536 C 491.40356 536 497 541.59644 497 548.5 C 497 555.40356 491.40356 561 484.5 561 C 477.59644 561 472 555.40356 472 548.5 Z" stroke-miterlimit="10"/></g><g transform="translate(-246,-14) scale(1,1)"><path fill="#000000" stroke="none" d="M 477 548.5 C 477 544.357864 480.357864 541 484.5 541 C 488.642136 541 492 544.357864 492 548.5 C 492 552.642136 488.642136 556 484.5 556 C 480.357864 556 477 552.642136 477 548.5 Z"/></g><g transform="translate(-246,-14) scale(1,1)"><path fill="none" stroke="#000000" d="M 377 540 L 471 547" stroke-miterlimit="10"/></g><g transform="translate(-246,-14) scale(1,1)"><path fill="none" stroke="#000000" d="M 460.5527778796978 550.4431889243939 L 471 547 L 461.1779961568269 542.0474006315176" stroke-miterlimit="10"/></g></g></svg>