<svg version="1.1" xmlns="http://www.w3.org/2000/svg" xmlns:xlink="http://www.w3.org/1999/xlink" width="596.77001953125" height="348"><defs/><g><g transform="translate(-46,-102) scale(1,1)"><path fill="none" stroke="#000000" d="M 56 112 L 632 112 L 632 440 L 56 440 L 56 112" stroke-miterlimit="10"/></g><g transform="translate(-46,-102) scale(1,1)"><path fill="#ffffff" stroke="none" d="M 56 112 L 56 134 L 284.443359375 134 L 295.443359375 123 L 295.443359375 112 L 56 112"/></g><g transform="translate(-46,-102) scale(1,1)"><path fill="none" stroke="#000000" d="M 56 112 L 56 134 L 284.443359375 134 L 295.443359375 123 L 295.443359375 112 L 56 112 L 56 112" stroke-miterlimit="10"/></g><g transform="translate(-46,-102) scale(1,1)"><g><path fill="none" stroke="none"/><text fill="#000000" stroke="none" font-family="Arial" font-size="13px" font-style="normal" font-weight="normal" text-decoration="none" x="80.72998046875" y="128">217Y1A05C0 - UseCaseDiagram1</text></g></g><g transform="translate(-46,-102) scale(1,1)"><g><path fill="none" stroke="none"/><text fill="#000000" stroke="none" font-family="Arial" font-size="13px" font-style="normal" font-weight="bold" text-decoration="none" x="60.279541015625" y="126.5">uc</text></g></g><g transform="translate(-46,-102) scale(1,1)"><path fill="#ffffff" stroke="none" d="M 89.02751438210227 217.68 C 89.02751438210227 212.886167936 92.91335670704773 209 97.706787109375 209 C 102.50021751170227 209 106.38605983664773 212.886167936 106.38605983664773 217.68 C 106.38605983664773 222.47383206400002 102.50021751170227 226.36 97.706787109375 226.36 C 92.91335670704773 226.36 89.02751438210227 222.47383206400002 89.02751438210227 217.68 Z"/></g><g transform="translate(-46,-102) scale(1,1)"><path fill="none" stroke="#000000" d="M 89.02751438210227 217.68 C 89.02751438210227 212.886167936 92.91335670704773 209 97.706787109375 209 C 102.50021751170227 209 106.38605983664773 212.886167936 106.38605983664773 217.68 C 106.38605983664773 222.47383206400002 102.50021751170227 226.36 97.706787109375 226.36 C 92.91335670704773 226.36 89.02751438210227 222.47383206400002 89.02751438210227 217.68 Z" stroke-miterlimit="10"/></g><g transform="translate(-46,-102) scale(1,1)"><path fill="none" stroke="#000000" d="M 97.706787109375 226.36 L 97.706787109375 243.64" stroke-miterlimit="10"/></g><g transform="translate(-46,-102) scale(1,1)"><path fill="none" stroke="#000000" d="M 88.51696892755682 232.84 L 106.89660529119318 232.84" stroke-miterlimit="10"/></g><g transform="translate(-46,-102) scale(1,1)"><path fill="none" stroke="#000000" d="M 97.706787109375 243.64 L 84.94315074573863 261" stroke-miterlimit="10"/></g><g transform="translate(-46,-102) scale(1,1)"><path fill="none" stroke="#000000" d="M 97.706787109375 243.64 L 110.47042347301137 261" stroke-miterlimit="10"/></g><g transform="translate(-46,-102) scale(1,1)"><g><path fill="none" stroke="none"/><text fill="#000000" stroke="none" font-family="Arial" font-size="13px" font-style="normal" font-weight="bold" text-decoration="none" x="60.5" y="280">Shopkeeper</text></g></g><g transform="translate(-46,-102) scale(1,1)"><path fill="#ffffff" stroke="none" d="M 584.2057370383523 217.68 C 584.2057370383523 212.886167936 588.0915793632977 209 592.885009765625 209 C 597.6784401679523 209 601.5642824928977 212.886167936 601.5642824928977 217.68 C 601.5642824928977 222.47383206400002 597.6784401679523 226.36 592.885009765625 226.36 C 588.0915793632977 226.36 584.2057370383523 222.47383206400002 584.2057370383523 217.68 Z"/></g><g transform="translate(-46,-102) scale(1,1)"><path fill="none" stroke="#000000" d="M 584.2057370383523 217.68 C 584.2057370383523 212.886167936 588.0915793632977 209 592.885009765625 209 C 597.6784401679523 209 601.5642824928977 212.886167936 601.5642824928977 217.68 C 601.5642824928977 222.47383206400002 597.6784401679523 226.36 592.885009765625 226.36 C 588.0915793632977 226.36 584.2057370383523 222.47383206400002 584.2057370383523 217.68 Z" stroke-miterlimit="10"/></g><g transform="translate(-46,-102) scale(1,1)"><path fill="none" stroke="#000000" d="M 592.885009765625 226.36 L 592.885009765625 243.64" stroke-miterlimit="10"/></g><g transform="translate(-46,-102) scale(1,1)"><path fill="none" stroke="#000000" d="M 583.6951915838068 232.84 L 602.0748279474432 232.84" stroke-miterlimit="10"/></g><g transform="translate(-46,-102) scale(1,1)"><path fill="none" stroke="#000000" d="M 592.885009765625 243.64 L 580.1213734019886 261" stroke-miterlimit="10"/></g><g transform="translate(-46,-102) scale(1,1)"><path fill="none" stroke="#000000" d="M 592.885009765625 243.64 L 605.6486461292614 261" stroke-miterlimit="10"/></g><g transform="translate(-46,-102) scale(1,1)"><g><path fill="none" stroke="none"/><text fill="#000000" stroke="none" font-family="Arial" font-size="13px" font-style="normal" font-weight="bold" text-decoration="none" x="562.54638671875" y="280">Customer</text></g></g><g transform="translate(-46,-102) scale(1,1)"><path fill="#C0C0C0" stroke="none" d="M 283 160 C 283 150.6111584 315.90706720000003 143 356.5 143 C 397.09293279999997 143 430 150.6111584 430 160 C 430 169.3888416 397.09293279999997 177 356.5 177 C 315.90706720000003 177 283 169.3888416 283 160 Z" opacity="0.2"/></g><g transform="translate(-46,-102) scale(1,1)"><path fill="#d6ffae" stroke="none" d="M 276 153 C 276 143.6111584 308.90706720000003 136 349.5 136 C 390.09293279999997 136 423 143.6111584 423 153 C 423 162.3888416 390.09293279999997 170 349.5 170 C 308.90706720000003 170 276 162.3888416 276 153 Z"/></g><g transform="translate(-46,-102) scale(1,1)"><path fill="none" stroke="#000000" d="M 276 153 C 276 143.6111584 308.90706720000003 136 349.5 136 C 390.09293279999997 136 423 143.6111584 423 153 C 423 162.3888416 390.09293279999997 170 349.5 170 C 308.90706720000003 170 276 162.3888416 276 153 Z" stroke-miterlimit="10"/></g><g transform="translate(-46,-102) scale(1,1)"><g><path fill="none" stroke="none"/><text fill="#000000" stroke="none" font-family="Arial" font-size="13px" font-style="normal" font-weight="bold" text-decoration="none" x="301.82275390625" y="158.5">Product Details</text></g></g><g transform="translate(-46,-102) scale(1,1)"><path fill="#C0C0C0" stroke="none" d="M 271 211 C 271 201.6111584 309.055792 194 356 194 C 402.944208 194 441 201.6111584 441 211 C 441 220.3888416 402.944208 228 356 228 C 309.055792 228 271 220.3888416 271 211 Z" opacity="0.2"/></g><g transform="translate(-46,-102) scale(1,1)"><path fill="#d6ffae" stroke="none" d="M 264 204 C 264 194.6111584 302.055792 187 349 187 C 395.944208 187 434 194.6111584 434 204 C 434 213.3888416 395.944208 221 349 221 C 302.055792 221 264 213.3888416 264 204 Z"/></g><g transform="translate(-46,-102) scale(1,1)"><path fill="none" stroke="#000000" d="M 264 204 C 264 194.6111584 302.055792 187 349 187 C 395.944208 187 434 194.6111584 434 204 C 434 213.3888416 395.944208 221 349 221 C 302.055792 221 264 213.3888416 264 204 Z" stroke-miterlimit="10"/></g><g transform="translate(-46,-102) scale(1,1)"><g><path fill="none" stroke="none"/><text fill="#000000" stroke="none" font-family="Arial" font-size="13px" font-style="normal" font-weight="bold" text-decoration="none" x="296.61279296875" y="209.5">Purchase Details</text></g></g><g transform="translate(-46,-102) scale(1,1)"><path fill="#C0C0C0" stroke="none" d="M 292 313 C 292 303.6111584 320.6537728 296 356 296 C 391.3462272 296 420 303.6111584 420 313 C 420 322.3888416 391.3462272 330 356 330 C 320.6537728 330 292 322.3888416 292 313 Z" opacity="0.2"/></g><g transform="translate(-46,-102) scale(1,1)"><path fill="#d6ffae" stroke="none" d="M 285 306 C 285 296.6111584 313.6537728 289 349 289 C 384.3462272 289 413 296.6111584 413 306 C 413 315.3888416 384.3462272 323 349 323 C 313.6537728 323 285 315.3888416 285 306 Z"/></g><g transform="translate(-46,-102) scale(1,1)"><path fill="none" stroke="#000000" d="M 285 306 C 285 296.6111584 313.6537728 289 349 289 C 384.3462272 289 413 296.6111584 413 306 C 413 315.3888416 384.3462272 323 349 323 C 313.6537728 323 285 315.3888416 285 306 Z" stroke-miterlimit="10"/></g><g transform="translate(-46,-102) scale(1,1)"><g><path fill="none" stroke="none"/><text fill="#000000" stroke="none" font-family="Arial" font-size="13px" font-style="normal" font-weight="bold" text-decoration="none" x="308.17822265625" y="311.5">Stock Details</text></g></g><g transform="translate(-46,-102) scale(1,1)"><path fill="#C0C0C0" stroke="none" d="M 266 415 C 266 405.6111584 306.294368 398 356 398 C 405.705632 398 446 405.6111584 446 415 C 446 424.3888416 405.705632 432 356 432 C 306.294368 432 266 424.3888416 266 415 Z" opacity="0.2"/></g><g transform="translate(-46,-102) scale(1,1)"><path fill="#d6ffae" stroke="none" d="M 259 408 C 259 398.6111584 299.294368 391 349 391 C 398.705632 391 439 398.6111584 439 408 C 439 417.3888416 398.705632 425 349 425 C 299.294368 425 259 417.3888416 259 408 Z"/></g><g transform="translate(-46,-102) scale(1,1)"><path fill="none" stroke="#000000" d="M 259 408 C 259 398.6111584 299.294368 391 349 391 C 398.705632 391 439 398.6111584 439 408 C 439 417.3888416 398.705632 425 349 425 C 299.294368 425 259 417.3888416 259 408 Z" stroke-miterlimit="10"/></g><g transform="translate(-46,-102) scale(1,1)"><g><path fill="none" stroke="none"/><text fill="#000000" stroke="none" font-family="Arial" font-size="13px" font-style="normal" font-weight="bold" text-decoration="none" x="289.779541015625" y="413.5">Supply the product</text></g></g><g transform="translate(-46,-102) scale(1,1)"><path fill="none" stroke="#000000" d="M 140 231 L 301 171" stroke-miterlimit="10"/></g><g transform="translate(-46,-102) scale(1,1)"><path fill="none" stroke="#000000" d="M 140 240 L 263 219" stroke-miterlimit="10"/></g><g transform="translate(-46,-102) scale(1,1)"><path fill="none" stroke="#000000" d="M 140 257 L 284 291" stroke-miterlimit="10"/></g><g transform="translate(-46,-102) scale(1,1)"><path fill="none" stroke="#000000" d="M 140 275 L 321 390" stroke-miterlimit="10"/></g><g transform="translate(-46,-102) scale(1,1)"><path fill="none" stroke="#000000" d="M 552 232 L 396 171" stroke-miterlimit="10"/></g><g transform="translate(-46,-102) scale(1,1)"><path fill="none" stroke="#000000" d="M 552 240 L 435 219" stroke-miterlimit="10"/></g><g transform="translate(-46,-102) scale(1,1)"><path fill="#C0C0C0" stroke="none" d="M 255 364 C 255 354.6111584 300.2192352 347 356 347 C 411.7807648 347 457 354.6111584 457 364 C 457 373.3888416 411.7807648 381 356 381 C 300.2192352 381 255 373.3888416 255 364 Z" opacity="0.2"/></g><g transform="translate(-46,-102) scale(1,1)"><path fill="#d6ffae" stroke="none" d="M 248 357 C 248 347.6111584 293.2192352 340 349 340 C 404.7807648 340 450 347.6111584 450 357 C 450 366.3888416 404.7807648 374 349 374 C 293.2192352 374 248 366.3888416 248 357 Z"/></g><g transform="translate(-46,-102) scale(1,1)"><path fill="none" stroke="#000000" d="M 248 357 C 248 347.6111584 293.2192352 340 349 340 C 404.7807648 340 450 347.6111584 450 357 C 450 366.3888416 404.7807648 374 349 374 C 293.2192352 374 248 366.3888416 248 357 Z" stroke-miterlimit="10"/></g><g transform="translate(-46,-102) scale(1,1)"><g><path fill="none" stroke="none"/><text fill="#000000" stroke="none" font-family="Arial" font-size="13px" font-style="normal" font-weight="bold" text-decoration="none" x="282.181396484375" y="362.5">Purchase the product</text></g></g><g transform="translate(-46,-102) scale(1,1)"><path fill="#C0C0C0" stroke="none" d="M 293 262 C 293 252.6111584 321.2060576 245 356 245 C 390.7939424 245 419 252.6111584 419 262 C 419 271.3888416 390.7939424 279 356 279 C 321.2060576 279 293 271.3888416 293 262 Z" opacity="0.2"/></g><g transform="translate(-46,-102) scale(1,1)"><path fill="#d6ffae" stroke="none" d="M 286 255 C 286 245.6111584 314.2060576 238 349 238 C 383.7939424 238 412 245.6111584 412 255 C 412 264.3888416 383.7939424 272 349 272 C 314.2060576 272 286 264.3888416 286 255 Z"/></g><g transform="translate(-46,-102) scale(1,1)"><path fill="none" stroke="#000000" d="M 286 255 C 286 245.6111584 314.2060576 238 349 238 C 383.7939424 238 412 245.6111584 412 255 C 412 264.3888416 383.7939424 272 349 272 C 314.2060576 272 286 264.3888416 286 255 Z" stroke-miterlimit="10"/></g><g transform="translate(-46,-102) scale(1,1)"><g><path fill="none" stroke="none"/><text fill="#000000" stroke="none" font-family="Arial" font-size="13px" font-style="normal" font-weight="bold" text-decoration="none" x="308.892333984375" y="260.5">Sales Details</text></g></g><g transform="translate(-46,-102) scale(1,1)"><path fill="#ffffff" stroke="none" d="M 85.05070774147727 361.68 C 85.05070774147727 356.886167936 88.93655006642273 353 93.72998046875 353 C 98.52341087107727 353 102.40925319602273 356.886167936 102.40925319602273 361.68 C 102.40925319602273 366.473832064 98.52341087107727 370.36 93.72998046875 370.36 C 88.93655006642273 370.36 85.05070774147727 366.473832064 85.05070774147727 361.68 Z"/></g><g transform="translate(-46,-102) scale(1,1)"><path fill="none" stroke="#000000" d="M 85.05070774147727 361.68 C 85.05070774147727 356.886167936 88.93655006642273 353 93.72998046875 353 C 98.52341087107727 353 102.40925319602273 356.886167936 102.40925319602273 361.68 C 102.40925319602273 366.473832064 98.52341087107727 370.36 93.72998046875 370.36 C 88.93655006642273 370.36 85.05070774147727 366.473832064 85.05070774147727 361.68 Z" stroke-miterlimit="10"/></g><g transform="translate(-46,-102) scale(1,1)"><path fill="none" stroke="#000000" d="M 93.72998046875 370.36 L 93.72998046875 387.64" stroke-miterlimit="10"/></g><g transform="translate(-46,-102) scale(1,1)"><path fill="none" stroke="#000000" d="M 84.54016228693182 376.84 L 102.91979865056818 376.84" stroke-miterlimit="10"/></g><g transform="translate(-46,-102) scale(1,1)"><path fill="none" stroke="#000000" d="M 93.72998046875 387.64 L 80.96634410511363 405" stroke-miterlimit="10"/></g><g transform="translate(-46,-102) scale(1,1)"><path fill="none" stroke="#000000" d="M 93.72998046875 387.64 L 106.49361683238637 405" stroke-miterlimit="10"/></g><g transform="translate(-46,-102) scale(1,1)"><g><path fill="none" stroke="none"/><text fill="#000000" stroke="none" font-family="Arial" font-size="13px" font-style="normal" font-weight="bold" text-decoration="none" x="60.5" y="424">Companey</text></g></g><g transform="translate(-46,-102) scale(1,1)"><path fill="none" stroke="#000000" d="M 140 266 L 308 339" stroke-miterlimit="10"/></g><g transform="translate(-46,-102) scale(1,1)"><path fill="none" stroke="#000000" d="M 140 248 L 285 253" stroke-miterlimit="10"/></g><g transform="translate(-46,-102) scale(1,1)"><path fill="none" stroke="#000000" d="M 132 378 L 295 324" stroke-miterlimit="10"/></g><g transform="translate(-46,-102) scale(1,1)"><path fill="none" stroke="#000000" d="M 132 394 L 258 402" stroke-miterlimit="10"/></g><g transform="translate(-46,-102) scale(1,1)"><path fill="none" stroke="#000000" d="M 552 265 L 389 339" stroke-miterlimit="10"/></g></g></svg>