<svg version="1.1" xmlns="http://www.w3.org/2000/svg" xmlns:xlink="http://www.w3.org/1999/xlink" width="660" height="332"><defs/><g><g transform="translate(2,-62) scale(1,1)"><path fill="none" stroke="#000000" d="M 8 72 L 648 72 L 648 384 L 8 384 L 8 72" stroke-miterlimit="10"/></g><g transform="translate(2,-62) scale(1,1)"><path fill="#ffffff" stroke="none" d="M 8 72 L 8 94 L 231.37158203125 94 L 242.37158203125 83 L 242.37158203125 72 L 8 72"/></g><g transform="translate(2,-62) scale(1,1)"><path fill="none" stroke="#000000" d="M 8 72 L 8 94 L 231.37158203125 94 L 242.37158203125 83 L 242.37158203125 72 L 8 72 L 8 72" stroke-miterlimit="10"/></g><g transform="translate(2,-62) scale(1,1)"><g><path fill="none" stroke="none"/><text fill="#000000" stroke="none" font-family="Arial" font-size="13px" font-style="normal" font-weight="normal" text-decoration="none" x="48.6181640625" y="88">217Y1A05C0 - ClassDiagram1</text></g></g><g transform="translate(2,-62) scale(1,1)"><g><path fill="none" stroke="none"/><text fill="#000000" stroke="none" font-family="Arial" font-size="13px" font-style="normal" font-weight="bold" text-decoration="none" x="11.543212890625" y="88">class</text></g></g><g transform="translate(2,-62) scale(1,1)"><rect fill="#C0C0C0" stroke="none" x="30" y="114" width="159" height="255" opacity="0.2"/></g><g transform="translate(2,-62) scale(1,1)"><rect fill="#d8e1f8" stroke="none" x="23" y="107" width="159" height="255"/></g><g transform="translate(2,-62) scale(1,1)"><path fill="none" stroke="#000000" d="M 23 107 L 182 107 L 182 362 L 23 362 L 23 107 Z Z" stroke-miterlimit="10"/></g><g transform="translate(2,-62) scale(1,1)"><path fill="none" stroke="#000000" d="M 23 132 L 182 132" stroke-miterlimit="10"/></g><g transform="translate(2,-62) scale(1,1)"><path fill="none" stroke="#000000" d="M 23 275 L 182 275" stroke-miterlimit="10"/></g><g transform="translate(2,-62) scale(1,1)"><g><path fill="none" stroke="none"/><text fill="#000000" stroke="none" font-family="Arial" font-size="13px" font-style="normal" font-weight="bold" text-decoration="none" x="78.30908203125" y="125">Student</text></g></g><g transform="translate(2,-62) scale(1,1)"><g><path fill="none" stroke="none"/><text fill="#000000" stroke="none" font-family="Arial" font-size="13px" font-style="normal" font-weight="normal" text-decoration="none" x="28" y="148">+id</text></g></g><g transform="translate(2,-62) scale(1,1)"><g><path fill="none" stroke="none"/><text fill="#000000" stroke="none" font-family="Arial" font-size="13px" font-style="normal" font-weight="normal" text-decoration="none" x="28" y="163">+Name</text></g></g><g transform="translate(2,-62) scale(1,1)"><g><path fill="none" stroke="none"/><text fill="#000000" stroke="none" font-family="Arial" font-size="13px" font-style="normal" font-weight="normal" text-decoration="none" x="28" y="178">+D.O.B</text></g></g><g transform="translate(2,-62) scale(1,1)"><g><path fill="none" stroke="none"/><text fill="#000000" stroke="none" font-family="Arial" font-size="13px" font-style="normal" font-weight="normal" text-decoration="none" x="28" y="193">+Gender</text></g></g><g transform="translate(2,-62) scale(1,1)"><g><path fill="none" stroke="none"/><text fill="#000000" stroke="none" font-family="Arial" font-size="13px" font-style="normal" font-weight="normal" text-decoration="none" x="28" y="208">+Qualifivation</text></g></g><g transform="translate(2,-62) scale(1,1)"><g><path fill="none" stroke="none"/><text fill="#000000" stroke="none" font-family="Arial" font-size="13px" font-style="normal" font-weight="normal" text-decoration="none" x="28" y="223">-Address</text></g></g><g transform="translate(2,-62) scale(1,1)"><g><path fill="none" stroke="none"/><text fill="#000000" stroke="none" font-family="Arial" font-size="13px" font-style="normal" font-weight="normal" text-decoration="none" x="28" y="238">-MobileNo</text></g></g><g transform="translate(2,-62) scale(1,1)"><g><path fill="none" stroke="none"/><text fill="#000000" stroke="none" font-family="Arial" font-size="13px" font-style="normal" font-weight="normal" text-decoration="none" x="28" y="253">-EmailID</text></g></g><g transform="translate(2,-62) scale(1,1)"><g><path fill="none" stroke="none"/><text fill="#000000" stroke="none" font-family="Arial" font-size="13px" font-style="normal" font-weight="normal" text-decoration="none" x="28" y="268">+Attribute1</text></g></g><g transform="translate(2,-62) scale(1,1)"><g><path fill="none" stroke="none"/><text fill="#000000" stroke="none" font-family="Arial" font-size="13px" font-style="normal" font-weight="normal" text-decoration="none" x="28" y="291">-addSudent()</text></g></g><g transform="translate(2,-62) scale(1,1)"><g><path fill="none" stroke="none"/><text fill="#000000" stroke="none" font-family="Arial" font-size="13px" font-style="normal" font-weight="normal" text-decoration="none" x="28" y="306">-updateStudent()</text></g></g><g transform="translate(2,-62) scale(1,1)"><g><path fill="none" stroke="none"/><text fill="#000000" stroke="none" font-family="Arial" font-size="13px" font-style="normal" font-weight="normal" text-decoration="none" x="28" y="321">-getLogin()</text></g></g><g transform="translate(2,-62) scale(1,1)"><rect fill="#C0C0C0" stroke="none" x="478" y="114" width="159" height="255" opacity="0.2"/></g><g transform="translate(2,-62) scale(1,1)"><rect fill="#d8e1f8" stroke="none" x="471" y="107" width="159" height="255"/></g><g transform="translate(2,-62) scale(1,1)"><path fill="none" stroke="#000000" d="M 471 107 L 630 107 L 630 362 L 471 362 L 471 107 Z Z" stroke-miterlimit="10"/></g><g transform="translate(2,-62) scale(1,1)"><path fill="none" stroke="#000000" d="M 471 132 L 630 132" stroke-miterlimit="10"/></g><g transform="translate(2,-62) scale(1,1)"><path fill="none" stroke="#000000" d="M 471 290 L 630 290" stroke-miterlimit="10"/></g><g transform="translate(2,-62) scale(1,1)"><g><path fill="none" stroke="none"/><text fill="#000000" stroke="none" font-family="Arial" font-size="13px" font-style="normal" font-weight="bold" text-decoration="none" x="511.839599609375" y="125">ExamDetails</text></g></g><g transform="translate(2,-62) scale(1,1)"><g><path fill="none" stroke="none"/><text fill="#000000" stroke="none" font-family="Arial" font-size="13px" font-style="normal" font-weight="normal" text-decoration="none" x="476" y="148">+examCode</text></g></g><g transform="translate(2,-62) scale(1,1)"><g><path fill="none" stroke="none"/><text fill="#000000" stroke="none" font-family="Arial" font-size="13px" font-style="normal" font-weight="normal" text-decoration="none" x="476" y="163">+examID</text></g></g><g transform="translate(2,-62) scale(1,1)"><g><path fill="none" stroke="none"/><text fill="#000000" stroke="none" font-family="Arial" font-size="13px" font-style="normal" font-weight="normal" text-decoration="none" x="476" y="178">+subjectName</text></g></g><g transform="translate(2,-62) scale(1,1)"><g><path fill="none" stroke="none"/><text fill="#000000" stroke="none" font-family="Arial" font-size="13px" font-style="normal" font-weight="normal" text-decoration="none" x="476" y="193">+Duration</text></g></g><g transform="translate(2,-62) scale(1,1)"><g><path fill="none" stroke="none"/><text fill="#000000" stroke="none" font-family="Arial" font-size="13px" font-style="normal" font-weight="normal" text-decoration="none" x="476" y="208">+DateofExam</text></g></g><g transform="translate(2,-62) scale(1,1)"><g><path fill="none" stroke="none"/><text fill="#000000" stroke="none" font-family="Arial" font-size="13px" font-style="normal" font-weight="normal" text-decoration="none" x="476" y="223">+Fee</text></g></g><g transform="translate(2,-62) scale(1,1)"><g><path fill="none" stroke="none"/><text fill="#000000" stroke="none" font-family="Arial" font-size="13px" font-style="normal" font-weight="normal" text-decoration="none" x="476" y="238">+ageLimit</text></g></g><g transform="translate(2,-62) scale(1,1)"><g><path fill="none" stroke="none"/><text fill="#000000" stroke="none" font-family="Arial" font-size="13px" font-style="normal" font-weight="normal" text-decoration="none" x="476" y="253">+Criteria</text></g></g><g transform="translate(2,-62) scale(1,1)"><g><path fill="none" stroke="none"/><text fill="#000000" stroke="none" font-family="Arial" font-size="13px" font-style="normal" font-weight="normal" text-decoration="none" x="476" y="268">+examCenterName</text></g></g><g transform="translate(2,-62) scale(1,1)"><g><path fill="none" stroke="none"/><text fill="#000000" stroke="none" font-family="Arial" font-size="13px" font-style="normal" font-weight="normal" text-decoration="none" x="476" y="283">+examCenterCode</text></g></g><g transform="translate(2,-62) scale(1,1)"><g><path fill="none" stroke="none"/><text fill="#000000" stroke="none" font-family="Arial" font-size="13px" font-style="normal" font-weight="normal" text-decoration="none" x="476" y="306">+addExam()</text></g></g><g transform="translate(2,-62) scale(1,1)"><rect fill="#C0C0C0" stroke="none" x="254" y="114" width="159" height="255" opacity="0.2"/></g><g transform="translate(2,-62) scale(1,1)"><rect fill="#d8e1f8" stroke="none" x="247" y="107" width="159" height="255"/></g><g transform="translate(2,-62) scale(1,1)"><path fill="none" stroke="#000000" d="M 247 107 L 406 107 L 406 362 L 247 362 L 247 107 Z Z" stroke-miterlimit="10"/></g><g transform="translate(2,-62) scale(1,1)"><path fill="none" stroke="#000000" d="M 247 132 L 406 132" stroke-miterlimit="10"/></g><g transform="translate(2,-62) scale(1,1)"><path fill="none" stroke="#000000" d="M 247 260 L 406 260" stroke-miterlimit="10"/></g><g transform="translate(2,-62) scale(1,1)"><g><path fill="none" stroke="none"/><text fill="#000000" stroke="none" font-family="Arial" font-size="13px" font-style="normal" font-weight="bold" text-decoration="none" x="300.490478515625" y="125">Register</text></g></g><g transform="translate(2,-62) scale(1,1)"><g><path fill="none" stroke="none"/><text fill="#000000" stroke="none" font-family="Arial" font-size="13px" font-style="normal" font-weight="normal" text-decoration="none" x="252" y="148">+id</text></g></g><g transform="translate(2,-62) scale(1,1)"><g><path fill="none" stroke="none"/><text fill="#000000" stroke="none" font-family="Arial" font-size="13px" font-style="normal" font-weight="normal" text-decoration="none" x="252" y="163">+examCode</text></g></g><g transform="translate(2,-62) scale(1,1)"><g><path fill="none" stroke="none"/><text fill="#000000" stroke="none" font-family="Arial" font-size="13px" font-style="normal" font-weight="normal" text-decoration="none" x="252" y="178">+subjectID</text></g></g><g transform="translate(2,-62) scale(1,1)"><g><path fill="none" stroke="none"/><text fill="#000000" stroke="none" font-family="Arial" font-size="13px" font-style="normal" font-weight="normal" text-decoration="none" x="252" y="193">+NoOfStudents</text></g></g><g transform="translate(2,-62) scale(1,1)"><g><path fill="none" stroke="none"/><text fill="#000000" stroke="none" font-family="Arial" font-size="13px" font-style="normal" font-weight="normal" text-decoration="none" x="252" y="208">+Fee</text></g></g><g transform="translate(2,-62) scale(1,1)"><g><path fill="none" stroke="none"/><text fill="#000000" stroke="none" font-family="Arial" font-size="13px" font-style="normal" font-weight="normal" text-decoration="none" x="252" y="223">+DDNo</text></g></g><g transform="translate(2,-62) scale(1,1)"><g><path fill="none" stroke="none"/><text fill="#000000" stroke="none" font-family="Arial" font-size="13px" font-style="normal" font-weight="normal" text-decoration="none" x="252" y="238">+RegID</text></g></g><g transform="translate(2,-62) scale(1,1)"><g><path fill="none" stroke="none"/><text fill="#000000" stroke="none" font-family="Arial" font-size="13px" font-style="normal" font-weight="normal" text-decoration="none" x="252" y="253">+examCenterCode</text></g></g><g transform="translate(2,-62) scale(1,1)"><g><path fill="none" stroke="none"/><text fill="#000000" stroke="none" font-family="Arial" font-size="13px" font-style="normal" font-weight="normal" text-decoration="none" x="252" y="276">+getRegister()</text></g></g><g transform="translate(2,-62) scale(1,1)"><g><path fill="none" stroke="none"/><text fill="#000000" stroke="none" font-family="Arial" font-size="13px" font-style="normal" font-weight="normal" text-decoration="none" x="252" y="291">+cancleReg()</text></g></g><g transform="translate(2,-62) scale(1,1)"><g><path fill="none" stroke="none"/><text fill="#000000" stroke="none" font-family="Arial" font-size="13px" font-style="normal" font-weight="normal" text-decoration="none" x="252" y="306">+verifyInfo()</text></g></g><g transform="translate(2,-62) scale(1,1)"><path fill="none" stroke="#000000" d="M 183 234 L 246 234" stroke-miterlimit="10"/></g><g transform="translate(2,-62) scale(1,1)"><path fill="none" stroke="#000000" d="M 407 234 L 470 234" stroke-miterlimit="10"/></g></g></svg>