<svg version="1.1" xmlns="http://www.w3.org/2000/svg" xmlns:xlink="http://www.w3.org/1999/xlink" width="524" height="460"><defs/><g><g transform="translate(-126,-46) scale(1,1)"><path fill="none" stroke="#000000" d="M 136 56 L 640 56 L 640 496 L 136 496 L 136 56" stroke-miterlimit="10"/></g><g transform="translate(-126,-46) scale(1,1)"><path fill="#ffffff" stroke="none" d="M 136 56 L 136 78 L 359.37158203125 78 L 370.37158203125 67 L 370.37158203125 56 L 136 56"/></g><g transform="translate(-126,-46) scale(1,1)"><path fill="none" stroke="#000000" d="M 136 56 L 136 78 L 359.37158203125 78 L 370.37158203125 67 L 370.37158203125 56 L 136 56 L 136 56" stroke-miterlimit="10"/></g><g transform="translate(-126,-46) scale(1,1)"><g><path fill="none" stroke="none"/><text fill="#000000" stroke="none" font-family="Arial" font-size="13px" font-style="normal" font-weight="normal" text-decoration="none" x="176.6181640625" y="72">ClassDiagram1 - 217Y1A05C0</text></g></g><g transform="translate(-126,-46) scale(1,1)"><g><path fill="none" stroke="none"/><text fill="#000000" stroke="none" font-family="Arial" font-size="13px" font-style="normal" font-weight="bold" text-decoration="none" x="139.543212890625" y="72">class</text></g></g><g transform="translate(-126,-46) scale(1,1)"><rect fill="#C0C0C0" stroke="none" x="167" y="103" width="135.08349609375" height="160" opacity="0.2"/></g><g transform="translate(-126,-46) scale(1,1)"><rect fill="#d8e1f8" stroke="none" x="160" y="96" width="135.08349609375" height="160"/></g><g transform="translate(-126,-46) scale(1,1)"><path fill="none" stroke="#000000" d="M 160 96 L 295.08349609375 96 L 295.08349609375 256 L 160 256 L 160 96 Z Z" stroke-miterlimit="10"/></g><g transform="translate(-126,-46) scale(1,1)"><path fill="none" stroke="#000000" d="M 160 121 L 295.08349609375 121" stroke-miterlimit="10"/></g><g transform="translate(-126,-46) scale(1,1)"><path fill="none" stroke="#000000" d="M 160 174 L 295.08349609375 174" stroke-miterlimit="10"/></g><g transform="translate(-126,-46) scale(1,1)"><g><path fill="none" stroke="none"/><text fill="#000000" stroke="none" font-family="Arial" font-size="13px" font-style="normal" font-weight="bold" text-decoration="none" x="213.088134765625" y="114">User</text></g></g><g transform="translate(-126,-46) scale(1,1)"><g><path fill="none" stroke="none"/><text fill="#000000" stroke="none" font-family="Arial" font-size="13px" font-style="normal" font-weight="normal" text-decoration="none" x="165" y="137">+Name: string</text></g></g><g transform="translate(-126,-46) scale(1,1)"><g><path fill="none" stroke="none"/><text fill="#000000" stroke="none" font-family="Arial" font-size="13px" font-style="normal" font-weight="normal" text-decoration="none" x="165" y="152">+Id: int</text></g></g><g transform="translate(-126,-46) scale(1,1)"><g><path fill="none" stroke="none"/><text fill="#000000" stroke="none" font-family="Arial" font-size="13px" font-style="normal" font-weight="normal" text-decoration="none" x="165" y="167">+Dept: string</text></g></g><g transform="translate(-126,-46) scale(1,1)"><g><path fill="none" stroke="none"/><text fill="#000000" stroke="none" font-family="Arial" font-size="13px" font-style="normal" font-weight="normal" text-decoration="none" x="165" y="190">+Login()</text></g></g><g transform="translate(-126,-46) scale(1,1)"><g><path fill="none" stroke="none"/><text fill="#000000" stroke="none" font-family="Arial" font-size="13px" font-style="normal" font-weight="normal" text-decoration="none" x="165" y="205">+Details()</text></g></g><g transform="translate(-126,-46) scale(1,1)"><g><path fill="none" stroke="none"/><text fill="#000000" stroke="none" font-family="Arial" font-size="13px" font-style="normal" font-weight="normal" text-decoration="none" x="165" y="220">+requestBook()</text></g></g><g transform="translate(-126,-46) scale(1,1)"><g><path fill="none" stroke="none"/><text fill="#000000" stroke="none" font-family="Arial" font-size="13px" font-style="normal" font-weight="normal" text-decoration="none" x="165" y="235">+returnBook()</text></g></g><g transform="translate(-126,-46) scale(1,1)"><g><path fill="none" stroke="none"/><text fill="#000000" stroke="none" font-family="Arial" font-size="13px" font-style="normal" font-weight="normal" text-decoration="none" x="165" y="250">+Logout()</text></g></g><g transform="translate(-126,-46) scale(1,1)"><rect fill="#C0C0C0" stroke="none" x="487" y="103" width="135.08349609375" height="160" opacity="0.2"/></g><g transform="translate(-126,-46) scale(1,1)"><rect fill="#d8e1f8" stroke="none" x="480" y="96" width="135.08349609375" height="160"/></g><g transform="translate(-126,-46) scale(1,1)"><path fill="none" stroke="#000000" d="M 480 96 L 615.08349609375 96 L 615.08349609375 256 L 480 256 L 480 96 Z Z" stroke-miterlimit="10"/></g><g transform="translate(-126,-46) scale(1,1)"><path fill="none" stroke="#000000" d="M 480 121 L 615.08349609375 121" stroke-miterlimit="10"/></g><g transform="translate(-126,-46) scale(1,1)"><path fill="none" stroke="#000000" d="M 480 159 L 615.08349609375 159" stroke-miterlimit="10"/></g><g transform="translate(-126,-46) scale(1,1)"><g><path fill="none" stroke="none"/><text fill="#000000" stroke="none" font-family="Arial" font-size="13px" font-style="normal" font-weight="bold" text-decoration="none" x="519.7294921875" y="114">Librarian</text></g></g><g transform="translate(-126,-46) scale(1,1)"><g><path fill="none" stroke="none"/><text fill="#000000" stroke="none" font-family="Arial" font-size="13px" font-style="normal" font-weight="normal" text-decoration="none" x="485" y="137">+Name: string</text></g></g><g transform="translate(-126,-46) scale(1,1)"><g><path fill="none" stroke="none"/><text fill="#000000" stroke="none" font-family="Arial" font-size="13px" font-style="normal" font-weight="normal" text-decoration="none" x="485" y="152">-password: string</text></g></g><g transform="translate(-126,-46) scale(1,1)"><g><path fill="none" stroke="none"/><text fill="#000000" stroke="none" font-family="Arial" font-size="13px" font-style="normal" font-weight="normal" text-decoration="none" x="485" y="175">+searchBook()</text></g></g><g transform="translate(-126,-46) scale(1,1)"><g><path fill="none" stroke="none"/><text fill="#000000" stroke="none" font-family="Arial" font-size="13px" font-style="normal" font-weight="normal" text-decoration="none" x="485" y="190">+issueBook()</text></g></g><g transform="translate(-126,-46) scale(1,1)"><path fill="none" stroke="#000000" d="M 296 176 L 479 176" stroke-miterlimit="10"/></g><g transform="translate(-126,-46) scale(1,1)"><path fill="none" stroke="#000000" d="M 468.83732514237585 180.209517756016 L 479 176 L 468.83732514237585 171.790482243984" stroke-miterlimit="10"/></g><g transform="translate(-126,-46) scale(1,1)"><rect fill="#C0C0C0" stroke="none" x="487" y="327" width="135.08349609375" height="160" opacity="0.2"/></g><g transform="translate(-126,-46) scale(1,1)"><rect fill="#d8e1f8" stroke="none" x="480" y="320" width="135.08349609375" height="160"/></g><g transform="translate(-126,-46) scale(1,1)"><path fill="none" stroke="#000000" d="M 480 320 L 615.08349609375 320 L 615.08349609375 480 L 480 480 L 480 320 Z Z" stroke-miterlimit="10"/></g><g transform="translate(-126,-46) scale(1,1)"><path fill="none" stroke="#000000" d="M 480 345 L 615.08349609375 345" stroke-miterlimit="10"/></g><g transform="translate(-126,-46) scale(1,1)"><path fill="none" stroke="#000000" d="M 480 368 L 615.08349609375 368" stroke-miterlimit="10"/></g><g transform="translate(-126,-46) scale(1,1)"><g><path fill="none" stroke="none"/><text fill="#000000" stroke="none" font-family="Arial" font-size="13px" font-style="normal" font-weight="bold" text-decoration="none" x="524.417236328125" y="338">System</text></g></g><g transform="translate(-126,-46) scale(1,1)"><g><path fill="none" stroke="none"/><text fill="#000000" stroke="none" font-family="Arial" font-size="13px" font-style="normal" font-weight="normal" text-decoration="none" x="485" y="361">+Number: int</text></g></g><g transform="translate(-126,-46) scale(1,1)"><g><path fill="none" stroke="none"/><text fill="#000000" stroke="none" font-family="Arial" font-size="13px" font-style="normal" font-weight="normal" text-decoration="none" x="485" y="384">+displayPage()</text></g></g><g transform="translate(-126,-46) scale(1,1)"><g><path fill="none" stroke="none"/><text fill="#000000" stroke="none" font-family="Arial" font-size="13px" font-style="normal" font-weight="normal" text-decoration="none" x="485" y="399">+displayBookDetails()</text></g></g><g transform="translate(-126,-46) scale(1,1)"><path fill="none" stroke="#000000" d="M 547 257 L 547 319" stroke-miterlimit="10"/></g><g transform="translate(-126,-46) scale(1,1)"><path fill="none" stroke="#000000" d="M 542.790482243984 308.83732514237585 L 547 319 L 551.209517756016 308.83732514237585" stroke-miterlimit="10"/></g><g transform="translate(-126,-46) scale(1,1)"><rect fill="#C0C0C0" stroke="none" x="167" y="359" width="203.33349609375" height="100" opacity="0.2"/></g><g transform="translate(-126,-46) scale(1,1)"><rect fill="#d8e1f8" stroke="none" x="160" y="352" width="203.33349609375" height="100"/></g><g transform="translate(-126,-46) scale(1,1)"><path fill="none" stroke="#000000" d="M 160 352 L 363.33349609375 352 L 363.33349609375 452 L 160 452 L 160 352 Z Z" stroke-miterlimit="10"/></g><g transform="translate(-126,-46) scale(1,1)"><path fill="none" stroke="#000000" d="M 160 377 L 363.33349609375 377" stroke-miterlimit="10"/></g><g transform="translate(-126,-46) scale(1,1)"><path fill="none" stroke="#000000" d="M 160 430 L 363.33349609375 430" stroke-miterlimit="10"/></g><g transform="translate(-126,-46) scale(1,1)"><g><path fill="none" stroke="none"/><text fill="#000000" stroke="none" font-family="Arial" font-size="13px" font-style="normal" font-weight="bold" text-decoration="none" x="164.5" y="370">Library Database Administrator</text></g></g><g transform="translate(-126,-46) scale(1,1)"><g><path fill="none" stroke="none"/><text fill="#000000" stroke="none" font-family="Arial" font-size="13px" font-style="normal" font-weight="normal" text-decoration="none" x="165" y="393">+name: string</text></g></g><g transform="translate(-126,-46) scale(1,1)"><g><path fill="none" stroke="none"/><text fill="#000000" stroke="none" font-family="Arial" font-size="13px" font-style="normal" font-weight="normal" text-decoration="none" x="165" y="408">+id: string</text></g></g><g transform="translate(-126,-46) scale(1,1)"><g><path fill="none" stroke="none"/><text fill="#000000" stroke="none" font-family="Arial" font-size="13px" font-style="normal" font-weight="normal" text-decoration="none" x="165" y="423">-password: string</text></g></g><g transform="translate(-126,-46) scale(1,1)"><g><path fill="none" stroke="none"/><text fill="#000000" stroke="none" font-family="Arial" font-size="13px" font-style="normal" font-weight="normal" text-decoration="none" x="165" y="446">#maintainDatabase()</text></g></g><g transform="translate(-126,-46) scale(1,1)"><path fill="none" stroke="#000000" d="M 364 401 L 479 400" stroke-miterlimit="10"/></g><g transform="translate(-126,-46) scale(1,1)"><path fill="none" stroke="#000000" d="M 468.8743124610911 404.29772635987734 L 479 400 L 468.80110622430794 395.87900912981485" stroke-miterlimit="10"/></g></g></svg>