<svg version="1.1" xmlns="http://www.w3.org/2000/svg" xmlns:xlink="http://www.w3.org/1999/xlink" width="596" height="390"><defs/><g><g transform="translate(-70,-86) scale(1,1)"><path fill="none" stroke="#000000" d="M 80 96 L 656 96 L 656 466 L 80 466 L 80 96" stroke-miterlimit="10"/></g><g transform="translate(-70,-86) scale(1,1)"><path fill="#ffffff" stroke="none" d="M 80 96 L 80 118 L 267.96435546875 118 L 278.96435546875 107 L 278.96435546875 96 L 80 96"/></g><g transform="translate(-70,-86) scale(1,1)"><path fill="none" stroke="#000000" d="M 80 96 L 80 118 L 267.96435546875 118 L 278.96435546875 107 L 278.96435546875 96 L 80 96 L 80 96" stroke-miterlimit="10"/></g><g transform="translate(-70,-86) scale(1,1)"><g><path fill="none" stroke="none"/><text fill="#000000" stroke="none" font-family="Arial" font-size="13px" font-style="normal" font-weight="normal" text-decoration="none" x="91" y="112">217Y1A05C0 - DFDDiagram0</text></g></g><g transform="translate(-70,-86) scale(1,1)"><g><path fill="none" stroke="none"/><text fill="#000000" stroke="none" font-family="Arial" font-size="13px" font-style="normal" font-weight="bold" text-decoration="none" x="85" y="107"></text></g></g><g transform="translate(-70,-86) scale(1,1)"><rect fill="#C0C0C0" stroke="none" x="111" y="221" width="94.8798828125" height="45" opacity="0.2"/></g><g transform="translate(-70,-86) scale(1,1)"><rect fill="#ffd8ff" stroke="none" x="104" y="214" width="94.8798828125" height="45"/></g><g transform="translate(-70,-86) scale(1,1)"><path fill="none" stroke="#000000" d="M 104 214 L 198.8798828125 214 L 198.8798828125 259 L 104 259 L 104 214 Z Z" stroke-miterlimit="10"/></g><g transform="translate(-70,-86) scale(1,1)"><g><path fill="none" stroke="none"/><text fill="#000000" stroke="none" font-family="Arial" font-size="13px" font-style="normal" font-weight="normal" text-decoration="none" x="151.43994140625" y="225"></text></g></g><g transform="translate(-70,-86) scale(1,1)"><g><path fill="none" stroke="none"/><text fill="#000000" stroke="none" font-family="Arial" font-size="13px" font-style="normal" font-weight="normal" text-decoration="none" x="151.43994140625" y="225"></text></g></g><g transform="translate(-70,-86) scale(1,1)"><g><path fill="none" stroke="none"/><text fill="#000000" stroke="none" font-family="Arial" font-size="13px" font-style="normal" font-weight="normal" text-decoration="none" x="-0.5" y="6"></text></g></g><g transform="translate(-70,-86) scale(1,1)"><g><path fill="none" stroke="none"/><text fill="#000000" stroke="none" font-family="Arial" font-size="13px" font-style="normal" font-weight="normal" text-decoration="none" x="151.43994140625" y="225"></text></g></g><g transform="translate(-70,-86) scale(1,1)"><g><path fill="none" stroke="none"/><text fill="#000000" stroke="none" font-family="Arial" font-size="13px" font-style="normal" font-weight="normal" text-decoration="none" x="151.43994140625" y="225"></text></g></g><g transform="translate(-70,-86) scale(1,1)"><g><path fill="none" stroke="none"/><text fill="#000000" stroke="none" font-family="Arial" font-size="13px" font-style="normal" font-weight="normal" text-decoration="none" x="151.43994140625" y="225"></text></g></g><g transform="translate(-70,-86) scale(1,1)"><g><path fill="none" stroke="none"/><text fill="#000000" stroke="none" font-family="Arial" font-size="13px" font-style="normal" font-weight="normal" text-decoration="none" x="151.43994140625" y="225"></text></g></g><g transform="translate(-70,-86) scale(1,1)"><g><path fill="none" stroke="none"/><text fill="#000000" stroke="none" font-family="Arial" font-size="13px" font-style="normal" font-weight="normal" text-decoration="none" x="128.674072265625" y="235">Storage</text><text fill="#000000" stroke="none" font-family="Arial" font-size="13px" font-style="normal" font-weight="normal" text-decoration="none" x="113.5" y="248">Management</text></g></g><g transform="translate(-70,-86) scale(1,1)"><g><path fill="none" stroke="none"/><text fill="#000000" stroke="none" font-family="Arial" font-size="13px" font-style="normal" font-weight="normal" text-decoration="none" x="55.5" y="270"></text></g></g><g transform="translate(-70,-86) scale(1,1)"><rect fill="#C0C0C0" stroke="none" x="326" y="127" width="94.8798828125" height="45" opacity="0.2"/></g><g transform="translate(-70,-86) scale(1,1)"><rect fill="#ffd8ff" stroke="none" x="319" y="120" width="94.8798828125" height="45"/></g><g transform="translate(-70,-86) scale(1,1)"><path fill="none" stroke="#000000" d="M 319 120 L 413.8798828125 120 L 413.8798828125 165 L 319 165 L 319 120 Z Z" stroke-miterlimit="10"/></g><g transform="translate(-70,-86) scale(1,1)"><g><path fill="none" stroke="none"/><text fill="#000000" stroke="none" font-family="Arial" font-size="13px" font-style="normal" font-weight="normal" text-decoration="none" x="366.43994140625" y="131"></text></g></g><g transform="translate(-70,-86) scale(1,1)"><g><path fill="none" stroke="none"/><text fill="#000000" stroke="none" font-family="Arial" font-size="13px" font-style="normal" font-weight="normal" text-decoration="none" x="366.43994140625" y="131"></text></g></g><g transform="translate(-70,-86) scale(1,1)"><g><path fill="none" stroke="none"/><text fill="#000000" stroke="none" font-family="Arial" font-size="13px" font-style="normal" font-weight="normal" text-decoration="none" x="-0.5" y="6"></text></g></g><g transform="translate(-70,-86) scale(1,1)"><g><path fill="none" stroke="none"/><text fill="#000000" stroke="none" font-family="Arial" font-size="13px" font-style="normal" font-weight="normal" text-decoration="none" x="366.43994140625" y="131"></text></g></g><g transform="translate(-70,-86) scale(1,1)"><g><path fill="none" stroke="none"/><text fill="#000000" stroke="none" font-family="Arial" font-size="13px" font-style="normal" font-weight="normal" text-decoration="none" x="366.43994140625" y="131"></text></g></g><g transform="translate(-70,-86) scale(1,1)"><g><path fill="none" stroke="none"/><text fill="#000000" stroke="none" font-family="Arial" font-size="13px" font-style="normal" font-weight="normal" text-decoration="none" x="366.43994140625" y="131"></text></g></g><g transform="translate(-70,-86) scale(1,1)"><g><path fill="none" stroke="none"/><text fill="#000000" stroke="none" font-family="Arial" font-size="13px" font-style="normal" font-weight="normal" text-decoration="none" x="366.43994140625" y="131"></text></g></g><g transform="translate(-70,-86) scale(1,1)"><g><path fill="none" stroke="none"/><text fill="#000000" stroke="none" font-family="Arial" font-size="13px" font-style="normal" font-weight="normal" text-decoration="none" x="350.18359375" y="141">Stock</text><text fill="#000000" stroke="none" font-family="Arial" font-size="13px" font-style="normal" font-weight="normal" text-decoration="none" x="328.5" y="154">Management</text></g></g><g transform="translate(-70,-86) scale(1,1)"><g><path fill="none" stroke="none"/><text fill="#000000" stroke="none" font-family="Arial" font-size="13px" font-style="normal" font-weight="normal" text-decoration="none" x="63.5" y="-2"></text></g></g><g transform="translate(-70,-86) scale(1,1)"><rect fill="#C0C0C0" stroke="none" x="541" y="221" width="94.8798828125" height="45" opacity="0.2"/></g><g transform="translate(-70,-86) scale(1,1)"><rect fill="#ffd8ff" stroke="none" x="534" y="214" width="94.8798828125" height="45"/></g><g transform="translate(-70,-86) scale(1,1)"><path fill="none" stroke="#000000" d="M 534 214 L 628.8798828125 214 L 628.8798828125 259 L 534 259 L 534 214 Z Z" stroke-miterlimit="10"/></g><g transform="translate(-70,-86) scale(1,1)"><g><path fill="none" stroke="none"/><text fill="#000000" stroke="none" font-family="Arial" font-size="13px" font-style="normal" font-weight="normal" text-decoration="none" x="581.43994140625" y="225"></text></g></g><g transform="translate(-70,-86) scale(1,1)"><g><path fill="none" stroke="none"/><text fill="#000000" stroke="none" font-family="Arial" font-size="13px" font-style="normal" font-weight="normal" text-decoration="none" x="581.43994140625" y="225"></text></g></g><g transform="translate(-70,-86) scale(1,1)"><g><path fill="none" stroke="none"/><text fill="#000000" stroke="none" font-family="Arial" font-size="13px" font-style="normal" font-weight="normal" text-decoration="none" x="-0.5" y="6"></text></g></g><g transform="translate(-70,-86) scale(1,1)"><g><path fill="none" stroke="none"/><text fill="#000000" stroke="none" font-family="Arial" font-size="13px" font-style="normal" font-weight="normal" text-decoration="none" x="581.43994140625" y="225"></text></g></g><g transform="translate(-70,-86) scale(1,1)"><g><path fill="none" stroke="none"/><text fill="#000000" stroke="none" font-family="Arial" font-size="13px" font-style="normal" font-weight="normal" text-decoration="none" x="581.43994140625" y="225"></text></g></g><g transform="translate(-70,-86) scale(1,1)"><g><path fill="none" stroke="none"/><text fill="#000000" stroke="none" font-family="Arial" font-size="13px" font-style="normal" font-weight="normal" text-decoration="none" x="581.43994140625" y="225"></text></g></g><g transform="translate(-70,-86) scale(1,1)"><g><path fill="none" stroke="none"/><text fill="#000000" stroke="none" font-family="Arial" font-size="13px" font-style="normal" font-weight="normal" text-decoration="none" x="581.43994140625" y="225"></text></g></g><g transform="translate(-70,-86) scale(1,1)"><g><path fill="none" stroke="none"/><text fill="#000000" stroke="none" font-family="Arial" font-size="13px" font-style="normal" font-weight="normal" text-decoration="none" x="559.0390625" y="235">Product</text><text fill="#000000" stroke="none" font-family="Arial" font-size="13px" font-style="normal" font-weight="normal" text-decoration="none" x="543.5" y="248">Management</text></g></g><g transform="translate(-70,-86) scale(1,1)"><g><path fill="none" stroke="none"/><text fill="#000000" stroke="none" font-family="Arial" font-size="13px" font-style="normal" font-weight="normal" text-decoration="none" x="359.5" y="-42"></text></g></g><g transform="translate(-70,-86) scale(1,1)"><rect fill="#C0C0C0" stroke="none" x="541" y="315" width="94.8798828125" height="58" opacity="0.2"/></g><g transform="translate(-70,-86) scale(1,1)"><rect fill="#ffd8ff" stroke="none" x="534" y="308" width="94.8798828125" height="58"/></g><g transform="translate(-70,-86) scale(1,1)"><path fill="none" stroke="#000000" d="M 534 308 L 628.8798828125 308 L 628.8798828125 366 L 534 366 L 534 308 Z Z" stroke-miterlimit="10"/></g><g transform="translate(-70,-86) scale(1,1)"><g><path fill="none" stroke="none"/><text fill="#000000" stroke="none" font-family="Arial" font-size="13px" font-style="normal" font-weight="normal" text-decoration="none" x="581.43994140625" y="319"></text></g></g><g transform="translate(-70,-86) scale(1,1)"><g><path fill="none" stroke="none"/><text fill="#000000" stroke="none" font-family="Arial" font-size="13px" font-style="normal" font-weight="normal" text-decoration="none" x="581.43994140625" y="319"></text></g></g><g transform="translate(-70,-86) scale(1,1)"><g><path fill="none" stroke="none"/><text fill="#000000" stroke="none" font-family="Arial" font-size="13px" font-style="normal" font-weight="normal" text-decoration="none" x="-0.5" y="6"></text></g></g><g transform="translate(-70,-86) scale(1,1)"><g><path fill="none" stroke="none"/><text fill="#000000" stroke="none" font-family="Arial" font-size="13px" font-style="normal" font-weight="normal" text-decoration="none" x="581.43994140625" y="319"></text></g></g><g transform="translate(-70,-86) scale(1,1)"><g><path fill="none" stroke="none"/><text fill="#000000" stroke="none" font-family="Arial" font-size="13px" font-style="normal" font-weight="normal" text-decoration="none" x="581.43994140625" y="319"></text></g></g><g transform="translate(-70,-86) scale(1,1)"><g><path fill="none" stroke="none"/><text fill="#000000" stroke="none" font-family="Arial" font-size="13px" font-style="normal" font-weight="normal" text-decoration="none" x="581.43994140625" y="319"></text></g></g><g transform="translate(-70,-86) scale(1,1)"><g><path fill="none" stroke="none"/><text fill="#000000" stroke="none" font-family="Arial" font-size="13px" font-style="normal" font-weight="normal" text-decoration="none" x="581.43994140625" y="319"></text></g></g><g transform="translate(-70,-86) scale(1,1)"><g><path fill="none" stroke="none"/><text fill="#000000" stroke="none" font-family="Arial" font-size="13px" font-style="normal" font-weight="normal" text-decoration="none" x="559.0390625" y="329">Product</text><text fill="#000000" stroke="none" font-family="Arial" font-size="13px" font-style="normal" font-weight="normal" text-decoration="none" x="561.2099609375" y="342">Quality</text><text fill="#000000" stroke="none" font-family="Arial" font-size="13px" font-style="normal" font-weight="normal" text-decoration="none" x="543.5" y="355">Management</text></g></g><g transform="translate(-70,-86) scale(1,1)"><g><path fill="none" stroke="none"/><text fill="#000000" stroke="none" font-family="Arial" font-size="13px" font-style="normal" font-weight="normal" text-decoration="none" x="407.5" y="-18"></text></g></g><g transform="translate(-70,-86) scale(1,1)"><rect fill="#C0C0C0" stroke="none" x="326" y="409" width="94.8798828125" height="45" opacity="0.2"/></g><g transform="translate(-70,-86) scale(1,1)"><rect fill="#ffd8ff" stroke="none" x="319" y="402" width="94.8798828125" height="45"/></g><g transform="translate(-70,-86) scale(1,1)"><path fill="none" stroke="#000000" d="M 319 402 L 413.8798828125 402 L 413.8798828125 447 L 319 447 L 319 402 Z Z" stroke-miterlimit="10"/></g><g transform="translate(-70,-86) scale(1,1)"><g><path fill="none" stroke="none"/><text fill="#000000" stroke="none" font-family="Arial" font-size="13px" font-style="normal" font-weight="normal" text-decoration="none" x="366.43994140625" y="413"></text></g></g><g transform="translate(-70,-86) scale(1,1)"><g><path fill="none" stroke="none"/><text fill="#000000" stroke="none" font-family="Arial" font-size="13px" font-style="normal" font-weight="normal" text-decoration="none" x="366.43994140625" y="413"></text></g></g><g transform="translate(-70,-86) scale(1,1)"><g><path fill="none" stroke="none"/><text fill="#000000" stroke="none" font-family="Arial" font-size="13px" font-style="normal" font-weight="normal" text-decoration="none" x="-0.5" y="6"></text></g></g><g transform="translate(-70,-86) scale(1,1)"><g><path fill="none" stroke="none"/><text fill="#000000" stroke="none" font-family="Arial" font-size="13px" font-style="normal" font-weight="normal" text-decoration="none" x="366.43994140625" y="413"></text></g></g><g transform="translate(-70,-86) scale(1,1)"><g><path fill="none" stroke="none"/><text fill="#000000" stroke="none" font-family="Arial" font-size="13px" font-style="normal" font-weight="normal" text-decoration="none" x="366.43994140625" y="413"></text></g></g><g transform="translate(-70,-86) scale(1,1)"><g><path fill="none" stroke="none"/><text fill="#000000" stroke="none" font-family="Arial" font-size="13px" font-style="normal" font-weight="normal" text-decoration="none" x="366.43994140625" y="413"></text></g></g><g transform="translate(-70,-86) scale(1,1)"><g><path fill="none" stroke="none"/><text fill="#000000" stroke="none" font-family="Arial" font-size="13px" font-style="normal" font-weight="normal" text-decoration="none" x="366.43994140625" y="413"></text></g></g><g transform="translate(-70,-86) scale(1,1)"><g><path fill="none" stroke="none"/><text fill="#000000" stroke="none" font-family="Arial" font-size="13px" font-style="normal" font-weight="normal" text-decoration="none" x="356.328125" y="423">Billl</text><text fill="#000000" stroke="none" font-family="Arial" font-size="13px" font-style="normal" font-weight="normal" text-decoration="none" x="328.5" y="436">Management</text></g></g><g transform="translate(-70,-86) scale(1,1)"><g><path fill="none" stroke="none"/><text fill="#000000" stroke="none" font-family="Arial" font-size="13px" font-style="normal" font-weight="normal" text-decoration="none" x="47.5" y="52"></text></g></g><g transform="translate(-70,-86) scale(1,1)"><rect fill="#C0C0C0" stroke="none" x="111" y="315" width="94.8798828125" height="45" opacity="0.2"/></g><g transform="translate(-70,-86) scale(1,1)"><rect fill="#ffd8ff" stroke="none" x="104" y="308" width="94.8798828125" height="45"/></g><g transform="translate(-70,-86) scale(1,1)"><path fill="none" stroke="#000000" d="M 104 308 L 198.8798828125 308 L 198.8798828125 353 L 104 353 L 104 308 Z Z" stroke-miterlimit="10"/></g><g transform="translate(-70,-86) scale(1,1)"><g><path fill="none" stroke="none"/><text fill="#000000" stroke="none" font-family="Arial" font-size="13px" font-style="normal" font-weight="normal" text-decoration="none" x="151.43994140625" y="319"></text></g></g><g transform="translate(-70,-86) scale(1,1)"><g><path fill="none" stroke="none"/><text fill="#000000" stroke="none" font-family="Arial" font-size="13px" font-style="normal" font-weight="normal" text-decoration="none" x="151.43994140625" y="319"></text></g></g><g transform="translate(-70,-86) scale(1,1)"><g><path fill="none" stroke="none"/><text fill="#000000" stroke="none" font-family="Arial" font-size="13px" font-style="normal" font-weight="normal" text-decoration="none" x="-0.5" y="6"></text></g></g><g transform="translate(-70,-86) scale(1,1)"><g><path fill="none" stroke="none"/><text fill="#000000" stroke="none" font-family="Arial" font-size="13px" font-style="normal" font-weight="normal" text-decoration="none" x="151.43994140625" y="319"></text></g></g><g transform="translate(-70,-86) scale(1,1)"><g><path fill="none" stroke="none"/><text fill="#000000" stroke="none" font-family="Arial" font-size="13px" font-style="normal" font-weight="normal" text-decoration="none" x="151.43994140625" y="319"></text></g></g><g transform="translate(-70,-86) scale(1,1)"><g><path fill="none" stroke="none"/><text fill="#000000" stroke="none" font-family="Arial" font-size="13px" font-style="normal" font-weight="normal" text-decoration="none" x="151.43994140625" y="319"></text></g></g><g transform="translate(-70,-86) scale(1,1)"><g><path fill="none" stroke="none"/><text fill="#000000" stroke="none" font-family="Arial" font-size="13px" font-style="normal" font-weight="normal" text-decoration="none" x="151.43994140625" y="319"></text></g></g><g transform="translate(-70,-86) scale(1,1)"><g><path fill="none" stroke="none"/><text fill="#000000" stroke="none" font-family="Arial" font-size="13px" font-style="normal" font-weight="normal" text-decoration="none" x="123.265869140625" y="329">Customer</text><text fill="#000000" stroke="none" font-family="Arial" font-size="13px" font-style="normal" font-weight="normal" text-decoration="none" x="113.5" y="342">Management</text></g></g><g transform="translate(-70,-86) scale(1,1)"><g><path fill="none" stroke="none"/><text fill="#000000" stroke="none" font-family="Arial" font-size="13px" font-style="normal" font-weight="normal" text-decoration="none" x="-8.5" y="-2"></text></g></g><g transform="translate(-70,-86) scale(1,1)"><path fill="#C0C0C0" stroke="none" d="M 329 247 L 420 247 Q 430 247 430 257 L 430 324 Q 430 334 420 334 L 329 334 Q 319 334 319 324 L 319 257 Q 319 247 329 247 Z" opacity="0.2"/></g><g transform="translate(-70,-86) scale(1,1)"><path fill="#f1d9c2" stroke="none" d="M 322 240 L 413 240 Q 423 240 423 250 L 423 317 Q 423 327 413 327 L 322 327 Q 312 327 312 317 L 312 250 Q 312 240 322 240 Z"/></g><g transform="translate(-70,-86) scale(1,1)"><path fill="none" stroke="#000000" d="M 322 240 L 413 240 Q 423 240 423 250 L 423 317 Q 423 327 413 327 L 322 327 Q 312 327 312 317 L 312 250 Q 312 240 322 240 Z" stroke-miterlimit="10"/></g><g transform="translate(-70,-86) scale(1,1)"><path fill="none" stroke="#000000" d="M 312 263 L 423 263" stroke-miterlimit="10"/></g><g transform="translate(-70,-86) scale(1,1)"><g><path fill="none" stroke="none"/><text fill="#000000" stroke="none" font-family="Arial" font-size="13px" font-style="normal" font-weight="normal" text-decoration="none" x="350.885009765625" y="283">Exam</text><text fill="#000000" stroke="none" font-family="Arial" font-size="13px" font-style="normal" font-weight="normal" text-decoration="none" x="329.56005859375" y="296">Management</text><text fill="#000000" stroke="none" font-family="Arial" font-size="13px" font-style="normal" font-weight="normal" text-decoration="none" x="345.8291015625" y="309">System</text></g></g><g transform="translate(-70,-86) scale(1,1)"><g><path fill="none" stroke="none"/><text fill="#000000" stroke="none" font-family="Arial" font-size="13px" font-style="normal" font-weight="normal" text-decoration="none" x="367.5" y="251"></text></g></g><g transform="translate(-70,-86) scale(1,1)"><path fill="none" stroke="#000000" d="M 200 247 L 311 271" stroke-miterlimit="10"/></g><g transform="translate(-70,-86) scale(1,1)"><path fill="#000000" stroke="none" d="M 300.17724849282547 272.96673582718955 L 311 271 L 301.9564667779717 264.7378512583882"/></g><g transform="translate(-70,-86) scale(1,1)"><path fill="none" stroke="#000000" d="M 300.17724849282547 272.96673582718955 L 311 271 L 301.9564667779717 264.7378512583882 L 300.17724849282547 272.96673582718955" stroke-miterlimit="10"/></g><g transform="translate(-70,-86) scale(1,1)"><path fill="none" stroke="#000000" d="M 311 271 L 200 247" stroke-miterlimit="10"/></g><g transform="translate(-70,-86) scale(1,1)"><path fill="#000000" stroke="none" d="M 210.82275150717456 245.03326417281045 L 200 247 L 209.04353322202832 253.26214874161178"/></g><g transform="translate(-70,-86) scale(1,1)"><path fill="none" stroke="#000000" d="M 210.82275150717456 245.03326417281045 L 200 247 L 209.04353322202832 253.26214874161178 L 210.82275150717456 245.03326417281045" stroke-miterlimit="10"/></g><g transform="translate(-70,-86) scale(1,1)"><path fill="none" stroke="#000000" d="M 366 166 L 367 239" stroke-miterlimit="10"/></g><g transform="translate(-70,-86) scale(1,1)"><path fill="#000000" stroke="none" d="M 362.65167548768125 228.89593775080698 L 367 239 L 371.0699211844751 228.78061931660432"/></g><g transform="translate(-70,-86) scale(1,1)"><path fill="none" stroke="#000000" d="M 362.65167548768125 228.89593775080698 L 367 239 L 371.0699211844751 228.78061931660432 L 362.65167548768125 228.89593775080698" stroke-miterlimit="10"/></g><g transform="translate(-70,-86) scale(1,1)"><path fill="none" stroke="#000000" d="M 367 239 L 366 166" stroke-miterlimit="10"/></g><g transform="translate(-70,-86) scale(1,1)"><path fill="#000000" stroke="none" d="M 370.34832451231875 176.10406224919302 L 366 166 L 361.9300788155249 176.21938068339568"/></g><g transform="translate(-70,-86) scale(1,1)"><path fill="none" stroke="#000000" d="M 370.34832451231875 176.10406224919302 L 366 166 L 361.9300788155249 176.21938068339568 L 370.34832451231875 176.10406224919302" stroke-miterlimit="10"/></g><g transform="translate(-70,-86) scale(1,1)"><path fill="none" stroke="#000000" d="M 367 328 L 366 401" stroke-miterlimit="10"/></g><g transform="translate(-70,-86) scale(1,1)"><path fill="#000000" stroke="none" d="M 361.9300788155249 390.7806193166043 L 366 401 L 370.34832451231875 390.895937750807"/></g><g transform="translate(-70,-86) scale(1,1)"><path fill="none" stroke="#000000" d="M 361.9300788155249 390.7806193166043 L 366 401 L 370.34832451231875 390.895937750807 L 361.9300788155249 390.7806193166043" stroke-miterlimit="10"/></g><g transform="translate(-70,-86) scale(1,1)"><path fill="none" stroke="#000000" d="M 366 401 L 367 328" stroke-miterlimit="10"/></g><g transform="translate(-70,-86) scale(1,1)"><path fill="#000000" stroke="none" d="M 371.0699211844751 338.2193806833957 L 367 328 L 362.65167548768125 338.104062249193"/></g><g transform="translate(-70,-86) scale(1,1)"><path fill="none" stroke="#000000" d="M 371.0699211844751 338.2193806833957 L 367 328 L 362.65167548768125 338.104062249193 L 371.0699211844751 338.2193806833957" stroke-miterlimit="10"/></g><g transform="translate(-70,-86) scale(1,1)"><path fill="none" stroke="#000000" d="M 200 319 L 311 295" stroke-miterlimit="10"/></g><g transform="translate(-70,-86) scale(1,1)"><path fill="#000000" stroke="none" d="M 301.9564667779717 301.2621487416118 L 311 295 L 300.17724849282547 293.03326417281045"/></g><g transform="translate(-70,-86) scale(1,1)"><path fill="none" stroke="#000000" d="M 301.9564667779717 301.2621487416118 L 311 295 L 300.17724849282547 293.03326417281045 L 301.9564667779717 301.2621487416118" stroke-miterlimit="10"/></g><g transform="translate(-70,-86) scale(1,1)"><path fill="none" stroke="#000000" d="M 311 295 L 200 319" stroke-miterlimit="10"/></g><g transform="translate(-70,-86) scale(1,1)"><path fill="#000000" stroke="none" d="M 209.04353322202832 312.7378512583882 L 200 319 L 210.82275150717456 320.96673582718955"/></g><g transform="translate(-70,-86) scale(1,1)"><path fill="none" stroke="#000000" d="M 209.04353322202832 312.7378512583882 L 200 319 L 210.82275150717456 320.96673582718955 L 209.04353322202832 312.7378512583882" stroke-miterlimit="10"/></g><g transform="translate(-70,-86) scale(1,1)"><path fill="none" stroke="#000000" d="M 424 270 L 533 247" stroke-miterlimit="10"/></g><g transform="translate(-70,-86) scale(1,1)"><path fill="#000000" stroke="none" d="M 523.9253947764727 253.21703627439405 L 533 247 L 522.1871766013462 244.97939361835978"/></g><g transform="translate(-70,-86) scale(1,1)"><path fill="none" stroke="#000000" d="M 523.9253947764727 253.21703627439405 L 533 247 L 522.1871766013462 244.97939361835978 L 523.9253947764727 253.21703627439405" stroke-miterlimit="10"/></g><g transform="translate(-70,-86) scale(1,1)"><path fill="none" stroke="#000000" d="M 533 325 L 424 297" stroke-miterlimit="10"/></g><g transform="translate(-70,-86) scale(1,1)"><path fill="#000000" stroke="none" d="M 434.8904410015522 295.45135711291766 L 424 297 L 432.7957605694018 303.60564879521735"/></g><g transform="translate(-70,-86) scale(1,1)"><path fill="none" stroke="#000000" d="M 434.8904410015522 295.45135711291766 L 424 297 L 432.7957605694018 303.60564879521735 L 434.8904410015522 295.45135711291766" stroke-miterlimit="10"/></g><g transform="translate(-70,-86) scale(1,1)"><path fill="none" stroke="#000000" d="M 424 297 L 533 325" stroke-miterlimit="10"/></g><g transform="translate(-70,-86) scale(1,1)"><path fill="#000000" stroke="none" d="M 522.1095589984478 326.54864288708234 L 533 325 L 524.2042394305981 318.39435120478265"/></g><g transform="translate(-70,-86) scale(1,1)"><path fill="none" stroke="#000000" d="M 522.1095589984478 326.54864288708234 L 533 325 L 524.2042394305981 318.39435120478265 L 522.1095589984478 326.54864288708234" stroke-miterlimit="10"/></g><g transform="translate(-70,-86) scale(1,1)"><path fill="none" stroke="#000000" d="M 533 247 L 424 270" stroke-miterlimit="10"/></g><g transform="translate(-70,-86) scale(1,1)"><path fill="#000000" stroke="none" d="M 433.07460522352727 263.78296372560595 L 424 270 L 434.8128233986538 272.0206063816402"/></g><g transform="translate(-70,-86) scale(1,1)"><path fill="none" stroke="#000000" d="M 433.07460522352727 263.78296372560595 L 424 270 L 434.8128233986538 272.0206063816402 L 433.07460522352727 263.78296372560595" stroke-miterlimit="10"/></g></g></svg>