<svg version="1.1" xmlns="http://www.w3.org/2000/svg" xmlns:xlink="http://www.w3.org/1999/xlink" width="659" height="275"><defs/><g><g transform="translate(-150,-158) scale(1,1)"><rect fill="#C0C0C0" stroke="none" x="167" y="175" width="159" height="255" opacity="0.2"/></g><g transform="translate(-150,-158) scale(1,1)"><rect fill="#d8e1f8" stroke="none" x="160" y="168" width="159" height="255"/></g><g transform="translate(-150,-158) scale(1,1)"><path fill="none" stroke="#000000" d="M 160 168 L 319 168 L 319 423 L 160 423 L 160 168 Z Z" stroke-miterlimit="10"/></g><g transform="translate(-150,-158) scale(1,1)"><path fill="none" stroke="#000000" d="M 160 193 L 319 193" stroke-miterlimit="10"/></g><g transform="translate(-150,-158) scale(1,1)"><path fill="none" stroke="#000000" d="M 160 321 L 319 321" stroke-miterlimit="10"/></g><g transform="translate(-150,-158) scale(1,1)"><g><path fill="none" stroke="none"/><text fill="#000000" stroke="none" font-family="Arial" font-size="13px" font-style="normal" font-weight="bold" text-decoration="none" x="215.30908203125" y="186">Student</text></g></g><g transform="translate(-150,-158) scale(1,1)"><g><path fill="none" stroke="none"/><text fill="#000000" stroke="none" font-family="Arial" font-size="13px" font-style="normal" font-weight="normal" text-decoration="none" x="165" y="209">+id</text></g></g><g transform="translate(-150,-158) scale(1,1)"><g><path fill="none" stroke="none"/><text fill="#000000" stroke="none" font-family="Arial" font-size="13px" font-style="normal" font-weight="normal" text-decoration="none" x="165" y="224">+Name</text></g></g><g transform="translate(-150,-158) scale(1,1)"><g><path fill="none" stroke="none"/><text fill="#000000" stroke="none" font-family="Arial" font-size="13px" font-style="normal" font-weight="normal" text-decoration="none" x="165" y="239">+D.O.B</text></g></g><g transform="translate(-150,-158) scale(1,1)"><g><path fill="none" stroke="none"/><text fill="#000000" stroke="none" font-family="Arial" font-size="13px" font-style="normal" font-weight="normal" text-decoration="none" x="165" y="254">+Gender</text></g></g><g transform="translate(-150,-158) scale(1,1)"><g><path fill="none" stroke="none"/><text fill="#000000" stroke="none" font-family="Arial" font-size="13px" font-style="normal" font-weight="normal" text-decoration="none" x="165" y="269">+Qualifivation</text></g></g><g transform="translate(-150,-158) scale(1,1)"><g><path fill="none" stroke="none"/><text fill="#000000" stroke="none" font-family="Arial" font-size="13px" font-style="normal" font-weight="normal" text-decoration="none" x="165" y="284">-Address</text></g></g><g transform="translate(-150,-158) scale(1,1)"><g><path fill="none" stroke="none"/><text fill="#000000" stroke="none" font-family="Arial" font-size="13px" font-style="normal" font-weight="normal" text-decoration="none" x="165" y="299">-MobileNo</text></g></g><g transform="translate(-150,-158) scale(1,1)"><g><path fill="none" stroke="none"/><text fill="#000000" stroke="none" font-family="Arial" font-size="13px" font-style="normal" font-weight="normal" text-decoration="none" x="165" y="314">-EmailID</text></g></g><g transform="translate(-150,-158) scale(1,1)"><g><path fill="none" stroke="none"/><text fill="#000000" stroke="none" font-family="Arial" font-size="13px" font-style="normal" font-weight="normal" text-decoration="none" x="165" y="337">-Add Sudent()</text></g></g><g transform="translate(-150,-158) scale(1,1)"><g><path fill="none" stroke="none"/><text fill="#000000" stroke="none" font-family="Arial" font-size="13px" font-style="normal" font-weight="normal" text-decoration="none" x="165" y="352">-updateStudent()</text></g></g><g transform="translate(-150,-158) scale(1,1)"><g><path fill="none" stroke="none"/><text fill="#000000" stroke="none" font-family="Arial" font-size="13px" font-style="normal" font-weight="normal" text-decoration="none" x="165" y="367">-getLogin()</text></g></g><g transform="translate(-150,-158) scale(1,1)"><rect fill="#C0C0C0" stroke="none" x="647" y="175" width="159" height="255" opacity="0.2"/></g><g transform="translate(-150,-158) scale(1,1)"><rect fill="#d8e1f8" stroke="none" x="640" y="168" width="159" height="255"/></g><g transform="translate(-150,-158) scale(1,1)"><path fill="none" stroke="#000000" d="M 640 168 L 799 168 L 799 423 L 640 423 L 640 168 Z Z" stroke-miterlimit="10"/></g><g transform="translate(-150,-158) scale(1,1)"><path fill="none" stroke="#000000" d="M 640 193 L 799 193" stroke-miterlimit="10"/></g><g transform="translate(-150,-158) scale(1,1)"><path fill="none" stroke="#000000" d="M 640 351 L 799 351" stroke-miterlimit="10"/></g><g transform="translate(-150,-158) scale(1,1)"><g><path fill="none" stroke="none"/><text fill="#000000" stroke="none" font-family="Arial" font-size="13px" font-style="normal" font-weight="bold" text-decoration="none" x="679.03369140625" y="186">Exam Details</text></g></g><g transform="translate(-150,-158) scale(1,1)"><g><path fill="none" stroke="none"/><text fill="#000000" stroke="none" font-family="Arial" font-size="13px" font-style="normal" font-weight="normal" text-decoration="none" x="645" y="209">+examCode</text></g></g><g transform="translate(-150,-158) scale(1,1)"><g><path fill="none" stroke="none"/><text fill="#000000" stroke="none" font-family="Arial" font-size="13px" font-style="normal" font-weight="normal" text-decoration="none" x="645" y="224">+examID</text></g></g><g transform="translate(-150,-158) scale(1,1)"><g><path fill="none" stroke="none"/><text fill="#000000" stroke="none" font-family="Arial" font-size="13px" font-style="normal" font-weight="normal" text-decoration="none" x="645" y="239">+subjectName</text></g></g><g transform="translate(-150,-158) scale(1,1)"><g><path fill="none" stroke="none"/><text fill="#000000" stroke="none" font-family="Arial" font-size="13px" font-style="normal" font-weight="normal" text-decoration="none" x="645" y="254">+Duration</text></g></g><g transform="translate(-150,-158) scale(1,1)"><g><path fill="none" stroke="none"/><text fill="#000000" stroke="none" font-family="Arial" font-size="13px" font-style="normal" font-weight="normal" text-decoration="none" x="645" y="269">+DateofExam</text></g></g><g transform="translate(-150,-158) scale(1,1)"><g><path fill="none" stroke="none"/><text fill="#000000" stroke="none" font-family="Arial" font-size="13px" font-style="normal" font-weight="normal" text-decoration="none" x="645" y="284">+Fee</text></g></g><g transform="translate(-150,-158) scale(1,1)"><g><path fill="none" stroke="none"/><text fill="#000000" stroke="none" font-family="Arial" font-size="13px" font-style="normal" font-weight="normal" text-decoration="none" x="645" y="299">+ageLimit</text></g></g><g transform="translate(-150,-158) scale(1,1)"><g><path fill="none" stroke="none"/><text fill="#000000" stroke="none" font-family="Arial" font-size="13px" font-style="normal" font-weight="normal" text-decoration="none" x="645" y="314">+Criteria</text></g></g><g transform="translate(-150,-158) scale(1,1)"><g><path fill="none" stroke="none"/><text fill="#000000" stroke="none" font-family="Arial" font-size="13px" font-style="normal" font-weight="normal" text-decoration="none" x="645" y="329">+examCenterName</text></g></g><g transform="translate(-150,-158) scale(1,1)"><g><path fill="none" stroke="none"/><text fill="#000000" stroke="none" font-family="Arial" font-size="13px" font-style="normal" font-weight="normal" text-decoration="none" x="645" y="344">+examCenterCode</text></g></g><g transform="translate(-150,-158) scale(1,1)"><g><path fill="none" stroke="none"/><text fill="#000000" stroke="none" font-family="Arial" font-size="13px" font-style="normal" font-weight="normal" text-decoration="none" x="645" y="367">+addExam()</text></g></g><g transform="translate(-150,-158) scale(1,1)"><rect fill="#C0C0C0" stroke="none" x="407" y="175" width="159" height="255" opacity="0.2"/></g><g transform="translate(-150,-158) scale(1,1)"><rect fill="#d8e1f8" stroke="none" x="400" y="168" width="159" height="255"/></g><g transform="translate(-150,-158) scale(1,1)"><path fill="none" stroke="#000000" d="M 400 168 L 559 168 L 559 423 L 400 423 L 400 168 Z Z" stroke-miterlimit="10"/></g><g transform="translate(-150,-158) scale(1,1)"><path fill="none" stroke="#000000" d="M 400 193 L 559 193" stroke-miterlimit="10"/></g><g transform="translate(-150,-158) scale(1,1)"><path fill="none" stroke="#000000" d="M 400 321 L 559 321" stroke-miterlimit="10"/></g><g transform="translate(-150,-158) scale(1,1)"><g><path fill="none" stroke="none"/><text fill="#000000" stroke="none" font-family="Arial" font-size="13px" font-style="normal" font-weight="bold" text-decoration="none" x="453.490478515625" y="186">Register</text></g></g><g transform="translate(-150,-158) scale(1,1)"><g><path fill="none" stroke="none"/><text fill="#000000" stroke="none" font-family="Arial" font-size="13px" font-style="normal" font-weight="normal" text-decoration="none" x="405" y="209">+id</text></g></g><g transform="translate(-150,-158) scale(1,1)"><g><path fill="none" stroke="none"/><text fill="#000000" stroke="none" font-family="Arial" font-size="13px" font-style="normal" font-weight="normal" text-decoration="none" x="405" y="224">+examCode</text></g></g><g transform="translate(-150,-158) scale(1,1)"><g><path fill="none" stroke="none"/><text fill="#000000" stroke="none" font-family="Arial" font-size="13px" font-style="normal" font-weight="normal" text-decoration="none" x="405" y="239">+subjectID</text></g></g><g transform="translate(-150,-158) scale(1,1)"><g><path fill="none" stroke="none"/><text fill="#000000" stroke="none" font-family="Arial" font-size="13px" font-style="normal" font-weight="normal" text-decoration="none" x="405" y="254">+NoOfStudents</text></g></g><g transform="translate(-150,-158) scale(1,1)"><g><path fill="none" stroke="none"/><text fill="#000000" stroke="none" font-family="Arial" font-size="13px" font-style="normal" font-weight="normal" text-decoration="none" x="405" y="269">+Fee</text></g></g><g transform="translate(-150,-158) scale(1,1)"><g><path fill="none" stroke="none"/><text fill="#000000" stroke="none" font-family="Arial" font-size="13px" font-style="normal" font-weight="normal" text-decoration="none" x="405" y="284">+DDNo</text></g></g><g transform="translate(-150,-158) scale(1,1)"><g><path fill="none" stroke="none"/><text fill="#000000" stroke="none" font-family="Arial" font-size="13px" font-style="normal" font-weight="normal" text-decoration="none" x="405" y="299">+RegID</text></g></g><g transform="translate(-150,-158) scale(1,1)"><g><path fill="none" stroke="none"/><text fill="#000000" stroke="none" font-family="Arial" font-size="13px" font-style="normal" font-weight="normal" text-decoration="none" x="405" y="314">+examCenterCode</text></g></g><g transform="translate(-150,-158) scale(1,1)"><g><path fill="none" stroke="none"/><text fill="#000000" stroke="none" font-family="Arial" font-size="13px" font-style="normal" font-weight="normal" text-decoration="none" x="405" y="337">+getRegister()</text></g></g><g transform="translate(-150,-158) scale(1,1)"><g><path fill="none" stroke="none"/><text fill="#000000" stroke="none" font-family="Arial" font-size="13px" font-style="normal" font-weight="normal" text-decoration="none" x="405" y="352">+cancleReg()</text></g></g><g transform="translate(-150,-158) scale(1,1)"><g><path fill="none" stroke="none"/><text fill="#000000" stroke="none" font-family="Arial" font-size="13px" font-style="normal" font-weight="normal" text-decoration="none" x="405" y="367">+verifyInfo()</text></g></g><g transform="translate(-150,-158) scale(1,1)"><path fill="none" stroke="#000000" d="M 320 295 L 399 295" stroke-miterlimit="10"/></g><g transform="translate(-150,-158) scale(1,1)"><path fill="none" stroke="#000000" d="M 560 295 L 639 295" stroke-miterlimit="10"/></g></g></svg>