<svg version="1.1" xmlns="http://www.w3.org/2000/svg" xmlns:xlink="http://www.w3.org/1999/xlink" width="652" height="356"><defs/><g><g transform="translate(-6,-70) scale(1,1)"><path fill="none" stroke="#000000" d="M 16 80 L 648 80 L 648 416 L 16 416 L 16 80" stroke-miterlimit="10"/></g><g transform="translate(-6,-70) scale(1,1)"><path fill="#ffffff" stroke="none" d="M 16 80 L 16 102 L 89.79541015625 102 L 100.79541015625 91 L 100.79541015625 80 L 16 80"/></g><g transform="translate(-6,-70) scale(1,1)"><path fill="none" stroke="#000000" d="M 16 80 L 16 102 L 89.79541015625 102 L 100.79541015625 91 L 100.79541015625 80 L 16 80 L 16 80" stroke-miterlimit="10"/></g><g transform="translate(-6,-70) scale(1,1)"><g><path fill="none" stroke="none"/><text fill="#000000" stroke="none" font-family="Arial" font-size="13px" font-style="normal" font-weight="normal" text-decoration="none" x="56.6181640625" y="96">Main</text></g></g><g transform="translate(-6,-70) scale(1,1)"><g><path fill="none" stroke="none"/><text fill="#000000" stroke="none" font-family="Arial" font-size="13px" font-style="normal" font-weight="bold" text-decoration="none" x="19.543212890625" y="96">class</text></g></g><g transform="translate(-6,-70) scale(1,1)"><rect fill="#C0C0C0" stroke="none" x="31" y="115" width="63.133398437500006" height="15" opacity="0.2"/></g><g transform="translate(-6,-70) scale(1,1)"><rect fill="#C0C0C0" stroke="none" x="31" y="129" width="157.83349609375" height="40" opacity="0.2"/></g><g transform="translate(-6,-70) scale(1,1)"><rect fill="#ffffff" stroke="none" x="24" y="123" width="157.83349609375" height="39"/></g><g transform="translate(-6,-70) scale(1,1)"><path fill="none" stroke="#000000" d="M 24 123 L 181.83349609375 123 L 181.83349609375 162 L 24 162 L 24 123 Z Z" stroke-miterlimit="10"/></g><g transform="translate(-6,-70) scale(1,1)"><rect fill="#ffffff" stroke="none" x="24" y="108" width="63.133398437500006" height="15"/></g><g transform="translate(-6,-70) scale(1,1)"><path fill="none" stroke="#000000" d="M 24 108 L 87.1333984375 108 L 87.1333984375 123 L 24 123 L 24 108 Z Z" stroke-miterlimit="10"/></g><g transform="translate(-6,-70) scale(1,1)"><rect fill="#ffffff" stroke="none" x="24" y="122" width="157.83349609375" height="40"/></g><g transform="translate(-6,-70) scale(1,1)"><path fill="none" stroke="#000000" d="M 24 122 L 181.83349609375 122 L 181.83349609375 162 L 24 162 L 24 122 Z Z" stroke-miterlimit="10"/></g><g transform="translate(-6,-70) scale(1,1)"><path fill="none" stroke="#000000" d="M 78.1333984375 111 L 72.1333984375 118 L 84.1333984375 118 L 78.1333984375 111" stroke-miterlimit="10"/></g><g transform="translate(-6,-70) scale(1,1)"><g><path fill="none" stroke="none"/><text fill="#000000" stroke="none" font-family="Arial" font-size="13px" font-style="normal" font-weight="bold" text-decoration="none" x="62.101318359375" y="141">Deployement</text></g></g><g transform="translate(-6,-70) scale(1,1)"><g><path fill="none" stroke="none"/><text fill="#000000" stroke="none" font-family="Arial" font-size="13px" font-style="normal" font-weight="normal" text-decoration="none" x="28.5" y="156">(from Stock Maintenance)</text></g></g><g transform="translate(-6,-70) scale(1,1)"><rect fill="#C0C0C0" stroke="none" x="31" y="195" width="63.133398437500006" height="15" opacity="0.2"/></g><g transform="translate(-6,-70) scale(1,1)"><rect fill="#C0C0C0" stroke="none" x="31" y="209" width="157.83349609375" height="40" opacity="0.2"/></g><g transform="translate(-6,-70) scale(1,1)"><rect fill="#ffffff" stroke="none" x="24" y="203" width="157.83349609375" height="39"/></g><g transform="translate(-6,-70) scale(1,1)"><path fill="none" stroke="#000000" d="M 24 203 L 181.83349609375 203 L 181.83349609375 242 L 24 242 L 24 203 Z Z" stroke-miterlimit="10"/></g><g transform="translate(-6,-70) scale(1,1)"><rect fill="#ffffff" stroke="none" x="24" y="188" width="63.133398437500006" height="15"/></g><g transform="translate(-6,-70) scale(1,1)"><path fill="none" stroke="#000000" d="M 24 188 L 87.1333984375 188 L 87.1333984375 203 L 24 203 L 24 188 Z Z" stroke-miterlimit="10"/></g><g transform="translate(-6,-70) scale(1,1)"><rect fill="#ffffff" stroke="none" x="24" y="202" width="157.83349609375" height="40"/></g><g transform="translate(-6,-70) scale(1,1)"><path fill="none" stroke="#000000" d="M 24 202 L 181.83349609375 202 L 181.83349609375 242 L 24 242 L 24 202 Z Z" stroke-miterlimit="10"/></g><g transform="translate(-6,-70) scale(1,1)"><path fill="none" stroke="#000000" d="M 78.1333984375 191 L 72.1333984375 198 L 84.1333984375 198 L 78.1333984375 191" stroke-miterlimit="10"/></g><g transform="translate(-6,-70) scale(1,1)"><g><path fill="none" stroke="none"/><text fill="#000000" stroke="none" font-family="Arial" font-size="13px" font-style="normal" font-weight="bold" text-decoration="none" x="66.811279296875" y="221">Component</text></g></g><g transform="translate(-6,-70) scale(1,1)"><g><path fill="none" stroke="none"/><text fill="#000000" stroke="none" font-family="Arial" font-size="13px" font-style="normal" font-weight="normal" text-decoration="none" x="28.5" y="236">(from Stock Maintenance)</text></g></g><g transform="translate(-6,-70) scale(1,1)"><rect fill="#C0C0C0" stroke="none" x="31" y="275" width="63.133398437500006" height="15" opacity="0.2"/></g><g transform="translate(-6,-70) scale(1,1)"><rect fill="#C0C0C0" stroke="none" x="31" y="289" width="157.83349609375" height="40" opacity="0.2"/></g><g transform="translate(-6,-70) scale(1,1)"><rect fill="#ffffff" stroke="none" x="24" y="283" width="157.83349609375" height="39"/></g><g transform="translate(-6,-70) scale(1,1)"><path fill="none" stroke="#000000" d="M 24 283 L 181.83349609375 283 L 181.83349609375 322 L 24 322 L 24 283 Z Z" stroke-miterlimit="10"/></g><g transform="translate(-6,-70) scale(1,1)"><rect fill="#ffffff" stroke="none" x="24" y="268" width="63.133398437500006" height="15"/></g><g transform="translate(-6,-70) scale(1,1)"><path fill="none" stroke="#000000" d="M 24 268 L 87.1333984375 268 L 87.1333984375 283 L 24 283 L 24 268 Z Z" stroke-miterlimit="10"/></g><g transform="translate(-6,-70) scale(1,1)"><rect fill="#ffffff" stroke="none" x="24" y="282" width="157.83349609375" height="40"/></g><g transform="translate(-6,-70) scale(1,1)"><path fill="none" stroke="#000000" d="M 24 282 L 181.83349609375 282 L 181.83349609375 322 L 24 322 L 24 282 Z Z" stroke-miterlimit="10"/></g><g transform="translate(-6,-70) scale(1,1)"><path fill="none" stroke="#000000" d="M 78.1333984375 271 L 72.1333984375 278 L 84.1333984375 278 L 78.1333984375 271" stroke-miterlimit="10"/></g><g transform="translate(-6,-70) scale(1,1)"><g><path fill="none" stroke="none"/><text fill="#000000" stroke="none" font-family="Arial" font-size="13px" font-style="normal" font-weight="bold" text-decoration="none" x="85.57177734375" y="301">Class</text></g></g><g transform="translate(-6,-70) scale(1,1)"><g><path fill="none" stroke="none"/><text fill="#000000" stroke="none" font-family="Arial" font-size="13px" font-style="normal" font-weight="normal" text-decoration="none" x="28.5" y="316">(from Stock Maintenance)</text></g></g><g transform="translate(-6,-70) scale(1,1)"><path fill="#C0C0C0" stroke="none" d="M 229 194.5 C 229 183.7304464 264.33222763515624 175 307.916748046875 175 C 351.50126845859376 175 386.83349609375 183.7304464 386.83349609375 194.5 C 386.83349609375 205.2695536 351.50126845859376 214 307.916748046875 214 C 264.33222763515624 214 229 205.2695536 229 194.5 Z" opacity="0.2"/></g><g transform="translate(-6,-70) scale(1,1)"><path fill="#ffffff" stroke="none" d="M 222 187.5 C 222 176.7304464 257.33222763515624 168 300.916748046875 168 C 344.50126845859376 168 379.83349609375 176.7304464 379.83349609375 187.5 C 379.83349609375 198.2695536 344.50126845859376 207 300.916748046875 207 C 257.33222763515624 207 222 198.2695536 222 187.5 Z"/></g><g transform="translate(-6,-70) scale(1,1)"><path fill="none" stroke="#000000" d="M 222 187.5 C 222 176.7304464 257.33222763515624 168 300.916748046875 168 C 344.50126845859376 168 379.83349609375 176.7304464 379.83349609375 187.5 C 379.83349609375 198.2695536 344.50126845859376 207 300.916748046875 207 C 257.33222763515624 207 222 198.2695536 222 187.5 Z" stroke-miterlimit="10" stroke-dasharray="5"/></g><g transform="translate(-6,-70) scale(1,1)"><g><path fill="none" stroke="none"/><text fill="#000000" stroke="none" font-family="Arial" font-size="13px" font-style="normal" font-weight="bold" text-decoration="none" x="255.41357421875" y="186">Collaboration1</text></g></g><g transform="translate(-6,-70) scale(1,1)"><g><path fill="none" stroke="none"/><text fill="#000000" stroke="none" font-family="Arial" font-size="13px" font-style="normal" font-weight="normal" text-decoration="none" x="226.5" y="201">(from Stock Maintenance)</text></g></g><g transform="translate(-6,-70) scale(1,1)"><path fill="#C0C0C0" stroke="none" d="M 231 298.5 C 231 287.7304464 266.33222763515624 279 309.916748046875 279 C 353.50126845859376 279 388.83349609375 287.7304464 388.83349609375 298.5 C 388.83349609375 309.2695536 353.50126845859376 318 309.916748046875 318 C 266.33222763515624 318 231 309.2695536 231 298.5 Z" opacity="0.2"/></g><g transform="translate(-6,-70) scale(1,1)"><path fill="#ffffff" stroke="none" d="M 224 291.5 C 224 280.7304464 259.33222763515624 272 302.916748046875 272 C 346.50126845859376 272 381.83349609375 280.7304464 381.83349609375 291.5 C 381.83349609375 302.2695536 346.50126845859376 311 302.916748046875 311 C 259.33222763515624 311 224 302.2695536 224 291.5 Z"/></g><g transform="translate(-6,-70) scale(1,1)"><path fill="none" stroke="#000000" d="M 224 291.5 C 224 280.7304464 259.33222763515624 272 302.916748046875 272 C 346.50126845859376 272 381.83349609375 280.7304464 381.83349609375 291.5 C 381.83349609375 302.2695536 346.50126845859376 311 302.916748046875 311 C 259.33222763515624 311 224 302.2695536 224 291.5 Z" stroke-miterlimit="10" stroke-dasharray="5"/></g><g transform="translate(-6,-70) scale(1,1)"><g><path fill="none" stroke="none"/><text fill="#000000" stroke="none" font-family="Arial" font-size="13px" font-style="normal" font-weight="bold" text-decoration="none" x="257.41357421875" y="290">Collaboration2</text></g></g><g transform="translate(-6,-70) scale(1,1)"><g><path fill="none" stroke="none"/><text fill="#000000" stroke="none" font-family="Arial" font-size="13px" font-style="normal" font-weight="normal" text-decoration="none" x="228.5" y="305">(from Stock Maintenance)</text></g></g><g transform="translate(-6,-70) scale(1,1)"><rect fill="#ffffff" stroke="none" x="419" y="364" width="214.35888671875" height="22"/></g><g transform="translate(-6,-70) scale(1,1)"><path fill="none" stroke="#000000" d="M 419 364 L 633.35888671875 364 L 633.35888671875 386 L 419 386 L 419 364 Z Z" stroke-miterlimit="10"/></g><g transform="translate(-6,-70) scale(1,1)"><path fill="none" stroke="#000000" d="M 451.39453125 364 L 451.39453125 386" stroke-miterlimit="10"/></g><g transform="translate(-6,-70) scale(1,1)"><g><path fill="none" stroke="none"/><text fill="#000000" stroke="none" font-family="Arial" font-size="13px" font-style="normal" font-weight="normal" text-decoration="none" x="455.89453125" y="380">ActivityDiagram1</text></g></g><g transform="translate(-6,-70) scale(1,1)"><g><path fill="none" stroke="none"/><text fill="#000000" stroke="none" font-family="Arial" font-size="13px" font-style="normal" font-weight="bold" text-decoration="none" x="424" y="380">link</text></g></g><g transform="translate(-6,-70) scale(1,1)"><rect fill="#ffffff" stroke="none" x="419" y="304" width="214.35888671875" height="22"/></g><g transform="translate(-6,-70) scale(1,1)"><path fill="none" stroke="#000000" d="M 419 304 L 633.35888671875 304 L 633.35888671875 326 L 419 326 L 419 304 Z Z" stroke-miterlimit="10"/></g><g transform="translate(-6,-70) scale(1,1)"><path fill="none" stroke="#000000" d="M 451.39453125 304 L 451.39453125 326" stroke-miterlimit="10"/></g><g transform="translate(-6,-70) scale(1,1)"><g><path fill="none" stroke="none"/><text fill="#000000" stroke="none" font-family="Arial" font-size="13px" font-style="normal" font-weight="normal" text-decoration="none" x="455.89453125" y="320">StatechartDiagram1</text></g></g><g transform="translate(-6,-70) scale(1,1)"><g><path fill="none" stroke="none"/><text fill="#000000" stroke="none" font-family="Arial" font-size="13px" font-style="normal" font-weight="bold" text-decoration="none" x="424" y="320">link</text></g></g><g transform="translate(-6,-70) scale(1,1)"><rect fill="#C0C0C0" stroke="none" x="31" y="355" width="63.133398437500006" height="15" opacity="0.2"/></g><g transform="translate(-6,-70) scale(1,1)"><rect fill="#C0C0C0" stroke="none" x="31" y="369" width="157.83349609375" height="40" opacity="0.2"/></g><g transform="translate(-6,-70) scale(1,1)"><rect fill="#ffffff" stroke="none" x="24" y="363" width="157.83349609375" height="39"/></g><g transform="translate(-6,-70) scale(1,1)"><path fill="none" stroke="#000000" d="M 24 363 L 181.83349609375 363 L 181.83349609375 402 L 24 402 L 24 363 Z Z" stroke-miterlimit="10"/></g><g transform="translate(-6,-70) scale(1,1)"><rect fill="#ffffff" stroke="none" x="24" y="348" width="63.133398437500006" height="15"/></g><g transform="translate(-6,-70) scale(1,1)"><path fill="none" stroke="#000000" d="M 24 348 L 87.1333984375 348 L 87.1333984375 363 L 24 363 L 24 348 Z Z" stroke-miterlimit="10"/></g><g transform="translate(-6,-70) scale(1,1)"><rect fill="#ffffff" stroke="none" x="24" y="362" width="157.83349609375" height="40"/></g><g transform="translate(-6,-70) scale(1,1)"><path fill="none" stroke="#000000" d="M 24 362 L 181.83349609375 362 L 181.83349609375 402 L 24 402 L 24 362 Z Z" stroke-miterlimit="10"/></g><g transform="translate(-6,-70) scale(1,1)"><path fill="none" stroke="#000000" d="M 78.1333984375 351 L 72.1333984375 358 L 84.1333984375 358 L 78.1333984375 351" stroke-miterlimit="10"/></g><g transform="translate(-6,-70) scale(1,1)"><g><path fill="none" stroke="none"/><text fill="#000000" stroke="none" font-family="Arial" font-size="13px" font-style="normal" font-weight="bold" text-decoration="none" x="53.062255859375" y="381">UseCaseModel3</text></g></g><g transform="translate(-6,-70) scale(1,1)"><g><path fill="none" stroke="none"/><text fill="#000000" stroke="none" font-family="Arial" font-size="13px" font-style="normal" font-weight="normal" text-decoration="none" x="28.5" y="396">(from Stock Maintenance)</text></g></g><g transform="translate(-6,-70) scale(1,1)"><rect fill="#ffffff" stroke="none" x="419" y="124" width="214.35888671875" height="22"/></g><g transform="translate(-6,-70) scale(1,1)"><path fill="none" stroke="#000000" d="M 419 124 L 633.35888671875 124 L 633.35888671875 146 L 419 146 L 419 124 Z Z" stroke-miterlimit="10"/></g><g transform="translate(-6,-70) scale(1,1)"><path fill="none" stroke="#000000" d="M 451.39453125 124 L 451.39453125 146" stroke-miterlimit="10"/></g><g transform="translate(-6,-70) scale(1,1)"><g><path fill="none" stroke="none"/><text fill="#000000" stroke="none" font-family="Arial" font-size="13px" font-style="normal" font-weight="normal" text-decoration="none" x="455.89453125" y="140">217Y1A05C0 - DFDDiagram0</text></g></g><g transform="translate(-6,-70) scale(1,1)"><g><path fill="none" stroke="none"/><text fill="#000000" stroke="none" font-family="Arial" font-size="13px" font-style="normal" font-weight="bold" text-decoration="none" x="424" y="140">link</text></g></g><g transform="translate(-6,-70) scale(1,1)"><rect fill="#ffffff" stroke="none" x="419" y="184" width="214.35888671875" height="22"/></g><g transform="translate(-6,-70) scale(1,1)"><path fill="none" stroke="#000000" d="M 419 184 L 633.35888671875 184 L 633.35888671875 206 L 419 206 L 419 184 Z Z" stroke-miterlimit="10"/></g><g transform="translate(-6,-70) scale(1,1)"><path fill="none" stroke="#000000" d="M 451.39453125 184 L 451.39453125 206" stroke-miterlimit="10"/></g><g transform="translate(-6,-70) scale(1,1)"><g><path fill="none" stroke="none"/><text fill="#000000" stroke="none" font-family="Arial" font-size="13px" font-style="normal" font-weight="normal" text-decoration="none" x="455.89453125" y="200">217Y1A05C0 - DFDDiagram1</text></g></g><g transform="translate(-6,-70) scale(1,1)"><g><path fill="none" stroke="none"/><text fill="#000000" stroke="none" font-family="Arial" font-size="13px" font-style="normal" font-weight="bold" text-decoration="none" x="424" y="200">link</text></g></g><g transform="translate(-6,-70) scale(1,1)"><rect fill="#ffffff" stroke="none" x="419" y="244" width="214.35888671875" height="22"/></g><g transform="translate(-6,-70) scale(1,1)"><path fill="none" stroke="#000000" d="M 419 244 L 633.35888671875 244 L 633.35888671875 266 L 419 266 L 419 244 Z Z" stroke-miterlimit="10"/></g><g transform="translate(-6,-70) scale(1,1)"><path fill="none" stroke="#000000" d="M 451.39453125 244 L 451.39453125 266" stroke-miterlimit="10"/></g><g transform="translate(-6,-70) scale(1,1)"><g><path fill="none" stroke="none"/><text fill="#000000" stroke="none" font-family="Arial" font-size="13px" font-style="normal" font-weight="normal" text-decoration="none" x="455.89453125" y="260">217Y1A05C0 - DFDDiagram2</text></g></g><g transform="translate(-6,-70) scale(1,1)"><g><path fill="none" stroke="none"/><text fill="#000000" stroke="none" font-family="Arial" font-size="13px" font-style="normal" font-weight="bold" text-decoration="none" x="424" y="260">link</text></g></g></g></svg>