<svg version="1.1" xmlns="http://www.w3.org/2000/svg" xmlns:xlink="http://www.w3.org/1999/xlink" width="804" height="492"><defs/><g><g transform="translate(-38,-70) scale(1,1)"><path fill="none" stroke="#000000" d="M 48 80 L 832 80 L 832 552 L 48 552 L 48 80" stroke-miterlimit="10"/></g><g transform="translate(-38,-70) scale(1,1)"><path fill="#ffffff" stroke="none" d="M 48 80 L 48 102 L 313.29150390625 102 L 324.29150390625 91 L 324.29150390625 80 L 48 80"/></g><g transform="translate(-38,-70) scale(1,1)"><path fill="none" stroke="#000000" d="M 48 80 L 48 102 L 313.29150390625 102 L 324.29150390625 91 L 324.29150390625 80 L 48 80 L 48 80" stroke-miterlimit="10"/></g><g transform="translate(-38,-70) scale(1,1)"><g><path fill="none" stroke="none"/><text fill="#000000" stroke="none" font-family="Arial" font-size="13px" font-style="normal" font-weight="normal" text-decoration="none" x="72.72998046875" y="96">CommunicationDiagram1 - 217Y1A05C0</text></g></g><g transform="translate(-38,-70) scale(1,1)"><g><path fill="none" stroke="none"/><text fill="#000000" stroke="none" font-family="Arial" font-size="13px" font-style="normal" font-weight="bold" text-decoration="none" x="52.279541015625" y="96">sd</text></g></g><g transform="translate(-38,-70) scale(1,1)"><rect fill="#C0C0C0" stroke="none" x="66" y="134" width="180.24072265625" height="50" opacity="0.2"/></g><g transform="translate(-38,-70) scale(1,1)"><rect fill="#ffffff" stroke="none" x="59" y="127" width="180.24072265625" height="50"/></g><g transform="translate(-38,-70) scale(1,1)"><path fill="none" stroke="#000000" d="M 59 127 L 239.24072265625 127 L 239.24072265625 177 L 59 177 L 59 127 Z Z" stroke-miterlimit="10"/></g><g transform="translate(-38,-70) scale(1,1)"><rect fill="#ffffff" stroke="none" x="59" y="127" width="180.24072265625" height="50"/></g><g transform="translate(-38,-70) scale(1,1)"><path fill="none" stroke="#000000" d="M 59 127 L 239.24072265625 127 L 239.24072265625 177 L 59 177 L 59 127 Z Z" stroke-miterlimit="10"/></g><g transform="translate(-38,-70) scale(1,1)"><g><path fill="none" stroke="none"/><text fill="#000000" stroke="none" font-family="Arial" font-size="13px" font-style="normal" font-weight="bold" text-decoration="none" x="106.50537109375" y="145">Student: User</text></g></g><g transform="translate(-38,-70) scale(1,1)"><rect fill="#C0C0C0" stroke="none" x="599" y="494" width="180.24072265625" height="50" opacity="0.2"/></g><g transform="translate(-38,-70) scale(1,1)"><rect fill="#ffffff" stroke="none" x="592" y="487" width="180.24072265625" height="50"/></g><g transform="translate(-38,-70) scale(1,1)"><path fill="none" stroke="#000000" d="M 592 487 L 772.24072265625 487 L 772.24072265625 537 L 592 537 L 592 487 Z Z" stroke-miterlimit="10"/></g><g transform="translate(-38,-70) scale(1,1)"><rect fill="#ffffff" stroke="none" x="592" y="487" width="180.24072265625" height="50"/></g><g transform="translate(-38,-70) scale(1,1)"><path fill="none" stroke="#000000" d="M 592 487 L 772.24072265625 487 L 772.24072265625 537 L 592 537 L 592 487 Z Z" stroke-miterlimit="10"/></g><g transform="translate(-38,-70) scale(1,1)"><g><path fill="none" stroke="none"/><text fill="#000000" stroke="none" font-family="Arial" font-size="13px" font-style="normal" font-weight="bold" text-decoration="none" x="627.2099609375" y="505">Database: Library</text><text fill="#000000" stroke="none" font-family="Arial" font-size="13px" font-style="normal" font-weight="bold" text-decoration="none" x="653.21630859375" y="518">Database</text></g></g><g transform="translate(-38,-70) scale(1,1)"><rect fill="#C0C0C0" stroke="none" x="66" y="494" width="180.24072265625" height="50" opacity="0.2"/></g><g transform="translate(-38,-70) scale(1,1)"><rect fill="#ffffff" stroke="none" x="59" y="487" width="180.24072265625" height="50"/></g><g transform="translate(-38,-70) scale(1,1)"><path fill="none" stroke="#000000" d="M 59 487 L 239.24072265625 487 L 239.24072265625 537 L 59 537 L 59 487 Z Z" stroke-miterlimit="10"/></g><g transform="translate(-38,-70) scale(1,1)"><rect fill="#ffffff" stroke="none" x="59" y="487" width="180.24072265625" height="50"/></g><g transform="translate(-38,-70) scale(1,1)"><path fill="none" stroke="#000000" d="M 59 487 L 239.24072265625 487 L 239.24072265625 537 L 59 537 L 59 487 Z Z" stroke-miterlimit="10"/></g><g transform="translate(-38,-70) scale(1,1)"><g><path fill="none" stroke="none"/><text fill="#000000" stroke="none" font-family="Arial" font-size="13px" font-style="normal" font-weight="bold" text-decoration="none" x="127.08447265625" y="505">Library</text></g></g><g transform="translate(-38,-70) scale(1,1)"><rect fill="#C0C0C0" stroke="none" x="599" y="134" width="180.24072265625" height="50" opacity="0.2"/></g><g transform="translate(-38,-70) scale(1,1)"><rect fill="#ffffff" stroke="none" x="592" y="127" width="180.24072265625" height="50"/></g><g transform="translate(-38,-70) scale(1,1)"><path fill="none" stroke="#000000" d="M 592 127 L 772.24072265625 127 L 772.24072265625 177 L 592 177 L 592 127 Z Z" stroke-miterlimit="10"/></g><g transform="translate(-38,-70) scale(1,1)"><rect fill="#ffffff" stroke="none" x="592" y="127" width="180.24072265625" height="50"/></g><g transform="translate(-38,-70) scale(1,1)"><path fill="none" stroke="#000000" d="M 592 127 L 772.24072265625 127 L 772.24072265625 177 L 592 177 L 592 127 Z Z" stroke-miterlimit="10"/></g><g transform="translate(-38,-70) scale(1,1)"><g><path fill="none" stroke="none"/><text fill="#000000" stroke="none" font-family="Arial" font-size="13px" font-style="normal" font-weight="bold" text-decoration="none" x="606.284912109375" y="145">App: Library Application</text></g></g><g transform="translate(-38,-70) scale(1,1)"><rect fill="#C0C0C0" stroke="none" x="66" y="315" width="180.24072265625" height="50" opacity="0.2"/></g><g transform="translate(-38,-70) scale(1,1)"><rect fill="#ffffff" stroke="none" x="59" y="308" width="180.24072265625" height="50"/></g><g transform="translate(-38,-70) scale(1,1)"><path fill="none" stroke="#000000" d="M 59 308 L 239.24072265625 308 L 239.24072265625 358 L 59 358 L 59 308 Z Z" stroke-miterlimit="10"/></g><g transform="translate(-38,-70) scale(1,1)"><rect fill="#ffffff" stroke="none" x="59" y="308" width="180.24072265625" height="50"/></g><g transform="translate(-38,-70) scale(1,1)"><path fill="none" stroke="#000000" d="M 59 308 L 239.24072265625 308 L 239.24072265625 358 L 59 358 L 59 308 Z Z" stroke-miterlimit="10"/></g><g transform="translate(-38,-70) scale(1,1)"><g><path fill="none" stroke="none"/><text fill="#000000" stroke="none" font-family="Arial" font-size="13px" font-style="normal" font-weight="bold" text-decoration="none" x="95.3017578125" y="326">Payment  module</text></g></g><g transform="translate(-38,-70) scale(1,1)"><path fill="none" stroke="#000000" d="M 682 486 L 682 178" stroke-miterlimit="10"/></g><g transform="translate(-38,-70) scale(1,1)"><path fill="none" stroke="#000000" d="M 672 311 L 672 351" stroke-miterlimit="10"/></g><g transform="translate(-38,-70) scale(1,1)"><path fill="#000000" stroke="none" d="M 676 322 L 672 311 L 667 322"/></g><g transform="translate(-38,-70) scale(1,1)"><g><path fill="none" stroke="none"/><text fill="#000000" stroke="none" font-family="Arial" font-size="13px" font-style="normal" font-weight="normal" text-decoration="none" x="695.23828125" y="235">20 : Status update</text></g></g><g transform="translate(-38,-70) scale(1,1)"><path fill="none" stroke="#000000" d="M 682 486 L 682 178" stroke-miterlimit="10"/></g><g transform="translate(-38,-70) scale(1,1)"><path fill="none" stroke="#000000" d="M 672 311 L 672 351" stroke-miterlimit="10" stroke-dasharray="3"/></g><g transform="translate(-38,-70) scale(1,1)"><path fill="none" stroke="#000000" d="M 676 322 L 672 311 L 667 322" stroke-miterlimit="10"/></g><g transform="translate(-38,-70) scale(1,1)"><g><path fill="none" stroke="none"/><text fill="#000000" stroke="none" font-family="Arial" font-size="13px" font-style="normal" font-weight="normal" text-decoration="none" x="598.92822265625" y="330">23 : Receit</text></g></g><g transform="translate(-38,-70) scale(1,1)"><path fill="none" stroke="#000000" d="M 591 152 L 240 152" stroke-miterlimit="10"/></g><g transform="translate(-38,-70) scale(1,1)"><path fill="none" stroke="#000000" d="M 389 167 L 429 167" stroke-miterlimit="10" stroke-dasharray="3"/></g><g transform="translate(-38,-70) scale(1,1)"><path fill="none" stroke="#000000" d="M 400 162 L 389 167 L 400 171" stroke-miterlimit="10"/></g><g transform="translate(-38,-70) scale(1,1)"><g><path fill="none" stroke="none"/><text fill="#000000" stroke="none" font-family="Arial" font-size="13px" font-style="normal" font-weight="normal" text-decoration="none" x="335.1201171875" y="218">18 : Shows payments methods</text></g></g><g transform="translate(-38,-70) scale(1,1)"><path fill="none" stroke="#000000" d="M 149 178 L 149 307" stroke-miterlimit="10"/></g><g transform="translate(-38,-70) scale(1,1)"><path fill="none" stroke="#000000" d="M 158 261 L 158 221" stroke-miterlimit="10"/></g><g transform="translate(-38,-70) scale(1,1)"><path fill="#000000" stroke="none" d="M 153 249 L 158 261 L 162 249"/></g><g transform="translate(-38,-70) scale(1,1)"><g><path fill="none" stroke="none"/><text fill="#000000" stroke="none" font-family="Arial" font-size="13px" font-style="normal" font-weight="normal" text-decoration="none" x="65.892333984375" y="242.5">19 : Procedes</text><text fill="#000000" stroke="none" font-family="Arial" font-size="13px" font-style="normal" font-weight="normal" text-decoration="none" x="81.069580078125" y="255">payment</text></g></g><g transform="translate(-38,-70) scale(1,1)"><path fill="none" stroke="#000000" d="M 226 359 L 605 486" stroke-miterlimit="10"/></g><g transform="translate(-38,-70) scale(1,1)"><path fill="none" stroke="#000000" d="M 437 418 L 400 406" stroke-miterlimit="10"/></g><g transform="translate(-38,-70) scale(1,1)"><path fill="#000000" stroke="none" d="M 425 418 L 437 418 L 427 410"/></g><g transform="translate(-38,-70) scale(1,1)"><g><path fill="none" stroke="none"/><text fill="#000000" stroke="none" font-family="Arial" font-size="13px" font-style="normal" font-weight="normal" text-decoration="none" x="319.53857421875" y="387.5">21 : Transaction details</text><text fill="#000000" stroke="none" font-family="Arial" font-size="13px" font-style="normal" font-weight="normal" text-decoration="none" x="363.369140625" y="400.5">updates</text></g></g><g transform="translate(-38,-70) scale(1,1)"><path fill="none" stroke="#000000" d="M 682 487 L 682 448 L 792 448 L 792 512 L 772 512" stroke-miterlimit="10"/></g><g transform="translate(-38,-70) scale(1,1)"><path fill="none" stroke="#000000" d="M 801 467 L 801 427" stroke-miterlimit="10"/></g><g transform="translate(-38,-70) scale(1,1)"><path fill="#000000" stroke="none" d="M 796 455 L 801 467 L 805 455"/></g><g transform="translate(-38,-70) scale(1,1)"><g><path fill="none" stroke="none"/><text fill="#000000" stroke="none" font-family="Arial" font-size="13px" font-style="normal" font-weight="normal" text-decoration="none" x="712.095947265625" y="462.5">22 : Verify</text><text fill="#000000" stroke="none" font-family="Arial" font-size="13px" font-style="normal" font-weight="normal" text-decoration="none" x="707.28125" y="475.5">Transaction</text></g></g><g transform="translate(-38,-70) scale(1,1)"><path fill="none" stroke="#000000" d="M 591 152 L 240 152" stroke-miterlimit="10"/></g><g transform="translate(-38,-70) scale(1,1)"><path fill="none" stroke="#000000" d="M 391 167 L 431 167" stroke-miterlimit="10" stroke-dasharray="3"/></g><g transform="translate(-38,-70) scale(1,1)"><path fill="none" stroke="#000000" d="M 402 162 L 391 167 L 402 171" stroke-miterlimit="10"/></g><g transform="translate(-38,-70) scale(1,1)"><g><path fill="none" stroke="none"/><text fill="#000000" stroke="none" font-family="Arial" font-size="13px" font-style="normal" font-weight="normal" text-decoration="none" x="358.55615234375" y="202">11 : Book available</text></g></g><g transform="translate(-38,-70) scale(1,1)"><path fill="none" stroke="#000000" d="M 644 486 L 187 178" stroke-miterlimit="10"/></g><g transform="translate(-38,-70) scale(1,1)"><path fill="none" stroke="#000000" d="M 408 311 L 441 333" stroke-miterlimit="10" stroke-dasharray="3"/></g><g transform="translate(-38,-70) scale(1,1)"><path fill="none" stroke="#000000" d="M 419 313 L 408 311 L 414 320" stroke-miterlimit="10"/></g><g transform="translate(-38,-70) scale(1,1)"><g><path fill="none" stroke="none"/><text fill="#000000" stroke="none" font-family="Arial" font-size="13px" font-style="normal" font-weight="normal" text-decoration="none" x="421.63916015625" y="304.5">12 : Display book</text><text fill="#000000" stroke="none" font-family="Arial" font-size="13px" font-style="normal" font-weight="normal" text-decoration="none" x="457.411376953125" y="317.5">price</text></g></g><g transform="translate(-38,-70) scale(1,1)"><path fill="none" stroke="#000000" d="M 240 152 L 591 152" stroke-miterlimit="10"/></g><g transform="translate(-38,-70) scale(1,1)"><path fill="none" stroke="#000000" d="M 431 142 L 391 142" stroke-miterlimit="10"/></g><g transform="translate(-38,-70) scale(1,1)"><path fill="#000000" stroke="none" d="M 419 146 L 431 142 L 419 137"/></g><g transform="translate(-38,-70) scale(1,1)"><g><path fill="none" stroke="none"/><text fill="#000000" stroke="none" font-family="Arial" font-size="13px" font-style="normal" font-weight="normal" text-decoration="none" x="359.215087890625" y="115">13 : Payment method</text></g></g><g transform="translate(-38,-70) scale(1,1)"><path fill="none" stroke="#000000" d="M 682 178 L 682 486" stroke-miterlimit="10"/></g><g transform="translate(-38,-70) scale(1,1)"><path fill="none" stroke="#000000" d="M 692 351 L 692 311" stroke-miterlimit="10"/></g><g transform="translate(-38,-70) scale(1,1)"><path fill="#000000" stroke="none" d="M 687 339 L 692 351 L 696 339"/></g><g transform="translate(-38,-70) scale(1,1)"><g><path fill="none" stroke="none"/><text fill="#000000" stroke="none" font-family="Arial" font-size="13px" font-style="normal" font-weight="normal" text-decoration="none" x="695.406005859375" y="291">14 : Request payment</text></g></g><g transform="translate(-38,-70) scale(1,1)"><path fill="none" stroke="#000000" d="M 605 486 L 226 359" stroke-miterlimit="10"/></g><g transform="translate(-38,-70) scale(1,1)"><path fill="none" stroke="#000000" d="M 393 425 L 430 437" stroke-miterlimit="10"/></g><g transform="translate(-38,-70) scale(1,1)"><path fill="#000000" stroke="none" d="M 404 424 L 393 425 L 402 432"/></g><g transform="translate(-38,-70) scale(1,1)"><g><path fill="none" stroke="none"/><text fill="#000000" stroke="none" font-family="Arial" font-size="13px" font-style="normal" font-weight="normal" text-decoration="none" x="297.156005859375" y="442.5">15 : Enable Payment</text><text fill="#000000" stroke="none" font-family="Arial" font-size="13px" font-style="normal" font-weight="normal" text-decoration="none" x="332.569580078125" y="455.5">methods</text></g></g><g transform="translate(-38,-70) scale(1,1)"><path fill="none" stroke="#000000" d="M 226 359 L 605 486" stroke-miterlimit="10"/></g><g transform="translate(-38,-70) scale(1,1)"><path fill="none" stroke="#000000" d="M 437 418 L 400 406" stroke-miterlimit="10" stroke-dasharray="3"/></g><g transform="translate(-38,-70) scale(1,1)"><path fill="none" stroke="#000000" d="M 425 418 L 437 418 L 427 410" stroke-miterlimit="10"/></g><g transform="translate(-38,-70) scale(1,1)"><g><path fill="none" stroke="none"/><text fill="#000000" stroke="none" font-family="Arial" font-size="13px" font-style="normal" font-weight="normal" text-decoration="none" x="278.94921875" y="370">16 : Sends payment methods</text></g></g><g transform="translate(-38,-70) scale(1,1)"><path fill="none" stroke="#000000" d="M 682 486 L 682 178" stroke-miterlimit="10"/></g><g transform="translate(-38,-70) scale(1,1)"><path fill="none" stroke="#000000" d="M 672 311 L 672 351" stroke-miterlimit="10" stroke-dasharray="3"/></g><g transform="translate(-38,-70) scale(1,1)"><path fill="none" stroke="#000000" d="M 676 322 L 672 311 L 667 322" stroke-miterlimit="10"/></g><g transform="translate(-38,-70) scale(1,1)"><g><path fill="none" stroke="none"/><text fill="#000000" stroke="none" font-family="Arial" font-size="13px" font-style="normal" font-weight="normal" text-decoration="none" x="689.935546875" y="258.5">17 : Update Payment</text><text fill="#000000" stroke="none" font-family="Arial" font-size="13px" font-style="normal" font-weight="normal" text-decoration="none" x="726.069580078125" y="271.5">methods</text></g></g><g transform="translate(-38,-70) scale(1,1)"><path fill="none" stroke="#000000" d="M 240 152 L 591 152" stroke-miterlimit="10"/></g><g transform="translate(-38,-70) scale(1,1)"><path fill="none" stroke="#000000" d="M 431 142 L 391 142" stroke-miterlimit="10"/></g><g transform="translate(-38,-70) scale(1,1)"><path fill="#000000" stroke="none" d="M 419 146 L 431 142 L 419 137"/></g><g transform="translate(-38,-70) scale(1,1)"><g><path fill="none" stroke="none"/><text fill="#000000" stroke="none" font-family="Arial" font-size="13px" font-style="normal" font-weight="normal" text-decoration="none" x="366.8564453125" y="138">5 : Request book</text></g></g><g transform="translate(-38,-70) scale(1,1)"><path fill="none" stroke="#000000" d="M 682 178 L 682 486" stroke-miterlimit="10"/></g><g transform="translate(-38,-70) scale(1,1)"><path fill="none" stroke="#000000" d="M 692 351 L 692 311" stroke-miterlimit="10"/></g><g transform="translate(-38,-70) scale(1,1)"><path fill="#000000" stroke="none" d="M 687 339 L 692 351 L 696 339"/></g><g transform="translate(-38,-70) scale(1,1)"><g><path fill="none" stroke="none"/><text fill="#000000" stroke="none" font-family="Arial" font-size="13px" font-style="normal" font-weight="normal" text-decoration="none" x="703.300537109375" y="346">6 : Send request</text></g></g><g transform="translate(-38,-70) scale(1,1)"><path fill="none" stroke="#000000" d="M 591 512 L 240 512" stroke-miterlimit="10"/></g><g transform="translate(-38,-70) scale(1,1)"><path fill="none" stroke="#000000" d="M 391 502 L 431 502" stroke-miterlimit="10"/></g><g transform="translate(-38,-70) scale(1,1)"><path fill="none" stroke="#000000" d="M 402 497 L 391 502 L 402 506" stroke-miterlimit="10"/></g><g transform="translate(-38,-70) scale(1,1)"><g><path fill="none" stroke="none"/><text fill="#000000" stroke="none" font-family="Arial" font-size="13px" font-style="normal" font-weight="normal" text-decoration="none" x="359.2509765625" y="491">7 : Check for book</text></g></g><g transform="translate(-38,-70) scale(1,1)"><path fill="none" stroke="#000000" d="M 240 512 L 591 512" stroke-miterlimit="10"/></g><g transform="translate(-38,-70) scale(1,1)"><path fill="none" stroke="#000000" d="M 433 519 L 393 519" stroke-miterlimit="10" stroke-dasharray="3"/></g><g transform="translate(-38,-70) scale(1,1)"><path fill="none" stroke="#000000" d="M 421 523 L 433 519 L 421 514" stroke-miterlimit="10"/></g><g transform="translate(-38,-70) scale(1,1)"><g><path fill="none" stroke="none"/><text fill="#000000" stroke="none" font-family="Arial" font-size="13px" font-style="normal" font-weight="normal" text-decoration="none" x="361.085693359375" y="538">8 : Book Available</text></g></g><g transform="translate(-38,-70) scale(1,1)"><path fill="none" stroke="#000000" d="M 682 486 L 682 178" stroke-miterlimit="10"/></g><g transform="translate(-38,-70) scale(1,1)"><path fill="none" stroke="#000000" d="M 672 311 L 672 351" stroke-miterlimit="10" stroke-dasharray="3"/></g><g transform="translate(-38,-70) scale(1,1)"><path fill="none" stroke="#000000" d="M 676 322 L 672 311 L 667 322" stroke-miterlimit="10"/></g><g transform="translate(-38,-70) scale(1,1)"><g><path fill="none" stroke="none"/><text fill="#000000" stroke="none" font-family="Arial" font-size="13px" font-style="normal" font-weight="normal" text-decoration="none" x="702.6328125" y="323">9 : Book Dispached</text></g></g><g transform="translate(-38,-70) scale(1,1)"><path fill="none" stroke="#000000" d="M 682 178 L 682 486" stroke-miterlimit="10"/></g><g transform="translate(-38,-70) scale(1,1)"><path fill="none" stroke="#000000" d="M 692 351 L 692 311" stroke-miterlimit="10"/></g><g transform="translate(-38,-70) scale(1,1)"><path fill="none" stroke="#000000" d="M 687 339 L 692 351 L 696 339" stroke-miterlimit="10"/></g><g transform="translate(-38,-70) scale(1,1)"><g><path fill="none" stroke="none"/><text fill="#000000" stroke="none" font-family="Arial" font-size="13px" font-style="normal" font-weight="normal" text-decoration="none" x="703.188720703125" y="307">10 : Request pricing</text></g></g><g transform="translate(-38,-70) scale(1,1)"><path fill="none" stroke="#000000" d="M 591 152 L 240 152" stroke-miterlimit="10"/></g><g transform="translate(-38,-70) scale(1,1)"><path fill="none" stroke="#000000" d="M 391 167 L 431 167" stroke-miterlimit="10" stroke-dasharray="3"/></g><g transform="translate(-38,-70) scale(1,1)"><path fill="none" stroke="#000000" d="M 402 162 L 391 167 L 402 171" stroke-miterlimit="10"/></g><g transform="translate(-38,-70) scale(1,1)"><g><path fill="none" stroke="none"/><text fill="#000000" stroke="none" font-family="Arial" font-size="13px" font-style="normal" font-weight="normal" text-decoration="none" x="350.188720703125" y="187">3 : Member Loggdin</text></g></g><g transform="translate(-38,-70) scale(1,1)"><path fill="none" stroke="#000000" d="M 682 486 L 682 178" stroke-miterlimit="10"/></g><g transform="translate(-38,-70) scale(1,1)"><path fill="none" stroke="#000000" d="M 672 311 L 672 351" stroke-miterlimit="10" stroke-dasharray="3"/></g><g transform="translate(-38,-70) scale(1,1)"><path fill="none" stroke="#000000" d="M 676 322 L 672 311 L 667 322" stroke-miterlimit="10"/></g><g transform="translate(-38,-70) scale(1,1)"><g><path fill="none" stroke="none"/><text fill="#000000" stroke="none" font-family="Arial" font-size="13px" font-style="normal" font-weight="normal" text-decoration="none" x="702.92431640625" y="362">4 : Valied data</text></g></g><g transform="translate(-38,-70) scale(1,1)"><path fill="none" stroke="#000000" d="M 682 178 L 682 486" stroke-miterlimit="10"/></g><g transform="translate(-38,-70) scale(1,1)"><path fill="none" stroke="#000000" d="M 692 351 L 692 311" stroke-miterlimit="10"/></g><g transform="translate(-38,-70) scale(1,1)"><path fill="#000000" stroke="none" d="M 687 339 L 692 351 L 696 339"/></g><g transform="translate(-38,-70) scale(1,1)"><g><path fill="none" stroke="none"/><text fill="#000000" stroke="none" font-family="Arial" font-size="13px" font-style="normal" font-weight="normal" text-decoration="none" x="694.556884765625" y="378">2 : Check User data</text></g></g><g transform="translate(-38,-70) scale(1,1)"><path fill="none" stroke="#000000" d="M 591 152 L 240 152" stroke-miterlimit="10"/></g><g transform="translate(-38,-70) scale(1,1)"><path fill="none" stroke="#000000" d="M 391 167 L 431 167" stroke-miterlimit="10" stroke-dasharray="3"/></g><g transform="translate(-38,-70) scale(1,1)"><path fill="none" stroke="#000000" d="M 402 162 L 391 167 L 402 171" stroke-miterlimit="10"/></g><g transform="translate(-38,-70) scale(1,1)"><g><path fill="none" stroke="none"/><text fill="#000000" stroke="none" font-family="Arial" font-size="13px" font-style="normal" font-weight="normal" text-decoration="none" x="348.41015625" y="234">24 : Book invoice and book copy</text></g></g></g></svg>