<svg version="1.1" xmlns="http://www.w3.org/2000/svg" xmlns:xlink="http://www.w3.org/1999/xlink" width="317.18359375" height="288"><defs/><g><g transform="translate(-110,-30) scale(1,1)"><path fill="#C0C0C0" stroke="none" d="M 215 57 L 324.89892578125 57 L 324.89892578125 90 L 215 90" opacity="0.2"/></g><g transform="translate(-110,-30) scale(1,1)"><path fill="#C0C0C0" stroke="none" d="M 215 57 L 225 47 L 334.89892578125 47 L 324.89892578125 57" opacity="0.2"/></g><g transform="translate(-110,-30) scale(1,1)"><path fill="#C0C0C0" stroke="none" d="M 334.89892578125 47 L 324.89892578125 57 L 324.89892578125 90 L 334.89892578125 80" opacity="0.2"/></g><g transform="translate(-110,-30) scale(1,1)"><path fill="#f1d9c2" stroke="none" d="M 208 50 L 317.89892578125 50 L 317.89892578125 83 L 208 83"/></g><g transform="translate(-110,-30) scale(1,1)"><path fill="#f1d9c2" stroke="none" d="M 208 50 L 218 40 L 327.89892578125 40 L 317.89892578125 50"/></g><g transform="translate(-110,-30) scale(1,1)"><path fill="#f1d9c2" stroke="none" d="M 327.89892578125 40 L 317.89892578125 50 L 317.89892578125 83 L 327.89892578125 73"/></g><g transform="translate(-110,-30) scale(1,1)"><path fill="none" stroke="#000000" d="M 208 50 L 317.89892578125 50 L 317.89892578125 83 L 208 83 L 208 50" stroke-miterlimit="10"/></g><g transform="translate(-110,-30) scale(1,1)"><path fill="none" stroke="#000000" d="M 208 50 L 218 40 L 327.89892578125 40 L 317.89892578125 50 L 208 50" stroke-miterlimit="10"/></g><g transform="translate(-110,-30) scale(1,1)"><path fill="none" stroke="#000000" d="M 327.89892578125 40 L 317.89892578125 50 L 317.89892578125 83 L 327.89892578125 73 L 327.89892578125 40" stroke-miterlimit="10"/></g><g transform="translate(-110,-30) scale(1,1)"><g><path fill="none" stroke="none"/><text fill="#000000" stroke="none" font-family="Arial" font-size="13px" font-style="normal" font-weight="bold" text-decoration="none" x="227.801025390625" y="68">Web Server</text></g></g><g transform="translate(-110,-30) scale(1,1)"><path fill="#C0C0C0" stroke="none" d="M 215 127 L 324.89892578125 127 L 324.89892578125 160 L 215 160" opacity="0.2"/></g><g transform="translate(-110,-30) scale(1,1)"><path fill="#C0C0C0" stroke="none" d="M 215 127 L 225 117 L 334.89892578125 117 L 324.89892578125 127" opacity="0.2"/></g><g transform="translate(-110,-30) scale(1,1)"><path fill="#C0C0C0" stroke="none" d="M 334.89892578125 117 L 324.89892578125 127 L 324.89892578125 160 L 334.89892578125 150" opacity="0.2"/></g><g transform="translate(-110,-30) scale(1,1)"><path fill="#f1d9c2" stroke="none" d="M 208 120 L 317.89892578125 120 L 317.89892578125 153 L 208 153"/></g><g transform="translate(-110,-30) scale(1,1)"><path fill="#f1d9c2" stroke="none" d="M 208 120 L 218 110 L 327.89892578125 110 L 317.89892578125 120"/></g><g transform="translate(-110,-30) scale(1,1)"><path fill="#f1d9c2" stroke="none" d="M 327.89892578125 110 L 317.89892578125 120 L 317.89892578125 153 L 327.89892578125 143"/></g><g transform="translate(-110,-30) scale(1,1)"><path fill="none" stroke="#000000" d="M 208 120 L 317.89892578125 120 L 317.89892578125 153 L 208 153 L 208 120" stroke-miterlimit="10"/></g><g transform="translate(-110,-30) scale(1,1)"><path fill="none" stroke="#000000" d="M 208 120 L 218 110 L 327.89892578125 110 L 317.89892578125 120 L 208 120" stroke-miterlimit="10"/></g><g transform="translate(-110,-30) scale(1,1)"><path fill="none" stroke="#000000" d="M 327.89892578125 110 L 317.89892578125 120 L 317.89892578125 153 L 327.89892578125 143 L 327.89892578125 110" stroke-miterlimit="10"/></g><g transform="translate(-110,-30) scale(1,1)"><g><path fill="none" stroke="none"/><text fill="#000000" stroke="none" font-family="Arial" font-size="13px" font-style="normal" font-weight="bold" text-decoration="none" x="212.5" y="138">Database Server</text></g></g><g transform="translate(-110,-30) scale(1,1)"><path fill="#C0C0C0" stroke="none" d="M 127 281 L 189.18359375 281 L 189.18359375 314 L 127 314" opacity="0.2"/></g><g transform="translate(-110,-30) scale(1,1)"><path fill="#C0C0C0" stroke="none" d="M 127 281 L 137 271 L 199.18359375 271 L 189.18359375 281" opacity="0.2"/></g><g transform="translate(-110,-30) scale(1,1)"><path fill="#C0C0C0" stroke="none" d="M 199.18359375 271 L 189.18359375 281 L 189.18359375 314 L 199.18359375 304" opacity="0.2"/></g><g transform="translate(-110,-30) scale(1,1)"><path fill="#f1d9c2" stroke="none" d="M 120 274 L 182.18359375 274 L 182.18359375 307 L 120 307"/></g><g transform="translate(-110,-30) scale(1,1)"><path fill="#f1d9c2" stroke="none" d="M 120 274 L 130 264 L 192.18359375 264 L 182.18359375 274"/></g><g transform="translate(-110,-30) scale(1,1)"><path fill="#f1d9c2" stroke="none" d="M 192.18359375 264 L 182.18359375 274 L 182.18359375 307 L 192.18359375 297"/></g><g transform="translate(-110,-30) scale(1,1)"><path fill="none" stroke="#000000" d="M 120 274 L 182.18359375 274 L 182.18359375 307 L 120 307 L 120 274" stroke-miterlimit="10"/></g><g transform="translate(-110,-30) scale(1,1)"><path fill="none" stroke="#000000" d="M 120 274 L 130 264 L 192.18359375 264 L 182.18359375 274 L 120 274" stroke-miterlimit="10"/></g><g transform="translate(-110,-30) scale(1,1)"><path fill="none" stroke="#000000" d="M 192.18359375 264 L 182.18359375 274 L 182.18359375 307 L 192.18359375 297 L 192.18359375 264" stroke-miterlimit="10"/></g><g transform="translate(-110,-30) scale(1,1)"><g><path fill="none" stroke="none"/><text fill="#000000" stroke="none" font-family="Arial" font-size="13px" font-style="normal" font-weight="bold" text-decoration="none" x="128.114990234375" y="292">Client 1</text></g></g><g transform="translate(-110,-30) scale(1,1)"><path fill="none" stroke="#000000" d="M 240 154 L 240 208 L 156 208 L 156 264" stroke-miterlimit="10"/></g><g transform="translate(-110,-30) scale(1,1)"><path fill="#C0C0C0" stroke="none" d="M 239 281 L 301.18359375 281 L 301.18359375 314 L 239 314" opacity="0.2"/></g><g transform="translate(-110,-30) scale(1,1)"><path fill="#C0C0C0" stroke="none" d="M 239 281 L 249 271 L 311.18359375 271 L 301.18359375 281" opacity="0.2"/></g><g transform="translate(-110,-30) scale(1,1)"><path fill="#C0C0C0" stroke="none" d="M 311.18359375 271 L 301.18359375 281 L 301.18359375 314 L 311.18359375 304" opacity="0.2"/></g><g transform="translate(-110,-30) scale(1,1)"><path fill="#f1d9c2" stroke="none" d="M 232 274 L 294.18359375 274 L 294.18359375 307 L 232 307"/></g><g transform="translate(-110,-30) scale(1,1)"><path fill="#f1d9c2" stroke="none" d="M 232 274 L 242 264 L 304.18359375 264 L 294.18359375 274"/></g><g transform="translate(-110,-30) scale(1,1)"><path fill="#f1d9c2" stroke="none" d="M 304.18359375 264 L 294.18359375 274 L 294.18359375 307 L 304.18359375 297"/></g><g transform="translate(-110,-30) scale(1,1)"><path fill="none" stroke="#000000" d="M 232 274 L 294.18359375 274 L 294.18359375 307 L 232 307 L 232 274" stroke-miterlimit="10"/></g><g transform="translate(-110,-30) scale(1,1)"><path fill="none" stroke="#000000" d="M 232 274 L 242 264 L 304.18359375 264 L 294.18359375 274 L 232 274" stroke-miterlimit="10"/></g><g transform="translate(-110,-30) scale(1,1)"><path fill="none" stroke="#000000" d="M 304.18359375 264 L 294.18359375 274 L 294.18359375 307 L 304.18359375 297 L 304.18359375 264" stroke-miterlimit="10"/></g><g transform="translate(-110,-30) scale(1,1)"><g><path fill="none" stroke="none"/><text fill="#000000" stroke="none" font-family="Arial" font-size="13px" font-style="normal" font-weight="bold" text-decoration="none" x="240.114990234375" y="292">Client 2</text></g></g><g transform="translate(-110,-30) scale(1,1)"><path fill="none" stroke="#000000" d="M 264 154 L 264 264" stroke-miterlimit="10"/></g><g transform="translate(-110,-30) scale(1,1)"><path fill="#C0C0C0" stroke="none" d="M 351 281 L 413.18359375 281 L 413.18359375 314 L 351 314" opacity="0.2"/></g><g transform="translate(-110,-30) scale(1,1)"><path fill="#C0C0C0" stroke="none" d="M 351 281 L 361 271 L 423.18359375 271 L 413.18359375 281" opacity="0.2"/></g><g transform="translate(-110,-30) scale(1,1)"><path fill="#C0C0C0" stroke="none" d="M 423.18359375 271 L 413.18359375 281 L 413.18359375 314 L 423.18359375 304" opacity="0.2"/></g><g transform="translate(-110,-30) scale(1,1)"><path fill="#f1d9c2" stroke="none" d="M 344 274 L 406.18359375 274 L 406.18359375 307 L 344 307"/></g><g transform="translate(-110,-30) scale(1,1)"><path fill="#f1d9c2" stroke="none" d="M 344 274 L 354 264 L 416.18359375 264 L 406.18359375 274"/></g><g transform="translate(-110,-30) scale(1,1)"><path fill="#f1d9c2" stroke="none" d="M 416.18359375 264 L 406.18359375 274 L 406.18359375 307 L 416.18359375 297"/></g><g transform="translate(-110,-30) scale(1,1)"><path fill="none" stroke="#000000" d="M 344 274 L 406.18359375 274 L 406.18359375 307 L 344 307 L 344 274" stroke-miterlimit="10"/></g><g transform="translate(-110,-30) scale(1,1)"><path fill="none" stroke="#000000" d="M 344 274 L 354 264 L 416.18359375 264 L 406.18359375 274 L 344 274" stroke-miterlimit="10"/></g><g transform="translate(-110,-30) scale(1,1)"><path fill="none" stroke="#000000" d="M 416.18359375 264 L 406.18359375 274 L 406.18359375 307 L 416.18359375 297 L 416.18359375 264" stroke-miterlimit="10"/></g><g transform="translate(-110,-30) scale(1,1)"><g><path fill="none" stroke="none"/><text fill="#000000" stroke="none" font-family="Arial" font-size="13px" font-style="normal" font-weight="bold" text-decoration="none" x="351.759521484375" y="292">Client n</text></g></g><g transform="translate(-110,-30) scale(1,1)"><path fill="none" stroke="#000000" d="M 288 154 L 288 208 L 380 208 L 380 264" stroke-miterlimit="10"/></g></g></svg>