<svg version="1.1" xmlns="http://www.w3.org/2000/svg" xmlns:xlink="http://www.w3.org/1999/xlink" width="644" height="460"><defs/><g><g transform="translate(-30,-30) scale(1,1)"><path fill="none" stroke="#000000" d="M 40 40 L 664 40 L 664 480 L 40 480 L 40 40" stroke-miterlimit="10"/></g><g transform="translate(-30,-30) scale(1,1)"><path fill="#ffffff" stroke="none" d="M 40 40 L 40 62 L 281.443359375 62 L 292.443359375 51 L 292.443359375 40 L 40 40"/></g><g transform="translate(-30,-30) scale(1,1)"><path fill="none" stroke="#000000" d="M 40 40 L 40 62 L 281.443359375 62 L 292.443359375 51 L 292.443359375 40 L 40 40 L 40 40" stroke-miterlimit="10"/></g><g transform="translate(-30,-30) scale(1,1)"><g><path fill="none" stroke="none"/><text fill="#000000" stroke="none" font-family="Arial" font-size="13px" font-style="normal" font-weight="normal" text-decoration="none" x="71.94091796875" y="56">217Y1A05C0 - StatechartDiagram1</text></g></g><g transform="translate(-30,-30) scale(1,1)"><g><path fill="none" stroke="none"/><text fill="#000000" stroke="none" font-family="Arial" font-size="13px" font-style="normal" font-weight="bold" text-decoration="none" x="43.911376953125" y="55.5">stm</text></g></g><g transform="translate(-30,-30) scale(1,1)"><path fill="#C0C0C0" stroke="none" d="M 81 159 L 121.25732421875 159 Q 131.25732421875 159 131.25732421875 169 L 131.25732421875 188 Q 131.25732421875 198 121.25732421875 198 L 81 198 Q 71 198 71 188 L 71 169 Q 71 159 81 159 Z" opacity="0.2"/></g><g transform="translate(-30,-30) scale(1,1)"><path fill="#ffffd8" stroke="none" d="M 74 152 L 114.25732421875 152 Q 124.25732421875 152 124.25732421875 162 L 124.25732421875 181 Q 124.25732421875 191 114.25732421875 191 L 74 191 Q 64 191 64 181 L 64 162 Q 64 152 74 152 Z"/></g><g transform="translate(-30,-30) scale(1,1)"><path fill="none" stroke="#000000" d="M 74 152 L 114.25732421875 152 Q 124.25732421875 152 124.25732421875 162 L 124.25732421875 181 Q 124.25732421875 191 114.25732421875 191 L 74 191 Q 64 191 64 181 L 64 162 Q 64 152 74 152 Z" stroke-miterlimit="10"/></g><g transform="translate(-30,-30) scale(1,1)"><g><path fill="none" stroke="none"/><text fill="#000000" stroke="none" font-family="Arial" font-size="13px" font-style="normal" font-weight="bold" text-decoration="none" x="68.5" y="170">Logging</text></g></g><g transform="translate(-30,-30) scale(1,1)"><path fill="#C0C0C0" stroke="none" d="M 345 207 L 439.46630859375 207 Q 449.46630859375 207 449.46630859375 217 L 449.46630859375 236 Q 449.46630859375 246 439.46630859375 246 L 345 246 Q 335 246 335 236 L 335 217 Q 335 207 345 207 Z" opacity="0.2"/></g><g transform="translate(-30,-30) scale(1,1)"><path fill="#ffffd8" stroke="none" d="M 338 200 L 432.46630859375 200 Q 442.46630859375 200 442.46630859375 210 L 442.46630859375 229 Q 442.46630859375 239 432.46630859375 239 L 338 239 Q 328 239 328 229 L 328 210 Q 328 200 338 200 Z"/></g><g transform="translate(-30,-30) scale(1,1)"><path fill="none" stroke="#000000" d="M 338 200 L 432.46630859375 200 Q 442.46630859375 200 442.46630859375 210 L 442.46630859375 229 Q 442.46630859375 239 432.46630859375 239 L 338 239 Q 328 239 328 229 L 328 210 Q 328 200 338 200 Z" stroke-miterlimit="10"/></g><g transform="translate(-30,-30) scale(1,1)"><g><path fill="none" stroke="none"/><text fill="#000000" stroke="none" font-family="Arial" font-size="13px" font-style="normal" font-weight="bold" text-decoration="none" x="332.5" y="218">Logged Examner</text></g></g><g transform="translate(-30,-30) scale(1,1)"><path fill="#C0C0C0" stroke="none" d="M 105 279 L 191.4873046875 279 Q 201.4873046875 279 201.4873046875 289 L 201.4873046875 308 Q 201.4873046875 318 191.4873046875 318 L 105 318 Q 95 318 95 308 L 95 289 Q 95 279 105 279 Z" opacity="0.2"/></g><g transform="translate(-30,-30) scale(1,1)"><path fill="#ffffd8" stroke="none" d="M 98 272 L 184.4873046875 272 Q 194.4873046875 272 194.4873046875 282 L 194.4873046875 301 Q 194.4873046875 311 184.4873046875 311 L 98 311 Q 88 311 88 301 L 88 282 Q 88 272 98 272 Z"/></g><g transform="translate(-30,-30) scale(1,1)"><path fill="none" stroke="#000000" d="M 98 272 L 184.4873046875 272 Q 194.4873046875 272 194.4873046875 282 L 194.4873046875 301 Q 194.4873046875 311 184.4873046875 311 L 98 311 Q 88 311 88 301 L 88 282 Q 88 272 98 272 Z" stroke-miterlimit="10"/></g><g transform="translate(-30,-30) scale(1,1)"><g><path fill="none" stroke="none"/><text fill="#000000" stroke="none" font-family="Arial" font-size="13px" font-style="normal" font-weight="bold" text-decoration="none" x="92.5" y="290">Logged student</text></g></g><g transform="translate(-30,-30) scale(1,1)"><path fill="#C0C0C0" stroke="none" d="M 161 415 L 212.130859375 415 Q 222.130859375 415 222.130859375 425 L 222.130859375 444 Q 222.130859375 454 212.130859375 454 L 161 454 Q 151 454 151 444 L 151 425 Q 151 415 161 415 Z" opacity="0.2"/></g><g transform="translate(-30,-30) scale(1,1)"><path fill="#ffffd8" stroke="none" d="M 154 408 L 205.130859375 408 Q 215.130859375 408 215.130859375 418 L 215.130859375 437 Q 215.130859375 447 205.130859375 447 L 154 447 Q 144 447 144 437 L 144 418 Q 144 408 154 408 Z"/></g><g transform="translate(-30,-30) scale(1,1)"><path fill="none" stroke="#000000" d="M 154 408 L 205.130859375 408 Q 215.130859375 408 215.130859375 418 L 215.130859375 437 Q 215.130859375 447 205.130859375 447 L 154 447 Q 144 447 144 437 L 144 418 Q 144 408 154 408 Z" stroke-miterlimit="10"/></g><g transform="translate(-30,-30) scale(1,1)"><g><path fill="none" stroke="none"/><text fill="#000000" stroke="none" font-family="Arial" font-size="13px" font-style="normal" font-weight="bold" text-decoration="none" x="148.5" y="426">Run exam</text></g></g><g transform="translate(-30,-30) scale(1,1)"><path fill="#C0C0C0" stroke="none" d="M 385 335 L 492.447265625 335 Q 502.447265625 335 502.447265625 345 L 502.447265625 364 Q 502.447265625 374 492.447265625 374 L 385 374 Q 375 374 375 364 L 375 345 Q 375 335 385 335 Z" opacity="0.2"/></g><g transform="translate(-30,-30) scale(1,1)"><path fill="#ffffd8" stroke="none" d="M 378 328 L 485.447265625 328 Q 495.447265625 328 495.447265625 338 L 495.447265625 357 Q 495.447265625 367 485.447265625 367 L 378 367 Q 368 367 368 357 L 368 338 Q 368 328 378 328 Z"/></g><g transform="translate(-30,-30) scale(1,1)"><path fill="none" stroke="#000000" d="M 378 328 L 485.447265625 328 Q 495.447265625 328 495.447265625 338 L 495.447265625 357 Q 495.447265625 367 485.447265625 367 L 378 367 Q 368 367 368 357 L 368 338 Q 368 328 378 328 Z" stroke-miterlimit="10"/></g><g transform="translate(-30,-30) scale(1,1)"><g><path fill="none" stroke="none"/><text fill="#000000" stroke="none" font-family="Arial" font-size="13px" font-style="normal" font-weight="bold" text-decoration="none" x="372.5" y="346">Managing students</text></g></g><g transform="translate(-30,-30) scale(1,1)"><path fill="#C0C0C0" stroke="none" d="M 457 111 L 573.841796875 111 Q 583.841796875 111 583.841796875 121 L 583.841796875 140 Q 583.841796875 150 573.841796875 150 L 457 150 Q 447 150 447 140 L 447 121 Q 447 111 457 111 Z" opacity="0.2"/></g><g transform="translate(-30,-30) scale(1,1)"><path fill="#ffffd8" stroke="none" d="M 450 104 L 566.841796875 104 Q 576.841796875 104 576.841796875 114 L 576.841796875 133 Q 576.841796875 143 566.841796875 143 L 450 143 Q 440 143 440 133 L 440 114 Q 440 104 450 104 Z"/></g><g transform="translate(-30,-30) scale(1,1)"><path fill="none" stroke="#000000" d="M 450 104 L 566.841796875 104 Q 576.841796875 104 576.841796875 114 L 576.841796875 133 Q 576.841796875 143 566.841796875 143 L 450 143 Q 440 143 440 133 L 440 114 Q 440 104 450 104 Z" stroke-miterlimit="10"/></g><g transform="translate(-30,-30) scale(1,1)"><g><path fill="none" stroke="none"/><text fill="#000000" stroke="none" font-family="Arial" font-size="13px" font-style="normal" font-weight="bold" text-decoration="none" x="444.5" y="122">Managing Questions</text></g></g><g transform="translate(-30,-30) scale(1,1)"><path fill="#C0C0C0" stroke="none" d="M 546 183 L 641.21533203125 183 Q 651.21533203125 183 651.21533203125 193 L 651.21533203125 212 Q 651.21533203125 222 641.21533203125 222 L 546 222 Q 536 222 536 212 L 536 193 Q 536 183 546 183 Z" opacity="0.2"/></g><g transform="translate(-30,-30) scale(1,1)"><path fill="#ffffd8" stroke="none" d="M 539 176 L 634.21533203125 176 Q 644.21533203125 176 644.21533203125 186 L 644.21533203125 205 Q 644.21533203125 215 634.21533203125 215 L 539 215 Q 529 215 529 205 L 529 186 Q 529 176 539 176 Z"/></g><g transform="translate(-30,-30) scale(1,1)"><path fill="none" stroke="#000000" d="M 539 176 L 634.21533203125 176 Q 644.21533203125 176 644.21533203125 186 L 644.21533203125 205 Q 644.21533203125 215 634.21533203125 215 L 539 215 Q 529 215 529 205 L 529 186 Q 529 176 539 176 Z" stroke-miterlimit="10"/></g><g transform="translate(-30,-30) scale(1,1)"><g><path fill="none" stroke="none"/><text fill="#000000" stroke="none" font-family="Arial" font-size="13px" font-style="normal" font-weight="bold" text-decoration="none" x="533.5" y="194">Preparing Exams</text></g></g><g transform="translate(-30,-30) scale(1,1)"><path fill="#C0C0C0" stroke="none" d="M 305 431 L 441.15771484375 431 Q 451.15771484375 431 451.15771484375 441 L 451.15771484375 460 Q 451.15771484375 470 441.15771484375 470 L 305 470 Q 295 470 295 460 L 295 441 Q 295 431 305 431 Z" opacity="0.2"/></g><g transform="translate(-30,-30) scale(1,1)"><path fill="#ffffd8" stroke="none" d="M 298 424 L 434.15771484375 424 Q 444.15771484375 424 444.15771484375 434 L 444.15771484375 453 Q 444.15771484375 463 434.15771484375 463 L 298 463 Q 288 463 288 453 L 288 434 Q 288 424 298 424 Z"/></g><g transform="translate(-30,-30) scale(1,1)"><path fill="none" stroke="#000000" d="M 298 424 L 434.15771484375 424 Q 444.15771484375 424 444.15771484375 434 L 444.15771484375 453 Q 444.15771484375 463 434.15771484375 463 L 298 463 Q 288 463 288 453 L 288 434 Q 288 424 298 424 Z" stroke-miterlimit="10"/></g><g transform="translate(-30,-30) scale(1,1)"><g><path fill="none" stroke="none"/><text fill="#000000" stroke="none" font-family="Arial" font-size="13px" font-style="normal" font-weight="bold" text-decoration="none" x="292.5" y="442">View personal feedback</text></g></g><g transform="translate(-30,-30) scale(1,1)"><path fill="#C0C0C0" stroke="none" d="M 95 400.5 C 95 393.59644 100.59644 388 107.5 388 C 114.40356 388 120 393.59644 120 400.5 C 120 407.40356 114.40356 413 107.5 413 C 100.59644 413 95 407.40356 95 400.5 Z" opacity="0.2"/></g><g transform="translate(-30,-30) scale(1,1)"><path fill="none" stroke="#000000" d="M 88 393.5 C 88 386.59644 93.59644 381 100.5 381 C 107.40356 381 113 386.59644 113 393.5 C 113 400.40356 107.40356 406 100.5 406 C 93.59644 406 88 400.40356 88 393.5 Z" stroke-miterlimit="10"/></g><g transform="translate(-30,-30) scale(1,1)"><path fill="#000000" stroke="none" d="M 93 393.5 C 93 389.357864 96.357864 386 100.5 386 C 104.642136 386 108 389.357864 108 393.5 C 108 397.642136 104.642136 401 100.5 401 C 96.357864 401 93 397.642136 93 393.5 Z"/></g><g transform="translate(-30,-30) scale(1,1)"><path fill="none" stroke="#ff007f" d="M 133 312 L 105 380" stroke-miterlimit="10"/></g><g transform="translate(-30,-30) scale(1,1)"><path fill="none" stroke="#ff007f" d="M 104.9769875987747 369.0000240714177 L 105 380 L 112.76188534703154 372.2055702030529" stroke-miterlimit="10"/></g><g transform="translate(-30,-30) scale(1,1)"><path fill="#C0C0C0" stroke="none" d="M 71 88.5 C 71 83.2532944 75.2532944 79 80.5 79 C 85.7467056 79 90 83.2532944 90 88.5 C 90 93.7467056 85.7467056 98 80.5 98 C 75.2532944 98 71 93.7467056 71 88.5 Z" opacity="0.2"/></g><g transform="translate(-30,-30) scale(1,1)"><path fill="#000000" stroke="none" d="M 64 81.5 C 64 76.2532944 68.2532944 72 73.5 72 C 78.7467056 72 83 76.2532944 83 81.5 C 83 86.7467056 78.7467056 91 73.5 91 C 68.2532944 91 64 86.7467056 64 81.5 Z"/></g><g transform="translate(-30,-30) scale(1,1)"><path fill="none" stroke="#ff007f" d="M 76 92 L 89 151" stroke-miterlimit="10"/></g><g transform="translate(-30,-30) scale(1,1)"><path fill="none" stroke="#ff007f" d="M 82.70231112940357 141.98117996137157 L 89 151 L 90.92413030141351 140.16959268618294" stroke-miterlimit="10"/></g><g transform="translate(-30,-30) scale(1,1)"><path fill="#C0C0C0" stroke="none" d="M 592 355.5 C 592 348.59644 597.59644 343 604.5 343 C 611.40356 343 617 348.59644 617 355.5 C 617 362.40356 611.40356 368 604.5 368 C 597.59644 368 592 362.40356 592 355.5 Z" opacity="0.2"/></g><g transform="translate(-30,-30) scale(1,1)"><path fill="none" stroke="#000000" d="M 585 348.5 C 585 341.59644 590.59644 336 597.5 336 C 604.40356 336 610 341.59644 610 348.5 C 610 355.40356 604.40356 361 597.5 361 C 590.59644 361 585 355.40356 585 348.5 Z" stroke-miterlimit="10"/></g><g transform="translate(-30,-30) scale(1,1)"><path fill="#000000" stroke="none" d="M 590 348.5 C 590 344.357864 593.357864 341 597.5 341 C 601.642136 341 605 344.357864 605 348.5 C 605 352.642136 601.642136 356 597.5 356 C 593.357864 356 590 352.642136 590 348.5 Z"/></g><g transform="translate(-30,-30) scale(1,1)"><path fill="none" stroke="#ff007f" d="M 420 240 L 584 340" stroke-miterlimit="10"/></g><g transform="translate(-30,-30) scale(1,1)"><path fill="none" stroke="#ff007f" d="M 573.1316408743664 338.30330618075664 L 584 340 L 577.5146532670781 331.11516585670955" stroke-miterlimit="10"/></g><g transform="translate(-30,-30) scale(1,1)"><path fill="none" stroke="#ff007f" d="M 102 192 L 133 271" stroke-miterlimit="10"/></g><g transform="translate(-30,-30) scale(1,1)"><path fill="none" stroke="#ff007f" d="M 125.36908159243929 263.07730574506684 L 133 271 L 133.2063166802635 260.0019350144016" stroke-miterlimit="10"/></g><g transform="translate(-30,-30) scale(1,1)"><path fill="none" stroke="#ff007f" d="M 147 312 L 173 407" stroke-miterlimit="10"/></g><g transform="translate(-30,-30) scale(1,1)"><path fill="none" stroke="#ff007f" d="M 166.25709117307224 398.30901728503966 L 173 407 L 174.37749625648033 396.0865906306332" stroke-miterlimit="10"/></g><g transform="translate(-30,-30) scale(1,1)"><path fill="none" stroke="#ff007f" d="M 216 430 L 287 436" stroke-miterlimit="10"/></g><g transform="translate(-30,-30) scale(1,1)"><path fill="none" stroke="#ff007f" d="M 276.51894956551496 439.3387994533636 L 287 436 L 277.2278904293221 430.9496658983128" stroke-miterlimit="10"/></g><g transform="translate(-30,-30) scale(1,1)"><path fill="none" stroke="#ff007f" d="M 336 423 L 172 312" stroke-miterlimit="10"/></g><g transform="translate(-30,-30) scale(1,1)"><path fill="none" stroke="#ff007f" d="M 182.77566378964752 314.2102194217949 L 172 312 L 178.05668379638473 321.1824060785074" stroke-miterlimit="10"/></g><g transform="translate(-30,-30) scale(1,1)"><path fill="none" stroke="#ff007f" d="M 424 327 L 393 240" stroke-miterlimit="10"/></g><g transform="translate(-30,-30) scale(1,1)"><path fill="none" stroke="#ff007f" d="M 400.3764153826294 248.1601774553565 L 393 240 L 392.44579652353787 250.98603015227417" stroke-miterlimit="10"/></g><g transform="translate(-30,-30) scale(1,1)"><path fill="none" stroke="#ff007f" d="M 393 240 L 424 327" stroke-miterlimit="10"/></g><g transform="translate(-30,-30) scale(1,1)"><path fill="none" stroke="#ff007f" d="M 416.6235846173706 318.8398225446435 L 424 327 L 424.55420347646213 316.01396984772583" stroke-miterlimit="10"/></g><g transform="translate(-30,-30) scale(1,1)"><path fill="none" stroke="#ff007f" d="M 195 275 L 327 236" stroke-miterlimit="10"/></g><g transform="translate(-30,-30) scale(1,1)"><path fill="none" stroke="#ff007f" d="M 318.44656546200486 242.9165567737301 L 327 236 L 316.0610642385821 234.84255263291467" stroke-miterlimit="10"/></g><g transform="translate(-30,-30) scale(1,1)"><path fill="none" stroke="#ff007f" d="M 411 199 L 481 144" stroke-miterlimit="10"/></g><g transform="translate(-30,-30) scale(1,1)"><path fill="none" stroke="#ff007f" d="M 475.60963318086726 153.58874056147067 L 481 144 L 470.4081715950539 146.9686985431627" stroke-miterlimit="10"/></g><g transform="translate(-30,-30) scale(1,1)"><path fill="none" stroke="#ff007f" d="M 481 144 L 411 199" stroke-miterlimit="10"/></g><g transform="translate(-30,-30) scale(1,1)"><path fill="none" stroke="#ff007f" d="M 416.39036681913274 189.41125943852933 L 411 199 L 421.5918284049461 196.0313014568373" stroke-miterlimit="10"/></g><g transform="translate(-30,-30) scale(1,1)"><path fill="none" stroke="#000000" d="M 443 212 L 528 202" stroke-miterlimit="10"/></g><g transform="translate(-30,-30) scale(1,1)"><path fill="none" stroke="#000000" d="M 518.3987786298837 207.3681047122818 L 528 202 L 517.4150880173437 199.00673450569147" stroke-miterlimit="10"/></g><g transform="translate(-30,-30) scale(1,1)"><path fill="none" stroke="#ff007f" d="M 528 202 L 443 212" stroke-miterlimit="10"/></g><g transform="translate(-30,-30) scale(1,1)"><path fill="none" stroke="#ff007f" d="M 452.6012213701163 206.6318952877182 L 443 212 L 453.58491198265637 214.99326549430853" stroke-miterlimit="10"/></g></g></svg>