<svg version="1.1" xmlns="http://www.w3.org/2000/svg" xmlns:xlink="http://www.w3.org/1999/xlink" width="244" height="340"><defs/><g><g transform="translate(-166,-38) scale(1,1)"><path fill="none" stroke="#000000" d="M 176 48 L 400 48 L 400 368 L 176 368 L 176 48" stroke-miterlimit="10"/></g><g transform="translate(-166,-38) scale(1,1)"><path fill="#ffffff" stroke="none" d="M 176 48 L 176 70 L 328.55078125 70 L 339.55078125 59 L 339.55078125 48 L 176 48"/></g><g transform="translate(-166,-38) scale(1,1)"><path fill="none" stroke="#000000" d="M 176 48 L 176 70 L 328.55078125 70 L 339.55078125 59 L 339.55078125 48 L 176 48 L 176 48" stroke-miterlimit="10"/></g><g transform="translate(-166,-38) scale(1,1)"><g><path fill="none" stroke="none"/><text fill="#000000" stroke="none" font-family="Arial" font-size="13px" font-style="normal" font-weight="normal" text-decoration="none" x="207.94091796875" y="64">StatechartDiagram1</text></g></g><g transform="translate(-166,-38) scale(1,1)"><g><path fill="none" stroke="none"/><text fill="#000000" stroke="none" font-family="Arial" font-size="13px" font-style="normal" font-weight="bold" text-decoration="none" x="179.911376953125" y="63.5">stm</text></g></g><g transform="translate(-166,-38) scale(1,1)"><path fill="#C0C0C0" stroke="none" d="M 225 183 L 264 183 Q 274 183 274 193 L 274 212 Q 274 222 264 222 L 225 222 Q 215 222 215 212 L 215 193 Q 215 183 225 183 Z" opacity="0.2"/></g><g transform="translate(-166,-38) scale(1,1)"><path fill="#ffffd8" stroke="none" d="M 218 176 L 257 176 Q 267 176 267 186 L 267 205 Q 267 215 257 215 L 218 215 Q 208 215 208 205 L 208 186 Q 208 176 218 176 Z"/></g><g transform="translate(-166,-38) scale(1,1)"><path fill="none" stroke="#000000" d="M 218 176 L 257 176 Q 267 176 267 186 L 267 205 Q 267 215 257 215 L 218 215 Q 208 215 208 205 L 208 186 Q 208 176 218 176 Z" stroke-miterlimit="10"/></g><g transform="translate(-166,-38) scale(1,1)"><g><path fill="none" stroke="none"/><text fill="#000000" stroke="none" font-family="Arial" font-size="13px" font-style="normal" font-weight="bold" text-decoration="none" x="215.819580078125" y="194">Search</text></g></g><g transform="translate(-166,-38) scale(1,1)"><path fill="#C0C0C0" stroke="none" d="M 225 327 L 264 327 Q 274 327 274 337 L 274 356 Q 274 366 264 366 L 225 366 Q 215 366 215 356 L 215 337 Q 215 327 225 327 Z" opacity="0.2"/></g><g transform="translate(-166,-38) scale(1,1)"><path fill="#ffffd8" stroke="none" d="M 218 320 L 257 320 Q 267 320 267 330 L 267 349 Q 267 359 257 359 L 218 359 Q 208 359 208 349 L 208 330 Q 208 320 218 320 Z"/></g><g transform="translate(-166,-38) scale(1,1)"><path fill="none" stroke="#000000" d="M 218 320 L 257 320 Q 267 320 267 330 L 267 349 Q 267 359 257 359 L 218 359 Q 208 359 208 349 L 208 330 Q 208 320 218 320 Z" stroke-miterlimit="10"/></g><g transform="translate(-166,-38) scale(1,1)"><g><path fill="none" stroke="none"/><text fill="#000000" stroke="none" font-family="Arial" font-size="13px" font-style="normal" font-weight="bold" text-decoration="none" x="224.864990234375" y="338">Add</text></g></g><g transform="translate(-166,-38) scale(1,1)"><path fill="none" stroke="#ff007f" d="M 237 216 L 237 319" stroke-miterlimit="10"/></g><g transform="translate(-166,-38) scale(1,1)"><path fill="none" stroke="#ff007f" d="M 232.790482243984 308.83732514237585 L 237 319 L 241.209517756016 308.83732514237585" stroke-miterlimit="10"/></g><g transform="translate(-166,-38) scale(1,1)"><g><path fill="none" stroke="none"/><text fill="#000000" stroke="none" font-family="Arial" font-size="13px" font-style="normal" font-weight="normal" text-decoration="none" x="201.706787109375" y="257">less</text><text fill="#000000" stroke="none" font-family="Arial" font-size="13px" font-style="normal" font-weight="normal" text-decoration="none" x="190.5" y="270">quantity</text></g></g><g transform="translate(-166,-38) scale(1,1)"><path fill="#C0C0C0" stroke="none" d="M 367 346.5 C 367 339.59644 372.59644 334 379.5 334 C 386.40356 334 392 339.59644 392 346.5 C 392 353.40356 386.40356 359 379.5 359 C 372.59644 359 367 353.40356 367 346.5 Z" opacity="0.2"/></g><g transform="translate(-166,-38) scale(1,1)"><path fill="none" stroke="#000000" d="M 360 339.5 C 360 332.59644 365.59644 327 372.5 327 C 379.40356 327 385 332.59644 385 339.5 C 385 346.40356 379.40356 352 372.5 352 C 365.59644 352 360 346.40356 360 339.5 Z" stroke-miterlimit="10"/></g><g transform="translate(-166,-38) scale(1,1)"><path fill="#000000" stroke="none" d="M 365 339.5 C 365 335.357864 368.357864 332 372.5 332 C 376.642136 332 380 335.357864 380 339.5 C 380 343.642136 376.642136 347 372.5 347 C 368.357864 347 365 343.642136 365 339.5 Z"/></g><g transform="translate(-166,-38) scale(1,1)"><path fill="none" stroke="#ff007f" d="M 268 339 L 359 339" stroke-miterlimit="10"/></g><g transform="translate(-166,-38) scale(1,1)"><path fill="none" stroke="#ff007f" d="M 348.83732514237585 343.209517756016 L 359 339 L 348.83732514237585 334.790482243984" stroke-miterlimit="10"/></g><g transform="translate(-166,-38) scale(1,1)"><path fill="none" stroke="#ff007f" d="M 257 216 L 360 326" stroke-miterlimit="10"/></g><g transform="translate(-166,-38) scale(1,1)"><path fill="none" stroke="#ff007f" d="M 349.9810750243371 321.45894920397956 L 360 326 L 356.1265580210881 315.7045423979309" stroke-miterlimit="10"/></g><g transform="translate(-166,-38) scale(1,1)"><g><path fill="none" stroke="none"/><text fill="#000000" stroke="none" font-family="Arial" font-size="13px" font-style="normal" font-weight="normal" text-decoration="none" x="312.575927734375" y="258">enough</text><text fill="#000000" stroke="none" font-family="Arial" font-size="13px" font-style="normal" font-weight="normal" text-decoration="none" x="311.5" y="271">quantity</text></g></g><g transform="translate(-166,-38) scale(1,1)"><path fill="#C0C0C0" stroke="none" d="M 235 112.5 C 235 107.2532944 239.2532944 103 244.5 103 C 249.7467056 103 254 107.2532944 254 112.5 C 254 117.7467056 249.7467056 122 244.5 122 C 239.2532944 122 235 117.7467056 235 112.5 Z" opacity="0.2"/></g><g transform="translate(-166,-38) scale(1,1)"><path fill="#000000" stroke="none" d="M 228 105.5 C 228 100.2532944 232.2532944 96 237.5 96 C 242.7467056 96 247 100.2532944 247 105.5 C 247 110.7467056 242.7467056 115 237.5 115 C 232.2532944 115 228 110.7467056 228 105.5 Z"/></g><g transform="translate(-166,-38) scale(1,1)"><path fill="none" stroke="#ff007f" d="M 237 116 L 237 175" stroke-miterlimit="10"/></g><g transform="translate(-166,-38) scale(1,1)"><path fill="none" stroke="#ff007f" d="M 232.790482243984 164.83732514237585 L 237 175 L 241.209517756016 164.83732514237585" stroke-miterlimit="10"/></g><g transform="translate(-166,-38) scale(1,1)"><g><path fill="none" stroke="none"/><text fill="#000000" stroke="none" font-family="Arial" font-size="13px" font-style="normal" font-weight="normal" text-decoration="none" x="240.5" y="152">product quantity</text></g></g></g></svg>