<svg version="1.1" xmlns="http://www.w3.org/2000/svg" xmlns:xlink="http://www.w3.org/1999/xlink" width="724" height="436"><defs/><g><g transform="translate(-38,-46) scale(1,1)"><path fill="none" stroke="#000000" d="M 48 56 L 752 56 L 752 472 L 48 472 L 48 56" stroke-miterlimit="10"/></g><g transform="translate(-38,-46) scale(1,1)"><path fill="#ffffff" stroke="none" d="M 48 56 L 48 78 L 232.365234375 78 L 243.365234375 67 L 243.365234375 56 L 48 56"/></g><g transform="translate(-38,-46) scale(1,1)"><path fill="none" stroke="#000000" d="M 48 56 L 48 78 L 232.365234375 78 L 243.365234375 67 L 243.365234375 56 L 48 56 L 48 56" stroke-miterlimit="10"/></g><g transform="translate(-38,-46) scale(1,1)"><g><path fill="none" stroke="none"/><text fill="#000000" stroke="none" font-family="Arial" font-size="13px" font-style="normal" font-weight="normal" text-decoration="none" x="72.72998046875" y="72">UseCaseDi - 217Y1A05C0</text></g></g><g transform="translate(-38,-46) scale(1,1)"><g><path fill="none" stroke="none"/><text fill="#000000" stroke="none" font-family="Arial" font-size="13px" font-style="normal" font-weight="bold" text-decoration="none" x="52.279541015625" y="70.5">uc</text></g></g><g transform="translate(-38,-46) scale(1,1)"><path fill="#ffffff" stroke="none" d="M 64.40935031960227 241.68 C 64.40935031960227 236.886167936 68.29519264454773 233 73.088623046875 233 C 77.88205344920227 233 81.76789577414773 236.886167936 81.76789577414773 241.68 C 81.76789577414773 246.47383206400002 77.88205344920227 250.36 73.088623046875 250.36 C 68.29519264454773 250.36 64.40935031960227 246.47383206400002 64.40935031960227 241.68 Z"/></g><g transform="translate(-38,-46) scale(1,1)"><path fill="none" stroke="#000000" d="M 64.40935031960227 241.68 C 64.40935031960227 236.886167936 68.29519264454773 233 73.088623046875 233 C 77.88205344920227 233 81.76789577414773 236.886167936 81.76789577414773 241.68 C 81.76789577414773 246.47383206400002 77.88205344920227 250.36 73.088623046875 250.36 C 68.29519264454773 250.36 64.40935031960227 246.47383206400002 64.40935031960227 241.68 Z" stroke-miterlimit="10"/></g><g transform="translate(-38,-46) scale(1,1)"><path fill="none" stroke="#000000" d="M 73.088623046875 250.36 L 73.088623046875 267.64" stroke-miterlimit="10"/></g><g transform="translate(-38,-46) scale(1,1)"><path fill="none" stroke="#000000" d="M 63.89880486505682 256.84 L 82.27844122869318 256.84" stroke-miterlimit="10"/></g><g transform="translate(-38,-46) scale(1,1)"><path fill="none" stroke="#000000" d="M 73.088623046875 267.64 L 60.324986683238635 285" stroke-miterlimit="10"/></g><g transform="translate(-38,-46) scale(1,1)"><path fill="none" stroke="#000000" d="M 73.088623046875 267.64 L 85.85225941051137 285" stroke-miterlimit="10"/></g><g transform="translate(-38,-46) scale(1,1)"><g><path fill="none" stroke="none"/><text fill="#000000" stroke="none" font-family="Arial" font-size="13px" font-style="normal" font-weight="bold" text-decoration="none" x="58.635009765625" y="304">User</text></g></g><g transform="translate(-38,-46) scale(1,1)"><path fill="#ffffff" stroke="none" d="M 434.63298313210225 185.68 C 434.63298313210225 180.886167936 438.51882545704774 177 443.312255859375 177 C 448.10568626170226 177 451.99152858664775 180.886167936 451.99152858664775 185.68 C 451.99152858664775 190.47383206400002 448.10568626170226 194.36 443.312255859375 194.36 C 438.51882545704774 194.36 434.63298313210225 190.47383206400002 434.63298313210225 185.68 Z"/></g><g transform="translate(-38,-46) scale(1,1)"><path fill="none" stroke="#000000" d="M 434.63298313210225 185.68 C 434.63298313210225 180.886167936 438.51882545704774 177 443.312255859375 177 C 448.10568626170226 177 451.99152858664775 180.886167936 451.99152858664775 185.68 C 451.99152858664775 190.47383206400002 448.10568626170226 194.36 443.312255859375 194.36 C 438.51882545704774 194.36 434.63298313210225 190.47383206400002 434.63298313210225 185.68 Z" stroke-miterlimit="10"/></g><g transform="translate(-38,-46) scale(1,1)"><path fill="none" stroke="#000000" d="M 443.312255859375 194.36 L 443.312255859375 211.64" stroke-miterlimit="10"/></g><g transform="translate(-38,-46) scale(1,1)"><path fill="none" stroke="#000000" d="M 434.12243767755683 200.84 L 452.50207404119317 200.84" stroke-miterlimit="10"/></g><g transform="translate(-38,-46) scale(1,1)"><path fill="none" stroke="#000000" d="M 443.312255859375 211.64 L 430.54861949573865 229" stroke-miterlimit="10"/></g><g transform="translate(-38,-46) scale(1,1)"><path fill="none" stroke="#000000" d="M 443.312255859375 211.64 L 456.07589222301135 229" stroke-miterlimit="10"/></g><g transform="translate(-38,-46) scale(1,1)"><g><path fill="none" stroke="none"/><text fill="#000000" stroke="none" font-family="Arial" font-size="13px" font-style="normal" font-weight="bold" text-decoration="none" x="415.5" y="248">Librarian</text></g></g><g transform="translate(-38,-46) scale(1,1)"><path fill="#ffffff" stroke="none" d="M 434.40935031960225 385.68 C 434.40935031960225 380.886167936 438.29519264454774 377 443.088623046875 377 C 447.88205344920226 377 451.76789577414775 380.886167936 451.76789577414775 385.68 C 451.76789577414775 390.473832064 447.88205344920226 394.36 443.088623046875 394.36 C 438.29519264454774 394.36 434.40935031960225 390.473832064 434.40935031960225 385.68 Z"/></g><g transform="translate(-38,-46) scale(1,1)"><path fill="none" stroke="#000000" d="M 434.40935031960225 385.68 C 434.40935031960225 380.886167936 438.29519264454774 377 443.088623046875 377 C 447.88205344920226 377 451.76789577414775 380.886167936 451.76789577414775 385.68 C 451.76789577414775 390.473832064 447.88205344920226 394.36 443.088623046875 394.36 C 438.29519264454774 394.36 434.40935031960225 390.473832064 434.40935031960225 385.68 Z" stroke-miterlimit="10"/></g><g transform="translate(-38,-46) scale(1,1)"><path fill="none" stroke="#000000" d="M 443.088623046875 394.36 L 443.088623046875 411.64" stroke-miterlimit="10"/></g><g transform="translate(-38,-46) scale(1,1)"><path fill="none" stroke="#000000" d="M 433.89880486505683 400.84 L 452.27844122869317 400.84" stroke-miterlimit="10"/></g><g transform="translate(-38,-46) scale(1,1)"><path fill="none" stroke="#000000" d="M 443.088623046875 411.64 L 430.32498668323865 429" stroke-miterlimit="10"/></g><g transform="translate(-38,-46) scale(1,1)"><path fill="none" stroke="#000000" d="M 443.088623046875 411.64 L 455.85225941051135 429" stroke-miterlimit="10"/></g><g transform="translate(-38,-46) scale(1,1)"><g><path fill="none" stroke="none"/><text fill="#000000" stroke="none" font-family="Arial" font-size="13px" font-style="normal" font-weight="bold" text-decoration="none" x="429.00634765625" y="448">DBA</text></g></g><g transform="translate(-38,-46) scale(1,1)"><path fill="#C0C0C0" stroke="none" d="M 237 288 C 237 278.6111584 259.6096176 271 287.5 271 C 315.3903824 271 338 278.6111584 338 288 C 338 297.3888416 315.3903824 305 287.5 305 C 259.6096176 305 237 297.3888416 237 288 Z" opacity="0.2"/></g><g transform="translate(-38,-46) scale(1,1)"><path fill="#d6ffae" stroke="none" d="M 230 281 C 230 271.6111584 252.6096176 264 280.5 264 C 308.3903824 264 331 271.6111584 331 281 C 331 290.3888416 308.3903824 298 280.5 298 C 252.6096176 298 230 290.3888416 230 281 Z"/></g><g transform="translate(-38,-46) scale(1,1)"><path fill="none" stroke="#000000" d="M 230 281 C 230 271.6111584 252.6096176 264 280.5 264 C 308.3903824 264 331 271.6111584 331 281 C 331 290.3888416 308.3903824 298 280.5 298 C 252.6096176 298 230 290.3888416 230 281 Z" stroke-miterlimit="10"/></g><g transform="translate(-38,-46) scale(1,1)"><g><path fill="none" stroke="none"/><text fill="#000000" stroke="none" font-family="Arial" font-size="13px" font-style="normal" font-weight="bold" text-decoration="none" x="262.812255859375" y="286.5">Login</text></g></g><g transform="translate(-38,-46) scale(1,1)"><path fill="#C0C0C0" stroke="none" d="M 199 160 C 199 150.6111584 252.9496816 143 319.5 143 C 386.05031840000004 143 440 150.6111584 440 160 C 440 169.3888416 386.05031840000004 177 319.5 177 C 252.9496816 177 199 169.3888416 199 160 Z" opacity="0.2"/></g><g transform="translate(-38,-46) scale(1,1)"><path fill="#d6ffae" stroke="none" d="M 192 153 C 192 143.6111584 245.9496816 136 312.5 136 C 379.05031840000004 136 433 143.6111584 433 153 C 433 162.3888416 379.05031840000004 170 312.5 170 C 245.9496816 170 192 162.3888416 192 153 Z"/></g><g transform="translate(-38,-46) scale(1,1)"><path fill="none" stroke="#000000" d="M 192 153 C 192 143.6111584 245.9496816 136 312.5 136 C 379.05031840000004 136 433 143.6111584 433 153 C 433 162.3888416 379.05031840000004 170 312.5 170 C 245.9496816 170 192 162.3888416 192 153 Z" stroke-miterlimit="10"/></g><g transform="translate(-38,-46) scale(1,1)"><g><path fill="none" stroke="none"/><text fill="#000000" stroke="none" font-family="Arial" font-size="13px" font-style="normal" font-weight="bold" text-decoration="none" x="231.589599609375" y="158.5">Enter name and password</text></g></g><g transform="translate(-38,-46) scale(1,1)"><path fill="#C0C0C0" stroke="none" d="M 479 280 C 479 270.6111584 507.2060576 263 542 263 C 576.7939424 263 605 270.6111584 605 280 C 605 289.3888416 576.7939424 297 542 297 C 507.2060576 297 479 289.3888416 479 280 Z" opacity="0.2"/></g><g transform="translate(-38,-46) scale(1,1)"><path fill="#d6ffae" stroke="none" d="M 472 273 C 472 263.6111584 500.2060576 256 535 256 C 569.7939424 256 598 263.6111584 598 273 C 598 282.3888416 569.7939424 290 535 290 C 500.2060576 290 472 282.3888416 472 273 Z"/></g><g transform="translate(-38,-46) scale(1,1)"><path fill="none" stroke="#000000" d="M 472 273 C 472 263.6111584 500.2060576 256 535 256 C 569.7939424 256 598 263.6111584 598 273 C 598 282.3888416 569.7939424 290 535 290 C 500.2060576 290 472 282.3888416 472 273 Z" stroke-miterlimit="10"/></g><g transform="translate(-38,-46) scale(1,1)"><g><path fill="none" stroke="none"/><text fill="#000000" stroke="none" font-family="Arial" font-size="13px" font-style="normal" font-weight="bold" text-decoration="none" x="494.90185546875" y="278.5">Display page</text></g></g><g transform="translate(-38,-46) scale(1,1)"><path fill="#C0C0C0" stroke="none" d="M 224 216 C 224 206.6111584 266.7568016 199 319.5 199 C 372.2431984 199 415 206.6111584 415 216 C 415 225.3888416 372.2431984 233 319.5 233 C 266.7568016 233 224 225.3888416 224 216 Z" opacity="0.2"/></g><g transform="translate(-38,-46) scale(1,1)"><path fill="#d6ffae" stroke="none" d="M 217 209 C 217 199.6111584 259.7568016 192 312.5 192 C 365.2431984 192 408 199.6111584 408 209 C 408 218.3888416 365.2431984 226 312.5 226 C 259.7568016 226 217 218.3888416 217 209 Z"/></g><g transform="translate(-38,-46) scale(1,1)"><path fill="none" stroke="#000000" d="M 217 209 C 217 199.6111584 259.7568016 192 312.5 192 C 365.2431984 192 408 199.6111584 408 209 C 408 218.3888416 365.2431984 226 312.5 226 C 259.7568016 226 217 218.3888416 217 209 Z" stroke-miterlimit="10"/></g><g transform="translate(-38,-46) scale(1,1)"><g><path fill="none" stroke="none"/><text fill="#000000" stroke="none" font-family="Arial" font-size="13px" font-style="normal" font-weight="bold" text-decoration="none" x="249.305908203125" y="214.5">Requesting for book</text></g></g><g transform="translate(-38,-46) scale(1,1)"><path fill="#C0C0C0" stroke="none" d="M 407 328 C 407 318.6111584 449.532944 311 502 311 C 554.467056 311 597 318.6111584 597 328 C 597 337.3888416 554.467056 345 502 345 C 449.532944 345 407 337.3888416 407 328 Z" opacity="0.2"/></g><g transform="translate(-38,-46) scale(1,1)"><path fill="#d6ffae" stroke="none" d="M 400 321 C 400 311.6111584 442.532944 304 495 304 C 547.467056 304 590 311.6111584 590 321 C 590 330.3888416 547.467056 338 495 338 C 442.532944 338 400 330.3888416 400 321 Z"/></g><g transform="translate(-38,-46) scale(1,1)"><path fill="none" stroke="#000000" d="M 400 321 C 400 311.6111584 442.532944 304 495 304 C 547.467056 304 590 311.6111584 590 321 C 590 330.3888416 547.467056 338 495 338 C 442.532944 338 400 330.3888416 400 321 Z" stroke-miterlimit="10"/></g><g transform="translate(-38,-46) scale(1,1)"><g><path fill="none" stroke="none"/><text fill="#000000" stroke="none" font-family="Arial" font-size="13px" font-style="normal" font-weight="bold" text-decoration="none" x="432.148681640625" y="326.5">Display book details</text></g></g><g transform="translate(-38,-46) scale(1,1)"><path fill="#C0C0C0" stroke="none" d="M 243 96 C 243 86.6111584 277.2502128 79 319.5 79 C 361.7497872 79 396 86.6111584 396 96 C 396 105.3888416 361.7497872 113 319.5 113 C 277.2502128 113 243 105.3888416 243 96 Z" opacity="0.2"/></g><g transform="translate(-38,-46) scale(1,1)"><path fill="#d6ffae" stroke="none" d="M 236 89 C 236 79.6111584 270.2502128 72 312.5 72 C 354.7497872 72 389 79.6111584 389 89 C 389 98.3888416 354.7497872 106 312.5 106 C 270.2502128 106 236 98.3888416 236 89 Z"/></g><g transform="translate(-38,-46) scale(1,1)"><path fill="none" stroke="#000000" d="M 236 89 C 236 79.6111584 270.2502128 72 312.5 72 C 354.7497872 72 389 79.6111584 389 89 C 389 98.3888416 354.7497872 106 312.5 106 C 270.2502128 106 236 98.3888416 236 89 Z" stroke-miterlimit="10"/></g><g transform="translate(-38,-46) scale(1,1)"><g><path fill="none" stroke="none"/><text fill="#000000" stroke="none" font-family="Arial" font-size="13px" font-style="normal" font-weight="bold" text-decoration="none" x="263.016845703125" y="94.5">Search for book</text></g></g><g transform="translate(-38,-46) scale(1,1)"><path fill="#C0C0C0" stroke="none" d="M 551 224 C 551 214.6111584 575.4004784 207 605.5 207 C 635.5995216 207 660 214.6111584 660 224 C 660 233.3888416 635.5995216 241 605.5 241 C 575.4004784 241 551 233.3888416 551 224 Z" opacity="0.2"/></g><g transform="translate(-38,-46) scale(1,1)"><path fill="#d6ffae" stroke="none" d="M 544 217 C 544 207.6111584 568.4004784 200 598.5 200 C 628.5995216 200 653 207.6111584 653 217 C 653 226.3888416 628.5995216 234 598.5 234 C 568.4004784 234 544 226.3888416 544 217 Z"/></g><g transform="translate(-38,-46) scale(1,1)"><path fill="none" stroke="#000000" d="M 544 217 C 544 207.6111584 568.4004784 200 598.5 200 C 628.5995216 200 653 207.6111584 653 217 C 653 226.3888416 628.5995216 234 598.5 234 C 568.4004784 234 544 226.3888416 544 217 Z" stroke-miterlimit="10"/></g><g transform="translate(-38,-46) scale(1,1)"><g><path fill="none" stroke="none"/><text fill="#000000" stroke="none" font-family="Arial" font-size="13px" font-style="normal" font-weight="bold" text-decoration="none" x="564.54638671875" y="222.5">Issue book</text></g></g><g transform="translate(-38,-46) scale(1,1)"><path fill="#C0C0C0" stroke="none" d="M 227 440 C 227 430.6111584 254.0867696 423 287.5 423 C 320.9132304 423 348 430.6111584 348 440 C 348 449.3888416 320.9132304 457 287.5 457 C 254.0867696 457 227 449.3888416 227 440 Z" opacity="0.2"/></g><g transform="translate(-38,-46) scale(1,1)"><path fill="#d6ffae" stroke="none" d="M 220 433 C 220 423.6111584 247.0867696 416 280.5 416 C 313.9132304 416 341 423.6111584 341 433 C 341 442.3888416 313.9132304 450 280.5 450 C 247.0867696 450 220 442.3888416 220 433 Z"/></g><g transform="translate(-38,-46) scale(1,1)"><path fill="none" stroke="#000000" d="M 220 433 C 220 423.6111584 247.0867696 416 280.5 416 C 313.9132304 416 341 423.6111584 341 433 C 341 442.3888416 313.9132304 450 280.5 450 C 247.0867696 450 220 442.3888416 220 433 Z" stroke-miterlimit="10"/></g><g transform="translate(-38,-46) scale(1,1)"><g><path fill="none" stroke="none"/><text fill="#000000" stroke="none" font-family="Arial" font-size="13px" font-style="normal" font-weight="bold" text-decoration="none" x="242.2236328125" y="438.5">Return book</text></g></g><g transform="translate(-38,-46) scale(1,1)"><path fill="#C0C0C0" stroke="none" d="M 200 328 C 200 318.6111584 238.9512224 311 287 311 C 335.0487776 311 374 318.6111584 374 328 C 374 337.3888416 335.0487776 345 287 345 C 238.9512224 345 200 337.3888416 200 328 Z" opacity="0.2"/></g><g transform="translate(-38,-46) scale(1,1)"><path fill="#d6ffae" stroke="none" d="M 193 321 C 193 311.6111584 231.9512224 304 280 304 C 328.0487776 304 367 311.6111584 367 321 C 367 330.3888416 328.0487776 338 280 338 C 231.9512224 338 193 330.3888416 193 321 Z"/></g><g transform="translate(-38,-46) scale(1,1)"><path fill="none" stroke="#000000" d="M 193 321 C 193 311.6111584 231.9512224 304 280 304 C 328.0487776 304 367 311.6111584 367 321 C 367 330.3888416 328.0487776 338 280 338 C 231.9512224 338 193 330.3888416 193 321 Z" stroke-miterlimit="10"/></g><g transform="translate(-38,-46) scale(1,1)"><g><path fill="none" stroke="none"/><text fill="#000000" stroke="none" font-family="Arial" font-size="13px" font-style="normal" font-weight="bold" text-decoration="none" x="222.92822265625" y="326.5">Maintain Database</text></g></g><g transform="translate(-38,-46) scale(1,1)"><path fill="#C0C0C0" stroke="none" d="M 237 384 C 237 374.6111584 259.6096176 367 287.5 367 C 315.3903824 367 338 374.6111584 338 384 C 338 393.3888416 315.3903824 401 287.5 401 C 259.6096176 401 237 393.3888416 237 384 Z" opacity="0.2"/></g><g transform="translate(-38,-46) scale(1,1)"><path fill="#d6ffae" stroke="none" d="M 230 377 C 230 367.6111584 252.6096176 360 280.5 360 C 308.3903824 360 331 367.6111584 331 377 C 331 386.3888416 308.3903824 394 280.5 394 C 252.6096176 394 230 386.3888416 230 377 Z"/></g><g transform="translate(-38,-46) scale(1,1)"><path fill="none" stroke="#000000" d="M 230 377 C 230 367.6111584 252.6096176 360 280.5 360 C 308.3903824 360 331 367.6111584 331 377 C 331 386.3888416 308.3903824 394 280.5 394 C 252.6096176 394 230 386.3888416 230 377 Z" stroke-miterlimit="10"/></g><g transform="translate(-38,-46) scale(1,1)"><g><path fill="none" stroke="none"/><text fill="#000000" stroke="none" font-family="Arial" font-size="13px" font-style="normal" font-weight="bold" text-decoration="none" x="258.483154296875" y="382.5">Logout</text></g></g><g transform="translate(-38,-46) scale(1,1)"><path fill="none" stroke="#000000" d="M 99 272 L 229 279" stroke-miterlimit="10"/></g><g transform="translate(-38,-46) scale(1,1)"><path fill="none" stroke="#000000" d="M 218.62568759955434 282.65699907273154 L 229 279 L 219.07836450837578 274.25014219461855" stroke-miterlimit="10"/></g><g transform="translate(-38,-46) scale(1,1)"><path fill="none" stroke="#000000" d="M 410 228 L 324 263" stroke-miterlimit="10"/></g><g transform="translate(-38,-46) scale(1,1)"><path fill="none" stroke="#000000" d="M 331.8261936347691 255.27014274445514 L 324 263 L 334.99978907302403 263.0681201070244" stroke-miterlimit="10"/></g><g transform="translate(-38,-46) scale(1,1)"><path fill="none" stroke="#000000" d="M 99 255 Q 192 200 266 171" stroke-miterlimit="10"/></g><g transform="translate(-38,-46) scale(1,1)"><path fill="none" stroke="#000000" d="M 258.07391249566024 178.62739384544608 L 266 171 L 255.00202786650792 170.78879168829883" stroke-miterlimit="10"/></g><g transform="translate(-38,-46) scale(1,1)"><path fill="none" stroke="#000000" d="M 99 264 L 243 227" stroke-miterlimit="10"/></g><g transform="translate(-38,-46) scale(1,1)"><path fill="none" stroke="#000000" d="M 234.20463423765207 233.60617446836807 L 243 227 L 232.1094664621433 225.4520079907123" stroke-miterlimit="10"/></g><g transform="translate(-38,-46) scale(1,1)"><path fill="none" stroke="#000000" d="M 99 291 L 257 415" stroke-miterlimit="10"/></g><g transform="translate(-38,-46) scale(1,1)"><path fill="none" stroke="#000000" d="M 246.406512905927 412.03722576160305 L 257 415 L 251.6042711944641 405.4142756842735" stroke-miterlimit="10"/></g><g transform="translate(-38,-46) scale(1,1)"><path fill="none" stroke="#000000" d="M 99 284 L 245 359" stroke-miterlimit="10"/></g><g transform="translate(-38,-46) scale(1,1)"><path fill="none" stroke="#000000" d="M 234.03682380961322 358.10068480579014 L 245 359 L 237.8837756446845 350.61195190018475" stroke-miterlimit="10"/></g><g transform="translate(-38,-46) scale(1,1)"><path fill="none" stroke="#000000" d="M 417 400 L 311 339" stroke-miterlimit="10"/></g><g transform="translate(-38,-46) scale(1,1)"><path fill="none" stroke="#000000" d="M 321.90790720034744 340.4204085710135 L 311 339 L 317.7086746173001 347.7174356825384" stroke-miterlimit="10"/></g><g transform="translate(-38,-46) scale(1,1)"><path fill="none" stroke="#000000" d="M 477 215 L 543 216" stroke-miterlimit="10"/></g><g transform="translate(-38,-46) scale(1,1)"><path fill="none" stroke="#000000" d="M 532.7747182038105 220.0550724023766 L 543 216 L 532.9022647084481 211.637003096294" stroke-miterlimit="10"/></g><g transform="translate(-38,-46) scale(1,1)"><path fill="#ffffff" stroke="none" d="M 640 288 L 728 288 L 738 298 L 738 336 L 640 336 L 640 288"/></g><g transform="translate(-38,-46) scale(1,1)"><path fill="none" stroke="#000000" d="M 640 288 L 728 288 L 738 298 L 738 336 L 640 336 L 640 288 L 640 288" stroke-miterlimit="10"/></g><g transform="translate(-38,-46) scale(1,1)"><path fill="none" stroke="#000000" d="M 728 288 L 728 298 L 738 298 L 728 288" stroke-miterlimit="10"/></g><g transform="translate(-38,-46) scale(1,1)"><g><path fill="none" stroke="none"/><text fill="#000000" stroke="none" font-family="Arial" font-size="13px" font-style="normal" font-weight="normal" text-decoration="none" x="645" y="302">&lt;&lt;actor&gt;&gt;</text></g></g><g transform="translate(-38,-46) scale(1,1)"><g><path fill="none" stroke="none"/><text fill="#000000" stroke="none" font-family="Arial" font-size="13px" font-style="normal" font-weight="normal" text-decoration="none" x="645" y="318">projection</text></g></g><g transform="translate(-38,-46) scale(1,1)"><path fill="none" stroke="#000000" d="M 591 317 L 639 314" stroke-miterlimit="10" stroke-dasharray="3"/></g><g transform="translate(-38,-46) scale(1,1)"><path fill="none" stroke="#000000" d="M 599 289 L 639 299" stroke-miterlimit="10" stroke-dasharray="3"/></g><g transform="translate(-38,-46) scale(1,1)"><path fill="none" stroke="#000000" d="M 93 231 Q 144 128 235 107" stroke-miterlimit="10"/></g><g transform="translate(-38,-46) scale(1,1)"><path fill="none" stroke="#000000" d="M 226.04412918008137 113.3868910948074 L 235 107 L 224.15102900796654 105.18345701564309" stroke-miterlimit="10"/></g><g transform="translate(-38,-46) scale(1,1)"><path fill="none" stroke="#000000" d="M 445 175 Q 448 120 390 107" stroke-miterlimit="10"/></g><g transform="translate(-38,-46) scale(1,1)"><path fill="none" stroke="#000000" d="M 400.8373019620101 105.1150898737044 L 390 107 L 398.99596243933445 113.33029697487282" stroke-miterlimit="10"/></g></g></svg>