<svg version="1.1" xmlns="http://www.w3.org/2000/svg" xmlns:xlink="http://www.w3.org/1999/xlink" width="980" height="476"><defs/><g><g transform="translate(-38,-102) scale(1,1)"><path fill="none" stroke="#000000" d="M 48 112 L 992 112 L 992 568 L 48 568 L 48 112" stroke-miterlimit="10"/></g><g transform="translate(-38,-102) scale(1,1)"><path fill="#ffffff" stroke="none" d="M 48 112 L 48 134 L 301.01513671875 134 L 312.01513671875 123 L 312.01513671875 112 L 48 112"/></g><g transform="translate(-38,-102) scale(1,1)"><path fill="none" stroke="#000000" d="M 48 112 L 48 134 L 301.01513671875 134 L 312.01513671875 123 L 312.01513671875 112 L 48 112 L 48 112" stroke-miterlimit="10"/></g><g transform="translate(-38,-102) scale(1,1)"><g><path fill="none" stroke="none"/><text fill="#000000" stroke="none" font-family="Arial" font-size="13px" font-style="normal" font-weight="normal" text-decoration="none" x="83.55908203125" y="128">ComponentDiagram1 - 217Y1A05C0</text></g></g><g transform="translate(-38,-102) scale(1,1)"><g><path fill="none" stroke="none"/><text fill="#000000" stroke="none" font-family="Arial" font-size="13px" font-style="normal" font-weight="bold" text-decoration="none" x="51.91455078125" y="126.5">cmp</text></g></g><g transform="translate(-38,-102) scale(1,1)"><path fill="#C0C0C0" stroke="none" d="M 111 227 L 300 227 L 300 272 L 111 272" opacity="0.2"/></g><g transform="translate(-38,-102) scale(1,1)"><path fill="#C0C0C0" stroke="none" d="M 111 227 L 121 217 L 310 217 L 300 227" opacity="0.2"/></g><g transform="translate(-38,-102) scale(1,1)"><path fill="#C0C0C0" stroke="none" d="M 310 217 L 300 227 L 300 272 L 310 262" opacity="0.2"/></g><g transform="translate(-38,-102) scale(1,1)"><path fill="#f1d9c2" stroke="none" d="M 104 220 L 293 220 L 293 265 L 104 265"/></g><g transform="translate(-38,-102) scale(1,1)"><path fill="#f1d9c2" stroke="none" d="M 104 220 L 114 210 L 303 210 L 293 220"/></g><g transform="translate(-38,-102) scale(1,1)"><path fill="#f1d9c2" stroke="none" d="M 303 210 L 293 220 L 293 265 L 303 255"/></g><g transform="translate(-38,-102) scale(1,1)"><path fill="none" stroke="#000000" d="M 104 220 L 293 220 L 293 265 L 104 265 L 104 220" stroke-miterlimit="10"/></g><g transform="translate(-38,-102) scale(1,1)"><path fill="none" stroke="#000000" d="M 104 220 L 114 210 L 303 210 L 293 220 L 104 220" stroke-miterlimit="10"/></g><g transform="translate(-38,-102) scale(1,1)"><path fill="none" stroke="#000000" d="M 303 210 L 293 220 L 293 265 L 303 255 L 303 210" stroke-miterlimit="10"/></g><g transform="translate(-38,-102) scale(1,1)"><g><path fill="none" stroke="none"/><text fill="#000000" stroke="none" font-family="Arial" font-size="13px" font-style="normal" font-weight="bold" text-decoration="none" x="139.77001953125" y="238">Library Application</text></g></g><g transform="translate(-38,-102) scale(1,1)"><path fill="#C0C0C0" stroke="none" d="M 431 283 L 620 283 L 620 376 L 431 376" opacity="0.2"/></g><g transform="translate(-38,-102) scale(1,1)"><path fill="#C0C0C0" stroke="none" d="M 431 283 L 441 273 L 630 273 L 620 283" opacity="0.2"/></g><g transform="translate(-38,-102) scale(1,1)"><path fill="#C0C0C0" stroke="none" d="M 630 273 L 620 283 L 620 376 L 630 366" opacity="0.2"/></g><g transform="translate(-38,-102) scale(1,1)"><path fill="#f1d9c2" stroke="none" d="M 424 276 L 613 276 L 613 369 L 424 369"/></g><g transform="translate(-38,-102) scale(1,1)"><path fill="#f1d9c2" stroke="none" d="M 424 276 L 434 266 L 623 266 L 613 276"/></g><g transform="translate(-38,-102) scale(1,1)"><path fill="#f1d9c2" stroke="none" d="M 623 266 L 613 276 L 613 369 L 623 359"/></g><g transform="translate(-38,-102) scale(1,1)"><path fill="none" stroke="#000000" d="M 424 276 L 613 276 L 613 369 L 424 369 L 424 276" stroke-miterlimit="10"/></g><g transform="translate(-38,-102) scale(1,1)"><path fill="none" stroke="#000000" d="M 424 276 L 434 266 L 623 266 L 613 276 L 424 276" stroke-miterlimit="10"/></g><g transform="translate(-38,-102) scale(1,1)"><path fill="none" stroke="#000000" d="M 623 266 L 613 276 L 613 369 L 623 359 L 623 266" stroke-miterlimit="10"/></g><g transform="translate(-38,-102) scale(1,1)"><path fill="none" stroke="#000000" d="M 424 301 L 614 301" stroke-miterlimit="10"/></g><g transform="translate(-38,-102) scale(1,1)"><g><path fill="none" stroke="none"/><text fill="#000000" stroke="none" font-family="Arial" font-size="13px" font-style="normal" font-weight="bold" text-decoration="none" x="466.254150390625" y="294">Library Database</text></g></g><g transform="translate(-38,-102) scale(1,1)"><path fill="#C0C0C0" stroke="none" d="M 158 459 L 347 459 L 347 552 L 158 552" opacity="0.2"/></g><g transform="translate(-38,-102) scale(1,1)"><path fill="#C0C0C0" stroke="none" d="M 158 459 L 168 449 L 357 449 L 347 459" opacity="0.2"/></g><g transform="translate(-38,-102) scale(1,1)"><path fill="#C0C0C0" stroke="none" d="M 357 449 L 347 459 L 347 552 L 357 542" opacity="0.2"/></g><g transform="translate(-38,-102) scale(1,1)"><path fill="#f1d9c2" stroke="none" d="M 151 452 L 340 452 L 340 545 L 151 545"/></g><g transform="translate(-38,-102) scale(1,1)"><path fill="#f1d9c2" stroke="none" d="M 151 452 L 161 442 L 350 442 L 340 452"/></g><g transform="translate(-38,-102) scale(1,1)"><path fill="#f1d9c2" stroke="none" d="M 350 442 L 340 452 L 340 545 L 350 535"/></g><g transform="translate(-38,-102) scale(1,1)"><path fill="none" stroke="#000000" d="M 151 452 L 340 452 L 340 545 L 151 545 L 151 452" stroke-miterlimit="10"/></g><g transform="translate(-38,-102) scale(1,1)"><path fill="none" stroke="#000000" d="M 151 452 L 161 442 L 350 442 L 340 452 L 151 452" stroke-miterlimit="10"/></g><g transform="translate(-38,-102) scale(1,1)"><path fill="none" stroke="#000000" d="M 350 442 L 340 452 L 340 545 L 350 535 L 350 442" stroke-miterlimit="10"/></g><g transform="translate(-38,-102) scale(1,1)"><g><path fill="none" stroke="none"/><text fill="#000000" stroke="none" font-family="Arial" font-size="13px" font-style="normal" font-weight="bold" text-decoration="none" x="223.964111328125" y="470">Library</text></g></g><g transform="translate(-38,-102) scale(1,1)"><rect fill="#C0C0C0" stroke="none" x="544" y="185" width="158" height="44" opacity="0.2"/></g><g transform="translate(-38,-102) scale(1,1)"><rect fill="#e1e5fa" stroke="none" x="537" y="178" width="158" height="44"/></g><g transform="translate(-38,-102) scale(1,1)"><path fill="none" stroke="#000000" d="M 537 178 L 695 178 L 695 222 L 537 222 L 537 178 Z Z" stroke-miterlimit="10"/></g><g transform="translate(-38,-102) scale(1,1)"><rect fill="#e1e5fa" stroke="none" x="527" y="185" width="20" height="10"/></g><g transform="translate(-38,-102) scale(1,1)"><path fill="none" stroke="#000000" d="M 527 185 L 547 185 L 547 195 L 527 195 L 527 185 Z Z" stroke-miterlimit="10"/></g><g transform="translate(-38,-102) scale(1,1)"><rect fill="#e1e5fa" stroke="none" x="527" y="205" width="20" height="10"/></g><g transform="translate(-38,-102) scale(1,1)"><path fill="none" stroke="#000000" d="M 527 205 L 547 205 L 547 215 L 527 215 L 527 205 Z Z" stroke-miterlimit="10"/></g><g transform="translate(-38,-102) scale(1,1)"><g><path fill="none" stroke="none"/><text fill="#000000" stroke="none" font-family="Arial" font-size="13px" font-style="normal" font-weight="bold" text-decoration="none" x="566.82275390625" y="196">Book &amp; magazine</text><text fill="#000000" stroke="none" font-family="Arial" font-size="13px" font-style="normal" font-weight="bold" text-decoration="none" x="599.6845703125" y="209">locater</text></g></g><g transform="translate(-38,-102) scale(1,1)"><path fill="none" stroke="#000000" d="M 594 223 L 563 265" stroke-miterlimit="10" stroke-dasharray="3"/></g><g transform="translate(-38,-102) scale(1,1)"><path fill="none" stroke="#000000" d="M 565.6482589321624 254.32354344231092 L 563 265 L 572.4219966802553 259.32320701828434" stroke-miterlimit="10"/></g><g transform="translate(-38,-102) scale(1,1)"><g><path fill="none" stroke="none"/><text fill="#000000" stroke="none" font-family="Arial" font-size="13px" font-style="normal" font-weight="normal" text-decoration="none" x="511.5" y="242">«deploy»</text></g></g><g transform="translate(-38,-102) scale(1,1)"><rect fill="#C0C0C0" stroke="none" x="465" y="319" width="110.75537109375" height="44" opacity="0.2"/></g><g transform="translate(-38,-102) scale(1,1)"><rect fill="#e1e5fa" stroke="none" x="458" y="312" width="110.75537109375" height="44"/></g><g transform="translate(-38,-102) scale(1,1)"><path fill="none" stroke="#000000" d="M 458 312 L 568.75537109375 312 L 568.75537109375 356 L 458 356 L 458 312 Z Z" stroke-miterlimit="10"/></g><g transform="translate(-38,-102) scale(1,1)"><rect fill="#e1e5fa" stroke="none" x="448" y="319" width="20" height="10"/></g><g transform="translate(-38,-102) scale(1,1)"><path fill="none" stroke="#000000" d="M 448 319 L 468 319 L 468 329 L 448 329 L 448 319 Z Z" stroke-miterlimit="10"/></g><g transform="translate(-38,-102) scale(1,1)"><rect fill="#e1e5fa" stroke="none" x="448" y="339" width="20" height="10"/></g><g transform="translate(-38,-102) scale(1,1)"><path fill="none" stroke="#000000" d="M 448 339 L 468 339 L 468 349 L 448 349 L 448 339 Z Z" stroke-miterlimit="10"/></g><g transform="translate(-38,-102) scale(1,1)"><g><path fill="none" stroke="none"/><text fill="#000000" stroke="none" font-family="Arial" font-size="13px" font-style="normal" font-weight="bold" text-decoration="none" x="472.5" y="330">Item dispenser</text></g></g><g transform="translate(-38,-102) scale(1,1)"><rect fill="#C0C0C0" stroke="none" x="192" y="497" width="116.49365234375" height="44" opacity="0.2"/></g><g transform="translate(-38,-102) scale(1,1)"><rect fill="#e1e5fa" stroke="none" x="185" y="490" width="116.49365234375" height="44"/></g><g transform="translate(-38,-102) scale(1,1)"><path fill="none" stroke="#000000" d="M 185 490 L 301.49365234375 490 L 301.49365234375 534 L 185 534 L 185 490 Z Z" stroke-miterlimit="10"/></g><g transform="translate(-38,-102) scale(1,1)"><rect fill="#e1e5fa" stroke="none" x="175" y="497" width="20" height="10"/></g><g transform="translate(-38,-102) scale(1,1)"><path fill="none" stroke="#000000" d="M 175 497 L 195 497 L 195 507 L 175 507 L 175 497 Z Z" stroke-miterlimit="10"/></g><g transform="translate(-38,-102) scale(1,1)"><rect fill="#e1e5fa" stroke="none" x="175" y="517" width="20" height="10"/></g><g transform="translate(-38,-102) scale(1,1)"><path fill="none" stroke="#000000" d="M 175 517 L 195 517 L 195 527 L 175 527 L 175 517 Z Z" stroke-miterlimit="10"/></g><g transform="translate(-38,-102) scale(1,1)"><g><path fill="none" stroke="none"/><text fill="#000000" stroke="none" font-family="Arial" font-size="13px" font-style="normal" font-weight="bold" text-decoration="none" x="201.889892578125" y="508">Avilable Books</text></g></g><g transform="translate(-38,-102) scale(1,1)"><path fill="#C0C0C0" stroke="none" d="M 702 259 L 947 259 L 947 352 L 702 352" opacity="0.2"/></g><g transform="translate(-38,-102) scale(1,1)"><path fill="#C0C0C0" stroke="none" d="M 702 259 L 712 249 L 957 249 L 947 259" opacity="0.2"/></g><g transform="translate(-38,-102) scale(1,1)"><path fill="#C0C0C0" stroke="none" d="M 957 249 L 947 259 L 947 352 L 957 342" opacity="0.2"/></g><g transform="translate(-38,-102) scale(1,1)"><path fill="#f1d9c2" stroke="none" d="M 695 252 L 940 252 L 940 345 L 695 345"/></g><g transform="translate(-38,-102) scale(1,1)"><path fill="#f1d9c2" stroke="none" d="M 695 252 L 705 242 L 950 242 L 940 252"/></g><g transform="translate(-38,-102) scale(1,1)"><path fill="#f1d9c2" stroke="none" d="M 950 242 L 940 252 L 940 345 L 950 335"/></g><g transform="translate(-38,-102) scale(1,1)"><path fill="none" stroke="#000000" d="M 695 252 L 940 252 L 940 345 L 695 345 L 695 252" stroke-miterlimit="10"/></g><g transform="translate(-38,-102) scale(1,1)"><path fill="none" stroke="#000000" d="M 695 252 L 705 242 L 950 242 L 940 252 L 695 252" stroke-miterlimit="10"/></g><g transform="translate(-38,-102) scale(1,1)"><path fill="none" stroke="#000000" d="M 950 242 L 940 252 L 940 345 L 950 335 L 950 242" stroke-miterlimit="10"/></g><g transform="translate(-38,-102) scale(1,1)"><g><path fill="none" stroke="none"/><text fill="#000000" stroke="none" font-family="Arial" font-size="13px" font-style="normal" font-weight="bold" text-decoration="none" x="732.024169921875" y="270">Payments and Transactions</text><text fill="#000000" stroke="none" font-family="Arial" font-size="13px" font-style="normal" font-weight="bold" text-decoration="none" x="786.20458984375" y="283">Processor</text></g></g><g transform="translate(-38,-102) scale(1,1)"><rect fill="#C0C0C0" stroke="none" x="768" y="297" width="121.5908203125" height="44" opacity="0.2"/></g><g transform="translate(-38,-102) scale(1,1)"><rect fill="#e1e5fa" stroke="none" x="761" y="290" width="121.5908203125" height="44"/></g><g transform="translate(-38,-102) scale(1,1)"><path fill="none" stroke="#000000" d="M 761 290 L 882.5908203125 290 L 882.5908203125 334 L 761 334 L 761 290 Z Z" stroke-miterlimit="10"/></g><g transform="translate(-38,-102) scale(1,1)"><rect fill="#e1e5fa" stroke="none" x="751" y="297" width="20" height="10"/></g><g transform="translate(-38,-102) scale(1,1)"><path fill="none" stroke="#000000" d="M 751 297 L 771 297 L 771 307 L 751 307 L 751 297 Z Z" stroke-miterlimit="10"/></g><g transform="translate(-38,-102) scale(1,1)"><rect fill="#e1e5fa" stroke="none" x="751" y="317" width="20" height="10"/></g><g transform="translate(-38,-102) scale(1,1)"><path fill="none" stroke="#000000" d="M 751 317 L 771 317 L 771 327 L 751 327 L 751 317 Z Z" stroke-miterlimit="10"/></g><g transform="translate(-38,-102) scale(1,1)"><g><path fill="none" stroke="none"/><text fill="#000000" stroke="none" font-family="Arial" font-size="13px" font-style="normal" font-weight="bold" text-decoration="none" x="775.5" y="308">Payment History</text></g></g><g transform="translate(-38,-102) scale(1,1)"><path fill="#C0C0C0" stroke="none" d="M 614 459 L 803 459 L 803 552 L 614 552" opacity="0.2"/></g><g transform="translate(-38,-102) scale(1,1)"><path fill="#C0C0C0" stroke="none" d="M 614 459 L 624 449 L 813 449 L 803 459" opacity="0.2"/></g><g transform="translate(-38,-102) scale(1,1)"><path fill="#C0C0C0" stroke="none" d="M 813 449 L 803 459 L 803 552 L 813 542" opacity="0.2"/></g><g transform="translate(-38,-102) scale(1,1)"><path fill="#f1d9c2" stroke="none" d="M 607 452 L 796 452 L 796 545 L 607 545"/></g><g transform="translate(-38,-102) scale(1,1)"><path fill="#f1d9c2" stroke="none" d="M 607 452 L 617 442 L 806 442 L 796 452"/></g><g transform="translate(-38,-102) scale(1,1)"><path fill="#f1d9c2" stroke="none" d="M 806 442 L 796 452 L 796 545 L 806 535"/></g><g transform="translate(-38,-102) scale(1,1)"><path fill="none" stroke="#000000" d="M 607 452 L 796 452 L 796 545 L 607 545 L 607 452" stroke-miterlimit="10"/></g><g transform="translate(-38,-102) scale(1,1)"><path fill="none" stroke="#000000" d="M 607 452 L 617 442 L 806 442 L 796 452 L 607 452" stroke-miterlimit="10"/></g><g transform="translate(-38,-102) scale(1,1)"><path fill="none" stroke="#000000" d="M 806 442 L 796 452 L 796 545 L 806 535 L 806 442" stroke-miterlimit="10"/></g><g transform="translate(-38,-102) scale(1,1)"><g><path fill="none" stroke="none"/><text fill="#000000" stroke="none" font-family="Arial" font-size="13px" font-style="normal" font-weight="bold" text-decoration="none" x="623.2509765625" y="470">Library System controller</text></g></g><g transform="translate(-38,-102) scale(1,1)"><rect fill="#C0C0C0" stroke="none" x="648" y="497" width="116.49365234375" height="44" opacity="0.2"/></g><g transform="translate(-38,-102) scale(1,1)"><rect fill="#e1e5fa" stroke="none" x="641" y="490" width="116.49365234375" height="44"/></g><g transform="translate(-38,-102) scale(1,1)"><path fill="none" stroke="#000000" d="M 641 490 L 757.49365234375 490 L 757.49365234375 534 L 641 534 L 641 490 Z Z" stroke-miterlimit="10"/></g><g transform="translate(-38,-102) scale(1,1)"><rect fill="#e1e5fa" stroke="none" x="631" y="497" width="20" height="10"/></g><g transform="translate(-38,-102) scale(1,1)"><path fill="none" stroke="#000000" d="M 631 497 L 651 497 L 651 507 L 631 507 L 631 497 Z Z" stroke-miterlimit="10"/></g><g transform="translate(-38,-102) scale(1,1)"><rect fill="#e1e5fa" stroke="none" x="631" y="517" width="20" height="10"/></g><g transform="translate(-38,-102) scale(1,1)"><path fill="none" stroke="#000000" d="M 631 517 L 651 517 L 651 527 L 631 527 L 631 517 Z Z" stroke-miterlimit="10"/></g><g transform="translate(-38,-102) scale(1,1)"><g><path fill="none" stroke="none"/><text fill="#000000" stroke="none" font-family="Arial" font-size="13px" font-style="normal" font-weight="bold" text-decoration="none" x="655.5" y="508">Admin Controls</text></g></g><g transform="translate(-38,-102) scale(1,1)"><path fill="none" stroke="#000000" d="M 503 357 Q 474 494 352 494" stroke-miterlimit="10" stroke-dasharray="3"/></g><g transform="translate(-38,-102) scale(1,1)"><path fill="none" stroke="#000000" d="M 362.16267485762415 489.790482243984 L 352 494 L 362.16267485762415 498.209517756016" stroke-miterlimit="10"/></g><g transform="translate(-38,-102) scale(1,1)"><g><path fill="none" stroke="none"/><text fill="#000000" stroke="none" font-family="Arial" font-size="13px" font-style="normal" font-weight="normal" text-decoration="none" x="365.5" y="476">«deploy»</text></g></g><g transform="translate(-38,-102) scale(1,1)"><rect fill="#C0C0C0" stroke="none" x="224" y="329" width="116.49365234375" height="44" opacity="0.2"/></g><g transform="translate(-38,-102) scale(1,1)"><rect fill="#e1e5fa" stroke="none" x="217" y="322" width="116.49365234375" height="44"/></g><g transform="translate(-38,-102) scale(1,1)"><path fill="none" stroke="#000000" d="M 217 322 L 333.49365234375 322 L 333.49365234375 366 L 217 366 L 217 322 Z Z" stroke-miterlimit="10"/></g><g transform="translate(-38,-102) scale(1,1)"><rect fill="#e1e5fa" stroke="none" x="207" y="329" width="20" height="10"/></g><g transform="translate(-38,-102) scale(1,1)"><path fill="none" stroke="#000000" d="M 207 329 L 227 329 L 227 339 L 207 339 L 207 329 Z Z" stroke-miterlimit="10"/></g><g transform="translate(-38,-102) scale(1,1)"><rect fill="#e1e5fa" stroke="none" x="207" y="349" width="20" height="10"/></g><g transform="translate(-38,-102) scale(1,1)"><path fill="none" stroke="#000000" d="M 207 349 L 227 349 L 227 359 L 207 359 L 207 349 Z Z" stroke-miterlimit="10"/></g><g transform="translate(-38,-102) scale(1,1)"><g><path fill="none" stroke="none"/><text fill="#000000" stroke="none" font-family="Arial" font-size="13px" font-style="normal" font-weight="bold" text-decoration="none" x="236.16552734375" y="340">Library Server</text></g></g><g transform="translate(-38,-102) scale(1,1)"><path fill="none" stroke="#000000" d="M 263 322 L 263 266" stroke-miterlimit="10" stroke-dasharray="3"/></g><g transform="translate(-38,-102) scale(1,1)"><path fill="none" stroke="#000000" d="M 267.209517756016 276.16267485762415 L 263 266 L 258.790482243984 276.16267485762415" stroke-miterlimit="10"/></g><g transform="translate(-38,-102) scale(1,1)"><g><path fill="none" stroke="none"/><text fill="#000000" stroke="none" font-family="Arial" font-size="13px" font-style="normal" font-weight="normal" text-decoration="none" x="205.5" y="301">«deploy»</text></g></g><g transform="translate(-38,-102) scale(1,1)"><path fill="none" stroke="#000000" d="M 305 263 L 423 293" stroke-miterlimit="10"/></g><g transform="translate(-38,-102) scale(1,1)"><g><path fill="none" stroke="none"/><text fill="#000000" stroke="none" font-family="Arial" font-size="13px" font-style="normal" font-weight="normal" text-decoration="none" x="328.29541015625" y="251">-Requests and</text><text fill="#000000" stroke="none" font-family="Arial" font-size="13px" font-style="normal" font-weight="normal" text-decoration="none" x="340.581298828125" y="262.5">responces</text></g></g><g transform="translate(-38,-102) scale(1,1)"><path fill="none" stroke="#000000" d="M 184 267 Q 120 360 220 489" stroke-miterlimit="10" stroke-dasharray="3"/></g><g transform="translate(-38,-102) scale(1,1)"><path fill="#FFFFFF" stroke="none" d="M 200.89341381558125 478.09411331539803 L 220 489 L 214.20122977320645 467.77797691413815"/></g><g transform="translate(-38,-102) scale(1,1)"><path fill="none" stroke="#000000" d="M 200.89341381558125 478.09411331539803 L 220 489 L 214.20122977320645 467.77797691413815 L 200.89341381558125 478.09411331539803" stroke-miterlimit="10"/></g><g transform="translate(-38,-102) scale(1,1)"><g><path fill="none" stroke="none"/><text fill="#000000" stroke="none" font-family="Arial" font-size="13px" font-style="normal" font-weight="normal" text-decoration="none" x="182.687744140625" y="395">Display</text><text fill="#000000" stroke="none" font-family="Arial" font-size="13px" font-style="normal" font-weight="normal" text-decoration="none" x="185.9345703125" y="408">Books</text></g></g><g transform="translate(-38,-102) scale(1,1)"><path fill="none" stroke="#000000" d="M 271 209 Q 471 122 687 134 Q 903 146 955 218 Q 1007 290 884 304" stroke-miterlimit="10" stroke-dasharray="3"/></g><g transform="translate(-38,-102) scale(1,1)"><path fill="#FFFFFF" stroke="none" d="M 903.2428387201363 293.3363628160546 L 884 304 L 905.1470719131682 310.06641158340665"/></g><g transform="translate(-38,-102) scale(1,1)"><path fill="none" stroke="#000000" d="M 903.2428387201363 293.3363628160546 L 884 304 L 905.1470719131682 310.06641158340665 L 903.2428387201363 293.3363628160546" stroke-miterlimit="10"/></g><g transform="translate(-38,-102) scale(1,1)"><g><path fill="none" stroke="none"/><text fill="#000000" stroke="none" font-family="Arial" font-size="13px" font-style="normal" font-weight="normal" text-decoration="none" x="621.680908203125" y="156">#Transactions History</text></g></g><g transform="translate(-38,-102) scale(1,1)"><path fill="none" stroke="#000000" d="M 333 346 L 424 346" stroke-miterlimit="10" stroke-dasharray="3"/></g><g transform="translate(-38,-102) scale(1,1)"><path fill="none" stroke="#000000" d="M 413.83732514237585 350.209517756016 L 424 346 L 413.83732514237585 341.790482243984" stroke-miterlimit="10"/></g><g transform="translate(-38,-102) scale(1,1)"><g><path fill="none" stroke="none"/><text fill="#000000" stroke="none" font-family="Arial" font-size="13px" font-style="normal" font-weight="normal" text-decoration="none" x="350.5" y="332">«deploy»</text></g></g><g transform="translate(-38,-102) scale(1,1)"><path fill="none" stroke="#000000" d="M 757 514 L 823 514 M 823 514 A 8 8 0 0 0 831 506 L 831 346" stroke-miterlimit="10" stroke-dasharray="3"/></g><g transform="translate(-38,-102) scale(1,1)"><path fill="none" stroke="#000000" d="M 835.209517756016 356.16267485762415 L 831 346 L 826.790482243984 356.16267485762415" stroke-miterlimit="10"/></g><g transform="translate(-38,-102) scale(1,1)"><g><path fill="none" stroke="none"/><text fill="#000000" stroke="none" font-family="Arial" font-size="13px" font-style="normal" font-weight="normal" text-decoration="none" x="838.5" y="373">+Verify Payments</text></g></g><g transform="translate(-38,-102) scale(1,1)"><path fill="none" stroke="#000000" d="M 606 494 L 352 494" stroke-miterlimit="10" stroke-dasharray="3"/></g><g transform="translate(-38,-102) scale(1,1)"><path fill="none" stroke="#000000" d="M 362.16267485762415 489.790482243984 L 352 494 L 362.16267485762415 498.209517756016" stroke-miterlimit="10"/></g><g transform="translate(-38,-102) scale(1,1)"><path fill="none" stroke="#000000" d="M 757 514 L 823 514 M 823 514 A 8 8 0 0 0 831 506 L 831 410 M 831 410 A 8 8 0 0 0 823 402 L 551 402 M 551 402 A 8 8 0 0 1 543 394 L 543 370" stroke-miterlimit="10" stroke-dasharray="3"/></g><g transform="translate(-38,-102) scale(1,1)"><path fill="none" stroke="#000000" d="M 547.209517756016 380.16267485762415 L 543 370 L 538.790482243984 380.16267485762415" stroke-miterlimit="10"/></g><g transform="translate(-38,-102) scale(1,1)"><g><path fill="none" stroke="none"/><text fill="#000000" stroke="none" font-family="Arial" font-size="13px" font-style="normal" font-weight="normal" text-decoration="none" x="565.5" y="396">«deploy»</text></g></g><g transform="translate(-38,-102) scale(1,1)"><path fill="#ffffff" stroke="none" d="M 855 386 L 943 386 L 953 396 L 953 461 L 855 461 L 855 386"/></g><g transform="translate(-38,-102) scale(1,1)"><path fill="none" stroke="#000000" d="M 855 386 L 943 386 L 953 396 L 953 461 L 855 461 L 855 386 L 855 386" stroke-miterlimit="10"/></g><g transform="translate(-38,-102) scale(1,1)"><path fill="none" stroke="#000000" d="M 943 386 L 943 396 L 953 396 L 943 386" stroke-miterlimit="10"/></g><g transform="translate(-38,-102) scale(1,1)"><g><path fill="none" stroke="none"/><text fill="#000000" stroke="none" font-family="Arial" font-size="13px" font-style="normal" font-weight="normal" text-decoration="none" x="860" y="401">This is Read</text><text fill="#000000" stroke="none" font-family="Arial" font-size="13px" font-style="normal" font-weight="normal" text-decoration="none" x="860" y="414">Only.</text><text fill="#000000" stroke="none" font-family="Arial" font-size="13px" font-style="normal" font-weight="normal" text-decoration="none" x="860" y="427">Transactions</text><text fill="#000000" stroke="none" font-family="Arial" font-size="13px" font-style="normal" font-weight="normal" text-decoration="none" x="860" y="440">are can not be</text><text fill="#000000" stroke="none" font-family="Arial" font-size="13px" font-style="normal" font-weight="normal" text-decoration="none" x="860" y="453">modified.</text></g></g><g transform="translate(-38,-102) scale(1,1)"><path fill="none" stroke="#000000" d="M 831 430 L 831 378 L 854 392" stroke-miterlimit="10" stroke-dasharray="3"/></g><g transform="translate(-38,-102) scale(1,1)"><path fill="none" stroke="#000000" d="M 151 480 L 80 480 M 80 480 A 8 8 0 0 1 72 472 L 72 248 M 72 248 A 8 8 0 0 1 80 240 L 104 240" stroke-miterlimit="10"/></g><g transform="translate(-38,-102) scale(1,1)"><g><path fill="none" stroke="none"/><text fill="#000000" stroke="none" font-family="Arial" font-size="13px" font-style="normal" font-weight="normal" text-decoration="none" x="86.57275390625" y="406">#Gets or</text><text fill="#000000" stroke="none" font-family="Arial" font-size="13px" font-style="normal" font-weight="normal" text-decoration="none" x="78.260498046875" y="419">sends Hard</text><text fill="#000000" stroke="none" font-family="Arial" font-size="13px" font-style="normal" font-weight="normal" text-decoration="none" x="92.7109375" y="432">copies</text></g></g><g transform="translate(-38,-102) scale(1,1)"><path fill="none" stroke="#000000" d="M 442 371 L 333 441" stroke-miterlimit="10"/></g><g transform="translate(-38,-102) scale(1,1)"><rect fill="#C0C0C0" stroke="none" x="183" y="175" width="57.3818359375" height="24" opacity="0.2"/></g><g transform="translate(-38,-102) scale(1,1)"><rect fill="#ffffff" stroke="none" x="176" y="168" width="57.3818359375" height="24"/></g><g transform="translate(-38,-102) scale(1,1)"><path fill="none" stroke="#000000" d="M 176 168 L 233.3818359375 168 L 233.3818359375 192 L 176 192 L 176 168 Z Z" stroke-miterlimit="10"/></g><g transform="translate(-38,-102) scale(1,1)"><rect fill="#ffffff" stroke="none" x="176" y="168" width="57.3818359375" height="24"/></g><g transform="translate(-38,-102) scale(1,1)"><path fill="none" stroke="#000000" d="M 176 168 L 233.3818359375 168 L 233.3818359375 192 L 176 192 L 176 168 Z Z" stroke-miterlimit="10"/></g><g transform="translate(-38,-102) scale(1,1)"><g><path fill="none" stroke="none"/><text fill="#000000" stroke="none" font-family="Arial" font-size="13px" font-style="normal" font-weight="bold" text-decoration="none" x="180.5" y="186">Student</text><path fill="none" stroke="#000000" d="M 228.8818359375 187.5 L 180.5 187.5" stroke-miterlimit="10"/></g></g><g transform="translate(-38,-102) scale(1,1)"><path fill="none" stroke="#000000" d="M 204 193 L 204 209" stroke-miterlimit="10" stroke-dasharray="3"/></g><g transform="translate(-38,-102) scale(1,1)"><path fill="none" stroke="#000000" d="M 199.790482243984 198.83732514237585 L 204 209 L 208.209517756016 198.83732514237585" stroke-miterlimit="10"/></g></g></svg>