<svg version="1.1" xmlns="http://www.w3.org/2000/svg" xmlns:xlink="http://www.w3.org/1999/xlink" width="612" height="364"><defs/><g><g transform="translate(-54,-94) scale(1,1)"><path fill="none" stroke="#000000" d="M 64 104 L 656 104 L 656 448 L 64 448 L 64 104" stroke-miterlimit="10"/></g><g transform="translate(-54,-94) scale(1,1)"><path fill="#ffffff" stroke="none" d="M 64 104 L 64 126 L 292.443359375 126 L 303.443359375 115 L 303.443359375 104 L 64 104"/></g><g transform="translate(-54,-94) scale(1,1)"><path fill="none" stroke="#000000" d="M 64 104 L 64 126 L 292.443359375 126 L 303.443359375 115 L 303.443359375 104 L 64 104 L 64 104" stroke-miterlimit="10"/></g><g transform="translate(-54,-94) scale(1,1)"><g><path fill="none" stroke="none"/><text fill="#000000" stroke="none" font-family="Arial" font-size="13px" font-style="normal" font-weight="normal" text-decoration="none" x="88.72998046875" y="120">217Y1A05C0 - UseCaseDiagram1</text></g></g><g transform="translate(-54,-94) scale(1,1)"><g><path fill="none" stroke="none"/><text fill="#000000" stroke="none" font-family="Arial" font-size="13px" font-style="normal" font-weight="bold" text-decoration="none" x="68.279541015625" y="118.5">uc</text></g></g><g transform="translate(-54,-94) scale(1,1)"><path fill="#ffffff" stroke="none" d="M 95.20573703835227 217.68 C 95.20573703835227 212.886167936 99.09157936329773 209 103.885009765625 209 C 108.67844016795227 209 112.56428249289773 212.886167936 112.56428249289773 217.68 C 112.56428249289773 222.47383206400002 108.67844016795227 226.36 103.885009765625 226.36 C 99.09157936329773 226.36 95.20573703835227 222.47383206400002 95.20573703835227 217.68 Z"/></g><g transform="translate(-54,-94) scale(1,1)"><path fill="none" stroke="#000000" d="M 95.20573703835227 217.68 C 95.20573703835227 212.886167936 99.09157936329773 209 103.885009765625 209 C 108.67844016795227 209 112.56428249289773 212.886167936 112.56428249289773 217.68 C 112.56428249289773 222.47383206400002 108.67844016795227 226.36 103.885009765625 226.36 C 99.09157936329773 226.36 95.20573703835227 222.47383206400002 95.20573703835227 217.68 Z" stroke-miterlimit="10"/></g><g transform="translate(-54,-94) scale(1,1)"><path fill="none" stroke="#000000" d="M 103.885009765625 226.36 L 103.885009765625 243.64" stroke-miterlimit="10"/></g><g transform="translate(-54,-94) scale(1,1)"><path fill="none" stroke="#000000" d="M 94.69519158380682 232.84 L 113.07482794744318 232.84" stroke-miterlimit="10"/></g><g transform="translate(-54,-94) scale(1,1)"><path fill="none" stroke="#000000" d="M 103.885009765625 243.64 L 91.12137340198863 261" stroke-miterlimit="10"/></g><g transform="translate(-54,-94) scale(1,1)"><path fill="none" stroke="#000000" d="M 103.885009765625 243.64 L 116.64864612926137 261" stroke-miterlimit="10"/></g><g transform="translate(-54,-94) scale(1,1)"><g><path fill="none" stroke="none"/><text fill="#000000" stroke="none" font-family="Arial" font-size="13px" font-style="normal" font-weight="bold" text-decoration="none" x="79.694091796875" y="280">Student</text></g></g><g transform="translate(-54,-94) scale(1,1)"><path fill="#ffffff" stroke="none" d="M 598.2057370383523 217.68 C 598.2057370383523 212.886167936 602.0915793632977 209 606.885009765625 209 C 611.6784401679523 209 615.5642824928977 212.886167936 615.5642824928977 217.68 C 615.5642824928977 222.47383206400002 611.6784401679523 226.36 606.885009765625 226.36 C 602.0915793632977 226.36 598.2057370383523 222.47383206400002 598.2057370383523 217.68 Z"/></g><g transform="translate(-54,-94) scale(1,1)"><path fill="none" stroke="#000000" d="M 598.2057370383523 217.68 C 598.2057370383523 212.886167936 602.0915793632977 209 606.885009765625 209 C 611.6784401679523 209 615.5642824928977 212.886167936 615.5642824928977 217.68 C 615.5642824928977 222.47383206400002 611.6784401679523 226.36 606.885009765625 226.36 C 602.0915793632977 226.36 598.2057370383523 222.47383206400002 598.2057370383523 217.68 Z" stroke-miterlimit="10"/></g><g transform="translate(-54,-94) scale(1,1)"><path fill="none" stroke="#000000" d="M 606.885009765625 226.36 L 606.885009765625 243.64" stroke-miterlimit="10"/></g><g transform="translate(-54,-94) scale(1,1)"><path fill="none" stroke="#000000" d="M 597.6951915838068 232.84 L 616.0748279474432 232.84" stroke-miterlimit="10"/></g><g transform="translate(-54,-94) scale(1,1)"><path fill="none" stroke="#000000" d="M 606.885009765625 243.64 L 594.1213734019886 261" stroke-miterlimit="10"/></g><g transform="translate(-54,-94) scale(1,1)"><path fill="none" stroke="#000000" d="M 606.885009765625 243.64 L 619.6486461292614 261" stroke-miterlimit="10"/></g><g transform="translate(-54,-94) scale(1,1)"><g><path fill="none" stroke="none"/><text fill="#000000" stroke="none" font-family="Arial" font-size="13px" font-style="normal" font-weight="bold" text-decoration="none" x="571.5" y="280">Student DB</text></g></g><g transform="translate(-54,-94) scale(1,1)"><path fill="#C0C0C0" stroke="none" d="M 325 144 C 325 134.6111584 340.4461744 127 359.5 127 C 378.5538256 127 394 134.6111584 394 144 C 394 153.3888416 378.5538256 161 359.5 161 C 340.4461744 161 325 153.3888416 325 144 Z" opacity="0.2"/></g><g transform="translate(-54,-94) scale(1,1)"><path fill="#d6ffae" stroke="none" d="M 318 137 C 318 127.6111584 333.4461744 120 352.5 120 C 371.5538256 120 387 127.6111584 387 137 C 387 146.3888416 371.5538256 154 352.5 154 C 333.4461744 154 318 146.3888416 318 137 Z"/></g><g transform="translate(-54,-94) scale(1,1)"><path fill="none" stroke="#000000" d="M 318 137 C 318 127.6111584 333.4461744 120 352.5 120 C 371.5538256 120 387 127.6111584 387 137 C 387 146.3888416 371.5538256 154 352.5 154 C 333.4461744 154 318 146.3888416 318 137 Z" stroke-miterlimit="10"/></g><g transform="translate(-54,-94) scale(1,1)"><g><path fill="none" stroke="none"/><text fill="#000000" stroke="none" font-family="Arial" font-size="13px" font-style="normal" font-weight="bold" text-decoration="none" x="334.812255859375" y="142.5">Login</text></g></g><g transform="translate(-54,-94) scale(1,1)"><path fill="#C0C0C0" stroke="none" d="M 274 214 C 274 204.6111584 312.055792 197 359 197 C 405.944208 197 444 204.6111584 444 214 C 444 223.3888416 405.944208 231 359 231 C 312.055792 231 274 223.3888416 274 214 Z" opacity="0.2"/></g><g transform="translate(-54,-94) scale(1,1)"><path fill="#d6ffae" stroke="none" d="M 267 207 C 267 197.6111584 305.055792 190 352 190 C 398.944208 190 437 197.6111584 437 207 C 437 216.3888416 398.944208 224 352 224 C 305.055792 224 267 216.3888416 267 207 Z"/></g><g transform="translate(-54,-94) scale(1,1)"><path fill="none" stroke="#000000" d="M 267 207 C 267 197.6111584 305.055792 190 352 190 C 398.944208 190 437 197.6111584 437 207 C 437 216.3888416 398.944208 224 352 224 C 305.055792 224 267 216.3888416 267 207 Z" stroke-miterlimit="10"/></g><g transform="translate(-54,-94) scale(1,1)"><g><path fill="none" stroke="none"/><text fill="#000000" stroke="none" font-family="Arial" font-size="13px" font-style="normal" font-weight="bold" text-decoration="none" x="296.47705078125" y="212.5">View exam details</text></g></g><g transform="translate(-54,-94) scale(1,1)"><path fill="#C0C0C0" stroke="none" d="M 316 284 C 316 274.6111584 335.25175360000003 267 359 267 C 382.74824639999997 267 402 274.6111584 402 284 C 402 293.3888416 382.74824639999997 301 359 301 C 335.25175360000003 301 316 293.3888416 316 284 Z" opacity="0.2"/></g><g transform="translate(-54,-94) scale(1,1)"><path fill="#d6ffae" stroke="none" d="M 309 277 C 309 267.6111584 328.25175360000003 260 352 260 C 375.74824639999997 260 395 267.6111584 395 277 C 395 286.3888416 375.74824639999997 294 352 294 C 328.25175360000003 294 309 286.3888416 309 277 Z"/></g><g transform="translate(-54,-94) scale(1,1)"><path fill="none" stroke="#000000" d="M 309 277 C 309 267.6111584 328.25175360000003 260 352 260 C 375.74824639999997 260 395 267.6111584 395 277 C 395 286.3888416 375.74824639999997 294 352 294 C 328.25175360000003 294 309 286.3888416 309 277 Z" stroke-miterlimit="10"/></g><g transform="translate(-54,-94) scale(1,1)"><g><path fill="none" stroke="none"/><text fill="#000000" stroke="none" font-family="Arial" font-size="13px" font-style="normal" font-weight="bold" text-decoration="none" x="325.990478515625" y="282.5">Register</text></g></g><g transform="translate(-54,-94) scale(1,1)"><path fill="#C0C0C0" stroke="none" d="M 274 424 C 274 414.6111584 312.055792 407 359 407 C 405.944208 407 444 414.6111584 444 424 C 444 433.3888416 405.944208 441 359 441 C 312.055792 441 274 433.3888416 274 424 Z" opacity="0.2"/></g><g transform="translate(-54,-94) scale(1,1)"><path fill="#d6ffae" stroke="none" d="M 267 417 C 267 407.6111584 305.055792 400 352 400 C 398.944208 400 437 407.6111584 437 417 C 437 426.3888416 398.944208 434 352 434 C 305.055792 434 267 426.3888416 267 417 Z"/></g><g transform="translate(-54,-94) scale(1,1)"><path fill="none" stroke="#000000" d="M 267 417 C 267 407.6111584 305.055792 400 352 400 C 398.944208 400 437 407.6111584 437 417 C 437 426.3888416 398.944208 434 352 434 C 305.055792 434 267 426.3888416 267 417 Z" stroke-miterlimit="10"/></g><g transform="translate(-54,-94) scale(1,1)"><g><path fill="none" stroke="none"/><text fill="#000000" stroke="none" font-family="Arial" font-size="13px" font-style="normal" font-weight="bold" text-decoration="none" x="296.378662109375" y="422.5">Acknowedgement</text></g></g><g transform="translate(-54,-94) scale(1,1)"><path fill="#C0C0C0" stroke="none" d="M 463 354 C 463 344.6111584 496.1309248 337 537 337 C 577.8690752 337 611 344.6111584 611 354 C 611 363.3888416 577.8690752 371 537 371 C 496.1309248 371 463 363.3888416 463 354 Z" opacity="0.2"/></g><g transform="translate(-54,-94) scale(1,1)"><path fill="#d6ffae" stroke="none" d="M 456 347 C 456 337.6111584 489.1309248 330 530 330 C 570.8690752 330 604 337.6111584 604 347 C 604 356.3888416 570.8690752 364 530 364 C 489.1309248 364 456 356.3888416 456 347 Z"/></g><g transform="translate(-54,-94) scale(1,1)"><path fill="none" stroke="#000000" d="M 456 347 C 456 337.6111584 489.1309248 330 530 330 C 570.8690752 330 604 337.6111584 604 347 C 604 356.3888416 570.8690752 364 530 364 C 489.1309248 364 456 356.3888416 456 347 Z" stroke-miterlimit="10"/></g><g transform="translate(-54,-94) scale(1,1)"><g><path fill="none" stroke="none"/><text fill="#000000" stroke="none" font-family="Arial" font-size="13px" font-style="normal" font-weight="bold" text-decoration="none" x="482.31640625" y="352.5">Fee processing</text></g></g><g transform="translate(-54,-94) scale(1,1)"><path fill="none" stroke="#000000" d="M 145 229 L 317 152" stroke-miterlimit="10"/></g><g transform="translate(-54,-94) scale(1,1)"><path fill="none" stroke="#000000" d="M 145 240 L 266 221" stroke-miterlimit="10"/></g><g transform="translate(-54,-94) scale(1,1)"><path fill="none" stroke="#000000" d="M 145 252 L 308 272" stroke-miterlimit="10"/></g><g transform="translate(-54,-94) scale(1,1)"><path fill="none" stroke="#000000" d="M 145 276 L 326 399" stroke-miterlimit="10"/></g><g transform="translate(-54,-94) scale(1,1)"><path fill="none" stroke="#000000" d="M 566 230 L 388 153" stroke-miterlimit="10"/></g><g transform="translate(-54,-94) scale(1,1)"><path fill="none" stroke="#000000" d="M 396 294 L 484 329" stroke-miterlimit="10"/></g><g transform="translate(-54,-94) scale(1,1)"><g><path fill="none" stroke="none"/><text fill="#000000" stroke="none" font-family="Arial" font-size="13px" font-style="normal" font-weight="normal" text-decoration="none" x="389.5" y="294">«include»</text></g></g><g transform="translate(-54,-94) scale(1,1)"><path fill="none" stroke="#000000" d="M 566 241 L 438 221" stroke-miterlimit="10"/></g><g transform="translate(-54,-94) scale(1,1)"><path fill="none" stroke="#000000" d="M 566 252 L 396 272" stroke-miterlimit="10"/></g><g transform="translate(-54,-94) scale(1,1)"><path fill="none" stroke="#000000" d="M 398 399 L 484 365" stroke-miterlimit="10"/></g></g></svg>