<svg version="1.1" xmlns="http://www.w3.org/2000/svg" xmlns:xlink="http://www.w3.org/1999/xlink" width="602.77001953125" height="334"><defs/><g><g transform="translate(-38,-118) scale(1,1)"><path fill="#ffffff" stroke="none" d="M 79.20573703835227 225.68 C 79.20573703835227 220.886167936 83.09157936329773 217 87.885009765625 217 C 92.67844016795227 217 96.56428249289773 220.886167936 96.56428249289773 225.68 C 96.56428249289773 230.47383206400002 92.67844016795227 234.36 87.885009765625 234.36 C 83.09157936329773 234.36 79.20573703835227 230.47383206400002 79.20573703835227 225.68 Z"/></g><g transform="translate(-38,-118) scale(1,1)"><path fill="none" stroke="#000000" d="M 79.20573703835227 225.68 C 79.20573703835227 220.886167936 83.09157936329773 217 87.885009765625 217 C 92.67844016795227 217 96.56428249289773 220.886167936 96.56428249289773 225.68 C 96.56428249289773 230.47383206400002 92.67844016795227 234.36 87.885009765625 234.36 C 83.09157936329773 234.36 79.20573703835227 230.47383206400002 79.20573703835227 225.68 Z" stroke-miterlimit="10"/></g><g transform="translate(-38,-118) scale(1,1)"><path fill="none" stroke="#000000" d="M 87.885009765625 234.36 L 87.885009765625 251.64" stroke-miterlimit="10"/></g><g transform="translate(-38,-118) scale(1,1)"><path fill="none" stroke="#000000" d="M 78.69519158380682 240.84 L 97.07482794744318 240.84" stroke-miterlimit="10"/></g><g transform="translate(-38,-118) scale(1,1)"><path fill="none" stroke="#000000" d="M 87.885009765625 251.64 L 75.12137340198863 269" stroke-miterlimit="10"/></g><g transform="translate(-38,-118) scale(1,1)"><path fill="none" stroke="#000000" d="M 87.885009765625 251.64 L 100.64864612926137 269" stroke-miterlimit="10"/></g><g transform="translate(-38,-118) scale(1,1)"><g><path fill="none" stroke="none"/><text fill="#000000" stroke="none" font-family="Arial" font-size="13px" font-style="normal" font-weight="bold" text-decoration="none" x="63.694091796875" y="288">Student</text></g></g><g transform="translate(-38,-118) scale(1,1)"><path fill="#ffffff" stroke="none" d="M 582.2057370383523 225.68 C 582.2057370383523 220.886167936 586.0915793632977 217 590.885009765625 217 C 595.6784401679523 217 599.5642824928977 220.886167936 599.5642824928977 225.68 C 599.5642824928977 230.47383206400002 595.6784401679523 234.36 590.885009765625 234.36 C 586.0915793632977 234.36 582.2057370383523 230.47383206400002 582.2057370383523 225.68 Z"/></g><g transform="translate(-38,-118) scale(1,1)"><path fill="none" stroke="#000000" d="M 582.2057370383523 225.68 C 582.2057370383523 220.886167936 586.0915793632977 217 590.885009765625 217 C 595.6784401679523 217 599.5642824928977 220.886167936 599.5642824928977 225.68 C 599.5642824928977 230.47383206400002 595.6784401679523 234.36 590.885009765625 234.36 C 586.0915793632977 234.36 582.2057370383523 230.47383206400002 582.2057370383523 225.68 Z" stroke-miterlimit="10"/></g><g transform="translate(-38,-118) scale(1,1)"><path fill="none" stroke="#000000" d="M 590.885009765625 234.36 L 590.885009765625 251.64" stroke-miterlimit="10"/></g><g transform="translate(-38,-118) scale(1,1)"><path fill="none" stroke="#000000" d="M 581.6951915838068 240.84 L 600.0748279474432 240.84" stroke-miterlimit="10"/></g><g transform="translate(-38,-118) scale(1,1)"><path fill="none" stroke="#000000" d="M 590.885009765625 251.64 L 578.1213734019886 269" stroke-miterlimit="10"/></g><g transform="translate(-38,-118) scale(1,1)"><path fill="none" stroke="#000000" d="M 590.885009765625 251.64 L 603.6486461292614 269" stroke-miterlimit="10"/></g><g transform="translate(-38,-118) scale(1,1)"><g><path fill="none" stroke="none"/><text fill="#000000" stroke="none" font-family="Arial" font-size="13px" font-style="normal" font-weight="bold" text-decoration="none" x="555.5" y="288">Student DB</text></g></g><g transform="translate(-38,-118) scale(1,1)"><path fill="#C0C0C0" stroke="none" d="M 309 152 C 309 142.6111584 324.4461744 135 343.5 135 C 362.5538256 135 378 142.6111584 378 152 C 378 161.3888416 362.5538256 169 343.5 169 C 324.4461744 169 309 161.3888416 309 152 Z" opacity="0.2"/></g><g transform="translate(-38,-118) scale(1,1)"><path fill="#d6ffae" stroke="none" d="M 302 145 C 302 135.6111584 317.4461744 128 336.5 128 C 355.5538256 128 371 135.6111584 371 145 C 371 154.3888416 355.5538256 162 336.5 162 C 317.4461744 162 302 154.3888416 302 145 Z"/></g><g transform="translate(-38,-118) scale(1,1)"><path fill="none" stroke="#000000" d="M 302 145 C 302 135.6111584 317.4461744 128 336.5 128 C 355.5538256 128 371 135.6111584 371 145 C 371 154.3888416 355.5538256 162 336.5 162 C 317.4461744 162 302 154.3888416 302 145 Z" stroke-miterlimit="10"/></g><g transform="translate(-38,-118) scale(1,1)"><g><path fill="none" stroke="none"/><text fill="#000000" stroke="none" font-family="Arial" font-size="13px" font-style="normal" font-weight="bold" text-decoration="none" x="318.812255859375" y="150.5">Login</text></g></g><g transform="translate(-38,-118) scale(1,1)"><path fill="#C0C0C0" stroke="none" d="M 258 222 C 258 212.6111584 296.055792 205 343 205 C 389.944208 205 428 212.6111584 428 222 C 428 231.3888416 389.944208 239 343 239 C 296.055792 239 258 231.3888416 258 222 Z" opacity="0.2"/></g><g transform="translate(-38,-118) scale(1,1)"><path fill="#d6ffae" stroke="none" d="M 251 215 C 251 205.6111584 289.055792 198 336 198 C 382.944208 198 421 205.6111584 421 215 C 421 224.3888416 382.944208 232 336 232 C 289.055792 232 251 224.3888416 251 215 Z"/></g><g transform="translate(-38,-118) scale(1,1)"><path fill="none" stroke="#000000" d="M 251 215 C 251 205.6111584 289.055792 198 336 198 C 382.944208 198 421 205.6111584 421 215 C 421 224.3888416 382.944208 232 336 232 C 289.055792 232 251 224.3888416 251 215 Z" stroke-miterlimit="10"/></g><g transform="translate(-38,-118) scale(1,1)"><g><path fill="none" stroke="none"/><text fill="#000000" stroke="none" font-family="Arial" font-size="13px" font-style="normal" font-weight="bold" text-decoration="none" x="280.47705078125" y="220.5">View exam details</text></g></g><g transform="translate(-38,-118) scale(1,1)"><path fill="#C0C0C0" stroke="none" d="M 300 292 C 300 282.6111584 319.25175360000003 275 343 275 C 366.74824639999997 275 386 282.6111584 386 292 C 386 301.3888416 366.74824639999997 309 343 309 C 319.25175360000003 309 300 301.3888416 300 292 Z" opacity="0.2"/></g><g transform="translate(-38,-118) scale(1,1)"><path fill="#d6ffae" stroke="none" d="M 293 285 C 293 275.6111584 312.25175360000003 268 336 268 C 359.74824639999997 268 379 275.6111584 379 285 C 379 294.3888416 359.74824639999997 302 336 302 C 312.25175360000003 302 293 294.3888416 293 285 Z"/></g><g transform="translate(-38,-118) scale(1,1)"><path fill="none" stroke="#000000" d="M 293 285 C 293 275.6111584 312.25175360000003 268 336 268 C 359.74824639999997 268 379 275.6111584 379 285 C 379 294.3888416 359.74824639999997 302 336 302 C 312.25175360000003 302 293 294.3888416 293 285 Z" stroke-miterlimit="10"/></g><g transform="translate(-38,-118) scale(1,1)"><g><path fill="none" stroke="none"/><text fill="#000000" stroke="none" font-family="Arial" font-size="13px" font-style="normal" font-weight="bold" text-decoration="none" x="309.990478515625" y="290.5">Register</text></g></g><g transform="translate(-38,-118) scale(1,1)"><path fill="#C0C0C0" stroke="none" d="M 258 432 C 258 422.6111584 296.055792 415 343 415 C 389.944208 415 428 422.6111584 428 432 C 428 441.3888416 389.944208 449 343 449 C 296.055792 449 258 441.3888416 258 432 Z" opacity="0.2"/></g><g transform="translate(-38,-118) scale(1,1)"><path fill="#d6ffae" stroke="none" d="M 251 425 C 251 415.6111584 289.055792 408 336 408 C 382.944208 408 421 415.6111584 421 425 C 421 434.3888416 382.944208 442 336 442 C 289.055792 442 251 434.3888416 251 425 Z"/></g><g transform="translate(-38,-118) scale(1,1)"><path fill="none" stroke="#000000" d="M 251 425 C 251 415.6111584 289.055792 408 336 408 C 382.944208 408 421 415.6111584 421 425 C 421 434.3888416 382.944208 442 336 442 C 289.055792 442 251 434.3888416 251 425 Z" stroke-miterlimit="10"/></g><g transform="translate(-38,-118) scale(1,1)"><g><path fill="none" stroke="none"/><text fill="#000000" stroke="none" font-family="Arial" font-size="13px" font-style="normal" font-weight="bold" text-decoration="none" x="280.378662109375" y="430.5">Acknowedgement</text></g></g><g transform="translate(-38,-118) scale(1,1)"><path fill="#C0C0C0" stroke="none" d="M 447 362 C 447 352.6111584 480.1309248 345 521 345 C 561.8690752 345 595 352.6111584 595 362 C 595 371.3888416 561.8690752 379 521 379 C 480.1309248 379 447 371.3888416 447 362 Z" opacity="0.2"/></g><g transform="translate(-38,-118) scale(1,1)"><path fill="#d6ffae" stroke="none" d="M 440 355 C 440 345.6111584 473.1309248 338 514 338 C 554.8690752 338 588 345.6111584 588 355 C 588 364.3888416 554.8690752 372 514 372 C 473.1309248 372 440 364.3888416 440 355 Z"/></g><g transform="translate(-38,-118) scale(1,1)"><path fill="none" stroke="#000000" d="M 440 355 C 440 345.6111584 473.1309248 338 514 338 C 554.8690752 338 588 345.6111584 588 355 C 588 364.3888416 554.8690752 372 514 372 C 473.1309248 372 440 364.3888416 440 355 Z" stroke-miterlimit="10"/></g><g transform="translate(-38,-118) scale(1,1)"><g><path fill="none" stroke="none"/><text fill="#000000" stroke="none" font-family="Arial" font-size="13px" font-style="normal" font-weight="bold" text-decoration="none" x="466.31640625" y="360.5">Fee processing</text></g></g><g transform="translate(-38,-118) scale(1,1)"><path fill="none" stroke="#000000" d="M 129 237 L 301 160" stroke-miterlimit="10"/></g><g transform="translate(-38,-118) scale(1,1)"><path fill="none" stroke="#000000" d="M 129 248 L 250 229" stroke-miterlimit="10"/></g><g transform="translate(-38,-118) scale(1,1)"><path fill="none" stroke="#000000" d="M 129 260 L 292 280" stroke-miterlimit="10"/></g><g transform="translate(-38,-118) scale(1,1)"><path fill="none" stroke="#000000" d="M 129 284 L 310 407" stroke-miterlimit="10"/></g><g transform="translate(-38,-118) scale(1,1)"><path fill="none" stroke="#000000" d="M 550 238 L 372 161" stroke-miterlimit="10"/></g><g transform="translate(-38,-118) scale(1,1)"><path fill="none" stroke="#000000" d="M 380 302 L 468 337" stroke-miterlimit="10"/></g><g transform="translate(-38,-118) scale(1,1)"><g><path fill="none" stroke="none"/><text fill="#000000" stroke="none" font-family="Arial" font-size="13px" font-style="normal" font-weight="normal" text-decoration="none" x="373.5" y="302">«include»</text></g></g><g transform="translate(-38,-118) scale(1,1)"><path fill="none" stroke="#000000" d="M 550 249 L 422 229" stroke-miterlimit="10"/></g><g transform="translate(-38,-118) scale(1,1)"><path fill="none" stroke="#000000" d="M 550 260 L 380 280" stroke-miterlimit="10"/></g><g transform="translate(-38,-118) scale(1,1)"><path fill="none" stroke="#000000" d="M 382 407 L 468 373" stroke-miterlimit="10"/></g></g></svg>