<svg version="1.1" xmlns="http://www.w3.org/2000/svg" xmlns:xlink="http://www.w3.org/1999/xlink" width="636" height="652"><defs/><g><g transform="translate(-206,-22) scale(1,1)"><path fill="none" stroke="#000000" d="M 216 32 L 832 32 L 832 664 L 216 664 L 216 32" stroke-miterlimit="10"/></g><g transform="translate(-206,-22) scale(1,1)"><path fill="#ffffff" stroke="none" d="M 216 32 L 216 54 L 435.759765625 54 L 446.759765625 43 L 446.759765625 32 L 216 32"/></g><g transform="translate(-206,-22) scale(1,1)"><path fill="none" stroke="#000000" d="M 216 32 L 216 54 L 435.759765625 54 L 446.759765625 43 L 446.759765625 32 L 216 32 L 216 32" stroke-miterlimit="10"/></g><g transform="translate(-206,-22) scale(1,1)"><g><path fill="none" stroke="none"/><text fill="#000000" stroke="none" font-family="Arial" font-size="13px" font-style="normal" font-weight="normal" text-decoration="none" x="244.341796875" y="48">217Y1A05C0 - ActivityDiagram1</text></g></g><g transform="translate(-206,-22) scale(1,1)"><g><path fill="none" stroke="none"/><text fill="#000000" stroke="none" font-family="Arial" font-size="13px" font-style="normal" font-weight="bold" text-decoration="none" x="220.2763671875" y="47.5">act</text></g></g><g transform="translate(-206,-22) scale(1,1)"><path fill="#C0C0C0" stroke="none" d="M 484 85 L 523 85 Q 533 85 533 95 L 533 115 Q 533 125 523 125 L 484 125 Q 474 125 474 115 L 474 95 Q 474 85 484 85 Z" opacity="0.2"/></g><g transform="translate(-206,-22) scale(1,1)"><path fill="#d8e1f8" stroke="none" d="M 477 78 L 516 78 Q 526 78 526 88 L 526 108 Q 526 118 516 118 L 477 118 Q 467 118 467 108 L 467 88 Q 467 78 477 78 Z"/></g><g transform="translate(-206,-22) scale(1,1)"><path fill="none" stroke="#000000" d="M 477 78 L 516 78 Q 526 78 526 88 L 526 108 Q 526 118 516 118 L 477 118 Q 467 118 467 108 L 467 88 Q 467 78 477 78 Z" stroke-miterlimit="10"/></g><g transform="translate(-206,-22) scale(1,1)"><g><path fill="none" stroke="none"/><text fill="#000000" stroke="none" font-family="Arial" font-size="13px" font-style="normal" font-weight="bold" text-decoration="none" x="480.60546875" y="95.5">enter</text></g></g><g transform="translate(-206,-22) scale(1,1)"><path fill="#C0C0C0" stroke="none" d="M 494 56.5 C 494 51.2532944 498.2532944 47 503.5 47 C 508.7467056 47 513 51.2532944 513 56.5 C 513 61.7467056 508.7467056 66 503.5 66 C 498.2532944 66 494 61.7467056 494 56.5 Z" opacity="0.2"/></g><g transform="translate(-206,-22) scale(1,1)"><path fill="#000000" stroke="none" d="M 487 49.5 C 487 44.2532944 491.2532944 40 496.5 40 C 501.7467056 40 506 44.2532944 506 49.5 C 506 54.7467056 501.7467056 59 496.5 59 C 491.2532944 59 487 54.7467056 487 49.5 Z"/></g><g transform="translate(-206,-22) scale(1,1)"><path fill="none" stroke="#ff007f" d="M 496 60 L 496 77" stroke-miterlimit="10"/></g><g transform="translate(-206,-22) scale(1,1)"><path fill="none" stroke="#ff007f" d="M 491.790482243984 66.83732514237585 L 496 77 L 500.209517756016 66.83732514237585" stroke-miterlimit="10"/></g><g transform="translate(-206,-22) scale(1,1)"><path fill="#C0C0C0" stroke="none" d="M 446 144 L 560.01708984375 144 Q 570.01708984375 144 570.01708984375 154 L 570.01708984375 174 Q 570.01708984375 184 560.01708984375 184 L 446 184 Q 436 184 436 174 L 436 154 Q 436 144 446 144 Z" opacity="0.2"/></g><g transform="translate(-206,-22) scale(1,1)"><path fill="#d8e1f8" stroke="none" d="M 439 137 L 553.01708984375 137 Q 563.01708984375 137 563.01708984375 147 L 563.01708984375 167 Q 563.01708984375 177 553.01708984375 177 L 439 177 Q 429 177 429 167 L 429 147 Q 429 137 439 137 Z"/></g><g transform="translate(-206,-22) scale(1,1)"><path fill="none" stroke="#000000" d="M 439 137 L 553.01708984375 137 Q 563.01708984375 137 563.01708984375 147 L 563.01708984375 167 Q 563.01708984375 177 553.01708984375 177 L 439 177 Q 429 177 429 167 L 429 147 Q 429 137 439 137 Z" stroke-miterlimit="10"/></g><g transform="translate(-206,-22) scale(1,1)"><g><path fill="none" stroke="none"/><text fill="#000000" stroke="none" font-family="Arial" font-size="13px" font-style="normal" font-weight="bold" text-decoration="none" x="433.5" y="155">Search exam details</text></g></g><g transform="translate(-206,-22) scale(1,1)"><path fill="none" stroke="#ff007f" d="M 496 119 L 496 136" stroke-miterlimit="10"/></g><g transform="translate(-206,-22) scale(1,1)"><path fill="none" stroke="#ff007f" d="M 491.790482243984 125.83732514237585 L 496 136 L 500.209517756016 125.83732514237585" stroke-miterlimit="10"/></g><g transform="translate(-206,-22) scale(1,1)"><path fill="#C0C0C0" stroke="none" d="M 444 203 L 563.787109375 203 Q 573.787109375 203 573.787109375 213 L 573.787109375 233 Q 573.787109375 243 563.787109375 243 L 444 243 Q 434 243 434 233 L 434 213 Q 434 203 444 203 Z" opacity="0.2"/></g><g transform="translate(-206,-22) scale(1,1)"><path fill="#d8e1f8" stroke="none" d="M 437 196 L 556.787109375 196 Q 566.787109375 196 566.787109375 206 L 566.787109375 226 Q 566.787109375 236 556.787109375 236 L 437 236 Q 427 236 427 226 L 427 206 Q 427 196 437 196 Z"/></g><g transform="translate(-206,-22) scale(1,1)"><path fill="none" stroke="#000000" d="M 437 196 L 556.787109375 196 Q 566.787109375 196 566.787109375 206 L 566.787109375 226 Q 566.787109375 236 556.787109375 236 L 437 236 Q 427 236 427 226 L 427 206 Q 427 196 437 196 Z" stroke-miterlimit="10"/></g><g transform="translate(-206,-22) scale(1,1)"><g><path fill="none" stroke="none"/><text fill="#000000" stroke="none" font-family="Arial" font-size="13px" font-style="normal" font-weight="bold" text-decoration="none" x="431.5" y="214">Display Exam Details</text></g></g><g transform="translate(-206,-22) scale(1,1)"><path fill="none" stroke="#ff007f" d="M 496 178 L 496 195" stroke-miterlimit="10"/></g><g transform="translate(-206,-22) scale(1,1)"><path fill="none" stroke="#ff007f" d="M 491.790482243984 184.83732514237585 L 496 195 L 500.209517756016 184.83732514237585" stroke-miterlimit="10"/></g><g transform="translate(-206,-22) scale(1,1)"><path fill="#C0C0C0" stroke="none" d="M 445 262 L 561.12451171875 262 Q 571.12451171875 262 571.12451171875 272 L 571.12451171875 292 Q 571.12451171875 302 561.12451171875 302 L 445 302 Q 435 302 435 292 L 435 272 Q 435 262 445 262 Z" opacity="0.2"/></g><g transform="translate(-206,-22) scale(1,1)"><path fill="#d8e1f8" stroke="none" d="M 438 255 L 554.12451171875 255 Q 564.12451171875 255 564.12451171875 265 L 564.12451171875 285 Q 564.12451171875 295 554.12451171875 295 L 438 295 Q 428 295 428 285 L 428 265 Q 428 255 438 255 Z"/></g><g transform="translate(-206,-22) scale(1,1)"><path fill="none" stroke="#000000" d="M 438 255 L 554.12451171875 255 Q 564.12451171875 255 564.12451171875 265 L 564.12451171875 285 Q 564.12451171875 295 554.12451171875 295 L 438 295 Q 428 295 428 285 L 428 265 Q 428 255 438 255 Z" stroke-miterlimit="10"/></g><g transform="translate(-206,-22) scale(1,1)"><g><path fill="none" stroke="none"/><text fill="#000000" stroke="none" font-family="Arial" font-size="13px" font-style="normal" font-weight="bold" text-decoration="none" x="432.5" y="273">get registration form</text></g></g><g transform="translate(-206,-22) scale(1,1)"><path fill="none" stroke="#ff007f" d="M 496 237 L 496 254" stroke-miterlimit="10"/></g><g transform="translate(-206,-22) scale(1,1)"><path fill="none" stroke="#ff007f" d="M 491.790482243984 243.83732514237585 L 496 254 L 500.209517756016 243.83732514237585" stroke-miterlimit="10"/></g><g transform="translate(-206,-22) scale(1,1)"><path fill="#C0C0C0" stroke="none" d="M 448 321 L 559.7890625 321 Q 569.7890625 321 569.7890625 331 L 569.7890625 351 Q 569.7890625 361 559.7890625 361 L 448 361 Q 438 361 438 351 L 438 331 Q 438 321 448 321 Z" opacity="0.2"/></g><g transform="translate(-206,-22) scale(1,1)"><path fill="#d8e1f8" stroke="none" d="M 441 314 L 552.7890625 314 Q 562.7890625 314 562.7890625 324 L 562.7890625 344 Q 562.7890625 354 552.7890625 354 L 441 354 Q 431 354 431 344 L 431 324 Q 431 314 441 314 Z"/></g><g transform="translate(-206,-22) scale(1,1)"><path fill="none" stroke="#000000" d="M 441 314 L 552.7890625 314 Q 562.7890625 314 562.7890625 324 L 562.7890625 344 Q 562.7890625 354 552.7890625 354 L 441 354 Q 431 354 431 344 L 431 324 Q 431 314 441 314 Z" stroke-miterlimit="10"/></g><g transform="translate(-206,-22) scale(1,1)"><g><path fill="none" stroke="none"/><text fill="#000000" stroke="none" font-family="Arial" font-size="13px" font-style="normal" font-weight="bold" text-decoration="none" x="435.5" y="332">fill registration form</text></g></g><g transform="translate(-206,-22) scale(1,1)"><path fill="none" stroke="#ff007f" d="M 496 296 L 496 313" stroke-miterlimit="10"/></g><g transform="translate(-206,-22) scale(1,1)"><path fill="none" stroke="#ff007f" d="M 491.790482243984 302.83732514237585 L 496 313 L 500.209517756016 302.83732514237585" stroke-miterlimit="10"/></g><g transform="translate(-206,-22) scale(1,1)"><path fill="#C0C0C0" stroke="none" d="M 419 380 L 587.16259765625 380 Q 597.16259765625 380 597.16259765625 390 L 597.16259765625 410 Q 597.16259765625 420 587.16259765625 420 L 419 420 Q 409 420 409 410 L 409 390 Q 409 380 419 380 Z" opacity="0.2"/></g><g transform="translate(-206,-22) scale(1,1)"><path fill="#d8e1f8" stroke="none" d="M 412 373 L 580.16259765625 373 Q 590.16259765625 373 590.16259765625 383 L 590.16259765625 403 Q 590.16259765625 413 580.16259765625 413 L 412 413 Q 402 413 402 403 L 402 383 Q 402 373 412 373 Z"/></g><g transform="translate(-206,-22) scale(1,1)"><path fill="none" stroke="#000000" d="M 412 373 L 580.16259765625 373 Q 590.16259765625 373 590.16259765625 383 L 590.16259765625 403 Q 590.16259765625 413 580.16259765625 413 L 412 413 Q 402 413 402 403 L 402 383 Q 402 373 412 373 Z" stroke-miterlimit="10"/></g><g transform="translate(-206,-22) scale(1,1)"><g><path fill="none" stroke="none"/><text fill="#000000" stroke="none" font-family="Arial" font-size="13px" font-style="normal" font-weight="bold" text-decoration="none" x="406.5" y="391">Fee payment and processing</text></g></g><g transform="translate(-206,-22) scale(1,1)"><path fill="none" stroke="#ff007f" d="M 496 355 L 496 372" stroke-miterlimit="10"/></g><g transform="translate(-206,-22) scale(1,1)"><path fill="none" stroke="#ff007f" d="M 491.790482243984 361.83732514237585 L 496 372 L 500.209517756016 361.83732514237585" stroke-miterlimit="10"/></g><g transform="translate(-206,-22) scale(1,1)"><path fill="#C0C0C0" stroke="none" d="M 458 439 L 548.8544921875 439 Q 558.8544921875 439 558.8544921875 449 L 558.8544921875 469 Q 558.8544921875 479 548.8544921875 479 L 458 479 Q 448 479 448 469 L 448 449 Q 448 439 458 439 Z" opacity="0.2"/></g><g transform="translate(-206,-22) scale(1,1)"><path fill="#d8e1f8" stroke="none" d="M 451 432 L 541.8544921875 432 Q 551.8544921875 432 551.8544921875 442 L 551.8544921875 462 Q 551.8544921875 472 541.8544921875 472 L 451 472 Q 441 472 441 462 L 441 442 Q 441 432 451 432 Z"/></g><g transform="translate(-206,-22) scale(1,1)"><path fill="none" stroke="#000000" d="M 451 432 L 541.8544921875 432 Q 551.8544921875 432 551.8544921875 442 L 551.8544921875 462 Q 551.8544921875 472 541.8544921875 472 L 451 472 Q 441 472 441 462 L 441 442 Q 441 432 451 432 Z" stroke-miterlimit="10"/></g><g transform="translate(-206,-22) scale(1,1)"><g><path fill="none" stroke="none"/><text fill="#000000" stroke="none" font-family="Arial" font-size="13px" font-style="normal" font-weight="bold" text-decoration="none" x="445.5" y="450">form verification</text></g></g><g transform="translate(-206,-22) scale(1,1)"><path fill="none" stroke="#ff007f" d="M 496 414 L 496 431" stroke-miterlimit="10"/></g><g transform="translate(-206,-22) scale(1,1)"><path fill="none" stroke="#ff007f" d="M 491.790482243984 420.83732514237585 L 496 431 L 500.209517756016 420.83732514237585" stroke-miterlimit="10"/></g><g transform="translate(-206,-22) scale(1,1)"><path fill="#C0C0C0" stroke="none" d="M 492 507.5 L 503.5 498 L 514 507.5 L 503.5 516 L 492 507.5" opacity="0.2"/></g><g transform="translate(-206,-22) scale(1,1)"><path fill="#ffffff" stroke="none" d="M 485 500 L 496 491 L 507 500 L 496 509 L 485 500"/></g><g transform="translate(-206,-22) scale(1,1)"><path fill="none" stroke="#000000" d="M 485 500 L 496 491 L 507 500 L 496 509 L 485 500 L 485 500" stroke-miterlimit="10"/></g><g transform="translate(-206,-22) scale(1,1)"><path fill="none" stroke="#ff007f" d="M 496 473 L 496 490" stroke-miterlimit="10"/></g><g transform="translate(-206,-22) scale(1,1)"><path fill="none" stroke="#ff007f" d="M 491.790482243984 479.83732514237585 L 496 490 L 500.209517756016 479.83732514237585" stroke-miterlimit="10"/></g><g transform="translate(-206,-22) scale(1,1)"><path fill="#C0C0C0" stroke="none" d="M 297 519 L 413.13720703125 519 Q 423.13720703125 519 423.13720703125 529 L 423.13720703125 549 Q 423.13720703125 559 413.13720703125 559 L 297 559 Q 287 559 287 549 L 287 529 Q 287 519 297 519 Z" opacity="0.2"/></g><g transform="translate(-206,-22) scale(1,1)"><path fill="#d8e1f8" stroke="none" d="M 290 512 L 406.13720703125 512 Q 416.13720703125 512 416.13720703125 522 L 416.13720703125 542 Q 416.13720703125 552 406.13720703125 552 L 290 552 Q 280 552 280 542 L 280 522 Q 280 512 290 512 Z"/></g><g transform="translate(-206,-22) scale(1,1)"><path fill="none" stroke="#000000" d="M 290 512 L 406.13720703125 512 Q 416.13720703125 512 416.13720703125 522 L 416.13720703125 542 Q 416.13720703125 552 406.13720703125 552 L 290 552 Q 280 552 280 542 L 280 522 Q 280 512 290 512 Z" stroke-miterlimit="10"/></g><g transform="translate(-206,-22) scale(1,1)"><g><path fill="none" stroke="none"/><text fill="#000000" stroke="none" font-family="Arial" font-size="13px" font-style="normal" font-weight="bold" text-decoration="none" x="284.5" y="530">store student details</text></g></g><g transform="translate(-206,-22) scale(1,1)"><path fill="none" stroke="#ff007f" d="M 485 497 L 372 497 L 372 512" stroke-miterlimit="10"/></g><g transform="translate(-206,-22) scale(1,1)"><path fill="none" stroke="#ff007f" d="M 367.790482243984 501.83732514237585 L 372 512 L 376.209517756016 501.83732514237585" stroke-miterlimit="10"/></g><g transform="translate(-206,-22) scale(1,1)"><g><path fill="none" stroke="none"/><text fill="#000000" stroke="none" font-family="Arial" font-size="13px" font-style="normal" font-weight="normal" text-decoration="none" x="384.5" y="492">valid data</text></g></g><g transform="translate(-206,-22) scale(1,1)"><path fill="#C0C0C0" stroke="none" d="M 599 519 L 715.88623046875 519 Q 725.88623046875 519 725.88623046875 529 L 725.88623046875 549 Q 725.88623046875 559 715.88623046875 559 L 599 559 Q 589 559 589 549 L 589 529 Q 589 519 599 519 Z" opacity="0.2"/></g><g transform="translate(-206,-22) scale(1,1)"><path fill="#d8e1f8" stroke="none" d="M 592 512 L 708.88623046875 512 Q 718.88623046875 512 718.88623046875 522 L 718.88623046875 542 Q 718.88623046875 552 708.88623046875 552 L 592 552 Q 582 552 582 542 L 582 522 Q 582 512 592 512 Z"/></g><g transform="translate(-206,-22) scale(1,1)"><path fill="none" stroke="#000000" d="M 592 512 L 708.88623046875 512 Q 718.88623046875 512 718.88623046875 522 L 718.88623046875 542 Q 718.88623046875 552 708.88623046875 552 L 592 552 Q 582 552 582 542 L 582 522 Q 582 512 592 512 Z" stroke-miterlimit="10"/></g><g transform="translate(-206,-22) scale(1,1)"><g><path fill="none" stroke="none"/><text fill="#000000" stroke="none" font-family="Arial" font-size="13px" font-style="normal" font-weight="bold" text-decoration="none" x="586.5" y="530">Show error message</text></g></g><g transform="translate(-206,-22) scale(1,1)"><path fill="none" stroke="#ff007f" d="M 507 500 L 607 500 L 607 512" stroke-miterlimit="10"/></g><g transform="translate(-206,-22) scale(1,1)"><path fill="none" stroke="#ff007f" d="M 602.790482243984 501.83732514237585 L 607 512 L 611.209517756016 501.83732514237585" stroke-miterlimit="10"/></g><g transform="translate(-206,-22) scale(1,1)"><g><path fill="none" stroke="none"/><text fill="#000000" stroke="none" font-family="Arial" font-size="13px" font-style="normal" font-weight="normal" text-decoration="none" x="535.5" y="494">invalid data</text></g></g><g transform="translate(-206,-22) scale(1,1)"><path fill="#C0C0C0" stroke="none" d="M 305 590 L 406.6962890625 590 Q 416.6962890625 590 416.6962890625 600 L 416.6962890625 646 Q 416.6962890625 656 406.6962890625 656 L 305 656 Q 295 656 295 646 L 295 600 Q 295 590 305 590 Z" opacity="0.2"/></g><g transform="translate(-206,-22) scale(1,1)"><path fill="#d8e1f8" stroke="none" d="M 298 583 L 399.6962890625 583 Q 409.6962890625 583 409.6962890625 593 L 409.6962890625 639 Q 409.6962890625 649 399.6962890625 649 L 298 649 Q 288 649 288 639 L 288 593 Q 288 583 298 583 Z"/></g><g transform="translate(-206,-22) scale(1,1)"><path fill="none" stroke="#000000" d="M 298 583 L 399.6962890625 583 Q 409.6962890625 583 409.6962890625 593 L 409.6962890625 639 Q 409.6962890625 649 399.6962890625 649 L 298 649 Q 288 649 288 639 L 288 593 Q 288 583 298 583 Z" stroke-miterlimit="10"/></g><g transform="translate(-206,-22) scale(1,1)"><g><path fill="none" stroke="none"/><text fill="#000000" stroke="none" font-family="Arial" font-size="13px" font-style="normal" font-weight="bold" text-decoration="none" x="325.726806640625" y="601">Display</text><text fill="#000000" stroke="none" font-family="Arial" font-size="13px" font-style="normal" font-weight="bold" text-decoration="none" x="295.0390625" y="614">registration no. &amp;</text><text fill="#000000" stroke="none" font-family="Arial" font-size="13px" font-style="normal" font-weight="bold" text-decoration="none" x="292.5" y="627">acknowledgement</text></g></g><g transform="translate(-206,-22) scale(1,1)"><path fill="none" stroke="#ff007f" d="M 348 553 L 348 582" stroke-miterlimit="10"/></g><g transform="translate(-206,-22) scale(1,1)"><path fill="none" stroke="#ff007f" d="M 343.790482243984 571.8373251423759 L 348 582 L 352.209517756016 571.8373251423759" stroke-miterlimit="10"/></g><g transform="translate(-206,-22) scale(1,1)"><path fill="#C0C0C0" stroke="none" d="M 491 623.5 C 491 616.59644 496.59644 611 503.5 611 C 510.40356 611 516 616.59644 516 623.5 C 516 630.40356 510.40356 636 503.5 636 C 496.59644 636 491 630.40356 491 623.5 Z" opacity="0.2"/></g><g transform="translate(-206,-22) scale(1,1)"><path fill="none" stroke="#000000" d="M 484 616.5 C 484 609.59644 489.59644 604 496.5 604 C 503.40356 604 509 609.59644 509 616.5 C 509 623.40356 503.40356 629 496.5 629 C 489.59644 629 484 623.40356 484 616.5 Z" stroke-miterlimit="10"/></g><g transform="translate(-206,-22) scale(1,1)"><path fill="#000000" stroke="none" d="M 489 616.5 C 489 612.357864 492.357864 609 496.5 609 C 500.642136 609 504 612.357864 504 616.5 C 504 620.642136 500.642136 624 496.5 624 C 492.357864 624 489 620.642136 489 616.5 Z"/></g><g transform="translate(-206,-22) scale(1,1)"><path fill="none" stroke="#ff007f" d="M 411 616 L 483 616" stroke-miterlimit="10"/></g><g transform="translate(-206,-22) scale(1,1)"><path fill="none" stroke="#ff007f" d="M 472.83732514237585 620.209517756016 L 483 616 L 472.83732514237585 611.790482243984" stroke-miterlimit="10"/></g><g transform="translate(-206,-22) scale(1,1)"><path fill="none" stroke="#ff007f" d="M 719 548 L 768 548 L 768 452 L 552 452" stroke-miterlimit="10"/></g><g transform="translate(-206,-22) scale(1,1)"><path fill="none" stroke="#ff007f" d="M 562.1626748576241 447.790482243984 L 552 452 L 562.1626748576241 456.209517756016" stroke-miterlimit="10"/></g><g transform="translate(-206,-22) scale(1,1)"><g><path fill="none" stroke="none"/><text fill="#000000" stroke="none" font-family="Arial" font-size="13px" font-style="normal" font-weight="normal" text-decoration="none" x="699.5" y="504">Error connect data</text></g></g></g></svg>