<svg version="1.1" xmlns="http://www.w3.org/2000/svg" xmlns:xlink="http://www.w3.org/1999/xlink" width="596" height="468"><defs/><g><g transform="translate(-78,-22) scale(1,1)"><path fill="none" stroke="#000000" d="M 88 32 L 664 32 L 664 480 L 88 480 L 88 32" stroke-miterlimit="10"/></g><g transform="translate(-78,-22) scale(1,1)"><path fill="#ffffff" stroke="none" d="M 88 32 L 88 54 L 264.39892578125 54 L 275.39892578125 43 L 275.39892578125 32 L 88 32"/></g><g transform="translate(-78,-22) scale(1,1)"><path fill="none" stroke="#000000" d="M 88 32 L 88 54 L 264.39892578125 54 L 275.39892578125 43 L 275.39892578125 32 L 88 32 L 88 32" stroke-miterlimit="10"/></g><g transform="translate(-78,-22) scale(1,1)"><g><path fill="none" stroke="none"/><text fill="#000000" stroke="none" font-family="Arial" font-size="13px" font-style="normal" font-weight="normal" text-decoration="none" x="112.72998046875" y="48">CommunicationDiagram1</text></g></g><g transform="translate(-78,-22) scale(1,1)"><g><path fill="none" stroke="none"/><text fill="#000000" stroke="none" font-family="Arial" font-size="13px" font-style="normal" font-weight="bold" text-decoration="none" x="92.279541015625" y="48">sd</text></g></g><g transform="translate(-78,-22) scale(1,1)"><rect fill="#C0C0C0" stroke="none" x="122" y="423" width="115.20263671875" height="39" opacity="0.2"/></g><g transform="translate(-78,-22) scale(1,1)"><rect fill="#ffffff" stroke="none" x="115" y="416" width="115.20263671875" height="39"/></g><g transform="translate(-78,-22) scale(1,1)"><path fill="none" stroke="#000000" d="M 115 416 L 230.20263671875 416 L 230.20263671875 455 L 115 455 L 115 416 Z Z" stroke-miterlimit="10"/></g><g transform="translate(-78,-22) scale(1,1)"><rect fill="#ffffff" stroke="none" x="115" y="416" width="115.20263671875" height="39"/></g><g transform="translate(-78,-22) scale(1,1)"><path fill="none" stroke="#000000" d="M 115 416 L 230.20263671875 416 L 230.20263671875 455 L 115 455 L 115 416 Z Z" stroke-miterlimit="10"/></g><g transform="translate(-78,-22) scale(1,1)"><g><path fill="none" stroke="none"/><text fill="#000000" stroke="none" font-family="Arial" font-size="13px" font-style="normal" font-weight="bold" text-decoration="none" x="153.450439453125" y="434">dealer</text></g></g><g transform="translate(-78,-22) scale(1,1)"><g><path fill="none" stroke="none"/><text fill="#000000" stroke="none" font-family="Arial" font-size="13px" font-style="normal" font-weight="normal" text-decoration="none" x="119.5" y="449">(from Interaction1)</text></g></g><g transform="translate(-78,-22) scale(1,1)"><rect fill="#C0C0C0" stroke="none" x="467" y="431" width="176.64794921875" height="39" opacity="0.2"/></g><g transform="translate(-78,-22) scale(1,1)"><rect fill="#ffffff" stroke="none" x="460" y="424" width="176.64794921875" height="39"/></g><g transform="translate(-78,-22) scale(1,1)"><path fill="none" stroke="#000000" d="M 460 424 L 636.64794921875 424 L 636.64794921875 463 L 460 463 L 460 424 Z Z" stroke-miterlimit="10"/></g><g transform="translate(-78,-22) scale(1,1)"><rect fill="#ffffff" stroke="none" x="460" y="424" width="176.64794921875" height="39"/></g><g transform="translate(-78,-22) scale(1,1)"><path fill="none" stroke="#000000" d="M 460 424 L 636.64794921875 424 L 636.64794921875 463 L 460 463 L 460 424 Z Z" stroke-miterlimit="10"/></g><g transform="translate(-78,-22) scale(1,1)"><g><path fill="none" stroke="none"/><text fill="#000000" stroke="none" font-family="Arial" font-size="13px" font-style="normal" font-weight="bold" text-decoration="none" x="464.5" y="442">Database: Database Server</text></g></g><g transform="translate(-78,-22) scale(1,1)"><g><path fill="none" stroke="none"/><text fill="#000000" stroke="none" font-family="Arial" font-size="13px" font-style="normal" font-weight="normal" text-decoration="none" x="495.22265625" y="457">(from Interaction1)</text></g></g><g transform="translate(-78,-22) scale(1,1)"><path fill="none" stroke="#000000" d="M 231 436 L 459 441" stroke-miterlimit="10"/></g><g transform="translate(-78,-22) scale(1,1)"><path fill="none" stroke="#000000" d="M 365 429 L 326 428" stroke-miterlimit="10"/></g><g transform="translate(-78,-22) scale(1,1)"><path fill="#000000" stroke="none" d="M 353 433 L 365 429 L 354 424"/></g><g transform="translate(-78,-22) scale(1,1)"><g><path fill="none" stroke="none"/><text fill="#000000" stroke="none" font-family="Arial" font-size="13px" font-style="normal" font-weight="normal" text-decoration="none" x="253.8173828125" y="411.5">4 : check for product availability</text></g></g><g transform="translate(-78,-22) scale(1,1)"><path fill="none" stroke="#000000" d="M 544 424 L 544 403 L 640 403 L 640 443 L 637 443" stroke-miterlimit="10"/></g><g transform="translate(-78,-22) scale(1,1)"><path fill="none" stroke="#000000" d="M 649 438 L 649 398" stroke-miterlimit="10"/></g><g transform="translate(-78,-22) scale(1,1)"><path fill="#000000" stroke="none" d="M 644 426 L 649 438 L 653 426"/></g><g transform="translate(-78,-22) scale(1,1)"><g><path fill="none" stroke="none"/><text fill="#000000" stroke="none" font-family="Arial" font-size="13px" font-style="normal" font-weight="normal" text-decoration="none" x="601.122314453125" y="393">5 : upd</text></g></g><g transform="translate(-78,-22) scale(1,1)"><path fill="none" stroke="#000000" d="M 459 441 L 231 436" stroke-miterlimit="10"/></g><g transform="translate(-78,-22) scale(1,1)"><path fill="none" stroke="#000000" d="M 325 447 L 364 447" stroke-miterlimit="10"/></g><g transform="translate(-78,-22) scale(1,1)"><path fill="#000000" stroke="none" d="M 336 442 L 325 447 L 336 451"/></g><g transform="translate(-78,-22) scale(1,1)"><g><path fill="none" stroke="none"/><text fill="#000000" stroke="none" font-family="Arial" font-size="13px" font-style="normal" font-weight="normal" text-decoration="none" x="287.938720703125" y="467">6 : product avilable</text></g></g><g transform="translate(-78,-22) scale(1,1)"><rect fill="#C0C0C0" stroke="none" x="110" y="80" width="138.29541015625" height="39" opacity="0.2"/></g><g transform="translate(-78,-22) scale(1,1)"><rect fill="#ffffff" stroke="none" x="103" y="73" width="138.29541015625" height="39"/></g><g transform="translate(-78,-22) scale(1,1)"><path fill="none" stroke="#000000" d="M 103 73 L 241.29541015625 73 L 241.29541015625 112 L 103 112 L 103 73 Z Z" stroke-miterlimit="10"/></g><g transform="translate(-78,-22) scale(1,1)"><rect fill="#ffffff" stroke="none" x="103" y="73" width="138.29541015625" height="39"/></g><g transform="translate(-78,-22) scale(1,1)"><path fill="none" stroke="#000000" d="M 103 73 L 241.29541015625 73 L 241.29541015625 112 L 103 112 L 103 73 Z Z" stroke-miterlimit="10"/></g><g transform="translate(-78,-22) scale(1,1)"><g><path fill="none" stroke="none"/><text fill="#000000" stroke="none" font-family="Arial" font-size="13px" font-style="normal" font-weight="bold" text-decoration="none" x="107.5" y="91">Customer: Customer</text></g></g><g transform="translate(-78,-22) scale(1,1)"><g><path fill="none" stroke="none"/><text fill="#000000" stroke="none" font-family="Arial" font-size="13px" font-style="normal" font-weight="normal" text-decoration="none" x="119.04638671875" y="106">(from Interaction1)</text></g></g><g transform="translate(-78,-22) scale(1,1)"><rect fill="#C0C0C0" stroke="none" x="473" y="80" width="165.76806640625" height="39" opacity="0.2"/></g><g transform="translate(-78,-22) scale(1,1)"><rect fill="#ffffff" stroke="none" x="466" y="73" width="165.76806640625" height="39"/></g><g transform="translate(-78,-22) scale(1,1)"><path fill="none" stroke="#000000" d="M 466 73 L 631.76806640625 73 L 631.76806640625 112 L 466 112 L 466 73 Z Z" stroke-miterlimit="10"/></g><g transform="translate(-78,-22) scale(1,1)"><rect fill="#ffffff" stroke="none" x="466" y="73" width="165.76806640625" height="39"/></g><g transform="translate(-78,-22) scale(1,1)"><path fill="none" stroke="#000000" d="M 466 73 L 631.76806640625 73 L 631.76806640625 112 L 466 112 L 466 73 Z Z" stroke-miterlimit="10"/></g><g transform="translate(-78,-22) scale(1,1)"><g><path fill="none" stroke="none"/><text fill="#000000" stroke="none" font-family="Arial" font-size="13px" font-style="normal" font-weight="bold" text-decoration="none" x="470.5" y="91">Shopkeeper: Shopkeeper</text></g></g><g transform="translate(-78,-22) scale(1,1)"><g><path fill="none" stroke="none"/><text fill="#000000" stroke="none" font-family="Arial" font-size="13px" font-style="normal" font-weight="normal" text-decoration="none" x="495.78271484375" y="106">(from Interaction1)</text></g></g><g transform="translate(-78,-22) scale(1,1)"><path fill="none" stroke="#000000" d="M 242 92 L 465 92" stroke-miterlimit="10"/></g><g transform="translate(-78,-22) scale(1,1)"><path fill="none" stroke="#000000" d="M 465 92 L 242 92" stroke-miterlimit="10"/></g><g transform="translate(-78,-22) scale(1,1)"><path fill="none" stroke="#000000" d="M 525 113 L 194 415" stroke-miterlimit="10"/></g><g transform="translate(-78,-22) scale(1,1)"><path fill="none" stroke="#000000" d="M 194 415 L 525 113" stroke-miterlimit="10"/></g><g transform="translate(-78,-22) scale(1,1)"><path fill="none" stroke="#000000" d="M 242 92 L 465 92" stroke-miterlimit="10"/></g><g transform="translate(-78,-22) scale(1,1)"><path fill="none" stroke="#000000" d="M 548 113 L 548 423" stroke-miterlimit="10"/></g><g transform="translate(-78,-22) scale(1,1)"><path fill="none" stroke="#000000" d="M 548 423 L 548 113" stroke-miterlimit="10"/></g><g transform="translate(-78,-22) scale(1,1)"><path fill="none" stroke="#000000" d="M 465 92 L 242 92" stroke-miterlimit="10"/></g><g transform="translate(-78,-22) scale(1,1)"><path fill="none" stroke="#000000" d="M 242 92 L 465 92" stroke-miterlimit="10"/></g><g transform="translate(-78,-22) scale(1,1)"><path fill="none" stroke="#000000" d="M 373 82 L 333 82" stroke-miterlimit="10"/></g><g transform="translate(-78,-22) scale(1,1)"><path fill="#000000" stroke="none" d="M 361 86 L 373 82 L 361 77"/></g><g transform="translate(-78,-22) scale(1,1)"><g><path fill="none" stroke="none"/><text fill="#000000" stroke="none" font-family="Arial" font-size="13px" font-style="normal" font-weight="normal" text-decoration="none" x="297.81005859375" y="76">1 : request for item</text></g></g><g transform="translate(-78,-22) scale(1,1)"><path fill="none" stroke="#000000" d="M 332 102 L 372 102" stroke-miterlimit="10"/></g><g transform="translate(-78,-22) scale(1,1)"><path fill="#000000" stroke="none" d="M 343 97 L 332 102 L 343 106"/></g><g transform="translate(-78,-22) scale(1,1)"><g><path fill="none" stroke="none"/><text fill="#000000" stroke="none" font-family="Arial" font-size="13px" font-style="normal" font-weight="normal" text-decoration="none" x="295.715087890625" y="122">2 : enter the details</text></g></g><g transform="translate(-78,-22) scale(1,1)"><path fill="none" stroke="#000000" d="M 351 285 L 380 258" stroke-miterlimit="10"/></g><g transform="translate(-78,-22) scale(1,1)"><path fill="#000000" stroke="none" d="M 355 274 L 351 285 L 362 280"/></g><g transform="translate(-78,-22) scale(1,1)"><g><path fill="none" stroke="none"/><text fill="#000000" stroke="none" font-family="Arial" font-size="13px" font-style="normal" font-weight="normal" text-decoration="none" x="368.98095703125" y="290">3 : send for</text><text fill="#000000" stroke="none" font-family="Arial" font-size="13px" font-style="normal" font-weight="normal" text-decoration="none" x="389.220458984375" y="303">item</text></g></g><g transform="translate(-78,-22) scale(1,1)"><path fill="none" stroke="#000000" d="M 367 243 L 338 269" stroke-miterlimit="10"/></g><g transform="translate(-78,-22) scale(1,1)"><path fill="#000000" stroke="none" d="M 361 253 L 367 243 L 355 246"/></g><g transform="translate(-78,-22) scale(1,1)"><g><path fill="none" stroke="none"/><text fill="#000000" stroke="none" font-family="Arial" font-size="13px" font-style="normal" font-weight="normal" text-decoration="none" x="282.98095703125" y="241.5">7 : send for</text><text fill="#000000" stroke="none" font-family="Arial" font-size="13px" font-style="normal" font-weight="normal" text-decoration="none" x="294.175048828125" y="254.5">quation</text></g></g><g transform="translate(-78,-22) scale(1,1)"><path fill="none" stroke="#000000" d="M 558 287 L 558 247" stroke-miterlimit="10"/></g><g transform="translate(-78,-22) scale(1,1)"><path fill="#000000" stroke="none" d="M 553 275 L 558 287 L 562 275"/></g><g transform="translate(-78,-22) scale(1,1)"><g><path fill="none" stroke="none"/><text fill="#000000" stroke="none" font-family="Arial" font-size="13px" font-style="normal" font-weight="normal" text-decoration="none" x="566.707763671875" y="267">9 : order item</text></g></g><g transform="translate(-78,-22) scale(1,1)"><path fill="none" stroke="#000000" d="M 538 247 L 538 287" stroke-miterlimit="10"/></g><g transform="translate(-78,-22) scale(1,1)"><path fill="#000000" stroke="none" d="M 542 258 L 538 247 L 533 258"/></g><g transform="translate(-78,-22) scale(1,1)"><g><path fill="none" stroke="none"/><text fill="#000000" stroke="none" font-family="Arial" font-size="13px" font-style="normal" font-weight="normal" text-decoration="none" x="465.471435546875" y="267">10 : update</text><text fill="#000000" stroke="none" font-family="Arial" font-size="13px" font-style="normal" font-weight="normal" text-decoration="none" x="475.602294921875" y="280">delivery</text><text fill="#000000" stroke="none" font-family="Arial" font-size="13px" font-style="normal" font-weight="normal" text-decoration="none" x="479.2109375" y="293">details</text></g></g><g transform="translate(-78,-22) scale(1,1)"><path fill="none" stroke="#000000" d="M 332 102 L 372 102" stroke-miterlimit="10"/></g><g transform="translate(-78,-22) scale(1,1)"><path fill="#000000" stroke="none" d="M 343 97 L 332 102 L 343 106"/></g><g transform="translate(-78,-22) scale(1,1)"><g><path fill="none" stroke="none"/><text fill="#000000" stroke="none" font-family="Arial" font-size="13px" font-style="normal" font-weight="normal" text-decoration="none" x="290.95068359375" y="139">11 : product delivery</text></g></g><g transform="translate(-78,-22) scale(1,1)"><path fill="none" stroke="#000000" d="M 373 82 L 333 82" stroke-miterlimit="10"/></g><g transform="translate(-78,-22) scale(1,1)"><path fill="#000000" stroke="none" d="M 361 86 L 373 82 L 361 77"/></g><g transform="translate(-78,-22) scale(1,1)"><g><path fill="none" stroke="none"/><text fill="#000000" stroke="none" font-family="Arial" font-size="13px" font-style="normal" font-weight="normal" text-decoration="none" x="287.69189453125" y="59">8 : request for delivary</text></g></g></g></svg>